<svg id="part-arms3" data-name="Layer 1" xmlns="http://www.w3.org/2000/svg" viewBox="0 0 526 306">
  <defs>
    <style>
      .cls-102 {
        fill: #fff;
      }
    </style>
  </defs>
  <g>
    <g>
      <path class="cls-102" d="M82.11,263.78A6.27,6.27,0,0,1,76.05,260C67.8,241.4,61.43,154.71,62.8,129.36c1-18,6.5-32.71,16-42.55a43.93,43.93,0,0,1,32-13.42c.6,0,1.19,0,1.79,0a6.86,6.86,0,0,0,2.3.89,7,7,0,0,0,.75.12c2.52,2.16,4.54,5.86,2.74,9.85-1.19,2.63-4,4.61-6.61,6.21C98.05,94,87.31,101.9,83,111.67c-4.76,10.81-1.15,79.22.6,98.51.22,2.35.41,4.81.6,7.34,1,12.22,2,26.07,6.35,36.62a5.81,5.81,0,0,1-.56,5.65,9.9,9.9,0,0,1-7.88,4Z"/>
      <path d="M110.76,73.89c.55,0,1.1,0,1.64,0a7.36,7.36,0,0,0,2.48.9l.5.09c2.34,2,4.17,5.48,2.51,9.17-1.13,2.48-3.83,4.39-6.35,5.94-13.8,3.54-24.63,11.55-29,21.45-5.16,11.7-.78,84.11.55,98.75.22,2.35.41,4.78.61,7.35,1,12.25,2,26.14,6.38,36.76a5.33,5.33,0,0,1-.51,5.18,9.39,9.39,0,0,1-7.47,3.77,5.79,5.79,0,0,1-5.6-3.44C68.28,241.24,61.93,154.7,63.3,129.39c1-17.88,6.44-32.48,15.82-42.23a43.4,43.4,0,0,1,31.64-13.27h0m0-1c-23.82,0-46.33,17.38-48.45,56.44-1.38,25.41,5,112.21,13.28,130.91a6.76,6.76,0,0,0,6.52,4c5.33,0,11.24-4.63,8.9-10.33-5.18-12.65-5.67-30.17-6.91-43.82-1.68-18.53-5.41-87.44-.64-98.26S100.09,94,111.93,91c2.89-1.76,5.66-3.79,6.87-6.46,1.78-3.95.07-8-3-10.54l-.79-.1.45,0a6.29,6.29,0,0,1-2.77-1c-.65,0-1.3,0-1.94,0Z"/>
    </g>
    <g>
      <path class="cls-102" d="M127.77,262.77a9.07,9.07,0,0,1-4.08-1C112.51,256.18,110.86,245.9,110,234l0-.36-.35-.09c-8.42-2.13-16.9-3.59-25.09-5-17.41-3-33.84-5.83-50.53-14.52-10.7-5.57-19.91-25.61-3.07-89.45A664.73,664.73,0,0,1,58.28,44.3c8-17.53,21.91-26.06,42.5-26.06a129,129,0,0,1,14.19,1c5.72.62,7.08,4.54,7.38,6.83.69,5.22-2.56,11.48-6.82,13.14a3.72,3.72,0,0,1-1.44.24,20.29,20.29,0,0,1-4.16-.71,42,42,0,0,0-10.14-1.37A39.83,39.83,0,0,0,90,38.59l0-.18-.61.31,0,0-.19,0,0,0c-17,8.63-23.61,26.32-30,46.85-6.26,20.17-9.39,34.29-12.41,47.94-2.34,10.59-4.55,20.58-8.08,32.87-6.81,23.67-.38,31.63,21.12,42.2,11.1,5.45,23.45,6.79,35.4,8.1,4.42.48,9,1,13.42,1.68l.18,0,.16-.1c5.08-3.17,8.19-5.22,10-6.45,1.22-.8,1.95-1.29,2.44-1.56a37.57,37.57,0,0,1,18-4.39c6.61,0,12.36,1.68,16.19,4.73a6.19,6.19,0,0,1,2.44,5.24,9.79,9.79,0,0,1-4.18,7.3,27.11,27.11,0,0,1-16.14,5.23h0a48.52,48.52,0,0,1-7-.58l-.71-.11.15.7c.55,2.63,2.52,6,4.27,9a26.08,26.08,0,0,1,2.69,5.29l.15.68c1.56,7.09,2.69,12.21-3.51,17A9.77,9.77,0,0,1,127.77,262.77Z"/>
      <path d="M100.78,18.74a130.66,130.66,0,0,1,14.13.94c5.11.56,6.6,3.79,7,6.4.66,5-2.44,11-6.52,12.62a3.35,3.35,0,0,1-1.25.2,20.23,20.23,0,0,1-4-.69,42.13,42.13,0,0,0-10.25-1.39A39.62,39.62,0,0,0,90.43,38l-.06-.32-1.13.58-.57.16c-.92.26-1.5.42-1.6,1C78,44.4,68.84,52.92,58.7,85.53c-6.27,20.19-9.39,34.32-12.42,48-2.34,10.57-4.55,20.56-8.07,32.83-6.9,24-.4,32.09,21.38,42.79,11.17,5.49,23.57,6.84,35.56,8.14,4.42.48,9,1,13.4,1.68l.37.06.32-.2c5.08-3.17,8.19-5.23,10.05-6.45,1.21-.8,1.94-1.28,2.41-1.55a37.54,37.54,0,0,1,17.75-4.32c6.5,0,12.14,1.64,15.88,4.62a5.69,5.69,0,0,1,2.25,4.83,9.26,9.26,0,0,1-4,6.91A26.59,26.59,0,0,1,137.76,228a47.65,47.65,0,0,1-7-.58l-1.42-.2.3,1.4c.56,2.7,2.56,6.12,4.33,9.13a26.93,26.93,0,0,1,2.64,5.15l.14.68c1.58,7.17,2.62,11.9-3.32,16.5a9.27,9.27,0,0,1-5.69,2.19,8.75,8.75,0,0,1-3.86-1C113,255.84,111.34,245.7,110.46,234l-.06-.72-.7-.18c-8.44-2.13-16.92-3.59-25.13-5-17.36-3-33.76-5.82-50.38-14.47-19.09-9.94-12.07-53.82-2.82-88.88A666.08,666.08,0,0,1,58.73,44.51c4.46-9.77,10.89-16.83,19.09-21,6.38-3.22,13.89-4.79,23-4.79h0m0-1c-15.23,0-32.88,4.28-43,26.35C54.69,51-4.12,194.8,33.73,214.51c24.92,13,50.07,13.08,75.73,19.55.85,11.18,2.34,22.32,14,28.13a9.53,9.53,0,0,0,4.3,1.08,10.28,10.28,0,0,0,6.3-2.4c6.65-5.14,5.18-10.72,3.54-18.18-.6-2.73-6-9.78-7-14.28a49.63,49.63,0,0,0,7.12.59,27.47,27.47,0,0,0,16.42-5.32c4.21-2.87,6.5-9.59,1.78-13.34-4.22-3.36-10.28-4.84-16.51-4.84A38.37,38.37,0,0,0,121.2,210c-1.28.72-4.17,2.83-12.49,8-16.4-2.58-33.57-2.31-48.67-9.73-21.21-10.42-27.67-18-20.87-41.61,8.14-28.32,9.42-45.18,20.49-80.8C66.39,64.19,73.23,47.51,89.4,39.28c-1,.25-1.31.33-1.33.33s1.44-.41,1.54-.44h0l-.21.11.4-.11a39.24,39.24,0,0,1,10-1.35c6.95,0,11.31,2.08,14.3,2.08a4.44,4.44,0,0,0,1.62-.27c7.81-3,11.6-19.61-.69-20.94a130,130,0,0,0-14.24-1Z"/>
    </g>
    <g>
      <path class="cls-102" d="M487.35,127.34c-5.15,0-10.25-.39-14.35-.7-2.06-.16-3.83-.3-5.35-.37-1,0-2.15-.07-3.45-.07-2.57,0-5.41.09-8.41.19-3.38.11-6.87.23-10.43.23-11.11,0-24.72-1.05-31.44-9.21a182.42,182.42,0,0,1-12.57-18c-2.29-3.58-4.66-7.27-7.18-10.85a46,46,0,0,0-7.65-7.76l-1.38-1.2-.32.21a7.13,7.13,0,0,1-2.23,1c-2.74.71-5.47,1.66-8.1,2.58-5.14,1.8-10.46,3.66-15.87,3.66a22.24,22.24,0,0,1-5.37-.64c-2.78-.7-5.67-3.85-5.37-7,1.19-12.64,8.87-19.29,22.82-19.75l.84,0-.43-.73c-1.83-3.13-3.75-6.24-5.61-9.25s-3.92-6.36-5.88-9.7c-2.47-4.2-4.45-10.29-3.3-14.43,1.56-5.7,5.76-9.09,11.22-9.09a14.2,14.2,0,0,1,8.64,3.1c9.44,7.37,11.07,17.2,12.79,27.61a92.79,92.79,0,0,0,2.9,13.39l0,.06,0,0c8,12.47,17.11,24.83,25,35.27,10.32,13.67,21.32,13.85,35.24,14.09,2.72,0,5.53.09,8.5.24.93,0,1.91.1,2.92.16,3.38.18,7.21.39,11,.39,7.75,0,18.57-.76,23-7.33,2.89-4.3,2.66-10.6-.68-18.74-3.7-9-8.94-17.06-14-24.79a186.13,186.13,0,0,1-11.3-18.83,81.38,81.38,0,0,1-4-10.58,74.34,74.34,0,0,0-4.41-11.26,1.16,1.16,0,0,1,0-1.14,1,1,0,0,1,.86-.52,1.18,1.18,0,0,1,.31.05c10.35,3.09,18,15,24.71,25.57,2,3.08,3.83,6,5.63,8.46,12.34,16.94,25.87,39.3,21,62-2,9.22-11.26,13.7-28.33,13.7Z"/>
      <path d="M367.54,16.94a13.62,13.62,0,0,1,8.33,3c9.29,7.24,10.9,17,12.6,27.3a94.24,94.24,0,0,0,2.92,13.45l0,.12.07.11c8,12.48,17.12,24.85,25,35.3,10.46,13.86,21.57,14,35.64,14.29,2.71,0,5.52.09,8.47.24l2.92.15c3.39.19,7.22.4,11.05.4,7.86,0,18.85-.78,23.39-7.55,3-4.44,2.77-10.91-.63-19.21-3.73-9.1-9-17.12-14.07-24.88A186,186,0,0,1,472,40.89a82.27,82.27,0,0,1-4-10.52A72.59,72.59,0,0,0,463.59,19a.65.65,0,0,1,0-.65.51.51,0,0,1,.43-.28.45.45,0,0,1,.16,0c10.18,3,17.76,14.9,24.44,25.36,2,3.09,3.84,6,5.65,8.48,12.27,16.86,25.74,39.1,20.89,61.56-1.94,8.95-11,13.3-27.84,13.3-5.13,0-10.22-.39-14.31-.7-2.06-.16-3.84-.3-5.37-.37-1,0-2.17-.07-3.47-.07-2.58,0-5.42.09-8.43.19-3.37.11-6.86.23-10.41.23-11,0-24.47-1-31.06-9a184.92,184.92,0,0,1-12.53-17.91c-2.29-3.58-4.67-7.27-7.19-10.86a45.5,45.5,0,0,0-7.73-7.85l-1.1-1-.56-.5-.64.41a6.81,6.81,0,0,1-2.09.93c-2.75.71-5.49,1.67-8.14,2.59-5.33,1.87-10.37,3.63-15.7,3.63a21.75,21.75,0,0,1-5.25-.63c-2.58-.65-5.27-3.56-5-6.5,1.16-12.34,8.68-18.84,22.33-19.3l1.68,0-.85-1.45c-1.84-3.14-3.76-6.26-5.62-9.28S362,43,360.05,39.7c-2.34-4-4.35-10.06-3.25-14,1.5-5.46,5.52-8.72,10.74-8.72h0m0-1c-5.15,0-10,3.08-11.7,9.45-1.26,4.54,1.08,11,3.34,14.82,3.88,6.61,7.79,12.62,11.5,19-11.58.39-21.89,5.24-23.3,20.2-.32,3.35,2.62,6.78,5.75,7.56a22.75,22.75,0,0,0,5.49.66c8.27,0,16-4.16,24.09-6.25a8.06,8.06,0,0,0,2.39-1.06c3.15,2.76,6.43,5.43,8.66,8.62,6.76,9.62,12.21,19.65,19.77,28.83,6.57,8,19.41,9.39,31.83,9.39,6.77,0,13.41-.42,18.84-.42,1.21,0,2.35,0,3.42.07,4.65.22,12.06,1.07,19.73,1.07,12.79,0,26.29-2.38,28.81-14.09C521,91.27,507.94,69,495.1,51.39c-7.84-10.77-17-30.13-30.6-34.21a1.5,1.5,0,0,0-.45-.07,1.63,1.63,0,0,0-1.34,2.4c3.38,6.3,5.08,15.06,8.43,21.83,7.58,15.2,18.75,27.56,25.3,43.58,9,22-6.48,25.38-21.83,25.38-4.93,0-9.83-.35-13.92-.55-18.4-.9-31.23,1.94-43.36-14.13-8.43-11.14-17.22-23.06-25-35.24-4.62-14.34-2.1-30.5-15.85-41.23a14.64,14.64,0,0,0-8.95-3.21Z"/>
    </g>
    <g>
      <path class="cls-102" d="M383.72,297.13a11,11,0,0,1-8.8-4.25,7.23,7.23,0,0,1-.94-6.81,51.25,51.25,0,0,1,6.63-13.45c3.5-7,7-12.32,12.94-15.74a10,10,0,0,1,4.91-1.24,9.66,9.66,0,0,1,4.85,1.24,83.67,83.67,0,0,0,7.69,3.89l.08,0h.1l.52,0h1l-.63-.81c-5-6.41-10.94-13.37-12.74-15.07a71.81,71.81,0,0,0-6.55-5.32c-4.1-3.07-8-6-10.42-10.12l.05,0-.28-.44a6.54,6.54,0,0,1-.06-6.8,8.83,8.83,0,0,1,7.41-4.56,7.16,7.16,0,0,1,5.24,2.37c4,4.24,8.63,8.33,13.51,12.65,12.12,10.75,24.66,21.87,28.77,36.08l.08.3.31.05a59.13,59.13,0,0,0,10.49,1,32.25,32.25,0,0,0,7.49-.79l.11,0,.09-.07,2.33-.64a17.11,17.11,0,0,0,2.91-.87l.05,0,0,0c2.23-2.36,1.91-29.93,1.23-59.36-.06-2.48-.11-4.52-.13-6-.12-6.41-.63-17.81-1-27-.33-7.39-.62-13.78-.57-14.8l0-.45-.45-.07c-8.33-1.19-11.71-6.27-12.55-7.8a17.47,17.47,0,0,1-.83-13.68,12.84,12.84,0,0,1,6.81-7.92,20.43,20.43,0,0,1,8-1.79,15.52,15.52,0,0,1,11.24,4.94c6.76,6.79,10.27,19.68,10.24,28.89,0,6.33.24,22.28.51,39.16.43,27.22.92,58.07.49,60.5-1.74,17.4-10.7,25.48-28.18,25.48h0c-1.1,0-2.24,0-3.41-.09-16.46-.9-48.33-9.24-49.6-9.86l-.21-.1-.22.09a13.72,13.72,0,0,0-2.82,1.68l-.1.07,0,.11c-1.46,2.9-3.27,5.78-5,8.56-.94,1.49-1.91,3-2.79,4.54A8.7,8.7,0,0,1,383.72,297.13Z"/>
      <path d="M461.4,129.4a15,15,0,0,1,10.88,4.8c6.67,6.69,10.13,19.42,10.1,28.53,0,6.33.24,22.3.51,39.2.41,25.84.92,58,.5,60.38v.07c-1.73,17.28-10.27,25-27.68,25-1.09,0-2.23,0-3.38-.09-16.82-.91-48-9.21-49.4-9.8l-.42-.22-.44.19a15.06,15.06,0,0,0-2.93,1.74l-.18.14-.11.21c-1.44,2.89-3.25,5.75-5,8.53-.94,1.49-1.91,3-2.81,4.54a8.2,8.2,0,0,1-7.32,4,10.48,10.48,0,0,1-8.39-4,6.76,6.76,0,0,1-.88-6.36A50.42,50.42,0,0,1,381,272.91l.05-.07,0-.07c3.42-6.85,6.89-12.1,12.7-15.45a9.43,9.43,0,0,1,4.66-1.18,9.24,9.24,0,0,1,4.6,1.17,82.07,82.07,0,0,0,7.73,3.91l.17.08h.19l.55,0h2.05l-1.26-1.61a197.43,197.43,0,0,0-12.79-15.13,71.11,71.11,0,0,0-6.59-5.36c-3.93-2.95-7.65-5.74-10.06-9.6l.05,0-.51-.82a6,6,0,0,1,0-6.3,8.25,8.25,0,0,1,7-4.29,6.62,6.62,0,0,1,4.87,2.21c4.05,4.25,8.66,8.34,13.55,12.68,12.07,10.7,24.55,21.77,28.62,35.84l.17.6.61.11a61,61,0,0,0,10.58,1,32.72,32.72,0,0,0,7.61-.81l.22-.05.06-.05c.35-.11,1.45-.41,2.28-.64a14.18,14.18,0,0,0,3-.93l.1-.06.07-.09c1.95-2.06,2.32-18.25,1.37-59.71-.06-2.48-.11-4.52-.13-6-.12-6.41-.63-17.81-1-27-.33-7.38-.62-13.76-.57-14.76l0-.91-.9-.12c-8.1-1.16-11.37-6.07-12.18-7.55a16.92,16.92,0,0,1-.8-13.28,12.34,12.34,0,0,1,6.54-7.62,20,20,0,0,1,7.78-1.75m0-1a20.86,20.86,0,0,0-8.17,1.83c-7.84,3.36-10.19,15.08-6.23,22.31,1.84,3.34,6.09,7.07,12.92,8.05-.11,2.33,1.4,30.15,1.61,41.79s1.77,62.07-1,65c-.25.17-5.09,1.39-5.27,1.53a31.83,31.83,0,0,1-7.38.78,59.19,59.19,0,0,1-10.4-1c-5.8-20-28.26-34-42.4-48.93a7.61,7.61,0,0,0-5.6-2.52c-5.78,0-11.2,6.63-7.77,12.12h0c3.82,6.87,11.54,10.51,17.32,16,1.66,1.58,7.54,8.39,12.68,15l-.5,0a83.79,83.79,0,0,1-7.64-3.86,10.06,10.06,0,0,0-5.1-1.31,10.42,10.42,0,0,0-5.16,1.31c-6.38,3.68-10,9.61-13.09,15.87a51.36,51.36,0,0,0-6.7,13.59c-2.28,6.7,4.05,11.72,10.21,11.72a9.18,9.18,0,0,0,8.19-4.51c2.52-4.27,5.57-8.63,7.83-13.13a13.36,13.36,0,0,1,2.73-1.62c1.24.63,33.13,9,49.79,9.9,1.19.07,2.34.1,3.44.1,20,0,27.12-10.4,28.68-25.89.7-4.05-1-83.37-1-99.74,0-12.17-6.42-34.34-22-34.34Z"/>
    </g>
  </g>
</svg>
