<svg id="Layer_1" data-name="Layer 1" xmlns="http://www.w3.org/2000/svg" viewBox="0 0 492 387">
  <defs>
    <style>
      .cls-1 {
        fill: #fff;
      }
    </style>
  </defs>
  <g>
    <g>
      <path class="cls-1" d="M78.49,373.81c-21.71,0-42.78-33.67-49.23-51.7C-3.58,230.33,14.51,139.2,80.21,65.49l.09-.1,0-.14c.28-1.59.62-3.46,1.11-5.37a23.56,23.56,0,0,0,.24-7.54c-.22-2.93-.43-5.7.55-8.34C85.91,34.07,89,30.2,97,25.15a3.87,3.87,0,0,1,2-.59,4,4,0,0,1,3.76,2.71c1.8,5.15,1.64,9.39-.5,13.34l-1.67,3.09,2.47-2.5a124.81,124.81,0,0,1,10.69-9.83c5.64-4.52,14.62-7.44,22.89-7.44a26.77,26.77,0,0,1,12.08,2.58c3.43,1.74,4.49,7.66,3.51,12.14-.41,1.89-1.83,6.31-6,6.48-.72,0-1.44,0-2.15,0-2.17,0-4.36-.12-6.48-.23s-4.19-.23-6.24-.23c-4,0-9.09.38-13.7,3.32l-3.14,2,3.56-1.11a21.61,21.61,0,0,1,5.5-1c2.65-.12,4.75-.18,6.62-.18,12.28,0,21.58,2.47,27,14.52.06.11.1.21.14.3l.24.5c0,.12.11.23.16.36a.79.79,0,0,1,0,.13l.05.15c.38.94.68,1.76.91,2.53a5.84,5.84,0,0,1,.07,2.94v.12c.06,3.91-1,7.32-2.74,9.13A4.92,4.92,0,0,1,152.54,80h0a9.12,9.12,0,0,1-3.92-1c-5.29-2.55-8.53-4.77-11.55-9.81-2.78-4.64-6.22-6.72-11.13-6.72a29.8,29.8,0,0,0-6,.75c-.62.14-3.67.88-6.28,1.75l-2.18.74,2.29.23a25.05,25.05,0,0,1,10.5,3.47c7.71,4.66,16.44,18,15.64,27-.55,6.13-5.14,12.74-11.62,12.74a10.58,10.58,0,0,1-5.57-1.71c-4-2.47-4.9-7.07-5.74-11.52s-1.73-9.13-5.85-11.6l-.31-.19-.28.25C108.93,85.75-32.19,240.71,77.4,368.78c-.91-.26-1.86-.59-3-1l-2.78-1.07,2.28,1.92c4.12,3.48,4.41,3.51,4.67,3.51H79l.13-.39a.51.51,0,0,1,.53-.4.68.68,0,0,1,.67.48l.23.88a.81.81,0,0,1-.12.69,1,1,0,0,1-.76.4C79.28,373.8,78.89,373.81,78.49,373.81Z"/>
      <path d="M136.72,24.43A26.29,26.29,0,0,1,148.57,27c3.11,1.59,4.2,7.28,3.25,11.59-.39,1.78-1.71,5.94-5.54,6.1-.68,0-1.37,0-2.12,0-2.15,0-4.34-.12-6.45-.23s-4.2-.23-6.27-.23c-4,0-9.25.39-14,3.4l-6.28,4,7.12-2.21a20.68,20.68,0,0,1,5.38-1c2.63-.12,4.73-.18,6.59-.18,12.09,0,21.23,2.42,26.59,14.27l.12.26.08.18.15.32c.06.11.11.22.17.36l0,.07.07.21a26.17,26.17,0,0,1,.89,2.47,5.28,5.28,0,0,1,.06,2.68l0,.12v.12c.06,3.78-.91,7.05-2.59,8.77a4.47,4.47,0,0,1-3.28,1.37,8.66,8.66,0,0,1-3.71-1c-5.2-2.51-8.38-4.68-11.33-9.62s-6.45-7-11.56-7a30.17,30.17,0,0,0-6,.74h0l-.11,0,.13.59-.16-.58c-.82.2-3.73.9-6.28,1.76l-4.36,1.47,4.58.47A24.66,24.66,0,0,1,124,69.78c3.7,2.24,7.74,6.61,10.82,11.68,3.27,5.4,4.94,10.82,4.58,14.87-.67,7.58-6.3,12.27-11.12,12.27a10.07,10.07,0,0,1-5.31-1.62c-3.84-2.36-4.65-6.65-5.51-11.19s-1.78-9.36-6.08-11.94l-.64-.38-.54.5c-.69.62-10,10.83-21.89,27.88-10.61,15.23-25.6,39.39-36.78,68C39,211.69,33.74,242.46,35.76,271.3c2.47,35.29,16,67.73,40.11,96.46l-1.25-.46-5.55-2.14L73.62,369c4.28,3.62,4.55,3.62,5,3.62l.79,0,.2-.74,0,0c.06,0,.17,0,.19.1l.08.3.15.58a.3.3,0,0,1,0,.28.5.5,0,0,1-.38.19c-.39,0-.77,0-1.16,0-21.46,0-42.35-33.45-48.76-51.37a271,271,0,0,1-14.58-63.5,242.46,242.46,0,0,1,2.07-65.33C25.08,147,46.4,104.17,80.58,65.82l.19-.21,0-.28c.28-1.57.62-3.44,1.1-5.33a24,24,0,0,0,.26-7.7c-.22-2.87-.42-5.58.52-8.13,3.63-9.8,6.63-13.62,14.6-18.6a3.34,3.34,0,0,1,1.78-.51,3.51,3.51,0,0,1,3.29,2.38c1.75,5,1.6,9.11-.47,12.93l-3.35,6.17,4.94-5a125.28,125.28,0,0,1,10.65-9.79c5.56-4.45,14.42-7.33,22.58-7.33m0-1c-8.42,0-17.43,2.92-23.2,7.55a126.3,126.3,0,0,0-10.74,9.87c2.37-4.37,2.26-8.81.53-13.74a4.49,4.49,0,0,0-4.23-3.05,4.39,4.39,0,0,0-2.31.66c-8.36,5.23-11.42,9.42-15,19.1-1.89,5.12.49,10.77-.81,15.94-.45,1.78-.8,3.59-1.11,5.4C7.91,145.85-.82,239.53,28.79,322.28c6.4,17.89,27.66,52,49.7,52,.41,0,.81,0,1.22,0a1.4,1.4,0,0,0,1.34-1.72c-.08-.29-.16-.58-.23-.88a1.18,1.18,0,0,0-1.16-.85,1,1,0,0,0-1,.77l0,0a30.52,30.52,0,0,1-4.36-3.39,34.39,34.39,0,0,0,3.38,1.14l.12,0a.38.38,0,0,0,.25-.66C-30.9,241.88,107.75,87.5,110.83,84.71c7.93,4.75,3.24,18,11.58,23.12a11.06,11.06,0,0,0,5.83,1.77c6.41,0,11.52-6.43,12.12-13.18.83-9.3-8.14-22.81-15.88-27.49a25.6,25.6,0,0,0-10.71-3.53c2.85-1,6.2-1.74,6.22-1.74h0a29.62,29.62,0,0,1,6-.74c4.33,0,7.79,1.61,10.7,6.47,3.1,5.18,6.43,7.44,11.76,10a9.68,9.68,0,0,0,4.14,1.09c5,0,7-5.78,6.87-11.16a6.4,6.4,0,0,0-.08-3.19,26.82,26.82,0,0,0-.93-2.56,1.51,1.51,0,0,0-.1-.3c-.09-.24-.21-.44-.31-.69s-.15-.32-.23-.49c-5.63-12.45-15.42-14.81-27.48-14.81-2.15,0-4.36.08-6.64.18a22.47,22.47,0,0,0-5.63,1c4.12-2.63,8.67-3.24,13.43-3.24,4.12,0,8.41.46,12.72.46.72,0,1.44,0,2.17,0,8.19-.33,8.93-16.39,2.7-19.57a27.35,27.35,0,0,0-12.31-2.63Z"/>
    </g>
    <g>
      <path class="cls-1" d="M397.89,359.9c-.49,0-1,0-1.48,0a1.47,1.47,0,0,1-1.13-.53.56.56,0,0,1-.07-.53s.2-.65.28-.88a1,1,0,0,1,1-.51c.15,0,.66,0,.79.43l.11.34.4,0c.24,0,.57,0,5.68-3.47l2.79-1.89-3.22,1c-1.45.45-2.68.79-3.87,1.06,36.76-34.62,54-74.5,51.3-118.55-1.56-25.36-11-66-47.22-115.46-21.53-29.44-43.35-49.19-45.14-50.5l-.25-.18-.27.13c-5.07,2.46-6.17,7.11-7.23,11.6-1.09,4.65-2.12,9-7.13,11.53a15.79,15.79,0,0,1-7,1.72,14.84,14.84,0,0,1-14.54-12.74c-1-9,9.85-22.32,19.43-27A36.63,36.63,0,0,1,354.16,52l2.83-.24L354.25,51c-2.8-.77-6-1.42-7.65-1.73l.3.52-.5.45.08-1A45.91,45.91,0,0,0,339,48.5c-6,0-10.23,2.06-13.66,6.67-3.76,5.06-7.79,7.28-14.37,9.85a13.86,13.86,0,0,1-5,1A7,7,0,0,1,300.81,64c-1.86-1.9-2.89-5-2.82-8.57v-.07l0-.07a4.75,4.75,0,0,1,.09-2.89,23.64,23.64,0,0,1,1.12-2.51,1.74,1.74,0,0,0,.1-.23,3.66,3.66,0,0,1,.22-.41,3.37,3.37,0,0,0,.19-.32l.08-.15a3.37,3.37,0,0,1,.19-.32c6.79-12.1,18.38-14.58,33.69-14.58,2.32,0,4.93.06,8.2.18a33.86,33.86,0,0,1,6.89,1l4.16,1-3.81-2c-5.68-2.92-12-3.3-16.9-3.3-2.53,0-5.18.12-7.73.23s-5.36.23-8,.23c-.89,0-1.78,0-2.67,0-4.77-.16-7.16-4-7.8-7.55-.74-4.14.62-9.42,4.62-11.06A40.39,40.39,0,0,1,325.65,10c10.3,0,21.49,2.94,28.52,7.48a153.22,153.22,0,0,1,13.27,9.83l2.6,2.11-1.86-2.78c-2.65-3.93-2.85-8.15-.62-13.26a5.13,5.13,0,0,1,4.79-2.75,5.87,5.87,0,0,1,2.65.62c10,5,13.82,8.92,18.39,18.86,1.21,2.62.95,5.38.68,8.29a19.18,19.18,0,0,0,.3,7.58c.53,1.68.93,3.36,1.37,5.36l0,.15.12.11c42.49,38.42,69,81.33,78.76,127.52,8.94,42.26,3.71,85.67-15.54,129C451.11,326.2,424.93,359.9,397.89,359.9Z"/>
      <path d="M325.65,10.51c10.21,0,21.3,2.9,28.24,7.4a152.59,152.59,0,0,1,13.24,9.8l5.2,4.22-3.74-5.56c-2.58-3.83-2.75-7.77-.58-12.78a4.64,4.64,0,0,1,4.34-2.45,5.51,5.51,0,0,1,2.42.56c9.91,5,13.65,8.82,18.17,18.63,1.15,2.5.9,5.19.63,8a19.62,19.62,0,0,0,.32,7.77c.53,1.66.93,3.33,1.37,5.32l.07.31.23.21c42.42,38.35,68.87,81.17,78.62,127.26a195.51,195.51,0,0,1,2.56,65.26A227.08,227.08,0,0,1,458.66,308c-8,17.94-34,51.45-60.77,51.45-.49,0-1,0-1.46,0a1,1,0,0,1-.74-.31s0-.05,0-.1l.06-.17c.07-.23.15-.46.23-.7a.62.62,0,0,1,.48-.17c.19,0,.3,0,.31.09l.27.7h.72c.4,0,.72,0,6-3.55l5.57-3.78-6.42,2c-.71.22-1.37.42-2,.59,35.91-34.42,52.76-74,50.07-117.63-1.25-20.3-6.77-41.57-16.4-63.22a288.37,288.37,0,0,0-30.91-52.51C382,91.1,360.16,71.3,358.36,70l-.48-.35-.54.26c-5.3,2.56-6.42,7.33-7.5,11.94S347.77,90.63,343,93a15.18,15.18,0,0,1-6.79,1.67,14.32,14.32,0,0,1-14-12.3c-1-8.76,9.71-21.88,19.15-26.48a36.1,36.1,0,0,1,12.92-3.44l5.66-.47-5.48-1.49c-2.8-.76-6-1.41-7.67-1.73l-.11,0-.19.9.16-.91A46,46,0,0,0,339,48c-6.19,0-10.53,2.12-14.07,6.88-3.68,4.95-7.65,7.14-14.14,9.67a13.32,13.32,0,0,1-4.78,1,6.54,6.54,0,0,1-4.85-1.93c-1.77-1.8-2.74-4.79-2.68-8.21v-.15l0-.14a4.17,4.17,0,0,1,.08-2.57,23.39,23.39,0,0,1,1.07-2.42,1.83,1.83,0,0,0,.14-.32l0,0a2,2,0,0,1,.17-.29l.19-.34.09-.16c.06-.1.11-.2.2-.34,6.66-11.86,18.11-14.3,33.24-14.3,2.31,0,4.91.06,8.18.18a33.47,33.47,0,0,1,6.79,1L357,37.59l-7.63-3.93c-5.77-3-12.18-3.36-17.13-3.36-2.54,0-5.19.12-7.75.23s-5.34.23-8,.23c-.93,0-1.8,0-2.65,0-5.64-.19-7-5.51-7.32-7.14-.71-3.94.56-9,4.31-10.51a40,40,0,0,1,14.9-2.56m0-1a41,41,0,0,0-15.28,2.63c-7.73,3.18-6.81,19.24,3.36,19.58.89,0,1.79,0,2.68,0,5.35,0,10.67-.46,15.78-.46,5.92,0,11.56.61,16.67,3.24a33.84,33.84,0,0,0-7-1c-2.82-.1-5.56-.18-8.22-.18-15,0-27.12,2.36-34.12,14.82-.1.16-.18.32-.28.49s-.27.44-.4.69c0,.09-.07.19-.12.29a25.54,25.54,0,0,0-1.14,2.56,5.13,5.13,0,0,0-.1,3.19c-.1,5.38,2.34,11.16,8.53,11.16a14.18,14.18,0,0,0,5.14-1.09c6.61-2.57,10.74-4.83,14.59-10C329.36,50.61,333.65,49,339,49a45.17,45.17,0,0,1,7.39.74h0s4.17.77,7.72,1.74A37.22,37.22,0,0,0,340.84,55c-9.61,4.68-20.75,18.19-19.71,27.49a15.39,15.39,0,0,0,15,13.19,16.14,16.14,0,0,0,7.24-1.78c10.33-5.13,4.52-18.36,14.36-23.12,3.82,2.79,175.88,157.17,40.73,284-.32.3-.09.66.31.66H399c1.43-.32,2.82-.72,4.19-1.14a39.94,39.94,0,0,1-5.4,3.38l0,0a1.24,1.24,0,0,0-1.26-.77,1.46,1.46,0,0,0-1.43.85c-.1.3-.2.59-.29.88-.3.9.58,1.67,1.66,1.72.5,0,1,0,1.5,0,27.36,0,53.74-34.15,61.69-52,36.74-82.75,25.9-176.43-63.35-257.12-.4-1.81-.82-3.62-1.38-5.4-1.62-5.17,1.35-10.82-1-15.93-4.46-9.69-8.24-13.88-18.62-19.1a6.36,6.36,0,0,0-2.87-.67,5.64,5.64,0,0,0-5.25,3c-2.15,4.93-2.28,9.37.66,13.74a152.77,152.77,0,0,0-13.32-9.86c-7.17-4.64-18.34-7.56-28.79-7.56Z"/>
    </g>
  </g>
</svg>
