<svg id="part-arms2" data-name="Layer 1" xmlns="http://www.w3.org/2000/svg" viewBox="0 0 669 210">
  <defs>
    <style>
      .cls-100 {
        fill: #fff;
      }
    </style>
  </defs>
  <g>
    <g>
      <path class="cls-100" d="M34.15,188.08a6.8,6.8,0,0,1-5-2.28c-5.42-6.1-7.33-16-7.89-19.94-.26-1.81-.77-3.9-1.31-6.11-1.19-4.9-2.54-10.45-1.48-14.49,2.5-9.45,16-18.75,26.48-21.18l.27-.07.09-.26A168.22,168.22,0,0,1,52.48,107c7.2-15.24,16.47-28.49,31-44.32,27.29-29.75,64.92-49.5,106-55.62a6.16,6.16,0,0,1,.95-.07c3.41,0,5.72,2.85,6.23,5.66A5.5,5.5,0,0,1,193.16,19l-.62,0-1.41-.07-.94-.05.5.84-.27.07.44.6a7.52,7.52,0,0,1,1.1,6.88A6.12,6.12,0,0,1,187.19,31c-2.51.55-5.1,1.07-7.84,1.62-30.21,6.07-71.59,14.39-120.87,91l-.41.64.74.13c14.18,2.47,27.42,14.29,29.52,26.35a6.43,6.43,0,0,1-2.2,6.1l-1.17.85a7.27,7.27,0,0,1-4.19,1.44,6.58,6.58,0,0,1-3.52-1l-1.31-9.28-1,2.7a22.54,22.54,0,0,0-8.51-10.28l-2.38-1.65,1.69,2.35a57,57,0,0,1,8.55,17.14l.17.56c2.06,6.8,6.34,20.94-.8,25.93A11.65,11.65,0,0,1,67,187.87c-4.64,0-8.7-3.38-10.62-8.83a40.69,40.69,0,0,1-1.69-7.52l-.38-2.63-.6,2.59c-1,4.31-3.58,6.58-7.72,6.74h-.45a12.59,12.59,0,0,1-3.74-.57l-.52-.15-.11.53a39.14,39.14,0,0,1-2.25,6.87A5,5,0,0,1,34.15,188.08Z"/>
      <path d="M190.39,7.44c3.14,0,5.26,2.64,5.73,5.25a5,5,0,0,1-3.05,5.82l-.52,0-1.4-.07-1.85-.1.62,1.06-.36.08.89,1.22a7,7,0,0,1,1,6.4,5.71,5.71,0,0,1-4.41,3.48c-2.5.55-5.09,1.07-7.83,1.62-14.63,2.94-32.85,6.6-53.29,19.09-23.84,14.57-46.06,38.15-67.9,72.09l-.82,1.27,1.49.26c14,2.44,27,14.08,29.11,25.94a6,6,0,0,1-2,5.62l-1.17.84a6.75,6.75,0,0,1-3.9,1.35,6,6,0,0,1-3.06-.86c-.24-1.67-.47-3.34-.71-5l-.28-2-.56-4-1.22,3.38a24,24,0,0,0-8.2-9.3L62,137.51l3.37,4.7a56.48,56.48,0,0,1,8.48,17l.17.57c2,6.68,6.23,20.59-.6,25.37A11.21,11.21,0,0,1,67,187.37c-4.42,0-8.3-3.25-10.14-8.49a39.72,39.72,0,0,1-1.67-7.43l-.78-5.26-1.19,5.18c-.93,4.06-3.37,6.2-7.24,6.35H45.5a12.34,12.34,0,0,1-3.59-.55l-1-.3-.23,1.05a38.77,38.77,0,0,1-2.22,6.79,4.43,4.43,0,0,1-4.28,2.86,6.28,6.28,0,0,1-4.62-2.11c-5.34-6-7.22-15.76-7.78-19.68-.26-1.84-.77-3.93-1.31-6.16-1.18-4.84-2.51-10.33-1.49-14.24,2.45-9.28,15.73-18.43,26.11-20.83l.54-.12.18-.52a170.84,170.84,0,0,1,7.15-16.76C60.11,92,69.35,78.75,83.83,63,111,33.31,148.57,13.61,189.51,7.5a6.62,6.62,0,0,1,.88-.06m0-1a7,7,0,0,0-1,.07c-40.51,6-78.54,25.54-106.28,55.78C70.45,76.07,60.14,89.56,52,106.74a170.36,170.36,0,0,0-7.18,16.85c-10.13,2.34-24.2,11.5-26.85,21.54-1.58,6,1.93,14.94,2.77,20.8,1,6.75,3.41,15,8,20.21a7.37,7.37,0,0,0,5.37,2.44,5.43,5.43,0,0,0,5.2-3.48,40.12,40.12,0,0,0,2.28-7,13.05,13.05,0,0,0,3.87.59H46c5-.2,7.3-3.27,8.19-7.13a41.19,41.19,0,0,0,1.71,7.62c2,5.65,6.23,9.16,11.09,9.16A12.23,12.23,0,0,0,74,186c7.64-5.34,2.83-20.38.82-27.05a57.39,57.39,0,0,0-8.63-17.28c4.27,3,7.67,7.07,8.76,11.44.27-.74.54-1.47.8-2.2q.52,3.75,1.06,7.5a7.16,7.16,0,0,0,4,1.26,7.66,7.66,0,0,0,4.48-1.54l1.17-.84a7,7,0,0,0,2.4-6.6c-2.26-13-16.21-24.36-29.92-26.75,53.67-83.4,98.46-85.75,128.4-92.38,6.32-1.4,6.66-7.74,4-11.44l.22,0c-.13-.21-.26-.42-.38-.63l2.14.11c7-2.65,3.93-13.08-2.85-13.08Z"/>
    </g>
    <g>
      <path class="cls-100" d="M650.72,188.08a5.41,5.41,0,0,1-5.16-3.18,37.63,37.63,0,0,1-2.42-6.87l-.12-.51-.5.14a14.59,14.59,0,0,1-4,.57H638c-4.48-.16-7.29-2.43-8.36-6.75l-.59-2.4-.39,2.44a37.7,37.7,0,0,1-1.82,7.52c-2.06,5.46-6.46,8.84-11.48,8.84a13.27,13.27,0,0,1-7.29-2.33c-7.68-5-3.08-19.11-.86-25.9l.18-.57a55.45,55.45,0,0,1,9.22-17.14l1.77-2.29-2.44,1.57c-4.46,2.88-7.75,6.6-9.21,10.38l-1-2.65-1.38,9.13a7.64,7.64,0,0,1-3.84,1.06,8.24,8.24,0,0,1-4.55-1.45l-1.27-.85a6.18,6.18,0,0,1-2.37-6.09c2.27-12.05,16.56-23.88,31.85-26.35l.78-.13-.45-.65C571.33,47,526.73,38.73,494.17,32.66c-3-.55-5.75-1.07-8.45-1.63-3.39-.7-4.72-2.55-5.24-4a7.11,7.11,0,0,1,1.25-6.66l.49-.62-.29-.07.54-.84-1,.05-2.21.1a5.37,5.37,0,0,1-3.79-6.24,6.92,6.92,0,0,1,6.79-5.83,7.13,7.13,0,0,1,1,.07c44.28,6.12,84.86,25.88,114.28,55.63C613.24,78.46,623.23,91.72,631,107a163,163,0,0,1,7.73,16.8l.1.26.26.06c11.36,2.43,25.88,11.73,28.57,21.19,1.14,4-.31,9.57-1.6,14.47-.57,2.21-1.12,4.3-1.4,6.12-.61,4-2.67,13.83-8.51,19.93a7.68,7.68,0,0,1-5.43,2.29Z"/>
      <path d="M482.29,7.44a6.2,6.2,0,0,1,1,.07c44.17,6.1,84.65,25.81,114,55.49,15.61,15.78,25.57,29,33.32,44.19a162,162,0,0,1,7.7,16.75l.19.51.54.12c11.21,2.4,25.55,11.55,28.19,20.84,1.1,3.89-.33,9.37-1.6,14.21-.58,2.22-1.13,4.32-1.42,6.16-.6,3.92-2.63,13.67-8.37,19.66a7.15,7.15,0,0,1-5.07,2.14,4.9,4.9,0,0,1-4.7-2.89,36.16,36.16,0,0,1-2.39-6.78l-.24-1-1,.28a14.47,14.47,0,0,1-3.91.55H638c-4.23-.15-6.89-2.3-7.89-6.37l-1.19-4.79-.77,4.88a37.57,37.57,0,0,1-1.8,7.42c-2,5.25-6.21,8.51-11,8.51a12.77,12.77,0,0,1-7-2.25c-7.36-4.77-2.83-18.66-.66-25.33l.19-.57a55,55,0,0,1,9.14-17l3.54-4.59-4.88,3.14a24.52,24.52,0,0,0-8.92,9.49L605.47,147l-.57,3.71-.51,3.42c-.19,1.2-.37,2.41-.55,3.61a7.1,7.1,0,0,1-3.38.88,7.69,7.69,0,0,1-4.27-1.37l-.52-.34-.75-.5a5.77,5.77,0,0,1-2.16-5.58c2.24-11.87,16.34-23.51,31.44-26l1.56-.25-.9-1.31c-23.55-33.94-47.49-57.52-73.19-72.08-22-12.47-41.64-16.13-57.41-19.07-2.95-.55-5.74-1.07-8.44-1.63-2.5-.51-4.19-1.78-4.87-3.66a6.59,6.59,0,0,1,1.18-6.18l1-1.25-.37-.08.67-1.06-1.94.1-1.49.07-.61,0A4.88,4.88,0,0,1,476,12.85a6.42,6.42,0,0,1,6.29-5.41m0-1c-7.31,0-10.66,10.43-3.07,13.08l2.3-.11c-.13.21-.27.42-.41.63l.23,0c-2.91,3.7-2.54,10,4.28,11.44,32.27,6.63,80.56,9,138.42,92.37-14.78,2.4-29.82,13.78-32.26,26.76a6.71,6.71,0,0,0,2.58,6.6l1.27.84a8.68,8.68,0,0,0,4.83,1.54,8.19,8.19,0,0,0,4.3-1.26c.38-2.5.75-5,1.13-7.5.29.73.57,1.46.86,2.2,1.18-4.37,4.85-8.48,9.45-11.44a56.33,56.33,0,0,0-9.31,17.28c-2.16,6.67-7.34,21.71.89,27.05a13.86,13.86,0,0,0,7.56,2.41c5.24,0,9.81-3.51,11.95-9.16a38.51,38.51,0,0,0,1.85-7.62c1,3.86,3.48,6.93,8.83,7.13h.51a15.16,15.16,0,0,0,4.18-.59,37,37,0,0,0,2.45,7,5.88,5.88,0,0,0,5.61,3.48,8.23,8.23,0,0,0,5.79-2.44c5-5.19,7.6-13.46,8.64-20.21.91-5.86,4.69-14.81,3-20.8-2.86-10-18-19.2-28.94-21.54a164.21,164.21,0,0,0-7.75-16.85C622.69,89.56,611.58,76.07,598,62.29c-29.91-30.24-70.9-49.74-114.57-55.78a8.23,8.23,0,0,0-1.1-.07Z"/>
    </g>
  </g>
</svg>
