<svg xmlns="http://www.w3.org/2000/svg" xmlns:xlink="http://www.w3.org/1999/xlink" viewBox="0 0 508 499" id="part-body1">
  <defs>
    <style>
      #part-body1 .cls-1 {
        isolation: isolate;
      }

      #part-body1 .cls-2 {
        fill: #fff;
      }

      #part-body1 .cls-3 {
        opacity: 0.3;
        mix-blend-mode: multiply;
      }

      #part-body1 .shadow2{
        filter: brightness(60%);
      }
      #part-body1 .chest{
        filter: brightness(80%);
      }

    </style>
  </defs>
  <g class="cls-1">
    <g >
      <g class="body2">
        <path class="cls-2" d="M293.9,497.55c1.27-21.81-4.95-36.66-18.52-44.14l-.83-.46.09.95c.28,2.85-2.32,6.69-5.08,10.75s-5.68,8.37-5.87,12.13c-11.93-17-14.65-30.32-15.77-42.23l0-.13-.07-.11a.69.69,0,0,0-.56-.32c-.76,0-.92.91-1.3,5.14a42.37,42.37,0,0,1-.56,4.52l-.07-.07-.24.29a23.81,23.81,0,0,1-1.69-4.35c-1.14-3.49-1.6-4.71-2.41-4.71a.78.78,0,0,0-.65.4l-.06.1v.11c-1.07,9.62-4.05,23.17-12.16,33.14l-.07.08,0,.1c-.81,3-1.52,5.55-2.25,8-.37-1.33-.74-2.55-1.06-3.56l-.22-.73-.58.51-.34.3A74.62,74.62,0,0,0,213,455.64l-.31-.39-.39.3c-10.32,8-15,22.12-14,41.92-13.33-15.92-35-54.32-28.2-77l.25-.85-.86.22c-7,1.78-12.41,5.82-15.47,11.69s-3.51,13.09-1.22,20.43c-12.17-12.1-19.71-29.57-25-43.61l-.36-1-.54.9c-4.09,6.87-9.26,25.5-4,35.3-23.45-19.27-46.58-50.1-39.33-78.19l1.17-4.54-2.1,4.19c-6.49,12.95-6.44,27.36-6.4,41.3,0,4.52,0,9.18-.17,13.74C58.51,391.68,53.78,357.62,62.83,324l.25-.91-.9.31c-12.65,4.42-13.57,28.62-14.38,50-.06,1.62-.12,3.22-.19,4.78-.78-2.15-1.64-4.42-2.53-6.78-7.72-20.39-18.29-48.31-8.24-76.52l-.93-.37a56,56,0,0,1-4.26,7.25c-.62.94-1.21,1.85-1.71,2.66-1.09-19.35-1.68-36.19,10.46-53.33,3.73-5.26,8.84-9.32,13.79-13.25,6.51-5.17,12.66-10.06,15.81-17.42l.32-.75-.8.05c-34,2.08-53.86,30.57-63.22,49.07,6.56-66,28.71-94,89.91-114.74l1.82-.62-1.89-.35a194.57,194.57,0,0,0-34.78-3.63c-1.27,0-2.53,0-3.76.06,25.06-22,56.7-22.53,87.31-23,6.78-.12,13.79-.23,20.63-.58l.58,0-.12-.57c-4.45-21.33-37.6-30.09-61.81-36.49C97.42,87,91,85.31,86.16,83.58c9.52-8.39,22.5-9.67,35.06-10.91,3.6-.35,7.32-.72,10.84-1.25l.79-.12-.45-.66C127.64,63.71,120.51,59.3,113.61,55c-5.08-3.15-9.9-6.13-13.72-10A117.26,117.26,0,0,1,112,44.36c13.2,0,24.17,2.62,33.51,8l1,.57-.25-1.11C142.63,36,132.68,17.06,119.48,1c30,8.62,66.47,40.94,71.94,74.79l.23,1.4.7-1.23c14.17-24.89,35.2-39.17,57.71-39.17,19.85,0,38.5,11,52.52,31l.57.81.31-1c10.47-31.8,47.12-59,75.82-66.63C365,17,354.25,36,350.36,51.82l-.26,1.08,1-.52c10.12-5.4,22-8,36.28-8,4.12,0,8.52.23,13.09.68-4.13,3.85-9.34,6.83-14.83,10-7.46,4.27-15.17,8.68-20.3,15.6l-.5.68.83.12c3.81.53,7.83.9,11.72,1.25C391,73.91,405,75.19,415.3,83.58c-5.25,1.72-12.18,3.42-19.51,5.21-26.17,6.39-62,15.15-66.82,36.48l-.13.58.59,0c7.4.35,15,.46,22.31.58,33.11.51,67.34,1,94.45,23-1.34,0-2.72-.06-4.1-.06a226.87,226.87,0,0,0-37.6,3.63l-2.05.35,2,.62c66.25,20.73,90.19,48.82,97.26,114.91-10.07-18.48-31.54-47.16-68.42-49.24l-.83,0,.35.75c3.26,7,10,9.9,17.07,12.92,6.11,2.59,12.42,5.27,16.69,10.85,13,17,14.56,43.88,13.48,64-.88-1.19-2.18-2.77-3.62-4.51-2.7-3.28-5.77-7-6.84-9.21l-.93.35.23.9c6.74,25.81,11.63,44.54-4.62,81.13-4.1-15.66-14.94-41-22.8-53.25l-1.87-2.89,1,3.3c9.8,33.64,4.66,67.75-14.47,96.21-.24-4.6-.22-9.29-.2-13.85.05-13.94.11-28.36-6.92-41.31l-2.11-3.89,1.19,4.26c3.86,13.85.22,29.15-10.82,45.5-7.66,11.34-19.1,23.09-31.83,32.76,5.75-9.8.13-28.5-4.31-35.4l-.52-.81-.36.89c-5.69,14.09-13.88,31.62-27.11,43.72,2.4-7.06,2.09-14-.91-19.83-3.18-6.16-9.25-10.56-17.09-12.38l-.87-.2.28.84c4.1,12.65-1.78,29.59-7.44,41.58A153.9,153.9,0,0,1,293.9,497.55Z"/>
        <path d="M377.8,1.89C364,17.75,353.68,36.17,349.88,51.7l-.53,2.17,2-1c10-5.36,21.83-8,36-8,3.77,0,7.76.19,11.91.57-3.94,3.46-8.8,6.24-13.9,9.15-7.5,4.3-15.26,8.74-20.45,15.75l-1,1.35,1.67.23c3.82.54,7.85.9,11.74,1.26,13.19,1.2,26.81,2.44,36.93,10.22-5.11,1.62-11.67,3.23-18.57,4.91-26.3,6.43-62.32,15.23-67.2,36.86l-.26,1.16,1.19.06c7.4.35,15,.46,22.32.58,32.56.5,66.19,1,93,22l-2.63,0a226.69,226.69,0,0,0-37.68,3.64l-4.11.69,4,1.25c34.32,10.74,56.05,23.09,70.44,40,14.25,16.77,22.41,39.11,26.2,72-7-12.29-15.27-22.44-24.72-30.21-12.72-10.46-27.15-16.21-42.9-17.1l-1.67-.09.7,1.51c3.35,7.22,10.14,10.11,17.34,13.17,6,2.57,12.29,5.22,16.48,10.69,12.62,16.48,14.39,42.43,13.45,62.32-.79-1-1.76-2.18-2.8-3.44-2.69-3.26-5.74-6.95-6.78-9.1l-1.87.68.24.9c6.63,25.41,11.46,43.93-4,79.51-4.37-15.78-14.84-40.13-22.5-52l-3.73-5.78,1.93,6.6c9.61,33,4.78,66.44-13.57,94.51-.16-4.09-.15-8.24-.13-12.29.05-14,.11-28.49-7-41.55L415.17,357l2.38,8.54c7.61,27.26-16.12,57.22-40.81,76.45,4.2-10.35-1-27.45-5.25-34l-1-1.62-.73,1.79c-5.47,13.54-13.25,30.27-25.61,42.24a25.09,25.09,0,0,0-1.49-18.4c-3.26-6.29-9.45-10.78-17.43-12.64l-1.72-.4.54,1.68c2.24,6.9,2.77,19.64-7.41,41.22a155.35,155.35,0,0,1-22.13,34.26c.38-8.87-.53-16.68-2.73-23.25-3-9-8.43-15.7-16.12-19.94l-1.66-.92.19,1.89c.26,2.68-2.42,6.62-5,10.43s-5.1,7.52-5.79,11.06c-11.24-16.38-13.85-29.34-14.94-40.93l0-.26-.16-.22a1.15,1.15,0,0,0-1-.53c-1.29,0-1.42,1.41-1.8,5.6-.1,1.12-.24,2.63-.4,3.65-.39-.94-.86-2.39-1.18-3.38-1.23-3.75-1.71-5.05-2.89-5.05a1.26,1.26,0,0,0-1.07.63l-.12.2,0,.23c-1.06,9.55-4,23-12.05,32.87l-.13.17-.06.2c-.62,2.31-1.19,4.37-1.75,6.31-.21-.7-.41-1.34-.59-1.91l-.45-1.47-1,.86a75.3,75.3,0,0,0-10.36-17.07l-.61-.78-.79.61c-10.19,7.92-15,21.64-14.23,40.83a157.42,157.42,0,0,1-20.3-34.07c-9.42-21.59-8.93-34.35-6.86-41.26l.51-1.68-1.71.43a23.93,23.93,0,0,0-15.8,11.93c-2.88,5.52-3.48,12.12-1.78,18.91-11.31-11.95-18.45-28.57-23.48-42l-.73-2-1.07,1.79c-3.88,6.52-8.68,23.48-4.88,33.83-22.76-19.24-44.57-49.12-37.55-76.33l2.35-9.09-4.21,8.39c-6.54,13.05-6.49,27.52-6.45,41.52,0,4,0,8.05-.11,12.07-16.85-28-21.26-61.39-12.4-94.31l.5-1.83-1.79.63c-13,4.53-13.91,28.92-14.72,50.43l-.09,2.28q-.8-2.16-1.67-4.43C37.85,350.9,27.32,323.07,37.31,295l-1.85-.75a56.52,56.52,0,0,1-4.23,7.19l-.88,1.34c-1-18.6-1.25-34.91,10.46-51.45,3.69-5.2,8.77-9.24,13.69-13.15,6.56-5.21,12.76-10.14,16-17.61l.64-1.49-1.62.09c-14.59.89-28,6.65-39.73,17.12-8.66,7.7-16.27,17.72-22.67,29.86,3.52-32.69,11.06-54.94,24.19-71.66,13.3-16.94,33.38-29.29,65.1-40l3.65-1.23-3.79-.7a194.56,194.56,0,0,0-34.86-3.64L59,149c10.83-9.18,23.75-15.21,39.41-18.41,14.94-3.06,31-3.33,46.53-3.59,6.78-.12,13.79-.23,20.64-.58l1.17-.06-.24-1.14c-4.52-21.64-37.84-30.44-62.17-36.87C97.93,86.62,91.87,85,87.14,83.4c9.35-7.79,21.94-9,34.13-10.23,3.6-.36,7.33-.73,10.86-1.26l1.58-.24-.9-1.31c-4.81-7-12-11.46-18.93-15.76-4.73-2.92-9.22-5.71-12.88-9.18,3.83-.37,7.5-.56,11-.56,13.11,0,24,2.6,33.26,7.94l2,1.14-.5-2.22c-3.51-15.52-13.09-33.94-25.82-49.8,29.55,9.23,64.69,40.85,70,73.93l.45,2.8,1.41-2.46c14.07-24.73,35-38.92,57.27-38.92,19.68,0,38.18,10.92,52.11,30.74l1.14,1.63.63-1.89C314.16,36.7,349.48,10,377.8,1.89M380.75.07c-30,7.29-67.28,35.5-77.76,67.37-13.52-19.25-32.24-31.17-52.93-31.17-23.5,0-44.46,15.39-58.14,39.42C186.24,40.56,148.23,8,118.08.07c11.8,14.08,23.54,33.71,27.65,51.87C135.43,46,123.81,43.86,112,43.86a115.82,115.82,0,0,0-13.14.79c9.1,9.8,24.83,14.14,33.15,26.27-15.88,2.4-34.32,1.29-46.77,12.85,21.61,8,74.61,14.33,80.3,41.61C127.25,127.32,87.1,122,56.23,150.05c1.7-.08,3.42-.11,5.14-.11a195.34,195.34,0,0,1,34.68,3.62C35.46,174.07,12,201.36,5.55,271.44c12.12-25.22,32.85-49.33,64-51.23-5.55,12.95-21,18.5-29.55,30.58-12.4,17.51-11.64,34.58-10.47,55.33,1.4-2.71,5.09-7.5,6.84-11.42C24.65,327.58,40.72,359.9,48,380.75c1-22.25.54-52.05,14.35-56.87-9,33.5-4.65,68.3,14.22,97.85,1.1-19-2.19-38.91,6.6-56.42-8,31.05,20.44,64.14,43.25,81.69-9.46-7.27-3.8-30.36,1-38.43,5.88,15.74,13.74,33.31,26.58,45.23-5.73-15.18.53-29.61,15.67-33.42-6.87,22.91,15.49,62.76,29.26,78.55-1.07-16.13,1.36-33.4,13.7-43a74.31,74.31,0,0,1,10.76,18.13c.29-.25.57-.52.86-.78.53,1.72,1.05,3.45,1.49,5.23,1-3.09,1.87-6.34,2.77-9.65,7.37-9.07,11-21.67,12.27-33.4.07-.11.14-.17.22-.17,1.06,0,2.91,9.16,4.12,9.16a.34.34,0,0,0,.24-.14.2.2,0,0,0,.15.09c.92,0,1-9.93,1.76-9.93,0,0,.1,0,.15.11,1.32,13.93,4.8,27.24,16.9,43.93-1.63-7.43,11.46-18.16,10.82-24.68,16.26,9,19.42,27.68,18.17,45.08,14.89-15.79,39.08-55.64,31.65-78.55,16.37,3.81,23.14,18.24,17,33.42,13.89-11.92,22.38-29.49,28.74-45.23,5.2,8.07,11.31,31.16,1.09,38.43,24.67-17.55,55.44-50.64,46.77-81.69,9.5,17.51,5.94,37.4,7.14,56.42,20.4-29.55,25.13-64.35,15.38-97.85,8,12.41,19.3,39,23.09,54.5,17.22-38.06,11.82-57.54,5-83.68,1.89,3.92,9.8,12.31,11.32,15,1.27-20.75-.09-48.33-13.5-65.84-9.26-12.09-27.7-10.72-33.7-23.67,33.69,1.9,56.1,26,69.21,51.23-6.94-70.08-32.34-97.37-97.87-117.88a227.69,227.69,0,0,1,37.51-3.62c1.86,0,3.71,0,5.55.11-33.39-28-76.8-22.73-118.18-24.67,6.15-27.28,63.47-33.62,86.84-41.61-13.46-11.56-33.4-10.45-50.58-12.85,9-12.13,26-16.47,35.85-26.27a135.33,135.33,0,0,0-14.21-.79c-12.81,0-25.37,2.13-36.51,8.08C355.29,33.78,368,14.15,380.75.07Z"/>
      </g>
      <g class="shadow2" class="cls-3">
        <g>
          <path class="cls-2" d="M127.62,11.91C125,8,122.24,4.35,119.48,1a81.35,81.35,0,0,1,9.65,3.5A37,37,0,0,1,135.37,11C132.74,11.38,130,11.67,127.62,11.91Z"/>
          <path d="M120.89,1.92a84.39,84.39,0,0,1,8,3,37.81,37.81,0,0,1,5.59,5.72c-2.25.3-4.53.55-6.59.76-2.28-3.34-4.62-6.51-7-9.47M118.08.07c3.16,3.77,6.29,8,9.3,12.37,3-.3,6-.62,8.87-1.06a36.73,36.73,0,0,0-6.85-7.33,80.34,80.34,0,0,0-11.32-4Z"/>
        </g>
        <g>
          <path class="cls-2" d="M369.27,66.18c-4.36-.11-8.81-.18-13.11-.25-7.17-.11-14.57-.23-21.81-.56C336.22,58,342,51.77,352,46.26c-.63,1.91-1.17,3.78-1.61,5.56l-.26,1.08,1-.52c10.12-5.4,22-8,36.28-8,4.12,0,8.52.23,13.09.68-4.13,3.86-9.34,6.84-14.83,10C379.91,58.29,374,61.67,369.27,66.18Z"/>
          <path d="M387.36,44.86c3.77,0,7.76.19,11.91.57-3.95,3.46-8.8,6.24-13.9,9.16-5.67,3.24-11.54,6.6-16.29,11.09-4.3-.11-8.67-.18-12.91-.25-7-.11-14.14-.22-21.17-.53,1.91-6.66,7.2-12.44,16.1-17.58-.47,1.5-.88,3-1.22,4.38l-.53,2.17,2-1c10-5.36,21.83-8,36-8h0m0-1c-12.81,0-25.37,2.13-36.51,8.08.54-2.23,1.22-4.47,2-6.73-9.79,5.21-17.13,11.83-19.12,20.63,11.84.56,23.85.53,35.75.85,9.41-9.07,23.5-13.48,32.1-22a135.33,135.33,0,0,0-14.21-.79Z"/>
        </g>
        <g>
          <path class="cls-2" d="M370.91,11c.55-.69,1.13-1.37,1.77-2-.55.7-1.07,1.38-1.58,2.06Z"/>
          <path d="M377.11,4.29A37.64,37.64,0,0,0,370,11.38c.44.07.89.11,1.34.17,1.88-2.53,3.83-4.93,5.78-7.26Z"/>
        </g>
        <g>
          <path class="cls-2" d="M473.47,235.47l.18.14c-.08-.14-.2-.32-.26-.45C473.41,235.26,473.44,235.37,473.47,235.47Z"/>
          <path d="M473.39,235.16c0,.1.05.21.08.31l.18.14c-.08-.14-.2-.32-.26-.45Z"/>
        </g>
        <g>
          <path class="cls-2" d="M129,66.49c-4.44-4.66-10-8.11-15.39-11.45-5.08-3.15-9.89-6.14-13.71-10A117.26,117.26,0,0,1,112,44.36c13.2,0,24.17,2.62,33.51,8l1,.57-.25-1.11A84.91,84.91,0,0,0,143,41.26c15.32,6.61,23.88,14.51,26.15,24.11-6.63.33-13.42.44-20,.56S135.68,66.16,129,66.49Z"/>
          <path d="M143.88,42.19c14.18,6.3,22.27,13.76,24.65,22.71-6.43.3-13,.42-19.37.53-6.56.11-13.34.23-20,.55-4.45-4.62-10-8.05-15.32-11.37-4.73-2.93-9.22-5.71-12.87-9.19,3.82-.37,7.5-.56,11-.56,13.11,0,24,2.6,33.26,7.94l2,1.14-.5-2.22a84.59,84.59,0,0,0-2.83-9.53m-1.75-1.85a87.61,87.61,0,0,1,3.6,11.6C135.43,46,123.81,43.86,112,43.86a115.82,115.82,0,0,0-13.14.79c8,8.66,21.24,13.08,30,22.35,13.57-.68,27.4-.47,41-1.16C167.31,54,156,46.14,142.13,40.34Z"/>
        </g>
        <g>
          <path class="cls-2" d="M6.3,268.78c2.92-29.26,9-50.48,19.05-66.64s24.76-28.35,46.28-38.39c-3.32,5.41-8.42,9.47-13.81,13.76-5,4-10.15,8.08-14,13.45-9.75,13.78-11.51,27.38-11.1,43.52C22.59,242.75,13.49,254.56,6.3,268.78Z"/>
          <path d="M70.23,165c-3.26,4.63-7.88,8.3-12.72,12.15-5,4-10.21,8.13-14.06,13.57-9.79,13.82-11.59,27.43-11.2,43.57C22.67,242.09,14,253.05,7.08,266.2c3-27.82,9-48.19,18.7-63.8S49.67,174.82,70.23,165m2.62-2.32c-43.58,19.87-61.78,48.48-67.3,108.8,6.59-13.71,15.74-27.06,27.71-36.72-.42-15.63,1.05-29.41,11-43.47,8.12-11.45,22.39-17.05,28.59-28.61Z"/>
        </g>
        <g>
          <path class="cls-2" d="M480,308.2c-.86-1.17-2.13-2.72-3.54-4.42l-1.16-1.4a104.43,104.43,0,0,0,4.35-18.78A170.1,170.1,0,0,1,480,308.2Z"/>
          <path d="M479.51,288a173.39,173.39,0,0,1,.09,18.85c-.78-1-1.72-2.14-2.74-3.37l-1-1.17A109.18,109.18,0,0,0,479.51,288m.14-9.1a99.1,99.1,0,0,1-4.88,23.62,82,82,0,0,1,5.67,7.24,165,165,0,0,0-.79-30.86Z"/>
        </g>
        <g>
          <path class="cls-2" d="M501.69,269a118.2,118.2,0,0,0-16.26-23.11c.7-17.63-1-32.66-5.07-44.74C491.81,217.58,498.47,238.78,501.69,269Z"/>
          <path d="M481.88,204.27c9.93,15.53,15.93,35.19,19,62.26a116.57,116.57,0,0,0-15-20.87c.63-16-.73-29.91-4.05-41.39m-3.21-6.36c5.87,15,6.87,32.94,6.25,48.12a118.81,118.81,0,0,1,17.53,25.41c-3.22-32.53-10.43-55.84-23.78-73.53Z"/>
        </g>
        <g>
          <path class="cls-2" d="M293.9,497.55c1.27-21.81-4.95-36.66-18.52-44.14l-.83-.46.09.95c.28,2.85-2.32,6.69-5.08,10.75s-5.68,8.37-5.87,12.13c-11.93-17-14.65-30.32-15.77-42.23l0-.13-.07-.11a.69.69,0,0,0-.56-.32c-.76,0-.92.91-1.3,5.14a42.37,42.37,0,0,1-.56,4.52l-.07-.07-.24.29a23.81,23.81,0,0,1-1.69-4.35c-1.14-3.49-1.6-4.71-2.41-4.71a.78.78,0,0,0-.65.4l-.06.1v.11c-1.07,9.62-4.05,23.17-12.16,33.14l-.07.08,0,.1c-.81,3-1.52,5.55-2.25,8-.37-1.33-.74-2.56-1.06-3.56l-.22-.73-.58.51-.34.3A74.62,74.62,0,0,0,213,455.64l-.31-.39-.39.3c-10.32,8-15,22.12-14,41.92A155.42,155.42,0,0,1,177,462.12c-5.23-12-10.67-28.94-6.87-41.6l.25-.85-.86.22c-7,1.78-12.41,5.82-15.47,11.69s-3.51,13.09-1.22,20.43c-12.17-12.1-19.71-29.57-25-43.61l-.36-1-.54.9c-4.09,6.87-9.26,25.5-4,35.3-23.45-19.27-46.58-50.1-39.33-78.19l1.17-4.54-2.1,4.19c-6.49,12.95-6.44,27.36-6.4,41.3,0,4.52,0,9.18-.17,13.74C58.51,391.68,53.78,357.62,62.83,324l.25-.91-.9.31c-12.65,4.42-13.57,28.62-14.38,50-.06,1.62-.12,3.22-.19,4.78-.78-2.15-1.64-4.42-2.53-6.78-7.72-20.39-18.29-48.31-8.24-76.52l-.93-.37a57.21,57.21,0,0,1-4.26,7.25c-.62.94-1.21,1.85-1.71,2.66-.9-16.1-1.49-31.37,6.12-46.15-.4,20.19,6.68,38.92,12.4,54.07,1.21,3.21,2.35,6.23,3.33,9l.85,2.44.12-2.58c.12-2.37.21-4.83.3-7.34.78-20.49,1.66-43.65,12.82-48.71-8.92,34.09-3.77,68.6,14.53,97.28l.83,1.3.09-1.54c.3-5.09.28-10.32.26-15.38,0-12.34-.09-25.06,4.45-36.71-4.24,28.8,20.69,59.53,44.34,77.73l.61-.79c-8.79-6.77-4.06-28.08.61-36.86,5.48,14.54,13.41,32.43,26.32,44.42l1.56,1.45-.75-2c-2.92-7.74-2.74-15.41.49-21.59a22,22,0,0,1,14-10.95c-6.27,23.66,16.44,63.06,29.61,78.17l1,1.12-.1-1.48c-1.33-20,3.08-34.19,13.11-42.25a72.74,72.74,0,0,1,10.38,17.62l.26.63.52-.44.3-.25c.39,1.27.85,2.83,1.25,4.44l.43,1.73.53-1.7c.92-2.9,1.76-5.93,2.75-9.57,8-9.88,11.07-23.15,12.22-32.82a36.91,36.91,0,0,1,1.28,3.54c1.21,3.73,1.76,5.14,2.66,5.14h0a.71.71,0,0,0,.27-.05h.12c.84,0,1-1.16,1.45-5.7.06-.68.13-1.45.21-2.17,1.34,11.78,4.63,25.05,16.75,41.76l1.41,2-.52-2.35c-.83-3.76,2.43-8.56,5.58-13.21,2.59-3.82,5.06-7.46,5.26-10.5,12.95,7.58,18.72,22.44,17.16,44.18l-.1,1.4,1-1c6.42-6.81,16.64-20.51,24.29-36.73,5.6-11.89,11.42-28.61,7.73-41.46,7.14,1.86,12.66,6,15.59,11.65,3.13,6.05,3.19,13.46.17,20.88l-.78,1.92,1.56-1.35c14-12,22.58-29.95,28.51-44.5,5.06,8.71,10.24,30.13.7,36.92l.58.81c25.67-18.26,52.73-49.14,47.9-78,5,11.72,5,24.55,4.95,37,0,5.06,0,10.29.28,15.38l.09,1.44.82-1.19a116.35,116.35,0,0,0,13.25-25.37,111.28,111.28,0,0,1-17.51,83.13c-.24-4.6-.22-9.29-.2-13.85.05-13.94.11-28.36-6.92-41.31l-2.11-3.89,1.19,4.26c7.85,28.12-17.25,59-42.65,78.26,5.75-9.79.13-28.5-4.31-35.4l-.52-.81-.36.89c-5.69,14.09-13.88,31.62-27.11,43.72,2.4-7.06,2.09-14-.91-19.83-3.18-6.16-9.25-10.56-17.09-12.38l-.87-.2.28.84c4.1,12.65-1.78,29.59-7.44,41.58A153.9,153.9,0,0,1,293.9,497.55Z"/>
          <path d="M35.54,260.45c.13,19.44,6.92,37.42,12.45,52.06,1.21,3.2,2.35,6.22,3.33,9l1.7,4.87.24-5.16c.11-2.37.21-4.83.3-7.34.75-19.73,1.6-42,11.55-47.78a125.73,125.73,0,0,0-1.52,56.26l-1.57.55c-13,4.53-13.91,28.92-14.72,50.43l-.09,2.28q-.8-2.16-1.67-4.43C37.85,350.9,27.32,323.07,37.31,295l-1.85-.75a56.52,56.52,0,0,1-4.23,7.19l-.88,1.34c-.8-14.74-1.12-28.79,5.19-42.37m389.65,53.4c3.53,10.58,3.49,21.93,3.45,33,0,5.07,0,10.31.28,15.42l.18,2.88,1.64-2.37A117.17,117.17,0,0,0,443.39,339a110.55,110.55,0,0,1-16.89,79.68c-.16-4.09-.15-8.24-.13-12.29.05-14,.11-28.49-7-41.55L415.17,357l2.38,8.54c7.61,27.26-16.12,57.22-40.81,76.45,4.2-10.35-1-27.45-5.25-34l-1-1.62-.73,1.79c-9.81,24.28-18.62,35.59-25.62,42.27A25.12,25.12,0,0,0,342.62,432c-3.26-6.29-9.45-10.78-17.43-12.64l-1.72-.4.54,1.68c2.24,6.9,2.77,19.64-7.41,41.22a155.35,155.35,0,0,1-22.13,34.26c.38-8.87-.53-16.68-2.73-23.25-3-9-8.43-15.7-16.12-19.94l-1.66-.92.19,1.89c.26,2.68-2.42,6.62-5,10.43s-5.1,7.52-5.79,11.06c-11.24-16.38-13.85-29.34-14.94-40.93l0-.26-.16-.22a1.15,1.15,0,0,0-1-.53c-1.29,0-1.42,1.41-1.8,5.6-.1,1.12-.24,2.63-.4,3.65-.39-.94-.86-2.39-1.18-3.38-1.23-3.75-1.71-5.05-2.89-5.05a1.26,1.26,0,0,0-1.07.63l-.12.2,0,.23c-1.06,9.55-4,23-12.05,32.87l-.13.17-.06.2c-.62,2.31-1.19,4.37-1.75,6.31-.21-.7-.41-1.34-.59-1.91l-.45-1.47-1,.86a75.3,75.3,0,0,0-10.36-17.07l-.61-.78-.79.61c-10.19,7.92-15,21.64-14.23,40.83a157.42,157.42,0,0,1-20.3-34.07c-9.42-21.59-8.93-34.35-6.86-41.26l.51-1.68-1.71.43a23.93,23.93,0,0,0-15.8,11.93c-2.88,5.53-3.48,12.14-1.77,19-6.44-6.71-14.51-18-23.49-42.07l-.73-2-1.07,1.79c-3.88,6.52-8.68,23.48-4.88,33.83-22.76-19.24-44.57-49.12-37.55-76.33l2.35-9.09-4.21,8.39c-6.54,13.05-6.49,27.52-6.45,41.52,0,4,0,8.05-.11,12.07-16.85-28-21.26-61.39-12.4-94.31l.36-1.34A119.73,119.73,0,0,0,80,362.73l1.66,2.6.18-3.08c.3-5.11.28-10.35.26-15.41,0-10.88-.07-22,3-32.49-1.4,27.73,22.35,56.52,44.94,73.91l1.22-1.59c-8.26-6.36-4.19-26.06.24-35.22C141.71,378,150.78,388.68,157.58,395l3.12,2.89-1.5-4c-2.87-7.6-2.7-15.13.47-21.18a21.28,21.28,0,0,1,12.85-10.45c-5.56,23.92,16.85,62.77,29.93,77.77l1.94,2.23-.19-3c-1.3-19.54,2.92-33.49,12.53-41.5a72.44,72.44,0,0,1,10,17.1l.51,1.26.77-.64c.34,1.11.7,2.38,1,3.69l.86,3.45,1.07-3.39c1-3.18,1.93-6.55,2.72-9.49,7.5-9.31,10.68-21.54,12-31,.2.57.4,1.17.56,1.68,1.24,3.8,1.84,5.48,3.14,5.48a1.26,1.26,0,0,0,.33-.05h.06c1.13,0,1.44-1.13,1.74-4,1.69,10.77,5.53,22.88,16.26,37.68l2.82,3.89-1-4.69c-.79-3.56,2.41-8.27,5.5-12.83,2.42-3.56,4.73-7,5.25-9.95,12.31,7.59,17.78,22.15,16.26,43.32l-.2,2.8,1.93-2c14.15-15,38.39-53.88,32.36-77.83,6.6,1.93,11.68,5.85,14.44,11.17,3.06,5.91,3.11,13.18.14,20.47l-1.56,3.83,3.14-2.7c7.37-6.33,17.2-17,28.24-43.73,4.83,9.06,9.35,29,.36,35.36l1.15,1.63c8.48-6,24.45-18.74,36.14-36,9.14-13.53,13.31-26.4,12.47-38.39M36.63,256.15c-8.84,15.68-8.15,31.34-7.1,50,1.4-2.71,5.09-7.5,6.84-11.42C24.65,327.58,40.72,359.9,48,380.75c1-22.25.54-52.05,14.35-56.87-9,33.5-4.65,68.3,14.22,97.85,1.1-19-2.19-38.91,6.6-56.42-8,31.05,20.44,64.14,43.25,81.69-9.46-7.27-3.8-30.36,1-38.43,5.88,15.74,13.74,33.31,26.58,45.23-5.73-15.18.53-29.61,15.67-33.42-6.87,22.91,15.49,62.76,29.26,78.55-1.07-16.13,1.36-33.4,13.7-43a74.31,74.31,0,0,1,10.76,18.13c.29-.25.57-.52.86-.78.53,1.72,1.05,3.45,1.49,5.23,1-3.09,1.87-6.34,2.77-9.65,7.37-9.07,11-21.67,12.27-33.4.07-.11.14-.17.22-.17,1.06,0,2.91,9.16,4.12,9.16a.34.34,0,0,0,.24-.14.2.2,0,0,0,.15.09c.92,0,1-9.93,1.76-9.93,0,0,.1,0,.15.11,1.32,13.93,4.8,27.24,16.9,43.93-1.63-7.43,11.46-18.16,10.82-24.68,16.26,9,19.42,27.68,18.17,45.08,14.89-15.79,39.08-55.64,31.65-78.55,16.37,3.81,23.14,18.24,17,33.42,13.89-11.92,22.38-29.49,28.74-45.23,5.2,8.07,11.31,31.16,1.09,38.43,24.67-17.55,55.44-50.64,46.77-81.69,9.5,17.51,5.94,37.4,7.14,56.42a112.48,112.48,0,0,0,18.08-86.52,115.2,115.2,0,0,1-13.81,27c-1.2-19,2.36-38.91-7.14-56.42,8.67,31.06-22.11,64.14-46.77,81.69,10.22-7.27,4.1-30.36-1.09-38.43-6.36,15.74-14.85,33.31-28.74,45.23,6.19-15.18-.59-29.61-16.95-33.42,7.43,22.91-16.76,62.76-31.65,78.55,1.25-17.4-1.91-36.11-18.17-45.08C280,400.83,267,411.56,268.59,419c-12.1-16.69-15.58-30-16.9-43.93-.05-.07-.1-.11-.15-.11-.79,0-.85,9.94-1.76,9.94a.24.24,0,0,1-.16-.09.29.29,0,0,1-.23.13c-1.21,0-3.06-9.15-4.12-9.15a.29.29,0,0,0-.23.16c-1.31,11.73-4.89,24.33-12.27,33.4-.89,3.32-1.79,6.56-2.77,9.65-.44-1.78-.95-3.51-1.49-5.22-.29.25-.56.52-.86.77a74.14,74.14,0,0,0-10.75-18.13c-12.34,9.58-14.77,26.85-13.7,43-13.77-15.79-36.14-55.64-29.27-78.55-15.13,3.81-21.39,18.24-15.67,33.42-12.84-11.92-20.69-29.49-26.57-45.23-4.8,8.07-10.46,31.16-1,38.43-22.81-17.55-51.26-50.63-43.25-81.69-8.78,17.51-5.49,37.4-6.6,56.42C62,332.64,57.59,297.84,66.62,264.34,52.81,269.17,53.3,299,52.26,321.21c-5.72-16.37-16.79-39.82-15.63-65.06Z"/>
        </g>
        <g>
          <path class="cls-2" d="M464.25,376.86c-3.29-12.54-11.26-32.3-18.57-45.94a115.46,115.46,0,0,0,1-63.3C454.55,281,464.4,304.67,467.91,319l.34,1.4.6-1.32c1.26-2.79,2.43-5.59,3.63-8.69C476.92,330.74,476.82,348.56,464.25,376.86Z"/>
          <path d="M448.06,271c7.47,13.65,16.12,34.87,19.36,48.06l.69,2.81,1.19-2.64c1.05-2.33,2-4.66,3-7.17,4,19.32,3.65,36.6-8,63.29-3.49-12.56-11.12-31.33-18.15-44.5A115.5,115.5,0,0,0,448.06,271m-2.77-6.68c6.49,22.28,6.53,45.13-.15,66.63,7.36,13.7,15.81,34.46,19,47.41,14.05-31.06,13-49.74,8.49-69.76-1.24,3.27-2.6,6.64-4.22,10.22-3.79-15.46-15.1-42.09-23.1-54.5Z"/>
        </g>
      </g>
      <g class="chest">
        <path class="cls-2" d="M281.53,419.08c.76-14.78-3.54-24.85-12.8-30l-.83-.46.09.94c.19,1.91-1.58,4.51-3.45,7.27s-3.7,5.45-4,8c-7.94-11.44-9.77-20.46-10.53-28.51v-.14l-.08-.11a.64.64,0,0,0-.51-.28c-.69,0-.79.76-1,3.67-.09.93-.21,2.22-.34,2.89l-.08.1a21.86,21.86,0,0,1-1-2.77c-.82-2.51-1.14-3.33-1.8-3.33a.69.69,0,0,0-.58.35l-.06.09v.12c-.73,6.57-2.77,15.83-8.3,22.63l-.07.08,0,.11c-.49,1.82-.93,3.42-1.38,4.93-.17-.6-.36-1.23-.58-1.92l-.23-.73-.64.57a51.49,51.49,0,0,0-7.17-11.9l-.31-.38-.39.3c-7,5.46-10.29,15-9.67,28.39-9.13-11.1-23.57-36.95-19-52.23l.25-.84-.85.21a16,16,0,0,0-10.71,8.08,18.26,18.26,0,0,0-1,13.53c-8.06-8.25-13.1-19.95-16.63-29.39l-.36-1-.53.9c-2.74,4.59-6.15,16.77-3.07,23.7-15.85-13.2-31.25-34-26.35-53l1.17-4.55-2.11,4.2C132,337.56,132,347.46,132.07,357c0,2.93,0,5.93-.1,8.89-11.85-19.36-15-42.49-8.84-65.31l.24-.91-.89.31c-8.78,3.07-9.41,19.72-10,34.41,0,.84-.07,1.66-.1,2.47-.46-1.25-1-2.55-1.47-3.9-5.28-13.95-12.51-33.06-5.64-52.34l-.93-.37a38.19,38.19,0,0,1-2.91,5l-.91,1.4c-.72-13-1-24.4,7.17-35.95,2.55-3.59,6-6.37,9.42-9.06,4.48-3.55,8.71-6.91,10.89-12l.32-.75-.81.05c-22.94,1.39-36.49,20.25-43.07,33,4.59-44.55,19.81-63.6,61.42-77.68l1.83-.62-1.9-.35A133.61,133.61,0,0,0,122,180.76l-2.16,0a54.82,54.82,0,0,1,8.28-5.86,133.25,133.25,0,0,1,26.67,5.61c5.86,5.22,13.24,8.74,20.37,12.15,1.56.75,3.11,1.49,4.62,2.24,16.91,8.37,35.51,16.34,56.9,17.87H237a3.46,3.46,0,0,0,3.4-2.51l.49.1,1,.19,5.46,12.35,5.33-11.16c1.79.11,3.6.17,5.37.17,30,0,52.53-15.44,76.39-31.78,6.22-4.25,12.65-8.66,19.17-12.73,12.94,2.19,23.05,6.45,31.69,13.35q-1.17,0-2.37,0a155.72,155.72,0,0,0-25.78,2.49l-2.05.35,2,.62c45.08,14.11,61.53,33.18,66.47,77.85-7.07-12.71-21.75-31.74-46.64-33.14l-.84-.05.35.76c2.27,4.88,6.89,6.84,11.79,8.93,4.16,1.77,8.47,3.6,11.37,7.39,8.79,11.47,9.93,29.61,9.23,43.33-.58-.76-1.36-1.71-2.21-2.74a42.78,42.78,0,0,1-4.68-6.29l-.93.35.16.63c4.58,17.55,7.91,30.32-3,55.08-2.9-10.78-10.21-27.85-15.54-36.11l-1.86-2.89,1,3.3c6.66,22.85,3.23,46-9.63,65.41-.14-3-.13-6-.12-9,0-9.57.08-19.47-4.76-28.39l-2.11-3.89,1.19,4.27c5.3,19-11.44,39.83-28.6,53,3.39-6.92-.33-19.18-3.3-23.79l-.52-.81-.36.9c-3.83,9.47-9.31,21.23-18.1,29.49a17.21,17.21,0,0,0-.82-13.14c-2.2-4.26-6.4-7.3-11.82-8.56l-.86-.2.27.84c2.8,8.62-1.22,20.19-5.09,28.38A105.94,105.94,0,0,1,281.53,419.08Z"/>
        <path d="M353.69,168c12.17,2.08,21.83,6,30.09,12.3h-.88a155.54,155.54,0,0,0-25.86,2.5l-4.11.7,4,1.24c23.47,7.34,38.32,15.78,48.14,27.35,9.5,11.19,15,26,17.71,47.66-7.54-12.7-22.07-29.94-45.85-31.28l-1.66-.09.7,1.51c2.34,5.05,7.27,7.15,12,9.18,4.11,1.74,8.35,3.55,11.17,7.23,8.42,11,9.74,28.21,9.19,41.67-.42-.53-.89-1.09-1.38-1.69a45.23,45.23,0,0,1-4.62-6.19l-1.87.68.16.63c4.48,17.15,7.76,29.71-2.39,53.47C395.11,324,388.15,307.89,383,299.94l-3.72-5.78,1.92,6.6c6.47,22.19,3.37,44.68-8.71,63.67-.07-2.47-.06-5-.06-7.41,0-9.63.08-19.6-4.82-28.62l-4.22-7.79,2.38,8.53c5.09,18.23-10.49,38.27-27,51.41,2.22-7.27-1.19-18.24-4-22.57l-1-1.62-.73,1.79c-3.61,9-8.71,20-16.68,28.06A17.25,17.25,0,0,0,315,374.46c-2.28-4.39-6.59-7.52-12.15-8.82l-1.73-.4.55,1.68c4.54,14-9.36,38.79-19.6,50.76.39-14-4.11-24-13.12-29l-1.66-.92.18,1.89c.17,1.72-1.63,4.38-3.37,6.94-1.58,2.33-3.19,4.71-3.84,7a54.44,54.44,0,0,1-9.79-27.31l0-.27-.15-.22a1.14,1.14,0,0,0-.92-.49c-1.17,0-1.28,1.21-1.55,4.13,0,.36-.07.78-.11,1.19-.14-.38-.26-.77-.36-1.08-.83-2.53-1.2-3.68-2.28-3.68a1.17,1.17,0,0,0-1,.58l-.12.19,0,.23c-.72,6.51-2.73,15.67-8.19,22.38l-.13.16-.06.21c-.32,1.18-.62,2.26-.91,3.29l-.09-.3-.46-1.47-.71.63a52.13,52.13,0,0,0-7-11.38l-.62-.77-.78.6c-6.9,5.36-10.23,14.54-9.91,27.31-9.46-12.06-22.15-36.64-18-50.61l.5-1.68-1.7.43a16.68,16.68,0,0,0-11,8.33,18.18,18.18,0,0,0-1.51,12c-7.26-8.08-11.92-19-15.24-27.85l-.73-1.95L166.39,358c-2.56,4.3-5.68,15.16-3.7,22.41-15.22-13.14-29.5-33.11-24.81-51.3l2.35-9.09L136,328.42c-4.52,9-4.49,19-4.45,28.61,0,2.36,0,4.78,0,7.17-11.05-18.94-13.87-41.35-7.91-63.46l.49-1.83-1.78.63c-9.1,3.17-9.74,20-10.3,34.84-.2-.51-.4-1-.6-1.57-5.25-13.88-12.45-32.89-5.64-52l-1.85-.75a38.68,38.68,0,0,1-2.88,4.89l-.07.11c-.65-12.3-.6-23.14,7.16-34.11,2.5-3.53,6-6.28,9.32-8.94,4.33-3.44,8.81-7,11-12.2l.64-1.49-1.62.1c-21.84,1.33-35.24,18.28-42.27,31,2.48-21.48,7.6-36.23,16.34-47.37,9.08-11.56,22.8-20,44.47-27.33l3.66-1.23-3.8-.7a133.7,133.7,0,0,0-23.93-2.5h-.76a54,54,0,0,1,7-4.83,133.55,133.55,0,0,1,26.3,5.54c5.9,5.23,13.27,8.75,20.4,12.16,1.53.73,3.11,1.49,4.62,2.24,17,8.4,35.61,16.38,57.08,17.92H237a3.89,3.89,0,0,0,3.72-2.44l.07,0,.73.14,4.91,11.11.88,2,.94-2L253,212.3c1.7.1,3.4.15,5.07.15,30.14,0,52.74-15.48,76.67-31.86,6.16-4.22,12.53-8.59,19-12.62m-.21-1.05C322.64,186.12,296,211.45,258,211.45c-1.86,0-3.76-.06-5.68-.19l-5,10.48-5.13-11.6c-.74-.12-1.46-.29-2.19-.42a3,3,0,0,1-3,2.59h-.29c-20.38-1.46-38.51-8.8-56.72-17.82-8.42-4.17-17.86-8-25-14.39a133.91,133.91,0,0,0-27-5.68,55.52,55.52,0,0,0-9.54,6.93c1.17-.05,2.35-.08,3.54-.08a133.49,133.49,0,0,1,23.75,2.49c-41.53,14.05-57.62,32.75-62,80.79,8.3-17.29,22.51-33.81,43.86-35.11-3.8,8.87-14.38,12.67-20.25,21-8.5,12-8,23.69-7.17,37.92,1-1.86,3.48-5.14,4.68-7.83-8,22.54,3,44.68,8,59,.71-15.26.37-35.67,9.84-39-6.19,23-3.19,46.81,9.74,67.06.76-13-1.5-26.66,4.52-38.67-5.49,21.29,14,44,29.65,56-6.48-5-2.61-20.81.69-26.34,4,10.79,9.41,22.83,18.21,31-3.92-10.41.37-20.3,10.74-22.92-4.71,15.71,10.62,43,20.06,53.85-.74-11.06.93-22.9,9.39-29.47A51,51,0,0,1,233,403.42l.59-.53c.37,1.18.72,2.36,1,3.58.67-2.11,1.28-4.34,1.9-6.61,5.05-6.22,7.51-14.86,8.41-22.9a.19.19,0,0,1,.15-.11c.73,0,2,6.28,2.82,6.28a.22.22,0,0,0,.17-.1.13.13,0,0,0,.1.07c.63,0,.67-6.81,1.21-6.81a.13.13,0,0,1,.1.07c.9,9.55,3.29,18.67,11.59,30.11-1.13-5.09,7.84-12.44,7.41-16.92,11.14,6.15,13.31,19,12.46,30.91,10.2-10.83,26.78-38.14,21.69-53.85,11.21,2.62,15.85,12.51,11.61,22.92,9.52-8.18,15.34-20.22,19.7-31,3.56,5.53,7.76,21.36.75,26.34,16.9-12,38-34.7,32.05-56,6.51,12,4.08,25.63,4.9,38.67,14-20.25,17.22-44.1,10.53-67.06,5.48,8.5,13.24,26.75,15.84,37.35,11.8-26.09,8.09-39.43,3.42-57.35,1.29,2.69,6.72,8.44,7.76,10.29.87-14.22-.06-33.12-9.25-45.12-6.35-8.29-19-7.35-23.1-16.22,23.09,1.3,38.45,17.82,47.44,35.11-4.76-48-22.17-66.74-67.09-80.79a155.86,155.86,0,0,1,25.7-2.49c1.28,0,2.55,0,3.82.08-10-8.4-21.31-12.43-33.24-14.42Z"/>
      </g>
      <g class="hair">
        <g>
          <path class="cls-2" d="M169.94,270.76a23.08,23.08,0,0,1-1-5.11h0a38.48,38.48,0,0,1,.28-6.78l0-.25a26.79,26.79,0,0,1,.9-4.69l.65-2.32a20.3,20.3,0,0,1,1.14-2.5c.23-.44.46-.89.67-1.34a13,13,0,0,1,1.36-2.24c.22-.32.44-.63.65-.95a31.45,31.45,0,0,1,6-6.44l.12,0a3,3,0,0,1,.43,0,2,2,0,0,1,1.52.62,3.12,3.12,0,0,1,.32,2.58.86.86,0,0,1,0,.15,17.53,17.53,0,0,0-2.79,2.59,16.94,16.94,0,0,0-2.44,3c-.17.26-.36.53-.56.79a10.11,10.11,0,0,0-1.21,2c-.19.4-.4.81-.61,1.22a13.77,13.77,0,0,0-1.19,2.77l-.67,1.54a15,15,0,0,0-.88,2.42c-.12.43-.26.9-.42,1.38a23.27,23.27,0,0,0-.71,2.56l-.86,4.13A23.77,23.77,0,0,1,169.94,270.76Z"/>
          <path d="M181.26,238.59a1.47,1.47,0,0,1,1.13.44,2.61,2.61,0,0,1,.23,2.11,17.15,17.15,0,0,0-2.72,2.54,17.64,17.64,0,0,0-2.49,3.07c-.18.27-.36.53-.55.79a10.36,10.36,0,0,0-1.26,2.09c-.18.4-.39.8-.61,1.21a14.14,14.14,0,0,0-1.2,2.8l-.45,1c-.06.16-.13.32-.21.5a13.35,13.35,0,0,0-.91,2.48c-.11.43-.26.89-.42,1.37a22.29,22.29,0,0,0-.71,2.59l-.57,2.71-.3,1.44v.11c-.1,1.12-.21,2-.3,2.66-.14-.76-.29-1.73-.43-3h0a38.38,38.38,0,0,1,.29-6.65l0-.25a27.11,27.11,0,0,1,.88-4.6V254l.64-2.27a18.58,18.58,0,0,1,1.11-2.43c.23-.45.46-.9.69-1.39a12.22,12.22,0,0,1,1.29-2.13c.23-.32.45-.65.68-1a20.65,20.65,0,0,1,2.72-3.34l0,0,0,0a20.39,20.39,0,0,1,3-2.83l.34,0m0-1a2.78,2.78,0,0,0-.51,0,.47.47,0,0,0-.35.12,31.89,31.89,0,0,0-6.15,6.55,23,23,0,0,0-2,3.25,39,39,0,0,0-1.84,3.93s-.26.91-.64,2.29a29.38,29.38,0,0,0-1,5,39.36,39.36,0,0,0-.28,6.92v0c.38,3.34.92,5.84,1.47,5.84s.88-1.58,1.25-5.57c.31-1.48.6-2.87.87-4.14s.8-2.73,1.12-3.91a16.6,16.6,0,0,1,1.08-2.85l.46-1.1a26.26,26.26,0,0,1,1.78-3.93,16.94,16.94,0,0,1,1.74-2.74,16.71,16.71,0,0,1,2.4-3,17.38,17.38,0,0,1,2.79-2.56,1.39,1.39,0,0,0,.15-.39c.59-3-1-3.8-2.33-3.8Z"/>
        </g>
        <g>
          <path class="cls-2" d="M199.28,303a22.58,22.58,0,0,1-2.15-4.75h0a45.35,45.35,0,0,1-1.32-6.61,58.16,58.16,0,0,1-.49-7.25v-.13a37.62,37.62,0,0,1,.26-4,90.09,90.09,0,0,1,1.62-10.39c.71-3,1.37-5.66,2.28-8.32h0l.05-.06a2.54,2.54,0,0,1,1.59-.68c.83,0,1.5.66,2,2a1.08,1.08,0,0,1,0,.17c-.9,2.62-1.56,5.39-2.15,7.83a87.47,87.47,0,0,0-1.54,9.87,31,31,0,0,0-.25,3.46c0,.36,0,.73,0,1.09l-.13,1.22a26.52,26.52,0,0,0-.21,3.18,67.77,67.77,0,0,0,0,7l0,1.41A22.9,22.9,0,0,1,199.28,303Z"/>
          <path d="M201.15,261.3h0c.74,0,1.23.87,1.52,1.61-.88,2.6-1.53,5.33-2.12,7.78a88,88,0,0,0-1.55,9.88,32.75,32.75,0,0,0-.25,3.52c0,.35,0,.7,0,1.05,0,.12-.06.53-.12,1.17a25.68,25.68,0,0,0-.22,3.24,68.64,68.64,0,0,0,0,7c0,.49,0,1,0,1.43v.12c.17,1.13.27,2,.33,2.69-.31-.7-.68-1.62-1.11-2.79h0a43,43,0,0,1-1.29-6.52,56.53,56.53,0,0,1-.49-7.13v-.15a35.32,35.32,0,0,1,.26-3.91v-.05a90.3,90.3,0,0,1,1.6-10.28c.7-2.91,1.34-5.54,2.23-8.16a2.07,2.07,0,0,1,1.24-.54m0-1a3.06,3.06,0,0,0-1.92.81.4.4,0,0,0-.22.28c-.94,2.75-1.63,5.56-2.3,8.38a91,91,0,0,0-1.62,10.42,38.58,38.58,0,0,0-.27,4.17,56.45,56.45,0,0,0,.5,7.3,43.28,43.28,0,0,0,1.35,6.75v0c1.13,3.08,2.21,5.31,2.76,5.31s.56-1.62,0-5.71a83.84,83.84,0,0,1,0-8.39,27.1,27.1,0,0,1,.2-3.14l.14-1.24c.07-1.52.06-3,.28-4.54a85.52,85.52,0,0,1,1.54-9.79c.63-2.65,1.28-5.3,2.16-7.87a1.33,1.33,0,0,0-.07-.43c-.66-1.74-1.6-2.29-2.47-2.29Z"/>
        </g>
        <g>
          <path class="cls-2" d="M228.69,313.37a23.63,23.63,0,0,1-1.71-4.81l-1,.17.13-.36.36-.16.45.29c-.09-.25-.87-3.14-1.53-6.36l-1.48-7L223,286c-.12-1.85-.2-3.77-.27-5.63,0-1-.07-2-.11-2.95a2.31,2.31,0,0,1,1.82-1.36,2.89,2.89,0,0,1,2,1.25,1.58,1.58,0,0,1,.1.16c.05,1,.09,2,.12,3,.07,1.7.13,3.47.25,5.2l.52,5c.07.55.12,1.09.18,1.64.09,1,.2,2,.35,3l.32,4.47.47,8.62A23.64,23.64,0,0,1,228.69,313.37Z"/>
          <path d="M224.39,276.57h0a2.44,2.44,0,0,1,1.62,1.05h0c0,.95.08,1.9.11,2.85.07,1.71.13,3.48.26,5.26l.52,5c.06.54.11,1.08.17,1.62.1,1,.2,2,.35,3l.32,4.46.47,8.63c.07,1.16.09,2.06.1,2.76-.24-.69-.53-1.59-.86-2.78l-1,.17v-.88a1,1,0,0,1,.92.62c-.11-.31-.87-3.19-1.51-6.3l-1.47-6.91-.43-4-.55-5.11c-.13-1.87-.2-3.78-.27-5.64,0-.92-.06-1.85-.11-2.79a1.79,1.79,0,0,1,1.32-1m0-1a2.74,2.74,0,0,0-2.22,1.55.39.39,0,0,0-.1.33c.13,2.87.19,5.75.39,8.61l.54,5.14.44,4.07,1.48,7c.68,3.31,1.52,6.47,1.57,6.47s0,0,0,0c.85,3.05,1.75,5.45,2.3,5.45s.66-1.6.42-5.75c-.19-3.4-.35-6.43-.47-8.63-.2-2.78-.33-4.52-.33-4.52-.23-1.54-.34-3.07-.52-4.61l-.52-5c-.19-2.75-.24-5.51-.37-8.26a1.75,1.75,0,0,0-.22-.39,3.28,3.28,0,0,0-2.4-1.42Z"/>
        </g>
        <g>
          <path class="cls-2" d="M266.76,292.36a30.07,30.07,0,0,1-.18-3.84l-.07-4.54,0,.09c0-1-.06-2.12-.14-3.26-.17-3.38-.64-6.85-.65-6.89-.1-1.41-.22-2.7-.36-3.9-.18-1.6-.46-3.71-.88-5.78a26.77,26.77,0,0,0-2.27-7.25,8.61,8.61,0,0,1,.66-1.9,1.24,1.24,0,0,1,1.17-.77,3.3,3.3,0,0,1,1.31.34,1.31,1.31,0,0,1,.22.17,29.5,29.5,0,0,1,2.73,8.41l0,.18c.43,2.15.71,4.3.93,6.12.16,1.56.33,3.17.41,4.79h0s0,2-.15,4.62a58.78,58.78,0,0,1-1.22,8.69A16.85,16.85,0,0,1,266.76,292.36Z"/>
          <path d="M264,254.82h0a2.75,2.75,0,0,1,1.05.27l.07,0a29.24,29.24,0,0,1,2.65,8.2l0,.17c.43,2.14.71,4.28.92,6.08.16,1.55.33,3.16.41,4.72,0,0,0,2-.15,4.6a58.18,58.18,0,0,1-1.21,8.63c-.25,1.13-.48,2-.68,2.66,0-.56,0-1.14,0-1.69,0-.39,0-.8,0-1.22L267,280.6l-.1.35v-.16c-.17-3.28-.6-6.53-.65-6.91-.1-1.44-.22-2.72-.36-3.92-.19-1.61-.46-3.74-.89-5.82a27.69,27.69,0,0,0-2.23-7.22,8.06,8.06,0,0,1,.56-1.57c.24-.44.44-.53.74-.53m0-1a1.76,1.76,0,0,0-1.62,1.06,8.93,8.93,0,0,0-.7,2c0,.18,0,.21,0,.29a26.52,26.52,0,0,1,2.25,7.17c.38,1.87.65,3.81.88,5.74.15,1.3.26,2.6.36,3.91,0,0,.47,3.44.64,6.85s.15,6.48.21,6.48h0c.05,2.79,0,5.11.39,5.69a.22.22,0,0,0,.19.14c.43,0,1.27-1.46,2.13-5.39A59.45,59.45,0,0,0,270,279c.17-2.68.16-4.67.16-4.67-.08-1.61-.25-3.22-.41-4.82-.25-2.06-.53-4.12-.94-6.18a30.48,30.48,0,0,0-2.87-8.79,1.71,1.71,0,0,0-.41-.32,3.81,3.81,0,0,0-1.51-.38Z"/>
        </g>
        <g>
          <path class="cls-2" d="M288.21,276.67a24.52,24.52,0,0,1-1-5l-.33-2.62,0,.1c-.15-1.13-.35-2.53-.62-3.9a21.87,21.87,0,0,0-.69-3.06c-.14-.5-.27-1-.36-1.4a12.66,12.66,0,0,0-.73-2,14.92,14.92,0,0,0-1.33-3.41l-.85-1.73-1.14-1.56a12.82,12.82,0,0,0-2.51-2.75,3.32,3.32,0,0,1,.34-2.52,2.16,2.16,0,0,1,1.74-.61h.34l.22.07a16,16,0,0,1,3,3.27l1.39,1.91,1,2,0,.07a19.54,19.54,0,0,1,1.54,3.93l.27.84a9.41,9.41,0,0,1,.27,1.28c.09.8.23,2,.4,3.42a53.57,53.57,0,0,1-.16,8.78A25.13,25.13,0,0,1,288.21,276.67Z"/>
          <path d="M280.75,246.68H281a15.31,15.31,0,0,1,2.82,3.11l0,0v0l1.33,1.83,1,2,0,.07,0,.07,0,.07a19.18,19.18,0,0,1,1.47,3.77c.08.27.17.55.26.82a10.45,10.45,0,0,1,.25,1.18c.1.82.23,2,.4,3.39a52.94,52.94,0,0,1-.16,8.73c-.12,1.14-.23,2-.33,2.72-.13-.71-.28-1.63-.43-2.83l-.65-5.26-.06.24c-.08-.46-.16-.93-.26-1.4a21.47,21.47,0,0,0-.7-3.14c-.14-.49-.27-1-.35-1.37v-.05a13,13,0,0,0-.71-2,16.35,16.35,0,0,0-1.37-3.5l0-.06-.82-1.67,0-.09-.06-.07-1.07-1.44a12.71,12.71,0,0,0-2.46-2.75,2.55,2.55,0,0,1,.25-1.94,1.75,1.75,0,0,1,1.36-.43m0-1c-3,0-2.76,2.57-2.58,3.68a.39.39,0,0,0,.13.29,12.23,12.23,0,0,1,2.47,2.71l1.1,1.48.82,1.67.05.09a15.81,15.81,0,0,1,1.31,3.38,12,12,0,0,1,.69,1.92c.26,1.22.83,2.78,1.05,4.46.62,3.15.86,6.4.95,6.4s0,0,0,0c.4,3.15.92,5.73,1.47,5.73s.87-1.57,1.27-5.64a53,53,0,0,0,.17-8.9c-.17-1.45-.31-2.62-.4-3.43a10.9,10.9,0,0,0-.3-1.37,24.71,24.71,0,0,0-1.81-4.78l0-.12-1-2.08-1.38-1.89a16.39,16.39,0,0,0-3.12-3.42,1.35,1.35,0,0,0-.44-.15Z"/>
        </g>
        <g>
          <path class="cls-2" d="M339.28,292.44a24,24,0,0,1-2.1-4.62l-.55-1.46-.08-.25a26,26,0,0,0-1.73-4.33L332,275.56c-.3-.79-.69-1.58-1.06-2.35-.21-.41-.41-.82-.6-1.24l-2.38-5c-.79-1.6-1.64-3.2-2.47-4.75-.47-.88-.94-1.76-1.4-2.65,0-.61.3-2.35,1.89-2.35a3.81,3.81,0,0,1,1.45.34l.15.09c.46.89.93,1.78,1.4,2.66.82,1.55,1.67,3.15,2.47,4.75l2.44,5.14c.21.48.45,1,.69,1.45a26.77,26.77,0,0,1,1.24,2.84l1.35,4.44,1.18,4.18,0,.16.58,4.22A23.69,23.69,0,0,1,339.28,292.44Z"/>
          <path d="M325.93,257.73h0a3.38,3.38,0,0,1,1.22.28l1.33,2.54c.82,1.55,1.67,3.14,2.46,4.73l2.43,5.12c.23.5.47,1,.7,1.47a26.2,26.2,0,0,1,1.22,2.76l1.35,4.44c.33,1.18.73,2.57,1.16,4.12l.08.52c.16,1.21.34,2.5.53,3.86.16,1.15.26,2.05.32,2.74-.3-.66-.65-1.53-1.08-2.66l-.55-1.48L337,286a26.67,26.67,0,0,0-1.33-3.53l-.51-1.35,0,.36-2.81-6.1c-.32-.81-.71-1.6-1.08-2.37-.2-.41-.4-.82-.6-1.25l-2.39-5c-.79-1.6-1.64-3.2-2.46-4.75-.45-.83-.89-1.67-1.33-2.52.05-.57.29-1.75,1.37-1.75m0-1c-1.77,0-2.3,1.68-2.38,2.74a.47.47,0,0,0,.05.34c1.28,2.46,2.63,4.91,3.86,7.38l2.38,5c.55,1.2,1.18,2.37,1.66,3.58l2.87,6.25a25,25,0,0,1,1.71,4.26,16,16,0,0,0,.63,1.75,0,0,0,0,0,0,0c1.07,2.85,2.17,5.21,2.72,5.21s.55-1.59,0-5.77c-.22-1.59-.43-3.09-.61-4.46-.45-1.57-.85-3-1.19-4.18-.83-2.75-1.36-4.46-1.36-4.46-.52-1.53-1.3-2.9-1.95-4.35l-2.45-5.14c-1.26-2.54-2.61-5-3.91-7.49a1.07,1.07,0,0,0-.36-.25,4.24,4.24,0,0,0-1.64-.38Z"/>
        </g>
        <g>
          <path class="cls-2" d="M316.84,315.63a25.1,25.1,0,0,1-1.22-4.86l-.43-2.31-.06.27c-.26-1.17-.62-2.72-1.09-4.26-.89-3.25-2-6.62-2-6.65L311,294l-.78-3.13a73.91,73.91,0,0,1-1.65-8.49v0l0-.09c.1-.25.66-1.5,1.79-1.5a3.11,3.11,0,0,1,2,1l.11.14a70.27,70.27,0,0,0,1.55,7.95l.76,3.06,1.19,4.55.76,4.52a58.27,58.27,0,0,1,.63,8.75A26.12,26.12,0,0,1,316.84,315.63Z"/>
          <path d="M310.39,281.22h0a2.69,2.69,0,0,1,1.61.85,71.44,71.44,0,0,0,1.55,7.88l.75,3.06,1.18,4.51.76,4.48a57.6,57.6,0,0,1,.63,8.66c-.05,1.15-.12,2-.19,2.74-.16-.68-.35-1.57-.57-2.72l-.85-4.6-.12.5c-.18-.72-.38-1.48-.62-2.23-.85-3.11-1.91-6.31-2-6.66l-1-3.85-.78-3.13a74.19,74.19,0,0,1-1.63-8.32c.07-.18.52-1.17,1.32-1.17m0-1a2.62,2.62,0,0,0-2.26,1.81.47.47,0,0,0-.07.36,77.41,77.41,0,0,0,1.66,8.55l.79,3.14,1,3.9s1.12,3.35,2,6.63,1.46,6.27,1.56,6.27,0,0,0,0c.56,3,1.21,5.58,1.75,5.58s.79-1.57,1-5.73a58.21,58.21,0,0,0-.64-8.84c-.47-2.82-.77-4.56-.77-4.56l-1.19-4.55-.75-3.05a69.66,69.66,0,0,1-1.56-8,1.76,1.76,0,0,0-.25-.35,3.51,3.51,0,0,0-2.32-1.14Z"/>
        </g>
        <g>
          <path class="cls-2" d="M342.75,245.87a23.7,23.7,0,0,1-1.49-4.79l-.59-2.49-.08.5c-.35-1.15-.83-2.62-1.41-4.09-.27-.58-.5-1.14-.73-1.68a19.1,19.1,0,0,0-1.2-2.55L336.2,229a17.61,17.61,0,0,0-1.92-3.28,34.33,34.33,0,0,0-5.8-6.82l-3-2.47c-.72-.5-1.44-.93-2.14-1.35l-1.21-.73a3.11,3.11,0,0,1-.18-2.5,2.47,2.47,0,0,1,1.94-1.06h.18l1.16.7c.83.49,1.68,1,2.47,1.56l3.39,2.77a39.38,39.38,0,0,1,6.48,7.62,23,23,0,0,1,2.15,3.7l.28.57.52,1.24a18.26,18.26,0,0,1,1,3l.06.25a42,42,0,0,1,1.48,8.76A24.26,24.26,0,0,1,342.75,245.87Z"/>
          <path d="M323.9,211.29l1.06.63c.84.5,1.64,1,2.41,1.52l3.36,2.75a39,39,0,0,1,6.4,7.52l0,0,0,0a22.18,22.18,0,0,1,2.06,3.57l.28.56.52,1.23v0l0,0a17.24,17.24,0,0,1,.91,2.85l.06.23v.06a41.5,41.5,0,0,1,1.44,8.57c0,1.17,0,2.07,0,2.76-.21-.68-.45-1.56-.72-2.71l-1.18-5-.15.94c-.23-.68-.49-1.4-.77-2.11l0,0v0c-.25-.54-.48-1.09-.71-1.63a18.11,18.11,0,0,0-1.23-2.6l-1-1.75a18,18,0,0,0-1.94-3.33,35.21,35.21,0,0,0-5.88-6.91l0,0,0,0-3-2.45,0,0,0,0c-.69-.48-1.42-.91-2.13-1.33l-1.06-.64a2.54,2.54,0,0,1-.15-1.93,2,2,0,0,1,1.53-.8m0-1h-.13c-3.33.53-2.65,3.07-2.15,4.22a.4.4,0,0,0,.2.27c1.09.68,2.23,1.3,3.29,2l3,2.46a34.42,34.42,0,0,1,5.75,6.75,17.92,17.92,0,0,1,1.88,3.23l1.05,1.79c.66,1.06,1.19,2.64,1.9,4.15,1.16,2.94,1.94,6,2,6s0,0,0,0c.7,3,1.5,5.46,2.05,5.46s.72-1.58.66-5.79A42.77,42.77,0,0,0,342,232a19.31,19.31,0,0,0-1.05-3.28l-.53-1.26a26.22,26.22,0,0,0-2.46-4.31,40,40,0,0,0-6.58-7.75L328,212.64c-1.2-.84-2.48-1.55-3.72-2.32a1.06,1.06,0,0,0-.32,0Z"/>
        </g>
        <g>
          <path class="cls-2" d="M369.86,259.22a24.13,24.13,0,0,1-1.48-4.78l-.48-2-.08.33a38.43,38.43,0,0,0-1.56-4.37l-.08-.17a28.56,28.56,0,0,0-1.9-4l-1-1.81a14.5,14.5,0,0,0-1.19-2.18c-.23-.38-.47-.75-.68-1.14a37.56,37.56,0,0,0-3-4.37c-.38-.52-.77-1-1.14-1.56-1.69-2-3.47-4.16-5.42-6.1a3.1,3.1,0,0,1,.39-2.3,2.11,2.11,0,0,1,1.71-.63l.57,0,.19.07c2,2,3.86,4.22,5.6,6.33l1.16,1.59a40.77,40.77,0,0,1,3.19,4.73l.47.78a29.47,29.47,0,0,1,1.86,3.46l.49,1.26c.07.17.15.38.23.6a15.37,15.37,0,0,1,.84,2.56c.1.41.21.82.32,1.24.26,1,.54,2,.71,3.07.21,1.69.38,3.2.5,4.46A24.56,24.56,0,0,1,369.86,259.22Z"/>
          <path d="M354,223.58v1l.48,0c2,2,3.79,4.14,5.48,6.19q.57.8,1.17,1.59a42.92,42.92,0,0,1,3.17,4.7l.46.78a27.82,27.82,0,0,1,1.82,3.38l.49,1.24c.07.19.15.4.24.62a16.3,16.3,0,0,1,.82,2.5c.09.41.2.83.32,1.25.26,1,.53,2,.69,3,.21,1.67.38,3.16.5,4.42s0,2,0,2.75c-.21-.68-.45-1.56-.72-2.7l-1-4-.15.6c-.28-.85-.63-1.78-1-2.69l-.07-.18a30.78,30.78,0,0,0-1.93-4.09l-1-1.76a15.62,15.62,0,0,0-1.23-2.25c-.24-.38-.47-.75-.67-1.12a36.93,36.93,0,0,0-3-4.43l-1.14-1.55,0,0,0,0c-1.63-2-3.38-4.06-5.29-6a2.33,2.33,0,0,1,.28-1.76,1.66,1.66,0,0,1,1.32-.45v-1m0,0c-2.72,0-2.79,2.28-2.57,3.47a.42.42,0,0,0,.13.32c1.92,1.91,3.65,4,5.36,6a60.25,60.25,0,0,1,4.06,5.88,32.81,32.81,0,0,1,1.87,3.32s.41.73,1,1.83a30.71,30.71,0,0,1,1.95,4.15c1.28,2.91,2,6,2.08,6s0,0,0,0c.71,2.95,1.49,5.46,2,5.46s.72-1.58.69-5.79c-.13-1.4-.31-2.95-.51-4.5s-.71-3-1-4.34a22.75,22.75,0,0,0-1.09-3.24l-.5-1.26a36.51,36.51,0,0,0-2.35-4.3,64.12,64.12,0,0,0-4.41-6.39c-1.83-2.22-3.68-4.42-5.7-6.43a1.3,1.3,0,0,0-.42-.14,4.64,4.64,0,0,0-.63,0Z"/>
        </g>
        <g>
          <path class="cls-2" d="M132,249.34a23.07,23.07,0,0,1,1.09-5.12h0a43.15,43.15,0,0,1,2.85-6.09,46.13,46.13,0,0,1,4-6,28.84,28.84,0,0,1,2.48-2.69l.32-.31a47.17,47.17,0,0,1,4.38-4l1.38-1.18.18-.14c2.17-1.62,4.4-3.3,6.71-4.74h.12a2.39,2.39,0,0,1,1.88.8,2.83,2.83,0,0,1,.09,2.56,1.18,1.18,0,0,1-.08.16c-2.12,1.33-4.14,2.83-6.09,4.29l-.42.32-1.35,1.15a44.85,44.85,0,0,0-4.08,3.74,29.83,29.83,0,0,0-3,3.29l-.81.84a20.92,20.92,0,0,0-2.09,2.35,57.76,57.76,0,0,0-4,5.37c-.3.44-.6.87-.9,1.28A23.3,23.3,0,0,1,132,249.34Z"/>
          <path d="M155.49,219.51a1.87,1.87,0,0,1,1.46.59,2.54,2.54,0,0,1,0,2.08c-2.09,1.32-4.08,2.8-6,4.23l-.44.33,0,0,0,0-1.33,1.13a45.08,45.08,0,0,0-4.09,3.76,30.08,30.08,0,0,0-3,3.3l-.79.82a20.52,20.52,0,0,0-2.12,2.38,59.82,59.82,0,0,0-4.08,5.42l-.89,1.28,0,0,0,.06c-.53,1-1,1.75-1.31,2.32.17-.75.41-1.72.77-2.94h0a42.45,42.45,0,0,1,2.82-6,44.37,44.37,0,0,1,3.94-5.95,28.67,28.67,0,0,1,2.44-2.65l.33-.33a50.52,50.52,0,0,1,4.33-4l1.36-1.16.19-.15c2.11-1.58,4.29-3.21,6.54-4.63m-.16-1a.36.36,0,0,0-.25.08c-2.39,1.49-4.67,3.21-7,4.92a74.93,74.93,0,0,0-5.79,5.22,32.75,32.75,0,0,0-2.83,3.05,44.9,44.9,0,0,0-4,6.1,41.66,41.66,0,0,0-2.9,6.22v0c-1,3.39-1.45,6-.82,6,.45,0,1.45-1.32,3.2-4.62a77.82,77.82,0,0,1,4.93-6.64,19,19,0,0,1,2-2.3l.84-.88a28.91,28.91,0,0,1,3-3.26,66.56,66.56,0,0,1,5.36-4.83c2.14-1.6,4.27-3.21,6.56-4.63a1.51,1.51,0,0,0,.21-.39c1-3.24-1.11-4-2.45-4h-.14Z"/>
        </g>
        <g>
          <path class="cls-2" d="M143.06,293.54a23.06,23.06,0,0,1-.5-5.14l0-1.1-.1.09a95.2,95.2,0,0,1,1.84-12.4l.16,0,.05-.41,1.48-3.93.81-2.11a54.31,54.31,0,0,1,2.61-5c.49-.87,1-1.74,1.45-2.62a2.83,2.83,0,0,1,1.31-.38c1,0,1.69.84,1.95,2.49a.89.89,0,0,1,0,.23c-.41.76-.89,1.61-1.37,2.45a46.28,46.28,0,0,0-2.38,4.59L148,276.48s-.22.43-.5,1.14l-.94,3c-.14.46-.31.95-.47,1.46a41.14,41.14,0,0,0-1.8,6.69A24,24,0,0,1,143.06,293.54Z"/>
          <path d="M152.15,261.06h0c.74,0,1.23.68,1.45,2.05h0c-.41.79-.87,1.59-1.3,2.36a46.85,46.85,0,0,0-2.43,4.68l-.75,1.95-1.58,4.15c-.07.15-.27.56-.52,1.17v.08l-.36,1.16-.56,1.81c-.15.47-.31,1-.48,1.46a42.3,42.3,0,0,0-1.81,6.74c-.22,1.12-.41,2-.57,2.66-.07-.74-.12-1.7-.16-2.95l-.05-1.9c.27-3,1.14-8.89,1.63-10.9h0l.3-.8,1.48-3.92.79-2.07a51.23,51.23,0,0,1,2.59-5c.46-.81.93-1.65,1.38-2.49a2.16,2.16,0,0,1,1-.26m0-1a3.13,3.13,0,0,0-1.49.42.46.46,0,0,0-.27.23c-1.35,2.56-2.93,5-4.08,7.69l-.8,2.12L144,274.44h0c-.55,0-2.53,14-2,14h0c.09,3.35.4,5.91.95,5.91s1-1.55,1.76-5.47a54.44,54.44,0,0,1,2.26-8.07l.92-3c.29-.72.51-1.13.51-1.13l1.6-4.2.74-2c1.06-2.46,2.54-4.73,3.78-7.11a1.1,1.1,0,0,0,0-.44c-.35-2.25-1.42-2.91-2.44-2.91Z"/>
        </g>
        <g>
          <path class="cls-2" d="M179,332.26c-.19-.07-.75-.49-1.63-1.91l-.51-.81c-.65-1.37-1.8-4.16-2.1-5.07l-.07-.33a54.43,54.43,0,0,1-1-11.75,73.56,73.56,0,0,1,.69-8.12c.24-1.56.47-2.77.59-3.36,0-.1,0-.18,0-.26a2.87,2.87,0,0,1,1.18-.24,4,4,0,0,1,2.68,1.14,2.42,2.42,0,0,0,0,.24c-.11.58-.33,1.7-.55,3.13a66.25,66.25,0,0,0-.64,7.7,64.18,64.18,0,0,0,.4,7.6l.59,3.38h0s0,.88.15,2.07c0,.39.06.83.09,1.29.06,1,.12,1.93.22,2.82C179.22,331.61,179,332.14,179,332.26Z"/>
          <path d="M176.11,300.91h0a3.38,3.38,0,0,1,2.13.83c-.12.61-.33,1.7-.55,3.11a67.29,67.29,0,0,0-.64,7.76,63.11,63.11,0,0,0,.41,7.66v.07l.57,3.28c0,.24.05,1.05.15,2.08,0,.4.06.84.09,1.29.06,1,.12,1.95.22,2.85a9.91,9.91,0,0,1,.1,1.44,11.77,11.77,0,0,1-.85-1.19l-.49-.79c-.63-1.32-1.76-4.06-2-5l-.07-.31a53.31,53.31,0,0,1-1-11.63,70.25,70.25,0,0,1,.67-8c.24-1.54.47-2.74.59-3.33a2.55,2.55,0,0,1,.73-.11m0-1a3.21,3.21,0,0,0-1.49.34c-.13.06-.13.08-.15.14s-.32,1.58-.66,3.8a67.59,67.59,0,0,0-.69,8.19,54.26,54.26,0,0,0,1,11.86c-.16.07,2.45,6.39,2.73,6.39h0c.8,1.26,1.59,2.16,2.11,2.16s.75-.86.49-3.06c-.15-1.31-.22-2.88-.31-4.1s-.16-2.1-.16-2.1-.23-1.34-.58-3.35a63.68,63.68,0,0,1-.4-7.54,66,66,0,0,1,.63-7.63c.32-2.09.64-3.49.63-3.57a.6.6,0,0,0-.16-.22,4.45,4.45,0,0,0-3-1.3Z"/>
        </g>
        <g>
          <path class="cls-2" d="M106.17,221.48a22.17,22.17,0,0,1,2.37-4.65l-.83-.55.39-.19.44.25v.49a35.71,35.71,0,0,1,4.17-5.17,38.85,38.85,0,0,1,3.44-3.4l1.76-1.58,3.36-2.29c.82-.55,1.71-1,2.57-1.52l1.39-.79a55,55,0,0,1,7.78-3.42,2.43,2.43,0,0,1,1.76,1.2,2.91,2.91,0,0,1-.48,2.58l-.11.13a50.53,50.53,0,0,0-7.16,3.15l-1.32.75c-.79.43-1.61.89-2.39,1.41l-1.34.91c-.77.51-1.56,1.05-2.31,1.62l-3.52,2.43-3.23,2.53-3.16,2.78A21.46,21.46,0,0,1,106.17,221.48Z"/>
          <path d="M133.05,199.18a1.82,1.82,0,0,1,1.26.88,2.59,2.59,0,0,1-.43,2.09,50.69,50.69,0,0,0-7.09,3.12l0,0h0l-1.29.72c-.8.45-1.63.91-2.45,1.45-.43.31-.88.61-1.32.9-.77.52-1.57,1.06-2.3,1.62l-3.53,2.43,0,0,0,0L112.6,215h0l0,0-3.14,2.77,0,0,0,0c-.79.84-1.41,1.47-1.91,1.94.36-.7.85-1.58,1.53-2.68l-.27-.18.27.16a35.29,35.29,0,0,1,4.1-5.07l0,0,0,0a37.36,37.36,0,0,1,3.38-3.33l.07-.06,1.64-1.48,3.34-2.28c.81-.54,1.65-1,2.53-1.5l1.39-.79a55,55,0,0,1,7.59-3.34m0-1a.59.59,0,0,0-.17,0,53.48,53.48,0,0,0-7.87,3.45c-1.33.78-2.71,1.48-4,2.34l-3.41,2.32s-.69.61-1.7,1.53a37.92,37.92,0,0,0-3.52,3.48,35.32,35.32,0,0,0-4.26,5.28l0,0c-1.9,3.09-3,5.55-2.24,5.55.5,0,1.8-1,4.2-3.59l3.14-2.77,3.2-2.51,3.54-2.44c1.17-.89,2.42-1.67,3.63-2.52s2.45-1.41,3.66-2.13a50.39,50.39,0,0,1,7.19-3.15,1.17,1.17,0,0,0,.28-.32c1.72-2.94-.17-4.22-1.51-4.5a.63.63,0,0,0-.19,0Z"/>
        </g>
        <g>
          <path class="cls-2" d="M281.86,338a5.25,5.25,0,0,1-1-2.28l-.22-.8c-.11-.53-.25-1.24-.37-1.87a22.68,22.68,0,0,0-.81-3.59l-.51-3.14q-.09-.54-.18-1.14c-.11-.69-.23-1.47-.4-2.27l-1-3.83c-.14-.47-.26-.94-.39-1.41-.21-.81-.43-1.64-.68-2.42,0,0-2.34-6.2-2.41-6.4a3.75,3.75,0,0,1,3.11-1.66l.5,0L280,314c.25.82.49,1.72.73,2.62l.39,1.46,1.1,4.11.6,3.63.57,3.58a10.62,10.62,0,0,1-.12,2.08,41,41,0,0,1-.68,4.19C282.28,337.44,282,337.88,281.86,338Z"/>
          <path d="M276.94,307.67h.15c.17.46.5,1.34,1.14,3l.52,1.39.78,2.09c.26.82.48,1.68.73,2.6l.39,1.45.39,1.46c.24.89.47,1.77.7,2.61l.32,1.93.28,1.69c.3,1.92.52,3.27.56,3.54a10.29,10.29,0,0,1-.12,2,39.6,39.6,0,0,1-.67,4.16,12.45,12.45,0,0,1-.31,1.31,10.42,10.42,0,0,1-.48-1.38l-.22-.78c-.11-.52-.26-1.25-.37-1.85a27.49,27.49,0,0,0-.81-3.61l-.51-3.12c-.06-.35-.12-.73-.18-1.12-.11-.7-.23-1.48-.4-2.29v-.05l-.77-2.84-.26-1c-.14-.47-.26-.94-.38-1.41-.22-.81-.44-1.65-.71-2.48l-.24-.65c-.36-.94-.7-1.82-1-2.6l-.77-2-.31-.83a3.22,3.22,0,0,1,2.55-1.24m0-1a4.21,4.21,0,0,0-3.59,2c-.08.12-.07.14-.06.19s.52,1.38,1.25,3.29c.35,1,.78,2.07,1.22,3.25s.7,2.52,1.06,3.81.7,2.6,1,3.81.4,2.39.58,3.38l.53,3.29h0c.22,0,1.23,6.17,1.39,6.17h0c.41,1.45,1,2.66,1.52,2.66s.86-.74,1.22-2.68a37.38,37.38,0,0,0,.68-4.22,11,11,0,0,0,.13-2.24s-.23-1.43-.58-3.58c-.17-1.08-.38-2.33-.6-3.68s-.73-2.71-1.11-4.12-.73-2.82-1.13-4.12l-1.32-3.5c-.77-2.06-1.3-3.46-1.33-3.54a.63.63,0,0,0-.25-.09,4.85,4.85,0,0,0-.64-.05Z"/>
        </g>
        <g>
          <path class="cls-2" d="M209.52,362.22a22,22,0,0,1-1.58-4.88l-.33-1.33,0,.07A114.66,114.66,0,0,1,206.35,344h.06l.46-5.1a18.6,18.6,0,0,1,.72-4.25l1-4.31a2.39,2.39,0,0,1,1.62-.82c1,0,1.68,1,2.07,1.92a.85.85,0,0,1,.06.19l-.91,3.82a16.67,16.67,0,0,0-.69,4.06l-.05.42-.42,4.5-.19,1.2c-.05.8-.1,1.88-.15,3.21l-.09,1.42a65,65,0,0,0-.18,7.1A24.84,24.84,0,0,1,209.52,362.22Z"/>
          <path d="M210.24,330h0c.71,0,1.26.85,1.61,1.61h0l-.87,3.67a18,18,0,0,0-.71,4.15l-.05.44-.41,4.46-.2,1.2v.11c0,.75-.08,1.82-.14,3.15,0,.45-.06.93-.09,1.42a65.54,65.54,0,0,0-.18,7.13c0,1.15,0,2.05,0,2.74-.22-.7-.48-1.61-.78-2.82l-.47-1.9c-.46-3-1.08-8.94-1.11-10.93h0l.07-.81.38-4.19.05-.5v-.05a18.78,18.78,0,0,1,.71-4.15l1-4.16a1.86,1.86,0,0,1,1.17-.57m0-1a2.81,2.81,0,0,0-1.91.9.48.48,0,0,0-.2.3l-1,4.3a20,20,0,0,0-.73,4.33l-.05.51-.37,4.19c-.52.06,1.07,14,1.47,14t0,0c.78,3.14,1.61,5.55,2.15,5.55s.7-1.61.59-5.74a78.63,78.63,0,0,1,.27-8.47c0-1.33.1-2.41.14-3.15l.2-1.23.42-4.49.05-.47a16.92,16.92,0,0,1,.67-3.95l.93-3.9a1.3,1.3,0,0,0-.1-.44c-.76-1.67-1.68-2.21-2.53-2.21Z"/>
        </g>
        <g>
          <path class="cls-2" d="M248,325.19c-.09,0-.53-.31-1-1.71l-.22-.6c-.22-.85-.63-2.54-1-4.09l-.13-2.48a50.86,50.86,0,0,0-.54-5.72l-1.05-8.2a4.65,4.65,0,0,1,2.55-.74,5.31,5.31,0,0,1,1.36.19c.07.58,1.06,8.42,1.06,8.42a53,53,0,0,1,.54,5.88l.16,2.73h0a32.77,32.77,0,0,1-1,4.64C248.38,325.05,248,325.19,248,325.19Z"/>
          <path d="M246.62,302.15h0a5.61,5.61,0,0,1,.91.09c.07.55.19,1.51.39,3.14l.63,5a53.38,53.38,0,0,1,.53,5.84l.15,2.62a29.81,29.81,0,0,1-.93,4.56v.06a5.29,5.29,0,0,1-.33,1,6,6,0,0,1-.49-1.09l-.21-.59c-.22-.82-.61-2.46-.95-4,0-.27-.07-1.19-.14-2.45a50.76,50.76,0,0,0-.55-5.77l-.74-5.85c-.11-.88-.2-1.59-.26-2a4.3,4.3,0,0,1,2-.5m0-1a5,5,0,0,0-3,.93c-.11.07-.11.09-.1.13s.54,4.3,1.07,8.46a47.49,47.49,0,0,1,.54,5.67l.15,2.56s1.07,4.76,1.2,4.76h0c.39,1.12.93,2,1.49,2s.87-.56,1.24-2a31.06,31.06,0,0,0,1-4.83l-.15-2.72a54.53,54.53,0,0,0-.54-5.92c-.54-4.28-1.08-8.58-1.1-8.7a.53.53,0,0,0-.21-.11,5.72,5.72,0,0,0-1.61-.24Z"/>
        </g>
        <g>
          <path class="cls-2" d="M310.91,256.53a4.3,4.3,0,0,1-.82-2.08h0s-.87-4.33-1.67-5.62l.06,0a32.11,32.11,0,0,0-3.55-9.17l-2-2.95-2.07-2.32c-.92-.83-1.66-1.4-2.06-1.71l-.14-.11a4.14,4.14,0,0,1,2.18-3.41l.14.1a33.74,33.74,0,0,1,2.61,2.18l2.48,2.78,2.31,3.48a36.88,36.88,0,0,1,4,10.51l0,.57a7.64,7.64,0,0,1,0,1.51c0,.33-.06.69-.09,1.05a10.41,10.41,0,0,1-.49,3C311.36,256.07,311,256.45,310.91,256.53Z"/>
          <path d="M300.81,229.78a31,31,0,0,1,2.42,2l.59.66,1.84,2.06,1,1.47,1.31,2a35.52,35.52,0,0,1,3.92,10.31l.05.59a6.48,6.48,0,0,1,0,1.39c0,.35-.06.71-.09,1.08a9.49,9.49,0,0,1-.46,2.84l0,0v.05a11.7,11.7,0,0,1-.42,1.25,8,8,0,0,1-.34-1.15,22.51,22.51,0,0,0-.77-3.06,19.7,19.7,0,0,0-.88-2.74,33.24,33.24,0,0,0-3.61-9.19l-.5-.74-1.47-2.19,0-.06-.05-.05-1.15-1.29-.88-1,0,0,0,0c-.84-.75-1.55-1.31-2-1.63a3.54,3.54,0,0,1,1.61-2.6m.14-1.14a.64.64,0,0,0-.23.06,4.67,4.67,0,0,0-2.56,4c0,.14,0,.15,0,.18s1,.73,2.31,1.91l2,2.26,2,2.93a31.85,31.85,0,0,1,3.49,9h0a45.54,45.54,0,0,1,1.59,5.5h0c.29,1.33.75,2.59,1.32,2.59s.9-.68,1.41-2.5a15.48,15.48,0,0,0,.61-4.18,7.66,7.66,0,0,0,0-1.6c0-.4-.05-.63-.05-.63a37.07,37.07,0,0,0-4.06-10.69l-2.36-3.54-2.51-2.8c-1.63-1.52-2.92-2.39-2.95-2.46Z"/>
        </g>
        <g>
          <path class="cls-2" d="M213,261a23.52,23.52,0,0,1-.83-5.08h-1l.49-.43.48.38a55.45,55.45,0,0,1-.13-6.65,27.71,27.71,0,0,1,.25-3.5c.06-.56.12-1.08.15-1.55a18.46,18.46,0,0,1,.42-2.23,21.62,21.62,0,0,1,1.34-4l.57-1.35a30.14,30.14,0,0,1,4.85-7.44h0l.09-.05a2.79,2.79,0,0,1,.89-.16,1.64,1.64,0,0,1,1.22.47,3.28,3.28,0,0,1,.67,2.38,1.15,1.15,0,0,1,0,.16,25.61,25.61,0,0,0-4.18,6.41l-.48,1.12a15.42,15.42,0,0,0-1.07,3.13c-.09.34-.18.68-.28,1h0a8.48,8.48,0,0,0-.38,1.15l-.74,3c-.52,2.38-1,5.41-1.4,8.08l0,.31A23.25,23.25,0,0,1,213,261Z"/>
          <path d="M220.61,229.37h0a1.18,1.18,0,0,1,.87.32,2.84,2.84,0,0,1,.52,2,26.31,26.31,0,0,0-4.17,6.45l-.46,1.07a17.24,17.24,0,0,0-1.11,3.24c-.08.32-.17.63-.26,1-.06.16-.22.58-.4,1.24l-.26,1-.48,2c-.52,2.38-1,5.41-1.4,8.08l-.05.36c-.14,1.14-.27,2-.39,2.69-.12-.74-.24-1.7-.35-2.9h-.61l.59-.09a53.69,53.69,0,0,1-.13-6.6,29.13,29.13,0,0,1,.24-3.42c.06-.55.12-1.07.16-1.53a15.31,15.31,0,0,1,.41-2.18l0-.1a21.77,21.77,0,0,1,1.3-3.9l.54-1.29a29.41,29.41,0,0,1,4.71-7.25,2.22,2.22,0,0,1,.71-.13m0-1a3.32,3.32,0,0,0-1.06.19.43.43,0,0,0-.32.19,30.09,30.09,0,0,0-4.94,7.58l-.56,1.32a22.73,22.73,0,0,0-1.37,4.13,18.57,18.57,0,0,0-.44,2.34c-.1,1.39-.42,3.26-.4,5.06a49.21,49.21,0,0,0,.15,6.79v0c.3,3.24.77,5.81,1.33,5.81s.91-1.56,1.4-5.57c.41-2.7.9-5.9,1.43-8.35.31-1.27.56-2.29.74-3a9.12,9.12,0,0,1,.38-1.14,24.41,24.41,0,0,1,1.32-4.09l.48-1.11a25.38,25.38,0,0,1,4.16-6.36,1.13,1.13,0,0,0,.09-.41c0-2.61-1.2-3.36-2.39-3.36Z"/>
        </g>
        <g>
          <path class="cls-2" d="M244.2,270.77a22.75,22.75,0,0,1-1.23-5l-.19-1.11c-.16-1.22-.39-3.33-.58-5.5-.31-3.46-.43-7.1-.43-7.14l0-.72c0-1.11.07-2.25.16-3.37,0-.92.14-1.93.26-3.08l.14-1a23.23,23.23,0,0,1,2-7.91.26.26,0,0,1,.12-.11,2.46,2.46,0,0,1,1.43-.5.82.82,0,0,1,.49.12,3.62,3.62,0,0,1,1,1.72c.1.28.21.57.34.86v0a24.42,24.42,0,0,0-1.64,7.26c-.13,1.16-.21,2.06-.26,2.91-.1,1.43-.17,3-.2,4.6l-.36,4.44-.6,8.58A23.79,23.79,0,0,1,244.2,270.77Z"/>
          <path d="M246,235.81h.18l0,0,0,0a3.66,3.66,0,0,1,.75,1.44l.27.7a25.74,25.74,0,0,0-1.6,7.22c-.13,1.18-.21,2.08-.26,2.93-.1,1.43-.17,3-.2,4.6l-.36,4.45-.27,3.83-.33,4.77c-.05,1.16-.11,2.06-.18,2.75-.18-.74-.37-1.69-.57-2.88l-.2-1.14c-.15-1.19-.38-3.23-.57-5.43-.3-3.28-.41-6.72-.43-7.08l0-.72c0-1.1.07-2.24.16-3.37,0-.91.13-1.88.26-3,0-.35.09-.7.13-1.05a22.94,22.94,0,0,1,2-7.67l0,0,.06,0a1.94,1.94,0,0,1,1.06-.35m0-1a3,3,0,0,0-1.69.57.63.63,0,0,0-.31.32c-1.62,3.28-1.83,6.15-2.24,9.1-.11,1-.2,2.07-.26,3.1-.11,1.39-.14,2.77-.19,4.14,0,0,.11,3.65.43,7.18.29,3.38.71,6.66.77,6.66s0,0,0,0c.54,3.19,1.21,5.69,1.76,5.69s.8-1.59,1-5.67c.23-3.39.44-6.4.6-8.58.22-2.76.36-4.47.36-4.47,0-1.54.09-3.07.2-4.58.05-1,.15-1.93.26-2.88.3-2.59.73-5.47,1.65-7.21a.9.9,0,0,0,0-.34c-.51-1.2-.77-2.32-1.47-2.77a1.28,1.28,0,0,0-.81-.24Z"/>
        </g>
        <g>
          <path class="cls-2" d="M355.56,313.26a5.23,5.23,0,0,1-.82-2.39l-.18-.89c-.05-.5-.11-1.14-.16-1.7a17.24,17.24,0,0,0-.51-3.69c-.05-.4-.7-6.5-.7-6.5l-.83-3.92a75.35,75.35,0,0,0-1.79-7.32s-.85-3.08-.9-3.25a3.64,3.64,0,0,1,2.78-1.28,4.34,4.34,0,0,1,1,.12c.13.48,1.55,5.61,1.91,6.9l.87,4.13.86,4.14.79,7.45a39.26,39.26,0,0,1-1.39,6A4.91,4.91,0,0,1,355.56,313.26Z"/>
          <path d="M352.45,282.82h0a4,4,0,0,1,.6.05c.17.6.47,1.69.85,3.07.29,1,.62,2.23,1,3.51l.65,3.07.22,1,.45,2.18.4,1.92.12,1.11c.1.92.19,1.78.27,2.56.23,2.17.38,3.61.38,3.61l0,.13A40.8,40.8,0,0,1,356,311a9.88,9.88,0,0,1-.41,1.24,11,11,0,0,1-.36-1.44l-.17-.88c-.06-.5-.12-1.14-.17-1.67a21.06,21.06,0,0,0-.51-3.75l-.33-3.06-.11-1-.25-2.38v-.1l-.27-1.28-.55-2.57c-.47-2.47-1.13-5.16-1.79-7.36l-.57-2.05c-.11-.4-.2-.72-.26-.95a3.07,3.07,0,0,1,2.22-.91m0-1a4.06,4.06,0,0,0-3.23,1.55c-.1.11-.09.13-.08.19s.4,1.43.95,3.44a74.92,74.92,0,0,1,1.78,7.28c.28,1.32.56,2.63.83,3.87s.25,2.39.35,3.37c.22,2,.36,3.29.36,3.29h0c.28,0,.64,6.16.83,6.16h0c.28,1.5.74,2.81,1.31,2.81s.89-.7,1.41-2.53a30.47,30.47,0,0,0,1.39-6.41h0s-.15-1.45-.38-3.62c-.12-1.09-.26-2.35-.4-3.71s-.56-2.73-.86-4.15l-.88-4.15c-.35-1.29-.69-2.5-1-3.54-.57-2.08-1-3.5-1-3.57a.56.56,0,0,0-.24-.13,5.09,5.09,0,0,0-1.18-.15Z"/>
        </g>
      </g>
      <g class="freakles2">
        <g>
          <path class="cls-2" d="M225,129.63a3.47,3.47,0,0,1-3.35-3.63,2.83,2.83,0,0,1,.6-1.84,2.4,2.4,0,0,1,1.9-.77,3.47,3.47,0,0,1,3.35,3.63,2.73,2.73,0,0,1-.61,1.83A2.35,2.35,0,0,1,225,129.63Z"/>
          <path d="M224.17,123.89a2.61,2.61,0,0,1,2.08,1A3.44,3.44,0,0,1,227,127a1.9,1.9,0,0,1-2,2.11,2.65,2.65,0,0,1-2.09-1,3.48,3.48,0,0,1-.76-2.16,1.89,1.89,0,0,1,2-2.11m0-1c-4.55,0-3.67,7.24.85,7.24s3.66-7.24-.85-7.24Z"/>
        </g>
        <g>
          <path class="cls-2" d="M241.27,118.83c-4.42,0-7.05-3.87-7.05-7.61a6.07,6.07,0,0,1,1.33-4,5.24,5.24,0,0,1,4.14-1.71c4.42,0,7.06,3.87,7.06,7.61a6.07,6.07,0,0,1-1.34,4A5.24,5.24,0,0,1,241.27,118.83Z"/>
          <path d="M239.69,106c4.11,0,6.56,3.62,6.56,7.11,0,2.51-1.31,5.19-5,5.19a6.07,6.07,0,0,1-4.83-2.25,7.74,7.74,0,0,1-1.72-4.86c0-2.51,1.3-5.19,5-5.19m0-1c-9,0-7.32,14.3,1.58,14.3s7.33-14.3-1.58-14.3Z"/>
        </g>
        <g>
          <path class="cls-2" d="M242,132.3a2.94,2.94,0,0,1-3.08-3.22,4.63,4.63,0,0,1,1-2.93,3.68,3.68,0,0,1,2.91-1.34A2.94,2.94,0,0,1,246,128a4.66,4.66,0,0,1-1,2.92A3.65,3.65,0,0,1,242,132.3Z"/>
          <path d="M242.9,125.31a2.48,2.48,0,0,1,2.58,2.72A3.55,3.55,0,0,1,242,131.8a2.44,2.44,0,0,1-1.95-.79,2.93,2.93,0,0,1-.63-1.93,3.55,3.55,0,0,1,3.44-3.77m0-1c-5.29,0-6.2,8.49-.86,8.49s6.2-8.49.86-8.49Z"/>
        </g>
        <g>
          <path class="cls-2" d="M229.77,148.46a2.59,2.59,0,0,1-2.55-2.77,2.43,2.43,0,0,1,.53-1.58,2,2,0,0,1,1.59-.67,2.59,2.59,0,0,1,2.56,2.77,2.46,2.46,0,0,1-.53,1.59A2,2,0,0,1,229.77,148.46Z"/>
          <path d="M229.34,143.94a2.13,2.13,0,0,1,2.06,2.27,1.94,1.94,0,0,1-.41,1.26,1.51,1.51,0,0,1-1.22.49,2.12,2.12,0,0,1-2.05-2.27,2,2,0,0,1,.41-1.26,1.48,1.48,0,0,1,1.21-.49m0-1c-3.78,0-3.33,6,.43,6s3.34-6-.43-6Z"/>
        </g>
        <g>
          <path class="cls-2" d="M259.14,151.58c-4.41,0-7-3.87-7-7.61a6.07,6.07,0,0,1,1.33-4,5.28,5.28,0,0,1,4.15-1.71c4.41,0,7.05,3.87,7.05,7.61a6.08,6.08,0,0,1-1.33,4A5.26,5.26,0,0,1,259.14,151.58Z"/>
          <path d="M257.57,138.78c4.1,0,6.55,3.61,6.55,7.11,0,2.51-1.31,5.19-5,5.19a6.05,6.05,0,0,1-4.82-2.25,7.69,7.69,0,0,1-1.73-4.86c0-2.51,1.31-5.19,5-5.19m0-1c-9,0-7.33,14.3,1.57,14.3s7.33-14.3-1.57-14.3Z"/>
        </g>
        <g>
          <path class="cls-2" d="M272.75,126.74c-.78,0-3.34-.21-3.69-2.86A3.85,3.85,0,0,1,270,121a2.39,2.39,0,0,1,1.76-.89c.78,0,3.35.21,3.69,2.86a3.82,3.82,0,0,1-.93,2.86A2.38,2.38,0,0,1,272.75,126.74Z"/>
          <path d="M271.76,120.63a2.91,2.91,0,0,1,3.2,2.42,3.36,3.36,0,0,1-.82,2.47,1.87,1.87,0,0,1-1.39.72,2.9,2.9,0,0,1-3.19-2.42,3.34,3.34,0,0,1,.81-2.47,1.89,1.89,0,0,1,1.39-.72m0-1c-2,0-3.44,2.46-3.19,4.32.29,2.28,2.16,3.29,4.18,3.29s3.44-2.46,3.2-4.32c-.3-2.28-2.16-3.29-4.19-3.29Z"/>
        </g>
        <g>
          <path class="cls-2" d="M298.1,132.58a2.91,2.91,0,0,1-2.74-1.9,10.53,10.53,0,0,1-.36-1.52l0-.22a2.73,2.73,0,0,1,.51-2.38,3.34,3.34,0,0,1,2.58-1.08,3.38,3.38,0,0,1,2.59,1.08,2.89,2.89,0,0,1,.53,2.44s0,.15,0,.17l0,0-.16.9a2.91,2.91,0,0,1-1.72,2.32l-.1,0A2.77,2.77,0,0,1,298.1,132.58Z"/>
          <path d="M298.06,126a2.87,2.87,0,0,1,2.2.9,2.06,2.06,0,0,1,.48,1.44l-.28,1.62a2.44,2.44,0,0,1-1.45,2l.37.93-.43-.91a2.25,2.25,0,0,1-.85.16,2.42,2.42,0,0,1-2.27-1.57,9.26,9.26,0,0,1-.33-1.44l0-.22a2.3,2.3,0,0,1,.4-2,2.87,2.87,0,0,1,2.2-.9m0-1c-2,0-4.07,1.36-3.59,4a11.43,11.43,0,0,0,.42,1.82,3.41,3.41,0,0,0,3.21,2.23,3.36,3.36,0,0,0,1.21-.22l.1,0a3.45,3.45,0,0,0,2-2.7v0c.09-.35.15-.7.21-1.06.48-2.74-1.56-4.1-3.61-4.1Z"/>
        </g>
        <g>
          <path class="cls-2" d="M287.06,147.8c-3.11,0-4.5-2.41-4.5-4.8a5.51,5.51,0,0,1,1.19-3.48,4.39,4.39,0,0,1,3.5-1.56c3.1,0,4.49,2.41,4.49,4.8S290.28,147.8,287.06,147.8Z"/>
          <path d="M287.25,138.46c2.76,0,4,2.16,4,4.3a5,5,0,0,1-1.07,3.16,3.91,3.91,0,0,1-3.11,1.38,3.69,3.69,0,0,1-3-1.29,4.69,4.69,0,0,1-1-3c0-2.19,1.31-4.54,4.19-4.54m0-1c-6.78,0-7,10.84-.19,10.84s7-10.84.19-10.84Z"/>
        </g>
        <g>
          <path class="cls-2" d="M202.56,128a5.66,5.66,0,0,1-2.57-.62l-.79-.4a5.25,5.25,0,0,1-2.5-4.84,4.49,4.49,0,0,1,2.41-4.2L201,117a2.94,2.94,0,0,1,1.41-.33,6.13,6.13,0,0,1,3.87,1.6,5.78,5.78,0,0,1,1.58,5.44,5.39,5.39,0,0,1-5.33,4.25Z"/>
          <path d="M202.44,117.19a5.63,5.63,0,0,1,3.52,1.47,5.32,5.32,0,0,1,1.44,5,4.9,4.9,0,0,1-4.84,3.86,5.2,5.2,0,0,1-2.34-.56l-.36-.18-.44-.23a4.74,4.74,0,0,1-2.22-4.38,4,4,0,0,1,2.12-3.76c.65-.29,1.29-.6,2-.92a2.44,2.44,0,0,1,1.15-.26m0-1a3.42,3.42,0,0,0-1.62.37c-.64.31-1.27.61-1.92.9-3.78,1.74-3.45,8.16.07,9.94l.8.41a6.22,6.22,0,0,0,2.79.67,5.91,5.91,0,0,0,5.82-4.64,6.32,6.32,0,0,0-1.73-5.91,6.59,6.59,0,0,0-4.21-1.74Z"/>
        </g>
        <g>
          <path class="cls-2" d="M201.76,145.43a1.9,1.9,0,0,1-1.52-.65,1.58,1.58,0,0,1-.2-1.42l.79-1.39a1.79,1.79,0,0,1,1-.38.92.92,0,0,1,.58.19,2.35,2.35,0,0,1,1,1.45,1.73,1.73,0,0,1-.19,1.56,1.86,1.86,0,0,1-1.49.64Z"/>
          <path d="M201.85,142.09a.4.4,0,0,1,.27.08,1.93,1.93,0,0,1,.84,1.19,1.27,1.27,0,0,1-.11,1.13,1.59,1.59,0,0,1-2.21,0,1.09,1.09,0,0,1-.13-.93l.7-1.23a1.19,1.19,0,0,1,.64-.23m0-1a2.27,2.27,0,0,0-1.4.55l-.88,1.53a2.24,2.24,0,1,0,4.35-.07,2.85,2.85,0,0,0-1.19-1.72,1.39,1.39,0,0,0-.88-.29Z"/>
        </g>
        <g>
          <path class="cls-2" d="M161.13,141.85a2,2,0,0,1-2-2.15,2.12,2.12,0,0,1,.45-1.36,1.68,1.68,0,0,1,1.35-.57,2,2,0,0,1,2,2.15,2.12,2.12,0,0,1-.45,1.36A1.67,1.67,0,0,1,161.13,141.85Z"/>
          <path d="M161,138.27a1.51,1.51,0,0,1,1.48,1.65,1.61,1.61,0,0,1-.33,1,1.18,1.18,0,0,1-1,.4,1.52,1.52,0,0,1-1.48-1.65,1.61,1.61,0,0,1,.34-1,1.16,1.16,0,0,1,1-.4m0-1c-3.18,0-3,5.08.18,5.08s3-5.08-.18-5.08Z"/>
        </g>
        <g>
          <path class="cls-2" d="M179.44,131.08a2.73,2.73,0,0,1-2.87-3,4.53,4.53,0,0,1,1-2.82,3.57,3.57,0,0,1,2.8-1.3,2.72,2.72,0,0,1,2.87,3A3.94,3.94,0,0,1,179.44,131.08Z"/>
          <path d="M180.37,124.48a2.26,2.26,0,0,1,1.8.71,2.7,2.7,0,0,1,.57,1.77,3.46,3.46,0,0,1-3.3,3.62,2.27,2.27,0,0,1-2.37-2.48,3.46,3.46,0,0,1,3.3-3.62m0-1c-5,0-6,8.1-.93,8.1s6-8.1.93-8.1Z"/>
        </g>
        <g>
          <path class="cls-2" d="M276.46,164.52a4.52,4.52,0,0,1-3.29-1.37,4.13,4.13,0,0,1-1.09-3.15,4.31,4.31,0,0,1,4-4l.42,0a5.23,5.23,0,0,1,3.18,1.33,3.87,3.87,0,0,1,1.47,3,3.59,3.59,0,0,1-1.29,2.81,4.45,4.45,0,0,1-2.71,1.35,4.82,4.82,0,0,1-.65,0Z"/>
          <path d="M276,156.46a2.11,2.11,0,0,1,.35,0,4.6,4.6,0,0,1,2.89,1.18l0,0,.05,0a3.36,3.36,0,0,1,1.24,2.59,3.07,3.07,0,0,1-1.11,2.42l-.05,0-.05.05A3.83,3.83,0,0,1,277,164a3.77,3.77,0,0,1-.58,0,4,4,0,0,1-2.93-1.22,3.63,3.63,0,0,1-.95-2.77,3.84,3.84,0,0,1,3.46-3.57m0-1a4.8,4.8,0,0,0-4.45,4.51,4.71,4.71,0,0,0,4.87,5.05,4.51,4.51,0,0,0,.72-.05,4.79,4.79,0,0,0,3-1.46A4.26,4.26,0,0,0,280,157a5.63,5.63,0,0,0-3.47-1.47l-.49,0Z"/>
        </g>
        <g>
          <path class="cls-2" d="M305.33,158a3,3,0,0,1-2.92-3.16,2.67,2.67,0,0,1,.57-1.71,2.16,2.16,0,0,1,1.74-.72,3,3,0,0,1,2.92,3.17,2.57,2.57,0,0,1-.57,1.7A2.16,2.16,0,0,1,305.33,158Z"/>
          <path d="M304.72,152.86a2.53,2.53,0,0,1,2.42,2.67,2.12,2.12,0,0,1-.45,1.38,1.69,1.69,0,0,1-1.36.54,2.52,2.52,0,0,1-2.42-2.66,2.08,2.08,0,0,1,.45-1.38,1.71,1.71,0,0,1,1.36-.55m0-1c-4.14,0-3.5,6.59.61,6.59s3.51-6.59-.61-6.59Z"/>
        </g>
        <g>
          <path class="cls-2" d="M323.91,147.48a3.4,3.4,0,0,1-2.09-.71,3.71,3.71,0,0,1-.68-5,3.33,3.33,0,0,1,2.73-1.34,3.59,3.59,0,0,1,.47,0l.93.12a3.22,3.22,0,0,1,1.13.89l.09.11a2.43,2.43,0,0,1,.14.2,3,3,0,0,1,.68,1.57v.13a4.64,4.64,0,0,1,0,.88,3.52,3.52,0,0,1-.86,1.83l-.57.71-.49.23-.31.13a5,5,0,0,1-.7.21A2.56,2.56,0,0,1,323.91,147.48Z"/>
          <path d="M323.87,140.9a2.73,2.73,0,0,1,.41,0l.84.1a2.91,2.91,0,0,1,.92.76l0,.06.16.21a2.54,2.54,0,0,1,.56,1.25.66.66,0,0,0,0,.14v.13a3.33,3.33,0,0,1,0,.69,3,3,0,0,1-.74,1.57l-.51.63-.36.17h-.06l-.23.1h0c-.35.13-.55.17-.56.18a3.11,3.11,0,0,1-.43,0,2.9,2.9,0,0,1-1.78-.61,3.2,3.2,0,0,1-.59-4.33,2.85,2.85,0,0,1,2.33-1.14m.49-1.05a.22.22,0,0,0,.05.08,4.89,4.89,0,0,0-.54,0,3.86,3.86,0,0,0-3.14,1.55,4.2,4.2,0,0,0,.78,5.71,4,4,0,0,0,2.4.82,3.77,3.77,0,0,0,.58,0,5.06,5.06,0,0,0,.74-.23,2.5,2.5,0,0,0,.38-.15c.7-.3,1.44-.73,1.44-1.2a1.18,1.18,0,0,1-.19.11,4.07,4.07,0,0,0,1-2.09,3.64,3.64,0,0,0,0-.93c0-.06,0-.09,0-.16a3.51,3.51,0,0,0-.76-1.83l-.17-.22-.1-.12a3.18,3.18,0,0,0-2.42-1.27Z"/>
        </g>
        <g>
          <path class="cls-2" d="M318.21,122a2.87,2.87,0,0,1-2.79-3,2.56,2.56,0,0,1,.55-1.67,2.14,2.14,0,0,1,1.69-.7,2.87,2.87,0,0,1,2.8,3,2.55,2.55,0,0,1-.56,1.67A2.08,2.08,0,0,1,318.21,122Z"/>
          <path d="M317.66,117.14a2.41,2.41,0,0,1,2.3,2.54,2.07,2.07,0,0,1-.44,1.34,1.62,1.62,0,0,1-1.31.53,2.41,2.41,0,0,1-2.3-2.54,2.06,2.06,0,0,1,.44-1.34,1.64,1.64,0,0,1,1.31-.53m0-1c-4,0-3.45,6.41.55,6.41s3.45-6.41-.55-6.41Z"/>
        </g>
      </g>
      <image class="hair-2" data-name="hair" width="496" height="521" transform="translate(6 -11)" xlink:href="assets/hair1.png"/>
    </g>
  </g>
</svg>
