<svg id="part-body3" data-name="Layer 1" xmlns="http://www.w3.org/2000/svg" xmlns:xlink="http://www.w3.org/1999/xlink" viewBox="0 0 469 500">
  <defs>
    <style>
      #part-body3 .cls-1 {
        fill: #fff;
      }
      #part-body3 .shadow{
        filter: brightness(80%);
      }

    </style>
  </defs>
  <g id="body1">
    <g>
      <path class="cls-1" d="M232.31,489.39c-29.48,0-58.55-9.22-86.4-27.4-25.84-16.88-49.49-40.64-70.27-70.6C35.26,333.17,11.15,258.2,11.15,190.83c0-37.74,35-68.42,98.68-86.41l.28-.08.07-.29a122.81,122.81,0,0,1,42.64-66.92A120.82,120.82,0,0,1,229,10.46a122.35,122.35,0,0,1,118.14,90.76l.07.29.29.07c70.51,17.48,109.34,49.17,109.34,89.25,0,67.08-24.73,142-66.17,200.55-20.9,29.52-45.61,53.94-71.43,70.6C291.07,480.17,261.82,489.39,232.31,489.39Z"/>
      <path d="M229,11a121.84,121.84,0,0,1,117.65,90.39l.16.57.57.14c33.12,8.21,59.41,19.65,78.15,34,20.45,15.64,30.81,34.07,30.81,54.78,0,67-24.7,141.85-66.07,200.26-20.88,29.47-45.53,53.84-71.3,70.47-28.1,18.14-57.26,27.33-86.67,27.33S174,479.7,146.19,461.57C120.39,444.72,96.8,421,76.05,391.1c-40.33-58.13-64.4-133-64.4-200.27,0-19.56,9.27-37.12,27.55-52.19C56,124.77,79.83,113.42,110,104.9l.57-.16.14-.57a122.35,122.35,0,0,1,42.46-66.65A120.39,120.39,0,0,1,229,11m0-1a122.78,122.78,0,0,0-119.32,94c-57.6,16.29-99,45.23-99,86.9,0,136.83,98.31,299.06,221.66,299.06s225-162.23,225-299.06c0-44.2-46.62-74.09-109.72-89.74A122.79,122.79,0,0,0,229,10Z"/>
    </g>
    <g>
      <path class="cls-1 shadow" d="M452.83,248.22A271.54,271.54,0,0,0,228.58,129.43a267.59,267.59,0,0,0-122.19,29.14,275,275,0,0,0-92.83,77,313.68,313.68,0,0,1-3.2-44c0-37.91,35.21-68.75,99.16-86.83l.28-.08.07-.29a123.49,123.49,0,0,1,42.85-67.25,121.43,121.43,0,0,1,76.56-26.79A122.94,122.94,0,0,1,348,101.52l.08.29.28.07c70.86,17.56,109.88,49.41,109.88,89.68A311.65,311.65,0,0,1,452.83,248.22Z"/>
      <path d="M229.28,10.82a122.44,122.44,0,0,1,118.24,90.83l.15.57.57.14c33.29,8.25,59.71,19.74,78.54,34.15,20.54,15.72,31,34.24,31,55.05a309.49,309.49,0,0,1-5.19,55.38A275.26,275.26,0,0,0,358,161.78a271.31,271.31,0,0,0-251.83-3.66,275.68,275.68,0,0,0-92.27,76.21,313.57,313.57,0,0,1-3-42.77c0-19.65,9.31-37.29,27.69-52.45,16.9-13.93,40.82-25.34,71.11-33.9l.56-.16.14-.57A123,123,0,0,1,153,37.5a121,121,0,0,1,76.25-26.68m0-1a123.37,123.37,0,0,0-119.9,94.43C51.5,120.61,9.86,149.7,9.86,191.56a315.75,315.75,0,0,0,3.37,45.26c49.63-65,127.61-106.89,215.35-106.89,93.34,0,175.65,47.41,224.51,119.57a312.19,312.19,0,0,0,5.65-57.94c0-44.4-46.85-74.45-110.26-90.17A123.38,123.38,0,0,0,229.28,9.82Z"/>
    </g>
  </g>
  <g class="freakles1">
    <g>
      <path class="cls-1" d="M118,201.84c-2.84,0-6.32-1.39-6.78-5.3a6.71,6.71,0,0,1,1.69-5,4.79,4.79,0,0,1,3.56-1.73c2.84,0,6.32,1.39,6.79,5.3a6.76,6.76,0,0,1-1.69,5A4.83,4.83,0,0,1,118,201.84Z"/>
      <path d="M116.48,190.32c2.76,0,5.87,1.27,6.29,4.86a6.18,6.18,0,0,1-1.57,4.59,4.31,4.31,0,0,1-3.19,1.57c-2.76,0-5.86-1.28-6.28-4.86a6.19,6.19,0,0,1,1.57-4.6,4.3,4.3,0,0,1,3.18-1.56m0-1c-3.58,0-6.12,4-5.75,7.27.46,3.86,3.7,5.75,7.28,5.75s6.13-4,5.75-7.28c-.45-3.86-3.7-5.74-7.28-5.74Z"/>
    </g>
    <g>
      <path class="cls-1" d="M136.21,213.75a3.58,3.58,0,0,1-2.58-1.17,4.12,4.12,0,0,1-1.15-3,4,4,0,0,1,4.2-3.75,3.55,3.55,0,0,1,2.58,1.16,4.14,4.14,0,0,1,1.15,3A4,4,0,0,1,136.21,213.75Z"/>
      <path d="M136.68,206.33a3.08,3.08,0,0,1,2.22,1,3.64,3.64,0,0,1,1,2.63,3.53,3.53,0,0,1-3.7,3.28,3.08,3.08,0,0,1-2.22-1,3.68,3.68,0,0,1-1-2.64,3.55,3.55,0,0,1,3.7-3.27m0-1a4.47,4.47,0,1,0,4.23,4.69,4.48,4.48,0,0,0-4.23-4.69Z"/>
    </g>
    <g>
      <path class="cls-1" d="M118,223.62c-2.82,0-6.27-1.39-6.71-5.3A6.7,6.7,0,0,1,113,213.4a4.83,4.83,0,0,1,3.56-1.73c2.82,0,6.27,1.39,6.71,5.29a6.6,6.6,0,0,1-1.68,4.92A4.79,4.79,0,0,1,118,223.62Z"/>
      <path d="M116.51,212.17c2.61,0,5.81,1.27,6.21,4.85a6.1,6.1,0,0,1-1.55,4.53,4.31,4.31,0,0,1-3.19,1.57c-2.61,0-5.81-1.28-6.21-4.86a6.15,6.15,0,0,1,1.55-4.53,4.33,4.33,0,0,1,3.19-1.56m0-1c-3.55,0-6.1,4-5.73,7.2.43,3.84,3.65,5.75,7.2,5.75s6.1-4,5.74-7.21c-.43-3.83-3.66-5.74-7.21-5.74Z"/>
    </g>
    <g>
      <path class="cls-1" d="M85.81,190.8a4.29,4.29,0,0,1-4.39-4.55,4.83,4.83,0,0,1,1.11-3.18,4.23,4.23,0,0,1,3.32-1.42,4.29,4.29,0,0,1,4.39,4.55,4.83,4.83,0,0,1-1.11,3.18A4.23,4.23,0,0,1,85.81,190.8Z"/>
      <path d="M85.85,182.15a3.77,3.77,0,0,1,3.89,4,3.81,3.81,0,0,1-3.93,4.1,3.7,3.7,0,0,1-2.92-1.23,4.37,4.37,0,0,1-1-2.82,3.82,3.82,0,0,1,3.94-4.1m0-1c-6.55,0-6.59,10.15,0,10.15s6.59-10.15,0-10.15Z"/>
    </g>
    <g>
      <path class="cls-1" d="M145.6,230.37a2.42,2.42,0,0,1-2.59-2.61,3.88,3.88,0,0,1,.92-2.48,3.25,3.25,0,0,1,2.56-1.16,2.41,2.41,0,0,1,2.59,2.6,3.89,3.89,0,0,1-.91,2.49A3.32,3.32,0,0,1,145.6,230.37Z"/>
      <path d="M146.49,224.62a2,2,0,0,1,1.59.6,2.28,2.28,0,0,1,.5,1.5,3.06,3.06,0,0,1-3,3.15,2,2,0,0,1-1.59-.61,2.24,2.24,0,0,1-.5-1.5,3.06,3.06,0,0,1,3-3.14m0-1c-4.64,0-5.58,7.25-.89,7.25s5.58-7.25.89-7.25Z"/>
    </g>
    <g>
      <path class="cls-1" d="M166.77,237.46a6.37,6.37,0,0,1-6.34-6.63,4.75,4.75,0,0,1,5-5.07,6.36,6.36,0,0,1,6.33,6.62,5.35,5.35,0,0,1-1.22,3.54A4.9,4.9,0,0,1,166.77,237.46Z"/>
      <path d="M165.47,226.26a5.87,5.87,0,0,1,5.83,6.12c0,2.21-1.19,4.58-4.53,4.58a5.48,5.48,0,0,1-4.31-1.94,6.52,6.52,0,0,1-1.53-4.19,4.23,4.23,0,0,1,4.54-4.57m0-1c-8.24,0-6.85,12.7,1.3,12.7s6.84-12.7-1.3-12.7Z"/>
    </g>
    <g>
      <path class="cls-1" d="M323.35,232.12a5.49,5.49,0,0,1-4-1.93,7.23,7.23,0,0,1-1.87-5.38c.43-4.1,4-5.93,7.36-5.93a5.45,5.45,0,0,1,4,1.93,7.21,7.21,0,0,1,1.87,5.37C330.29,230.28,326.71,232.12,323.35,232.12Z"/>
      <path d="M324.81,219.37a5,5,0,0,1,3.66,1.77,6.73,6.73,0,0,1,1.74,5c-.26,2.53-2.21,5.49-6.86,5.49a5,5,0,0,1-3.66-1.76,6.7,6.7,0,0,1-1.74-5c.42-4.05,4-5.49,6.86-5.49m0-1c-3.9,0-7.42,2.21-7.86,6.39-.37,3.58,2.48,7.86,6.4,7.86s7.43-2.21,7.86-6.39c.36-3.58-2.48-7.86-6.4-7.86Z"/>
    </g>
    <g>
      <path class="cls-1" d="M302,237.33a6.14,6.14,0,0,1-6.12-6.4,5.31,5.31,0,0,1,1.21-3.52,4.84,4.84,0,0,1,3.77-1.53,6.14,6.14,0,0,1,6.12,6.41,5.31,5.31,0,0,1-1.21,3.52A4.86,4.86,0,0,1,302,237.33Z"/>
      <path d="M300.82,226.38a5.66,5.66,0,0,1,5.62,5.91,4.83,4.83,0,0,1-1.09,3.19,4.28,4.28,0,0,1-3.39,1.35,5.65,5.65,0,0,1-5.62-5.9,4.76,4.76,0,0,1,1.09-3.19,4.29,4.29,0,0,1,3.39-1.36m0-1c-8.07,0-6.85,12.45,1.14,12.45s6.85-12.45-1.14-12.45Z"/>
    </g>
    <g>
      <path class="cls-1" d="M281.14,247.14a3.86,3.86,0,0,1-2.78-1.24,4.17,4.17,0,0,1,3.13-7.13,3.87,3.87,0,0,1,2.79,1.24,4.18,4.18,0,0,1-3.14,7.13Z"/>
      <path d="M281.49,239.27a3.38,3.38,0,0,1,2.43,1.09,3.68,3.68,0,0,1-2.78,6.28,3.35,3.35,0,0,1-2.42-1.08,3.68,3.68,0,0,1,2.77-6.29m0-1a4.69,4.69,0,1,0,4.51,4.85,4.75,4.75,0,0,0-4.51-4.85Z"/>
    </g>
    <g>
      <path class="cls-1" d="M323,200.67a3.45,3.45,0,0,1-2.7-1.12,3.9,3.9,0,0,1-.89-2.56,4,4,0,0,1,4.07-4.26,3.46,3.46,0,0,1,2.7,1.12,3.9,3.9,0,0,1,.88,2.56A4,4,0,0,1,323,200.67Z"/>
      <path d="M323.45,193.23a2.91,2.91,0,0,1,2.32,1,3.38,3.38,0,0,1,.76,2.23,3.55,3.55,0,0,1-3.56,3.76,2.94,2.94,0,0,1-2.33-.95,3.4,3.4,0,0,1-.76-2.23,3.56,3.56,0,0,1,3.57-3.76m0-1c-5.74,0-6.26,8.94-.48,8.94s6.25-8.94.48-8.94Z"/>
    </g>
    <g>
      <path class="cls-1" d="M316.49,210.49a2.65,2.65,0,0,1-2.62-2.76,2.22,2.22,0,0,1,.51-1.49,2,2,0,0,1,1.58-.64,2.64,2.64,0,0,1,2.63,2.76,2.22,2.22,0,0,1-.51,1.49A2,2,0,0,1,316.49,210.49Z"/>
      <path d="M316,206.1a2.17,2.17,0,0,1,2.13,2.26,1.73,1.73,0,0,1-.39,1.16,1.53,1.53,0,0,1-1.21.47,2.16,2.16,0,0,1-2.12-2.26,1.72,1.72,0,0,1,.38-1.16,1.53,1.53,0,0,1,1.21-.47m0-1c-3.81,0-3.25,5.89.53,5.89s3.25-5.89-.53-5.89Z"/>
    </g>
    <g>
      <path class="cls-1" d="M345.14,211.18a4.73,4.73,0,0,1-4.82-5,5,5,0,0,1,1.14-3.29,4.39,4.39,0,0,1,3.45-1.46,4.73,4.73,0,0,1,4.82,5,5,5,0,0,1-1.14,3.29A4.42,4.42,0,0,1,345.14,211.18Z"/>
      <path d="M344.91,201.91a4.24,4.24,0,0,1,4.32,4.52,4.5,4.5,0,0,1-1,3,3.92,3.92,0,0,1-3.07,1.29,4.24,4.24,0,0,1-4.32-4.52,4,4,0,0,1,4.09-4.25m0-1c-7,0-6.71,10.77.23,10.77s6.71-10.77-.23-10.77Z"/>
    </g>
    <g>
      <path class="cls-1" d="M341.82,222.74a2.7,2.7,0,0,1-2.69-2.82,2.3,2.3,0,0,1,.52-1.51,2,2,0,0,1,1.6-.64,2.69,2.69,0,0,1,2.68,2.82,2.28,2.28,0,0,1-.51,1.51A2,2,0,0,1,341.82,222.74Z"/>
      <path d="M341.25,218.27a2.22,2.22,0,0,1,2.18,2.32,1.75,1.75,0,0,1-.39,1.18,1.54,1.54,0,0,1-1.22.47,2.23,2.23,0,0,1-2.19-2.32,1.8,1.8,0,0,1,.39-1.18,1.58,1.58,0,0,1,1.23-.47m0-1c-3.86,0-3.27,6,.57,6s3.26-6-.57-6Z"/>
    </g>
    <g>
      <path class="cls-1" d="M311.83,240a2.79,2.79,0,0,1-1-.21,2.15,2.15,0,0,1-.45-.27l-.22-.14a2,2,0,0,1-.93-1.43,1.84,1.84,0,0,1,.49-1.49l.06-.07,0-.09a2.28,2.28,0,0,1,1.54-1.59l.4-.09h.06l.68-.14h.24l.35,0,.19.05.67.47a2.4,2.4,0,0,1,1,2,2.26,2.26,0,0,1-1,1.87l-.07,0-.05.07a2.38,2.38,0,0,1-1.94,1Z"/>
      <path d="M312.69,235a1.18,1.18,0,0,1,.27,0H313l.59.42a1.92,1.92,0,0,1,.81,1.55,1.76,1.76,0,0,1-.83,1.46l-.14.1-.1.13a1.85,1.85,0,0,1-1.53.84,2.37,2.37,0,0,1-.84-.17,2.18,2.18,0,0,1-.36-.22l-.21-.14a1.55,1.55,0,0,1-.73-1.08,1.33,1.33,0,0,1,.37-1.09l.13-.15.06-.17a1.79,1.79,0,0,1,1.19-1.28l.34-.08h.12l.07,0,.54-.11h.18m0-1a4.68,4.68,0,0,0-1,.16h0l-.43.1a2.78,2.78,0,0,0-1.89,1.9,2.39,2.39,0,0,0,.55,3.67,5.14,5.14,0,0,0,.75.45,3.25,3.25,0,0,0,1.22.25,2.86,2.86,0,0,0,2.34-1.25,2.79,2.79,0,0,0,0-4.65l.32,0a2.94,2.94,0,0,0-1.38-.65,2.28,2.28,0,0,0-.45,0Z"/>
    </g>
    <g>
      <path class="cls-1" d="M338.77,187.07a4.21,4.21,0,0,1-2-.44v-.07l-.31-.17a5.93,5.93,0,0,1-2.35-1.89l-.77-1.4a5.94,5.94,0,0,1,4.92-8c.2,0,.41,0,.61,0a6,6,0,0,1,5.53,3.76c.87,2.22.29,5.61-2,6.91l-.67.39-.12.14a5.63,5.63,0,0,1-2.91.81Z"/>
      <path d="M338.9,175.56A5.47,5.47,0,0,1,344,179c.8,2,.23,5.15-1.74,6.29l-.3.17-.3.18-.16.1-.1.11h0a5.11,5.11,0,0,1-2.58.7,4.05,4.05,0,0,1-1.39-.23v-.09l-.7-.32a5.48,5.48,0,0,1-2.11-1.68c-.18-.31-.35-.63-.52-.94l-.22-.39a5.43,5.43,0,0,1,4.5-7.33,5.25,5.25,0,0,1,.56,0m0-1c-.22,0-.44,0-.67,0a6.44,6.44,0,0,0-5.3,8.74l.81,1.46a6.48,6.48,0,0,0,2.54,2s0,0,0,.06a4.64,4.64,0,0,0,2.5.67,6,6,0,0,0,3.23-.93l.12-.12.6-.36c2.46-1.42,3.14-5.07,2.17-7.52a6.48,6.48,0,0,0-6-4.08Z"/>
    </g>
    <g>
      <path class="cls-1" d="M358.64,188.92a3,3,0,0,1-2.19-1,3.84,3.84,0,0,1-1-2.83,3.69,3.69,0,0,1,3.92-3.26,3,3,0,0,1,2.2,1,3.83,3.83,0,0,1,1,2.83A3.67,3.67,0,0,1,358.64,188.92Z"/>
      <path d="M359.34,182.29a2.5,2.5,0,0,1,1.83.88,3.34,3.34,0,0,1,.89,2.45,3.17,3.17,0,0,1-3.42,2.8,2.52,2.52,0,0,1-1.83-.87,3.37,3.37,0,0,1-.89-2.46,3.18,3.18,0,0,1,3.42-2.8m0-1a4.16,4.16,0,0,0-4.42,3.72c-.17,2.07,1.49,4.41,3.72,4.41a4.14,4.14,0,0,0,4.41-3.72c.18-2.07-1.49-4.41-3.71-4.41Z"/>
    </g>
    <g>
      <path class="cls-1" d="M366.33,206.38a3,3,0,0,1-3-3.12,2.4,2.4,0,0,1,.54-1.6,2.17,2.17,0,0,1,1.71-.67,3,3,0,0,1,3,3.11,2.4,2.4,0,0,1-.54,1.6A2.17,2.17,0,0,1,366.33,206.38Z"/>
      <path d="M365.61,201.49a2.32,2.32,0,0,1,1.82.81,2.86,2.86,0,0,1,.65,1.8,1.62,1.62,0,0,1-1.75,1.78,2.3,2.3,0,0,1-1.81-.82,2.79,2.79,0,0,1-.66-1.8,1.61,1.61,0,0,1,1.75-1.77m0-1c-4.13,0-3.38,6.39.72,6.39s3.38-6.39-.72-6.39Z"/>
    </g>
    <g>
      <path class="cls-1" d="M339,154.26a3,3,0,0,1-1.3-.31c-.43-.2-.87-.4-1.35-.59l-.26-.18-.12-.07a5.21,5.21,0,0,1-.46-.3l0,.05-.89-.64a3.83,3.83,0,0,1-1.49-3.38,5.48,5.48,0,0,1,2.36-4.33,4.72,4.72,0,0,1,2.51-.74,5.29,5.29,0,0,1,4.79,3.54,5.48,5.48,0,0,1,.27,2.83c-.23,1.94-2,4.12-4,4.12Z"/>
      <path d="M338,144.27a4.8,4.8,0,0,1,4.33,3.22,5.21,5.21,0,0,1,.24,2.59c-.21,1.74-1.76,3.68-3.52,3.68a2.48,2.48,0,0,1-1.08-.26c-.39-.19-.81-.37-1.25-.55l-.32-.19-.12-.08a3.87,3.87,0,0,1-.43-.27l0,.05-.75-.54-.14-.1a3.42,3.42,0,0,1-1.29-3,5,5,0,0,1,2.12-3.92,4.27,4.27,0,0,1,2.25-.67m0-1a5.22,5.22,0,0,0-2.77.82c-2.69,1.66-3.78,6.42-.9,8.54l1.21.88-.28-.3a6.57,6.57,0,0,0,.62.4l0,.07c.58.22,1.14.45,1.69.72a3.48,3.48,0,0,0,1.52.36c2.31,0,4.25-2.39,4.51-4.56a6.19,6.19,0,0,0-.3-3.07,5.79,5.79,0,0,0-5.26-3.86Z"/>
    </g>
    <g>
      <path class="cls-1" d="M357.59,167.14a5.43,5.43,0,0,1-5.7-5,5.61,5.61,0,0,1,1.55-4.1,4.76,4.76,0,0,1,3.45-1.57,5.42,5.42,0,0,1,5.7,5,5.63,5.63,0,0,1-1.55,4.11A4.76,4.76,0,0,1,357.59,167.14Z"/>
      <path d="M356.89,156.94a5,5,0,0,1,5.2,4.56,5.12,5.12,0,0,1-1.41,3.72,4.24,4.24,0,0,1-3.09,1.42,5,5,0,0,1-5.2-4.56,5.08,5.08,0,0,1,1.42-3.72,4.22,4.22,0,0,1,3.08-1.42m0-1c-3.2,0-5.68,3.15-5.5,6.2a6,6,0,0,0,6.2,5.5c3.2,0,5.68-3.16,5.5-6.2a6,6,0,0,0-6.2-5.5Z"/>
    </g>
    <g>
      <path class="cls-1" d="M374.29,175.2a3.37,3.37,0,0,1-3.33-3.48,2.23,2.23,0,0,1,2.4-2.4,3.37,3.37,0,0,1,3.33,3.48A2.23,2.23,0,0,1,374.29,175.2Z"/>
      <path d="M373.36,169.82a2.62,2.62,0,0,1,2.07.94,3.2,3.2,0,0,1,.76,2,1.74,1.74,0,0,1-1.9,1.9,2.65,2.65,0,0,1-2.07-.93,3.22,3.22,0,0,1-.76-2.05,1.74,1.74,0,0,1,1.9-1.9m0-1c-4.46,0-3.49,6.88.93,6.88s3.49-6.88-.93-6.88Z"/>
    </g>
    <g>
      <path class="cls-1" d="M116.31,149.91c-2.77,0-5.7-1.76-6-5.1a5.82,5.82,0,0,1,1.58-4.29,4.76,4.76,0,0,1,3.49-1.62c2.77,0,5.7,1.75,5.95,5.1a5.82,5.82,0,0,1-1.58,4.29A4.79,4.79,0,0,1,116.31,149.91Z"/>
      <path d="M115.43,139.4c2.46,0,5.22,1.45,5.45,4.64a5.32,5.32,0,0,1-1.45,3.91,4.27,4.27,0,0,1-3.12,1.46c-2.46,0-5.22-1.45-5.45-4.64a5.3,5.3,0,0,1,1.45-3.91,4.27,4.27,0,0,1,3.12-1.46m0-1c-3.29,0-5.8,3.35-5.57,6.44.26,3.45,3.17,5.57,6.45,5.57s5.79-3.35,5.57-6.45c-.25-3.45-3.17-5.56-6.45-5.56Z"/>
    </g>
    <g>
      <path class="cls-1" d="M98.59,174.23a5.6,5.6,0,0,1-5.86-5.08,5.72,5.72,0,0,1,1.57-4.23,4.73,4.73,0,0,1,3.47-1.6c2.74,0,5.64,1.74,5.87,5.07a5.75,5.75,0,0,1-1.58,4.24A4.75,4.75,0,0,1,98.59,174.23Z"/>
      <path d="M97.77,163.82a5.12,5.12,0,0,1,5.38,4.6,5.3,5.3,0,0,1-1.45,3.87,4.27,4.27,0,0,1-3.11,1.44,5.11,5.11,0,0,1-5.36-4.62,5.25,5.25,0,0,1,1.43-3.85,4.28,4.28,0,0,1,3.11-1.44m0-1c-3.25,0-5.76,3.28-5.54,6.36a6.07,6.07,0,0,0,6.36,5.55c3.26,0,5.76-3.3,5.55-6.37-.23-3.41-3.11-5.54-6.37-5.54Z"/>
    </g>
    <g>
      <path class="cls-1" d="M90.33,204a2.07,2.07,0,0,1-2.08-2.18,2,2,0,0,1,.45-1.3,1.69,1.69,0,0,1,1.35-.55,2.06,2.06,0,0,1,2.08,2.18,2,2,0,0,1-.44,1.29A1.71,1.71,0,0,1,90.33,204Z"/>
      <path d="M90.05,200.42a1.58,1.58,0,0,1,1.58,1.68,1.53,1.53,0,0,1-.32,1,1.24,1.24,0,0,1-1,.38,1.58,1.58,0,0,1-1.58-1.68,1.46,1.46,0,0,1,.33-1,1.19,1.19,0,0,1,1-.38m0-1c-3.25,0-3,5,.28,5s3-5-.28-5Z"/>
    </g>
    <g>
      <path class="cls-1" d="M102.93,211.57a3,3,0,0,1-2.31-.93,3.28,3.28,0,0,1-.74-2.17,3.79,3.79,0,0,1,3.76-3.95,3,3,0,0,1,2.31.93,3.28,3.28,0,0,1,.74,2.17A3.79,3.79,0,0,1,102.93,211.57Z"/>
      <path d="M103.64,205a2.45,2.45,0,0,1,1.93.76,2.78,2.78,0,0,1,.62,1.84,3.3,3.3,0,0,1-3.26,3.45,2.49,2.49,0,0,1-1.94-.76,2.83,2.83,0,0,1-.61-1.84,3.3,3.3,0,0,1,3.26-3.45m0-1c-5.16,0-5.92,8-.71,8s5.92-8,.71-8Z"/>
    </g>
    <g>
      <path class="cls-1" d="M78.51,170.68a2.91,2.91,0,0,1-3.19-2.44,3.17,3.17,0,0,1,.79-2.34,2.15,2.15,0,0,1,1.6-.79,2.91,2.91,0,0,1,3.19,2.45,3.15,3.15,0,0,1-.79,2.33A2.15,2.15,0,0,1,78.51,170.68Z"/>
      <path d="M77.71,165.61c.58,0,2.47.15,2.69,2a2.62,2.62,0,0,1-.66,1.93,1.69,1.69,0,0,1-1.23.62,2.43,2.43,0,0,1-2.69-2,2.68,2.68,0,0,1,.67-2,1.68,1.68,0,0,1,1.22-.62m0-1c-1.8,0-3.08,2.06-2.88,3.69.23,1.94,1.88,2.88,3.68,2.88s3.08-2.05,2.89-3.68a3.4,3.4,0,0,0-3.69-2.89Z"/>
    </g>
    <g>
      <path class="cls-1" d="M96.94,152.53l-.47,0a3.81,3.81,0,0,1-1.59-.7l-.15-.09a3.9,3.9,0,0,1-1.33-2.62,3,3,0,0,1,.76-2.33,2.76,2.76,0,0,1,2-1,2.56,2.56,0,0,1,.47,0l.34.07.17,0a2.77,2.77,0,0,1,2.17,1.77l0,.07.05.06a3,3,0,0,1,.56,2.12V150l0,.09a1.54,1.54,0,0,1-.26,1.4,2.38,2.38,0,0,1-1.84.82h0a2.27,2.27,0,0,1-.83-.15Z"/>
      <path d="M96.21,146.26l.34,0,.37.08.17,0a2.26,2.26,0,0,1,1.8,1.45l0,.14.09.12a2.55,2.55,0,0,1,.47,1.76l0,.18,0,.18a1.06,1.06,0,0,1-.18,1,1.86,1.86,0,0,1-1.44.63,1.76,1.76,0,0,1-.66-.12l-.13.33a3.22,3.22,0,0,1-2-.67l-.15-.09A3.32,3.32,0,0,1,93.9,149a2.53,2.53,0,0,1,.63-1.94,2.27,2.27,0,0,1,1.68-.81h0m0-1a3.51,3.51,0,0,0-3.3,3.89,4.2,4.2,0,0,0,1.55,3,4.77,4.77,0,0,0,1.94.85,6.32,6.32,0,0,0,.77.06c.38,0,.55-.08-.28-.39h0a3,3,0,0,0,1,.18c1.52,0,3-1.13,2.59-2.85a3.56,3.56,0,0,0-.66-2.47,3.24,3.24,0,0,0-2.54-2.09l-.51-.11a2.75,2.75,0,0,0-.57-.05Z"/>
    </g>
    <g>
      <path class="cls-1" d="M190.34,40.17A3.7,3.7,0,0,1,187.68,39a4.24,4.24,0,0,1-1.18-3,4.13,4.13,0,0,1,4.27-3.87,3.67,3.67,0,0,1,2.65,1.2,4.21,4.21,0,0,1,1.19,3.05A4.12,4.12,0,0,1,190.34,40.17Z"/>
      <path d="M190.77,32.56a3.17,3.17,0,0,1,2.29,1,3.75,3.75,0,0,1,1.05,2.68,3.63,3.63,0,0,1-3.77,3.39,3.17,3.17,0,0,1-2.29-1A3.73,3.73,0,0,1,187,36a3.63,3.63,0,0,1,3.77-3.39m0-1a4.56,4.56,0,1,0,4.34,4.77,4.62,4.62,0,0,0-4.34-4.77Z"/>
    </g>
    <g>
      <path class="cls-1" d="M237.88,46.41a5,5,0,0,1-3.78-8.61,4.68,4.68,0,0,1,3.39-1.5,5,5,0,0,1,3.77,8.61A4.67,4.67,0,0,1,237.88,46.41Z"/>
      <path d="M237.49,36.8a4.55,4.55,0,0,1,3.41,7.76,4.2,4.2,0,0,1-3,1.35,4.55,4.55,0,0,1-3.42-7.77,4.23,4.23,0,0,1,3-1.34m0-1a5.56,5.56,0,1,0,5.74,5.36,5.59,5.59,0,0,0-5.74-5.36Z"/>
    </g>
    <g>
      <path class="cls-1" d="M274.34,50.21a5.41,5.41,0,0,1-5.36-5l0-.72A5.45,5.45,0,0,1,274,38.72h.28a6,6,0,0,1,4.17,1.85,4.26,4.26,0,0,1,1.27,3.15l0,.75c-.13,2.52-1.52,5.53-5,5.74Z"/>
      <path d="M274.28,39.21a5.5,5.5,0,0,1,3.81,1.69,3.82,3.82,0,0,1,1.13,2.79v.22c0,.18,0,.35,0,.53-.12,2.31-1.38,5.07-4.57,5.26h-.28a4.9,4.9,0,0,1-4.86-4.56l0-.43v-.3a5,5,0,0,1,4.58-5.2h.25m0-1H274a6,6,0,0,0-5.52,6.26l0,.72a5.92,5.92,0,0,0,5.86,5.51h.35c3.44-.21,5.34-3,5.49-6.21,0-.25,0-.5,0-.75.15-3.11-3.07-5.53-5.94-5.53Z"/>
    </g>
    <g>
      <path class="cls-1" d="M250.88,32.4a4.86,4.86,0,0,1-3.54-8.31,4.63,4.63,0,0,1,3.32-1.44A4.87,4.87,0,0,1,254.21,31,4.66,4.66,0,0,1,250.88,32.4Z"/>
      <path d="M250.66,23.15a4.36,4.36,0,0,1,3.19,7.46,4.17,4.17,0,0,1-3,1.29,4.36,4.36,0,0,1-3.18-7.46,4.13,4.13,0,0,1,3-1.29m0-1a5.38,5.38,0,1,0,5.48,5.27,5.41,5.41,0,0,0-5.48-5.27Z"/>
    </g>
    <g>
      <path class="cls-1" d="M208.77,49.21A4,4,0,0,1,204.68,45a4.21,4.21,0,0,1,4.3-4.48,4,4,0,0,1,4.1,4.23A4.22,4.22,0,0,1,208.77,49.21Z"/>
      <path d="M209,41a3.37,3.37,0,0,1,2.7,1.12,4,4,0,0,1,.9,2.61,3.75,3.75,0,0,1-3.81,4,3.37,3.37,0,0,1-2.69-1.13,4,4,0,0,1-.9-2.61,3.74,3.74,0,0,1,3.8-4m0-1c-6.26,0-6.48,9.72-.21,9.72S215.26,40,209,40Z"/>
    </g>
    <g>
      <path class="cls-1" d="M172.23,59.74c-3.07,0-6.53-1.41-7-5.36a7,7,0,0,1,1.71-5.21,4.83,4.83,0,0,1,3.59-1.77c3.07,0,6.53,1.41,7.05,5.36a6.91,6.91,0,0,1-1.7,5.2A4.83,4.83,0,0,1,172.23,59.74Z"/>
      <path d="M170.48,47.9c1.39,0,6,.35,6.55,4.92a6.39,6.39,0,0,1-1.58,4.81,4.29,4.29,0,0,1-3.22,1.61c-1.38,0-5.95-.35-6.55-4.92a6.4,6.4,0,0,1,1.59-4.82,4.32,4.32,0,0,1,3.21-1.6m0-1c-3.68,0-6.22,4.27-5.8,7.55.53,4,3.89,5.79,7.55,5.79S178.46,56,178,52.69c-.52-4-3.87-5.79-7.54-5.79Z"/>
    </g>
    <g>
      <path class="cls-1" d="M157.29,70.15a4,4,0,0,1-4.1-4.23,4.22,4.22,0,0,1,4.31-4.49,3.9,3.9,0,0,1,3.07,1.3,4.44,4.44,0,0,1,1,2.93A4.21,4.21,0,0,1,157.29,70.15Z"/>
      <path d="M157.5,61.93a3.39,3.39,0,0,1,2.69,1.12,4,4,0,0,1,.9,2.61,3.74,3.74,0,0,1-3.8,4,3.4,3.4,0,0,1-2.7-1.12,4,4,0,0,1-.9-2.61,3.74,3.74,0,0,1,3.81-4m0-1c-6.26,0-6.49,9.72-.21,9.72s6.48-9.72.21-9.72Z"/>
    </g>
    <g>
      <path class="cls-1" d="M216.32,33.24c-3.4,0-6-2.16-6.31-5.25a6.57,6.57,0,0,1,1.69-4.8,4.6,4.6,0,0,1,3.41-1.65l1.78,0c2.88.07,6.08,1.48,6.46,5.23a6.22,6.22,0,0,1-1.57,4.6,5,5,0,0,1-3.63,1.79Z"/>
      <path d="M215.11,22h.07l.89,0,.81,0c2.66.06,5.63,1.35,6,4.77a5.71,5.71,0,0,1-1.45,4.21,4.53,4.53,0,0,1-3.26,1.63l-.87,0-.78,0h-.17c-2.56,0-5.47-1.5-5.81-4.8a6,6,0,0,1,1.56-4.41,4.16,4.16,0,0,1,3-1.49m0-1c-3.44,0-5.91,3.9-5.59,7,.36,3.59,3.4,5.7,6.8,5.7h.19l1.65,0c3.46-.08,6-3.69,5.68-6.94-.37-3.75-3.48-5.59-6.93-5.67l-1.7-.05Z"/>
    </g>
    <g>
      <path class="cls-1" d="M282.57,57.18a2.85,2.85,0,0,1-3.12-2.42,3.1,3.1,0,0,1,.78-2.27,2.14,2.14,0,0,1,1.58-.78,2.85,2.85,0,0,1,3.12,2.42,3.05,3.05,0,0,1-.77,2.26A2.13,2.13,0,0,1,282.57,57.18Z"/>
      <path d="M281.81,52.21a2.37,2.37,0,0,1,2.62,2,2.61,2.61,0,0,1-.64,1.87,1.68,1.68,0,0,1-1.22.62,2.37,2.37,0,0,1-2.62-2,2.56,2.56,0,0,1,.65-1.87,1.66,1.66,0,0,1,1.21-.62m0-1c-1.77,0-3,2-2.85,3.61a3.33,3.33,0,0,0,3.61,2.86c1.78,0,3-2,2.85-3.61a3.32,3.32,0,0,0-3.61-2.86Z"/>
    </g>
    <g>
      <path class="cls-1" d="M295.3,45a1.14,1.14,0,0,1-1.13-1.12,2.19,2.19,0,0,0,0-.31,1.79,1.79,0,0,1,.44-1.45,1.81,1.81,0,0,1,1.31-.67,1.24,1.24,0,0,1,1.12.79,2,2,0,0,1,.16,1.36h-.06l-.05.27a1,1,0,0,1-.23.3l-.05,0,0,0-.1.06,0,0-.09.09h-.18l-.06,0-.12.06-.07.08A1,1,0,0,1,295.3,45Z"/>
      <path d="M295.88,42c.1,0,.41,0,.67.52a1.45,1.45,0,0,1,.09,1.11l0,.08a1.59,1.59,0,0,1-.13.16l0,0,0,0h0l-.08.06h-.15l-.14.11-.17.07-.15.19a.56.56,0,0,1-.42.19.63.63,0,0,1-.63-.64,2,2,0,0,0-.05-.36,1.29,1.29,0,0,1,.33-1,1.3,1.3,0,0,1,.93-.5m0-1a2.41,2.41,0,0,0-2.24,2.72,1.15,1.15,0,0,1,0,.26,1.63,1.63,0,0,0,1.63,1.57,1.51,1.51,0,0,0,1.18-.55h0l.07,0a.69.69,0,0,0,.21-.06,1.79,1.79,0,0,0,.14-.13c.05,0,.1,0,.15-.08s0-.08.08-.12a1.6,1.6,0,0,0,.32-.43h0a2.46,2.46,0,0,0-.06-2.07A1.73,1.73,0,0,0,295.88,41Zm1.63,3.13h0Zm0,0Z"/>
    </g>
    <g>
      <path class="cls-1" d="M299.68,72.19a5.06,5.06,0,0,1-3.77-1.85,7.18,7.18,0,0,1-1.8-5.33c.51-4.15,4.22-5.62,7.24-5.62a5.06,5.06,0,0,1,3.77,1.85,7.14,7.14,0,0,1,1.8,5.33C306.42,70.72,302.71,72.19,299.68,72.19Z"/>
      <path d="M301.35,59.89a4.6,4.6,0,0,1,3.4,1.68,6.62,6.62,0,0,1,1.67,4.94c-.46,3.82-3.78,5.18-6.74,5.18a4.6,4.6,0,0,1-3.4-1.68,6.62,6.62,0,0,1-1.67-4.94c.46-3.82,3.79-5.18,6.74-5.18m0-1c-3.78,0-7.24,2-7.73,6.06-.41,3.42,2.27,7.74,6.06,7.74s7.24-2,7.74-6.06c.4-3.41-2.27-7.74-6.07-7.74Z"/>
    </g>
    <g>
      <path class="cls-1" d="M200.57,26.3a4.18,4.18,0,0,1-.61-.05,3.31,3.31,0,0,1-2.81-3.31,3.1,3.1,0,0,1,2.66-3.12,4.25,4.25,0,0,1,.71-.06,3.91,3.91,0,0,1,.83.09,3.33,3.33,0,0,1,2.77,3.21,3.19,3.19,0,0,1-2.65,3.13,3.52,3.52,0,0,1-.9.11Z"/>
      <path d="M200.52,20.26a2.94,2.94,0,0,1,.72.08,2.85,2.85,0,0,1,2.38,2.73,2.72,2.72,0,0,1-2.27,2.64,3.51,3.51,0,0,1-.77.09,2.47,2.47,0,0,1-.54-.05,2.82,2.82,0,0,1-2.39-2.82,2.56,2.56,0,0,1,2.24-2.61,3.44,3.44,0,0,1,.63-.06m0-1a4.33,4.33,0,0,0-.8.07c-4.26.8-4,6.67.15,7.41a4.23,4.23,0,0,0,1.71-.06,3.71,3.71,0,0,0-.12-7.31,3.83,3.83,0,0,0-.94-.11Z"/>
    </g>
    <g>
      <path class="cls-1" d="M172.47,36.73A2.53,2.53,0,0,1,170,34.09a2.23,2.23,0,0,1,.5-1.46A2,2,0,0,1,172,32a2.53,2.53,0,0,1,2.51,2.64,2.18,2.18,0,0,1-.5,1.45A1.93,1.93,0,0,1,172.47,36.73Z"/>
      <path d="M172,32.52a2,2,0,0,1,2,2.14,1.68,1.68,0,0,1-.37,1.12,1.46,1.46,0,0,1-1.16.45,2,2,0,0,1-2-2.14,1.73,1.73,0,0,1,.37-1.13,1.52,1.52,0,0,1,1.17-.44m0-1c-3.7,0-3.2,5.71.48,5.71s3.19-5.71-.48-5.71Z"/>
    </g>
    <g>
      <path class="cls-1" d="M185.59,51.84l-.1,0-.24,0h0a.83.83,0,0,0-.24,0h-.16a.31.31,0,0,0-.2-.08l-.36-.12a2.14,2.14,0,0,1-1.48-2.08v-.25a1.89,1.89,0,0,1,0-.41,2.34,2.34,0,0,1,1.72-2.14l.35-.11a.43.43,0,0,1,.15-.05h.12l.14,0,.27,0h0l.21,0,.23.06.19,0,.29.06,1,.38.09,0A1.86,1.86,0,0,1,188.81,49a2.67,2.67,0,0,1-1.19,2.2c-.12,0-.2,0-.93.46a4,4,0,0,1-1.05.17Z"/>
      <path d="M185.17,47.07h.05l.33.05h.22l.17,0,.19,0,.17,0,0,0,.05,0c.3.1.59.22.9.34l.12,0a1.35,1.35,0,0,1,.89,1.34,2.2,2.2,0,0,1-.86,1.72,3.67,3.67,0,0,0-.92.46,3.78,3.78,0,0,1-1,.15l-.34,0-.25,0-.2-.05-.35-.12a1.61,1.61,0,0,1-1.13-1.61v-.24a1.37,1.37,0,0,1,0-.31v-.1a1.83,1.83,0,0,1,1.35-1.66l.07,0,.34-.11h.08m0-1H185c-.17,0-.29.11-.45.14l-.12,0a2.81,2.81,0,0,0-2.07,2.52,4.35,4.35,0,0,0,0,.63.65.65,0,0,1,0,.14,2.63,2.63,0,0,0,1.81,2.54,4.56,4.56,0,0,0,.44.14c.1,0,.16.07.26.09H185c.1,0,.17,0,.27,0s.23.05.36.05h.07a4.25,4.25,0,0,0,1.27-.23c.47-.27.72-.4.73-.4l-.2.13c2.08-.79,2.69-4.19.32-5.11-.37-.14-.72-.28-1.07-.4a2.5,2.5,0,0,0-.57-.14,3,3,0,0,0-.32-.07h0l-.19,0c-.16,0-.28-.06-.44-.06Z"/>
    </g>
    <g>
      <path class="cls-1" d="M224,45.82a4.87,4.87,0,0,1-3.43-1.39,4.29,4.29,0,0,1-1.24-3.11A4.49,4.49,0,0,1,224,36.9a5.26,5.26,0,0,1,1.12.12,4.87,4.87,0,0,1,1.73.66,4.1,4.1,0,0,1,2,3.43,5,5,0,0,1-2.22,4,4.44,4.44,0,0,1-1.59.56,5.07,5.07,0,0,1-1,.1Z"/>
      <path d="M224,37.4a5.05,5.05,0,0,1,1,.11,4.41,4.41,0,0,1,1.56.59,3.63,3.63,0,0,1,1.77,3,4.47,4.47,0,0,1-2,3.63,4.2,4.2,0,0,1-1.41.48,4.81,4.81,0,0,1-.93.09,4.32,4.32,0,0,1-3.07-1.24,3.79,3.79,0,0,1-1.1-2.76A4,4,0,0,1,224,37.4m0-1a5,5,0,1,0,0,9.92,6.18,6.18,0,0,0,1.13-.11,4.66,4.66,0,0,0,1.77-.64c2.94-2,3.46-6.2.22-8.31a5.39,5.39,0,0,0-1.9-.73A5.71,5.71,0,0,0,224,36.4Z"/>
    </g>
    <g>
      <path class="cls-1" d="M229.94,24.83l-.13,0-.1,0a1.19,1.19,0,0,1-.34-.16s0,0-.06-.06a.93.93,0,0,1-.15-.18,1.38,1.38,0,0,1-.14-.27.82.82,0,0,1,.13-.85l.07-.08a.37.37,0,0,0,.1-.07.66.66,0,0,1,.38-.11h.11l.12,0,.63.08a1,1,0,0,1,.79,1,.57.57,0,0,1-.57.61l-.29,0h-.06l-.05,0a.82.82,0,0,1-.33.07Z"/>
      <path d="M229.7,23.48h.1l.69.09a.42.42,0,0,1,.3.26.44.44,0,0,1,.05.31.42.42,0,0,1-.13,0h-.07l-.25,0-.11,0-.1.05a.25.25,0,0,1-.14,0H230l-.07,0-.06,0h-.07l-.07,0,0,0h0l-.07-.08v0l0,0a.2.2,0,0,1,0-.08l0-.07v0c0-.12,0-.23,0-.27l.07-.07h0l0,0a.17.17,0,0,1,.11,0m0-1a1.15,1.15,0,0,0-.7.23l-.08.05a.37.37,0,0,0-.12.13,1.27,1.27,0,0,0-.25,1.35v0a1.18,1.18,0,0,0,.19.37,1.56,1.56,0,0,0,.23.28.43.43,0,0,1,.1.09,1.36,1.36,0,0,0,.4.2l.09,0a1.14,1.14,0,0,0,.22.07h.27a1.34,1.34,0,0,0,.54-.12,2.13,2.13,0,0,1,.25,0c1.57-.21,1.15-2.4-.22-2.59l-.75-.1Z"/>
    </g>
    <g>
      <path class="cls-1" d="M254,45.29a2.34,2.34,0,0,1-1.76-.88,3.42,3.42,0,0,1-.86-2.57,3.16,3.16,0,0,1,1.17-2.06,3.12,3.12,0,0,1,1.31-.59l.25.12.18.08.18-.06a2.06,2.06,0,0,1,.67-.12c1.41,0,2.35,1.6,2.35,3.08a2.86,2.86,0,0,1-.78,2.06A3.65,3.65,0,0,1,254,45.29Z"/>
      <path d="M253.75,39.71l.11.06.35.15.37-.12a1.61,1.61,0,0,1,.51-.09c1.09,0,1.85,1.36,1.85,2.58a2.42,2.42,0,0,1-.63,1.71,3.22,3.22,0,0,1-2.36.79,1.85,1.85,0,0,1-1.39-.71,2.93,2.93,0,0,1-.73-2.17,2.58,2.58,0,0,1,1-1.73,2.82,2.82,0,0,1,.95-.47m.13-1.05a3.63,3.63,0,0,0-3,3.12c-.22,1.76,1.16,4,3.12,4,5.78,0,4.49-7.08,1.14-7.08a2.72,2.72,0,0,0-.82.14l-.39-.19Z"/>
    </g>
    <g>
      <path class="cls-1" d="M272,30.7A2.64,2.64,0,0,1,269.36,28a2.22,2.22,0,0,1,.51-1.49,2,2,0,0,1,1.58-.64,2.64,2.64,0,0,1,2.63,2.76,2.22,2.22,0,0,1-.51,1.49A2,2,0,0,1,272,30.7Z"/>
      <path d="M271.45,26.32a2.17,2.17,0,0,1,2.13,2.26,1.73,1.73,0,0,1-.39,1.16,1.51,1.51,0,0,1-1.21.46A2.16,2.16,0,0,1,269.86,28a1.78,1.78,0,0,1,.38-1.16,1.53,1.53,0,0,1,1.21-.47m0-1c-3.81,0-3.24,5.88.53,5.88s3.25-5.88-.53-5.88Z"/>
    </g>
    <g>
      <path class="cls-1" d="M156.64,50A2.83,2.83,0,0,1,154,48.27l-.23-.56a2.79,2.79,0,0,1,.21-2.55,2.84,2.84,0,0,1,2.13-1.5H157a.84.84,0,0,0,.19.07,2.79,2.79,0,0,1,1.92,1.57,2.92,2.92,0,0,1,.1,2.45l-.28.68a2.43,2.43,0,0,1-2.3,1.51Z"/>
      <path d="M156.24,44.16h.64l.2,0a2.31,2.31,0,0,1,1.6,1.32,2.42,2.42,0,0,1,.08,2l-.28.69a1.94,1.94,0,0,1-1.84,1.2,2.35,2.35,0,0,1-2.15-1.38l-.23-.56a2.54,2.54,0,0,1,1.93-3.36h.05m0-1h-.17a3.32,3.32,0,0,0-2.49,1.73,3.36,3.36,0,0,0-.25,3l.24.57a3.32,3.32,0,0,0,3.07,2,2.91,2.91,0,0,0,2.76-1.82c.09-.23.19-.46.29-.68a3.44,3.44,0,0,0-.12-2.85,3.31,3.31,0,0,0-2.28-1.86c-.1,0-.18-.06-.28-.07h-.77Z"/>
    </g>
    <g>
      <path class="cls-1" d="M141,75a2.34,2.34,0,0,1-2.35-2.47,2.08,2.08,0,0,1,.48-1.39,1.84,1.84,0,0,1,1.47-.6A2.34,2.34,0,0,1,143,73a2.09,2.09,0,0,1-.48,1.39A1.87,1.87,0,0,1,141,75Z"/>
      <path d="M140.61,71a1.87,1.87,0,0,1,1.85,2,1.6,1.6,0,0,1-.36,1.06,1.37,1.37,0,0,1-1.09.43,1.87,1.87,0,0,1-1.85-2,1.68,1.68,0,0,1,.35-1.07,1.4,1.4,0,0,1,1.1-.42m0-1c-3.53,0-3.11,5.46.4,5.46s3.11-5.46-.4-5.46Z"/>
    </g>
    <g>
      <path class="cls-1" d="M313.49,79.32A3.49,3.49,0,0,1,311,78.17a4.15,4.15,0,0,1-1.15-3A4,4,0,0,1,314,71.46a3.51,3.51,0,0,1,2.54,1.16,4.1,4.1,0,0,1,1.14,3A4,4,0,0,1,313.49,79.32Z"/>
      <path d="M314,72a3,3,0,0,1,2.18,1,3.6,3.6,0,0,1,1,2.62,3.5,3.5,0,0,1-3.68,3.23,3,3,0,0,1-2.17-1,3.64,3.64,0,0,1-1-2.63A3.51,3.51,0,0,1,314,72m0-1a4.51,4.51,0,0,0-4.68,4.18A4.44,4.44,0,1,0,314,71Z"/>
    </g>
    <g>
      <path class="cls-1" d="M305,57.43a5.1,5.1,0,0,1-2.31-.79c-1.4-.74-1.87-2.9-1.37-4.33a3.9,3.9,0,0,1,3.86-2.48h0a2.91,2.91,0,0,1,1.31.32,4.07,4.07,0,0,1,2.37,3.56,3.42,3.42,0,0,1-2,3.14l-.25.08-.18,0-.46.23a2.33,2.33,0,0,1-1,.22Z"/>
      <path d="M305.3,50.33a2.39,2.39,0,0,1,1,.27,3.56,3.56,0,0,1,2.08,3.12,2.87,2.87,0,0,1-1.73,2.67l-.17.06-.19.06-.08,0-.07,0-.21.1-.16.08a1.73,1.73,0,0,1-.76.18,4.78,4.78,0,0,1-2.08-.73,3.27,3.27,0,0,1-1.13-3.72,3.46,3.46,0,0,1,3.42-2.15h.07m0-1h-.11a4.36,4.36,0,0,0-4.32,2.81c-.58,1.65-.05,4.05,1.6,4.93a5.52,5.52,0,0,0,2.55.85,2.62,2.62,0,0,0,1.19-.28l.4-.19a2.6,2.6,0,0,0,.49-.17c3.4-1.69,2.78-6.11-.36-7.59a3.35,3.35,0,0,0-1.44-.37Z"/>
    </g>
    <g>
      <path class="cls-1" d="M317.45,61.61l-.09,0a1.75,1.75,0,0,0-.24,0,1.58,1.58,0,0,0-.28,0h-.18l-.15-.05a1.6,1.6,0,0,0-.26-.08h0l-.11,0a2.26,2.26,0,0,1-1.73-2.3v-.45a.66.66,0,0,1,0-.14A2.45,2.45,0,0,1,316.74,56h.11l.12,0a1.55,1.55,0,0,0,.31,0,.85.85,0,0,0,.23,0h0a.3.3,0,0,1,.12,0l.25.07.11,0,.36.1a3.52,3.52,0,0,1,.72.31l.05,0,.26.11a2,2,0,0,1,1.25,1.81A2.75,2.75,0,0,1,319.2,61a3.25,3.25,0,0,1-1,.44l-.24.07a1.06,1.06,0,0,0-.22.06,2.6,2.6,0,0,1-.31.07Z"/>
      <path d="M316.84,56.5h0a2,2,0,0,0,.41.05l.23,0,.26.07.11,0,.29.08,0,0h0a3.07,3.07,0,0,1,.56.23l.09.06.1,0,.11.05.06,0a1.52,1.52,0,0,1,1,1.38,2.25,2.25,0,0,1-1.18,2l-.05,0,0,0a2.62,2.62,0,0,1-.76.36h-.06l-.15,0-.28.08-.17,0h0l-.32,0h-.09l-.31,0h-.05l-.24-.09-.17,0a1.8,1.8,0,0,1-1.37-1.83V59a.81.81,0,0,0,0-.16V58.5a1.91,1.91,0,0,1,1.87-2h0m-.08,4.61h0m.09-5.61h-.15a2.89,2.89,0,0,0-2.77,3c0,.13,0,.26,0,.39s0,.19,0,.29A2.78,2.78,0,0,0,316,61.92l.12,0a3.64,3.64,0,0,0,.47.14h.13c.13,0,.23,0,.36,0s.23,0,.35,0h.05a4.54,4.54,0,0,0,.66-.16l.21-.05a3.66,3.66,0,0,0,1.06-.49c2-1,2.51-4.1.15-5.17a1.31,1.31,0,0,0-.21-.08,3.62,3.62,0,0,0-.8-.36c-.18-.07-.39-.11-.59-.17s-.24-.09-.39-.1h0c-.09,0-.16,0-.26,0s-.27-.06-.43-.06Z"/>
    </g>
    <g>
      <path class="cls-1" d="M149.3,80.85a1.9,1.9,0,0,1-1.72-1,2,2,0,0,1-.14-.25,3.12,3.12,0,0,1-.13-2.93,2.36,2.36,0,0,1,1.95-1.27h.23a2.87,2.87,0,0,1,2.39,1.45,2.19,2.19,0,0,1,.06,2.24l-.22.39a2.9,2.9,0,0,1-2.42,1.39Z"/>
      <path d="M149.49,75.88a2.37,2.37,0,0,1,2,1.2,1.71,1.71,0,0,1,.07,1.73l-.12.2-.12.21a2.4,2.4,0,0,1-2,1.13,1.42,1.42,0,0,1-1.3-.78c0-.06-.08-.14-.13-.23a2.67,2.67,0,0,1-.12-2.45,1.89,1.89,0,0,1,1.56-1h.18m0-1-.28,0c-2.54.27-3.32,2.94-2.21,4.93l.15.26a2.38,2.38,0,0,0,2.15,1.26,3.38,3.38,0,0,0,2.85-1.64l.23-.39c1.15-2-.78-4.44-2.89-4.44Z"/>
    </g>
    <g>
      <path class="cls-1" d="M145.17,55.77a1.18,1.18,0,0,1-.94-.4,1.43,1.43,0,0,1-.32-.92,1.24,1.24,0,0,1,1.27-1.33,1.17,1.17,0,0,1,.94.39,1.45,1.45,0,0,1,.32.93A1.25,1.25,0,0,1,145.17,55.77Z"/>
      <path d="M145.18,53.62a.69.69,0,0,1,.56.22.89.89,0,0,1,.2.6.75.75,0,0,1-.77.83.72.72,0,0,1-.56-.22.92.92,0,0,1-.2-.6.75.75,0,0,1,.77-.83m0-1a1.83,1.83,0,0,0,0,3.65,1.83,1.83,0,0,0,0-3.65Z"/>
    </g>
  </g>
  <image class="fish" width="446" height="480" transform="translate(11 9.5)" xlink:href="assets/fish1.png"/>
</svg>
