<svg id="part-body2" data-name="Layer 1" xmlns="http://www.w3.org/2000/svg" xmlns:xlink="http://www.w3.org/1999/xlink" viewBox="0 0 508 499" >
  <defs>
    <style>
      #part-body2 .cls-1 {
        fill: #fff;
      }

    #part-body2 .shadow3{
        filter: brightness(80%);
      }

    </style>
  </defs>
  <g class="body3">
    <path class="cls-1" d="M234.12,486.35c-38.06,0-72.47-4.15-99.52-12-30.65-8.89-51.13-22.1-60.88-39.25C60.25,411.39,55,378,58.25,335.91,61,299.45,70.3,256.76,85,212.46,112.15,131,154.81,53.53,186.5,28.19c11.79-9.44,38.34-15.54,67.64-15.54,37.41,0,68.47,9.67,83.08,25.87,30.49,33.8,67.2,115.65,91.35,203.68C454.84,338,457.87,410,436.69,435c-12.19,14.37-40.19,27.53-78.84,37C320.42,481.28,276.48,486.35,234.12,486.35Z"/>
    <path d="M254.14,13.15c37.27,0,68.19,9.61,82.71,25.71C352,55.7,369,84.61,385.74,122.45c16,36,31,78.61,42.35,119.88,12,43.91,19.48,84.43,21.5,117.17,2.25,36.29-2.35,62.29-13.29,75.19-12.11,14.3-40,27.4-78.57,36.89-37.39,9.2-81.29,14.27-123.61,14.27-38,0-72.38-4.15-99.38-12-30.52-8.86-50.9-22-60.58-39C60.73,411.23,55.55,378,58.75,336c2.78-36.42,12-79.07,26.77-123.33,27.07-81.35,69.67-158.75,101.29-184,11.71-9.37,38.14-15.43,67.33-15.43h0m0-1c-28.66,0-55.83,5.94-68,15.65C123.46,78,15.56,333.79,73.29,435.34,94.1,472,162,486.85,234.12,486.85c85.55,0,177.06-21,203-51.51,47.72-56.29-35.94-326.72-99.48-397.15-16.61-18.42-51-26-83.45-26Z"/>
  </g>
  <g class="shadow3">
    <path class="cls-1" d="M234.08,486.34c-38,0-72.45-4.15-99.49-12-30.64-8.9-51.12-22.1-60.87-39.25C60.25,411.39,55,378,58.25,335.91,61,299.45,70.3,256.76,85,212.46,112.15,131,154.81,53.53,186.5,28.19c11.79-9.44,38.34-15.54,67.64-15.54,37.41,0,68.47,9.67,83.08,25.87,9.79,10.86,20.22,26.6,31.06,46.85-2.45-3.26-4.86-6.2-7.18-8.78-13.41-14.87-41.8-23.74-75.94-23.74-26.73,0-51,5.6-61.85,14.27-28.82,23.06-67.58,93.42-92.18,167.31-13.37,40.19-21.78,78.93-24.3,112-2.92,38.32,1.83,68.72,14.13,90.36,16.93,29.8,70.16,46.88,146,46.88,9.58,0,19.3-.29,29.07-.86A561.22,561.22,0,0,1,234.08,486.34Z"/>
    <path d="M254.14,12.15v1c37.27,0,68.19,9.61,82.71,25.71,8.9,9.87,18.34,23.79,28.14,41.49-1.19-1.45-2.37-2.82-3.52-4.1-13.5-15-42-23.9-76.31-23.9-26.83,0-51.23,5.65-62.16,14.39-28.89,23.1-67.72,93.56-92.34,167.54-13.39,40.22-21.8,79-24.33,112.14-2.93,38.42,1.85,68.91,14.19,90.64,9,15.86,27.85,28,56,36.21,24.61,7.15,55.9,10.92,90.49,10.92q5.4,0,10.86-.12c-14.68,1.17-29.42,1.77-43.76,1.77-38,0-72.35-4.14-99.35-12-30.52-8.86-50.89-22-60.57-39C60.73,411.23,55.55,378,58.75,336c2.78-36.42,12-79.07,26.77-123.33,27.07-81.35,69.67-158.75,101.29-184,11.71-9.37,38.14-15.43,67.33-15.43v-1m0,0c-28.66,0-55.82,5.94-68,15.65C123.46,78,15.56,333.79,73.29,435.34c20.8,36.61,88.69,51.5,160.79,51.5a559.53,559.53,0,0,0,81.16-6c-15.93,1.54-32.21,2.35-48.26,2.35-65.29,0-126.75-13.48-145.59-46.63-52.27-92,45.44-323.61,102.23-369,11-8.79,35.59-14.17,61.54-14.17,29.4,0,60.53,6.9,75.57,23.57A148.25,148.25,0,0,1,372,91.37C360.46,69,348.71,50.52,337.59,38.19c-16.61-18.41-51-26-83.45-26Z"/>
  </g>
  <g class="freakles3">
    <g>
      <path class="cls-1" d="M244.11,191a1.29,1.29,0,0,1-1.32-1.38,1.46,1.46,0,0,1,.33-.95,1.19,1.19,0,0,1,1-.4,1.3,1.3,0,0,1,1.33,1.38,1.46,1.46,0,0,1-.33,1A1.2,1.2,0,0,1,244.11,191Z"/>
      <path d="M244.08,188.78a.73.73,0,0,1,.61.24,1,1,0,0,1,.22.64.77.77,0,0,1-.8.85.72.72,0,0,1-.6-.24,1,1,0,0,1-.22-.64.77.77,0,0,1,.79-.85m0-1c-2.41,0-2.38,3.73,0,3.73s2.39-3.73,0-3.73Z"/>
    </g>
    <g>
      <path class="cls-1" d="M222.82,187a2.28,2.28,0,0,1-2.32-2.42,2.52,2.52,0,0,1,.57-1.65,2.39,2.39,0,0,1,3.44,0,2.59,2.59,0,0,1,.59,1.68A2.21,2.21,0,0,1,222.82,187Z"/>
      <path d="M222.78,182.74a1.67,1.67,0,0,1,1.35.57,2.07,2.07,0,0,1,.47,1.35,1.72,1.72,0,0,1-1.78,1.87,1.68,1.68,0,0,1-1.35-.57,2.05,2.05,0,0,1-.47-1.35,1.72,1.72,0,0,1,1.78-1.87m0-1c-3.74,0-3.69,5.79,0,5.79s3.69-5.79,0-5.79Z"/>
    </g>
    <g>
      <path class="cls-1" d="M203.81,207.89a4.17,4.17,0,0,1-3.68-2.16,4.09,4.09,0,0,1-.15-4.26,5.08,5.08,0,0,1,4.39-2.46,6.09,6.09,0,0,1,.85.07,4.51,4.51,0,0,1,2.5,1.21c.81,1.07.87,1.15,1.08,1.15a3.62,3.62,0,0,1,.59,2,3.58,3.58,0,0,1-.44,1.73V205l-.85,1.08h0v0l-.09.13-.09.11a3.51,3.51,0,0,1-2.82,1.47,1.94,1.94,0,0,1-.34,0h-.14A5.27,5.27,0,0,1,203.81,207.89Z"/>
      <path d="M204.37,199.51a5,5,0,0,1,.77.07,3.93,3.93,0,0,1,2.18,1c.72.94.94,1.22,1.18,1.31a3.26,3.26,0,0,1,.25,2.49l-1,1.35,0,0,0,.07h0l-.07.1-.05.06,0,0,0,0a3,3,0,0,1-2.38,1.22h-.29l-.14,0-.14,0a4.14,4.14,0,0,1-.7.06,3.69,3.69,0,0,1-3.25-1.91,3.64,3.64,0,0,1-.15-3.77,4.6,4.6,0,0,1,4-2.2h0m0-1c-3.77,0-6.91,3.72-4.67,7.48a4.7,4.7,0,0,0,4.11,2.4,5.12,5.12,0,0,0,.87-.08,2.68,2.68,0,0,0,.4,0,4,4,0,0,0,3.2-1.64c.06-.07.11-.15.17-.23a.43.43,0,0,1,0,0,.41.41,0,0,0,.05-.09l.24-.19a4,4,0,0,0,0-5.65l-.24-.2c.27.38.41.56.4.56l-.78-1a4.89,4.89,0,0,0-2.77-1.34,5.84,5.84,0,0,0-.93-.08Z"/>
    </g>
    <g>
      <path class="cls-1" d="M235.37,214.58a4.65,4.65,0,0,1-4.75-4.93,5.1,5.1,0,0,1,1.17-3.35,4.47,4.47,0,0,1,3.5-1.49,4.65,4.65,0,0,1,4.75,4.93,5.13,5.13,0,0,1-1.17,3.35A4.47,4.47,0,0,1,235.37,214.58Z"/>
      <path d="M235.29,205.31a4.17,4.17,0,0,1,4.25,4.43,4.56,4.56,0,0,1-1,3,4,4,0,0,1-3.12,1.32,4.05,4.05,0,0,1-3.18-1.35,4.8,4.8,0,0,1-1.07-3.08,4,4,0,0,1,4.17-4.34m0-1c-6.95,0-6.87,10.77.08,10.77s6.86-10.77-.08-10.77Z"/>
    </g>
    <g>
      <path class="cls-1" d="M264.07,202.3a3.24,3.24,0,0,1-1-.16l-.1,0-.15-.05a3.88,3.88,0,0,1-2.76-3.69,3.71,3.71,0,0,1,2.66-3.57l.29-.09a3.44,3.44,0,0,1,1.05-.17,3.84,3.84,0,0,1,2.64,6.61,3.74,3.74,0,0,1-2.61,1.15Z"/>
      <path d="M264,195a3.48,3.48,0,0,1,3.32,3.35,3.44,3.44,0,0,1-1,2.41,3.25,3.25,0,0,1-2.26,1,2.8,2.8,0,0,1-.86-.13l-.13,0a.32.32,0,0,1-.09,0h-.06a3.33,3.33,0,0,1-2.39-3.2,3.23,3.23,0,0,1,2.29-3.09c.11,0,.21-.06.32-.09A2.73,2.73,0,0,1,264,195m0-1a3.7,3.7,0,0,0-1.21.2l-.28.09a4.28,4.28,0,0,0,.06,8.19,2.46,2.46,0,0,0,.29.09,3.67,3.67,0,0,0,1.17.19,4.38,4.38,0,0,0,0-8.76Z"/>
    </g>
    <g>
      <path class="cls-1" d="M237.87,178.65a3.85,3.85,0,0,1-3.93-4.08,3.92,3.92,0,0,1,6.8-2.74,4.36,4.36,0,0,1,1,2.82A3.77,3.77,0,0,1,237.87,178.65Z"/>
      <path d="M237.8,171.07a3.33,3.33,0,0,1,3.43,3.58,3.42,3.42,0,0,1-5.92,2.41,3.86,3.86,0,0,1-.87-2.49,3.26,3.26,0,0,1,3.36-3.5m0-1c-5.86,0-5.78,9.08.07,9.08s5.78-9.08-.07-9.08Z"/>
    </g>
    <g>
      <path class="cls-1" d="M191.47,176.92a.2.2,0,0,0,0,.39A.2.2,0,0,0,191.47,176.92Z"/>
      <path d="M191.47,176.92a.2.2,0,0,0,0,.39.2.2,0,0,0,0-.39Z"/>
    </g>
    <g>
      <path class="cls-1" d="M191.51,181.24a3.92,3.92,0,0,1-4-4.17,4.36,4.36,0,0,1,1-2.83,3.77,3.77,0,0,1,3-1.25,3.92,3.92,0,0,1,4,4.17,4.36,4.36,0,0,1-1,2.83A3.78,3.78,0,0,1,191.51,181.24Z"/>
      <path d="M191.44,173.49a3.31,3.31,0,0,1,2.62,1.11,3.94,3.94,0,0,1,.89,2.56,3.51,3.51,0,0,1-6.07,2.47,4,4,0,0,1-.88-2.56,3.33,3.33,0,0,1,3.44-3.58m0-1c-6,0-5.9,9.25.07,9.25s5.9-9.25-.07-9.25Z"/>
    </g>
    <g>
      <path class="cls-1" d="M180.17,197.85l-1.13,0a.64.64,0,0,1-.65-.67.6.6,0,0,1,.62-.64l1.08,0h.08l.07,0h.27a.63.63,0,0,1,.5.16.87.87,0,0,1,0,1.07.58.58,0,0,1-.43.16h-.33Z"/>
      <path d="M180.32,197h.33s0,.07,0,.21a.45.45,0,0,1,0,.16h-.41l-.08,0h-.07l-1.07,0c-.07,0-.15,0-.15-.17s.05-.14.14-.14h.06l1,0h.23m-.13-1-.1,0L179,196a1.16,1.16,0,0,0,0,2.31l1.09,0a.29.29,0,0,0,.1,0h.38a1.09,1.09,0,0,0,1.11-1.2,1.11,1.11,0,0,0-1.11-1.19h-.4Z"/>
    </g>
    <g>
      <path class="cls-1" d="M161.42,178.26a1.08,1.08,0,0,1-1.11-1.16,1.25,1.25,0,0,1,.27-.8,1,1,0,0,1,.81-.34,1.1,1.1,0,0,1,1.11,1.17A1,1,0,0,1,161.42,178.26Z"/>
      <path d="M161.39,176.47a.49.49,0,0,1,.44.17.71.71,0,0,1,.17.49.61.61,0,0,1-1,.46.78.78,0,0,1-.16-.49.55.55,0,0,1,.58-.63m0-1a1.65,1.65,0,0,0,0,3.29,1.65,1.65,0,0,0,0-3.29Z"/>
    </g>
    <g>
      <path class="cls-1" d="M170.19,211.15a1.37,1.37,0,0,1-1.41-1.47,1.55,1.55,0,0,1,.35-1,1.27,1.27,0,0,1,1-.43,1.37,1.37,0,0,1,1.41,1.47,1.57,1.57,0,0,1-.35,1A1.28,1.28,0,0,1,170.19,211.15Z"/>
      <path d="M170.16,208.74a.81.81,0,0,1,.67.27,1.08,1.08,0,0,1,.24.7.86.86,0,0,1-.88.94.79.79,0,0,1-.67-.27,1.08,1.08,0,0,1-.24-.7.85.85,0,0,1,.88-.94m0-1c-2.53,0-2.5,3.91,0,3.91s2.5-3.91,0-3.91Z"/>
    </g>
    <g>
      <path class="cls-1" d="M199.45,215.69H199a1,1,0,0,1-1-1,.91.91,0,0,1,.94-.95l.44,0a1.38,1.38,0,0,1,1.34.64.73.73,0,0,1,0,.69,1.38,1.38,0,0,1-1.35.64Z"/>
      <path d="M199.46,214.22c.51,0,.67.07.91.4,0,0,0,.13,0,.13h0a.91.91,0,0,1-1,.44h-.39a.46.46,0,0,1-.49-.49.41.41,0,0,1,.46-.45l.43,0m0-1-.48,0a1.47,1.47,0,0,0,0,2.94h.44a1.9,1.9,0,0,0,1.76-.85,1.25,1.25,0,0,0,0-1.28,1.87,1.87,0,0,0-1.74-.84Z"/>
    </g>
    <g>
      <path class="cls-1" d="M293.94,199.83a9,9,0,0,1-1.15-.08,5.17,5.17,0,0,1-1.56-.62c-.24-.12-.47-.24-.7-.34a4.42,4.42,0,0,1-2.34-4.18,4.26,4.26,0,0,1,2.27-4.05,13.43,13.43,0,0,1,3.78-1.19,5.29,5.29,0,0,1,.54,0,4.34,4.34,0,0,1,3.43,1.86,5.82,5.82,0,0,1,1.12,4.84c-.64,2.41-2.61,3.8-5.39,3.8Z"/>
      <path d="M294.78,189.83a3.93,3.93,0,0,1,3,1.66,5.31,5.31,0,0,1,1,4.41,4.74,4.74,0,0,1-4.91,3.43,6.83,6.83,0,0,1-1.09-.08,4.79,4.79,0,0,1-1.4-.57l-.72-.35a3.92,3.92,0,0,1-2-3.72,3.79,3.79,0,0,1,2-3.59,13,13,0,0,1,3.65-1.15,2.56,2.56,0,0,1,.47,0m0-1a4,4,0,0,0-.6,0,13.55,13.55,0,0,0-3.92,1.22c-3.5,1.53-3.37,7.65.07,9.15a10.11,10.11,0,0,0,2.4,1,9.83,9.83,0,0,0,1.21.08c2.67,0,5.1-1.28,5.87-4.17.83-3.11-1.54-7.33-5-7.33Z"/>
    </g>
    <g>
      <path class="cls-1" d="M265.41,181a1.26,1.26,0,0,1-1.27-1.35,1.39,1.39,0,0,1,.31-.91,1.19,1.19,0,0,1,.94-.4,1.26,1.26,0,0,1,1.28,1.35,1.45,1.45,0,0,1-.32.92A1.17,1.17,0,0,1,265.41,181Z"/>
      <path d="M265.39,178.8a.71.71,0,0,1,.57.22,1,1,0,0,1,.21.62.73.73,0,0,1-.76.81.72.72,0,0,1-.57-.23,1,1,0,0,1-.2-.61.72.72,0,0,1,.75-.81m0-1c-2.36,0-2.32,3.65,0,3.65s2.33-3.65,0-3.65Z"/>
    </g>
    <g>
      <path class="cls-1" d="M285.46,204.67a1.17,1.17,0,0,1-1.19-1.26,1.34,1.34,0,0,1,.29-.85,1.09,1.09,0,0,1,.88-.37,1.17,1.17,0,0,1,1.19,1.25,1.32,1.32,0,0,1-.3.86A1.09,1.09,0,0,1,285.46,204.67Z"/>
      <path d="M285.44,202.69a.68.68,0,0,1,.69.75A.69.69,0,0,1,285,204a.91.91,0,0,1-.18-.56.64.64,0,0,1,.67-.72m0-1a1.74,1.74,0,0,0,0,3.48,1.74,1.74,0,0,0,0-3.48Z"/>
    </g>
    <g>
      <path class="cls-1" d="M242.88,92.51a3,3,0,0,1-3-3.14,3.23,3.23,0,0,1,.74-2.13,2.81,2.81,0,0,1,2.22-.94,3,3,0,0,1,3,3.14,3.27,3.27,0,0,1-.75,2.13A2.82,2.82,0,0,1,242.88,92.51Z"/>
      <path d="M242.82,86.8a2.35,2.35,0,0,1,1.88.79,2.88,2.88,0,0,1,.64,1.85A2.51,2.51,0,0,1,241,91.22a2.86,2.86,0,0,1-.64-1.85,2.39,2.39,0,0,1,2.46-2.57m0-1c-4.65,0-4.59,7.21.06,7.21s4.59-7.21-.06-7.21Z"/>
    </g>
    <g>
      <path class="cls-1" d="M225.33,76.49a3.21,3.21,0,0,1-3.27-3.41,3.15,3.15,0,0,1,3.22-3.33,3.2,3.2,0,0,1,3.27,3.4A3.15,3.15,0,0,1,225.33,76.49Z"/>
      <path d="M225.28,70.25a2.7,2.7,0,0,1,2.77,2.9A2.64,2.64,0,0,1,225.33,76a2.6,2.6,0,0,1-2.07-.87,3.23,3.23,0,0,1-.7-2,2.63,2.63,0,0,1,2.72-2.83m0-1c-5,0-4.94,7.74.05,7.74s4.94-7.74-.05-7.74Z"/>
    </g>
    <g>
      <path class="cls-1" d="M253,70.18a2.21,2.21,0,0,1-2-2.06,2.24,2.24,0,0,1,.67-1.5,1.89,1.89,0,0,1,1.29-.6,1.55,1.55,0,0,1,.52.1l1,.43a1.75,1.75,0,0,1,1.19,1.57,1.71,1.71,0,0,1-1.17,1.54l-1,.41a1.45,1.45,0,0,1-.54.11Z"/>
      <path d="M252.94,66.52a.88.88,0,0,1,.33.06l1,.43a1.25,1.25,0,0,1,.88,1.11,1.21,1.21,0,0,1-.87,1.08l-1,.41a1,1,0,0,1-.35.07,1.7,1.7,0,0,1-1.48-1.56A1.72,1.72,0,0,1,252,67a1.39,1.39,0,0,1,.93-.45m0-1a2.58,2.58,0,0,0,0,5.16,1.91,1.91,0,0,0,.73-.15l1-.41a2.12,2.12,0,0,0,0-4l-1-.42a2,2,0,0,0-.71-.14Z"/>
    </g>
    <g>
      <path class="cls-1" d="M237.84,73.1a1.13,1.13,0,0,1-.32,0,1.23,1.23,0,0,1-.92-1.17,1.27,1.27,0,0,1,1.22-1.26,1.29,1.29,0,0,1,.88.36l.05.06h0l-.25.45.59.19a.19.19,0,0,1,.13.18.15.15,0,0,1-.12.16l.29,1h-.12l-.4-.22-.05-.39a3.68,3.68,0,0,1-.45.59A1.37,1.37,0,0,1,237.84,73.1Z"/>
      <path d="M237.82,70.12a1.74,1.74,0,0,0-.43,3.42,1.68,1.68,0,0,0,.45.06,1.85,1.85,0,0,0,.89-.24c.06,0,.74-.86.57-.86h0a.68.68,0,0,0,0-1.3c.14-.23.07-.43-.21-.58a1.72,1.72,0,0,0-1.23-.51Z"/>
    </g>
    <g>
      <path class="cls-1" d="M227.39,85.4a2.94,2.94,0,0,0-1.56,1,1,1,0,0,0,0,1,2.86,2.86,0,0,0,1.57,1C229.88,89.42,229.9,84.36,227.39,85.4Z"/>
      <path d="M228,85.26c.82,0,1.23.82,1.23,1.63,0-.81-.41-1.63-1.23-1.63Zm1.23,1.63c0,.83-.41,1.65-1.23,1.65.82,0,1.23-.82,1.23-1.65Z"/>
    </g>
    <g>
      <path class="cls-1" d="M195.59,79.1a2.75,2.75,0,0,1-2.31-1.27,2,2,0,0,1,.09-2.1,2.11,2.11,0,0,1,1.86-1.12,2.56,2.56,0,0,1,2,1,2.14,2.14,0,0,1,.37,1.89,2,2,0,0,1-2,1.63Z"/>
      <path d="M195.23,75.11a2.1,2.1,0,0,1,1.58.77,1.66,1.66,0,0,1,.29,1.47,1.48,1.48,0,0,1-1.51,1.25,2.27,2.27,0,0,1-1.88-1,1.53,1.53,0,0,1,.1-1.6,1.57,1.57,0,0,1,1.42-.87m0-1a2.58,2.58,0,0,0-2.29,1.37c-1.31,2.28.74,4.12,2.65,4.12a2.45,2.45,0,0,0,2.48-2,2.85,2.85,0,0,0-2.84-3.49Z"/>
    </g>
    <g>
      <path class="cls-1" d="M212.78,57.3a.44.44,0,0,1-.45-.48.51.51,0,0,1,.11-.34.4.4,0,0,1,.33-.13.44.44,0,0,1,.45.48A.43.43,0,0,1,212.78,57.3Z"/>
      <path d="M212.77,55.85a1,1,0,0,0,0,1.95,1,1,0,0,0,0-1.95Z"/>
    </g>
    <g>
      <path class="cls-1" d="M244.53,49.23a2.31,2.31,0,0,1-.37,0,.81.81,0,0,1-.37-.1l0,0-.18,0a.77.77,0,0,1-.58-.91V48a.74.74,0,0,1,.48-.88l.22-.06a1,1,0,0,1,.44-.14,2.25,2.25,0,0,1,.41,0,1.77,1.77,0,0,1,1.49.77.88.88,0,0,1,0,.82,1.84,1.84,0,0,1-1.51.77Z"/>
      <path d="M244.52,47.37a1.3,1.3,0,0,1,1.09.55.75.75,0,0,1,0,.24,1.33,1.33,0,0,1-1.11.57l-.29,0h-.1a.51.51,0,0,1-.11,0l-.1,0-.11,0-.16,0c-.14-.06-.21-.11-.18-.36l0-.13,0-.13c0-.24,0-.29.2-.36l0,0h0l.22-.06.06,0,.06,0,.17-.06h.1l.27,0m0-1a2,2,0,0,0-.42,0,1.34,1.34,0,0,0-.59.17l-.24.07a1.24,1.24,0,0,0-.78,1.41,1.25,1.25,0,0,0,.8,1.41,2.76,2.76,0,0,0,.27.08,1.39,1.39,0,0,0,.51.14,2.45,2.45,0,0,0,.46,0,2.32,2.32,0,0,0,1.91-1,1.35,1.35,0,0,0,0-1.4,2.29,2.29,0,0,0-1.91-1Z"/>
    </g>
    <g>
      <path class="cls-1" d="M260.4,82.66a2,2,0,0,1-1.76-1,1.77,1.77,0,0,1-.1-1.89,2.42,2.42,0,0,1,2.07-1.13,2.19,2.19,0,0,1,.36,0,1.59,1.59,0,0,1,1.29,1.15,2.23,2.23,0,0,1-.42,2.23,2,2,0,0,1-1.44.6Z"/>
      <path d="M260.61,79.15l.29,0a1.11,1.11,0,0,1,.89.82,1.75,1.75,0,0,1-.3,1.72,1.56,1.56,0,0,1-2.42-.29A1.33,1.33,0,0,1,259,80a1.89,1.89,0,0,1,1.63-.87m0-1c-1.9,0-3.58,1.81-2.4,3.78a2.55,2.55,0,0,0,4,.48c1.22-1.24.8-3.94-1.15-4.23l-.44,0Z"/>
    </g>
    <g>
      <path class="cls-1" d="M283,69.34a1.18,1.18,0,0,1-1.2-1.25,1.32,1.32,0,0,1,.3-.86,1.1,1.1,0,0,1,.87-.36,1.16,1.16,0,0,1,1.19,1.25A1.14,1.14,0,0,1,283,69.34Z"/>
      <path d="M282.93,67.37a.6.6,0,0,1,.51.2.81.81,0,0,1,.18.55.69.69,0,0,1-1.17.52.85.85,0,0,1-.19-.55.64.64,0,0,1,.67-.72m0-1c-2.24,0-2.21,3.47,0,3.47s2.21-3.47,0-3.47Z"/>
    </g>
    <g>
      <path class="cls-1" d="M262.92,52.34a1.78,1.78,0,0,1-1.84-1.77,1.71,1.71,0,0,1,.5-1.24,1.91,1.91,0,0,1,1.34-.55,1.87,1.87,0,0,1,.9.22,1.84,1.84,0,0,1,1.1,1.58,1.78,1.78,0,0,1-1.07,1.53,2,2,0,0,1-.93.23Z"/>
      <path d="M262.92,49.28a1.44,1.44,0,0,1,.67.16,1.37,1.37,0,0,1,.83,1.14,1.27,1.27,0,0,1-.81,1.08,1.42,1.42,0,0,1-.69.18,1.28,1.28,0,0,1-1.34-1.27,1.23,1.23,0,0,1,.35-.89,1.4,1.4,0,0,1,1-.4m0-1a2.28,2.28,0,1,0,0,4.56,2.46,2.46,0,0,0,1.16-.29,2.15,2.15,0,0,0,0-4,2.31,2.31,0,0,0-1.13-.28Z"/>
    </g>
    <g>
      <path class="cls-1" d="M273,65.87a6.51,6.51,0,0,1-4.65-11.13,6.36,6.36,0,0,1,4.55-1.94,6.51,6.51,0,0,1,4.66,11.13A6.4,6.4,0,0,1,273,65.87Z"/>
      <path d="M272.87,53.3a6,6,0,0,1,4.3,10.28,5.89,5.89,0,0,1-4.2,1.79,6,6,0,0,1-4.3-10.28,5.89,5.89,0,0,1,4.2-1.79m0-1a7,7,0,1,0,7.08,7,7.09,7.09,0,0,0-7.08-7Z"/>
    </g>
    <g>
      <path class="cls-1" d="M299.26,71.34a3.07,3.07,0,0,1-3.14-3.27,3.38,3.38,0,0,1,.77-2.22,2.92,2.92,0,0,1,2.32-1,3.08,3.08,0,0,1,3.14,3.28A3,3,0,0,1,299.26,71.34Z"/>
      <path d="M299.2,65.36a2.47,2.47,0,0,1,2,.84,3,3,0,0,1,.67,1.94,2.51,2.51,0,0,1-2.59,2.7,2.47,2.47,0,0,1-2-.83,3,3,0,0,1-.67-1.94,2.51,2.51,0,0,1,2.58-2.71m0-1c-4.82,0-4.76,7.48.06,7.48s4.77-7.48-.06-7.48Z"/>
    </g>
    <g>
      <path class="cls-1" d="M321.82,80.34a3.3,3.3,0,0,1-3.37-3.5,3.66,3.66,0,0,1,.83-2.38,3.16,3.16,0,0,1,2.48-1,3.29,3.29,0,0,1,3.36,3.5,3.61,3.61,0,0,1-.83,2.38A3.14,3.14,0,0,1,321.82,80.34Z"/>
      <path d="M321.76,73.91a2.79,2.79,0,0,1,2.86,3,2.72,2.72,0,0,1-2.8,2.93,2.68,2.68,0,0,1-2.14-.9,3.28,3.28,0,0,1-.73-2.1,2.73,2.73,0,0,1,2.81-2.93m0-1c-5.12,0-5.05,7.93.06,7.93s5.05-7.93-.06-7.93Z"/>
    </g>
    <g>
      <path class="cls-1" d="M212.81,56.66a3.43,3.43,0,0,1-3.5-3.63,3.76,3.76,0,0,1,.86-2.46,3.27,3.27,0,0,1,2.58-1.09,3.42,3.42,0,0,1,3.49,3.62A3.36,3.36,0,0,1,212.81,56.66Z"/>
      <path d="M212.75,50a2.79,2.79,0,0,1,2.23.94,3.4,3.4,0,0,1,.76,2.18,2.85,2.85,0,0,1-2.93,3.06,2.8,2.8,0,0,1-2.24-.95,3.38,3.38,0,0,1-.76-2.18A2.84,2.84,0,0,1,212.75,50m0-1c-5.29,0-5.22,8.18.06,8.18S218,49,212.75,49Z"/>
    </g>
    <g>
      <path class="cls-1" d="M209.18,72.37a2.11,2.11,0,0,1-1.5-.65l-.07-.08-.1,0-.4-.22a2.5,2.5,0,0,1-.67-.59,2.17,2.17,0,0,1-.58-1.77,1.91,1.91,0,0,1,.91-1.34l.31-.19a2.26,2.26,0,0,1,2.72.33,3.34,3.34,0,0,1,1,3.26,1.58,1.58,0,0,1-1.59,1.29Z"/>
      <path d="M208.22,67.68a1.75,1.75,0,0,1,1.23.49,2.87,2.87,0,0,1,.83,2.8,1.07,1.07,0,0,1-1.1.9,1.59,1.59,0,0,1-1.13-.49l-.15-.16-.2-.08-.34-.19a1.81,1.81,0,0,1-.53-.47l0,0,0,0a1.67,1.67,0,0,1-.43-1.34,1.33,1.33,0,0,1,.67-1l.31-.19a1.66,1.66,0,0,1,.88-.24m0-1a2.78,2.78,0,0,0-1.4.38l-.31.2A2.48,2.48,0,0,0,206,71.1a2.79,2.79,0,0,0,.82.71,4.13,4.13,0,0,0,.45.25,2.59,2.59,0,0,0,1.87.81,2,2,0,0,0,2.07-1.67,3.82,3.82,0,0,0-1.09-3.73,2.75,2.75,0,0,0-1.94-.79Z"/>
    </g>
    <g>
      <path class="cls-1" d="M321.81,187.3a2.54,2.54,0,0,1-2.58-2.69,2.45,2.45,0,0,1,2.53-2.64,2.53,2.53,0,0,1,2.58,2.7A2.45,2.45,0,0,1,321.81,187.3Z"/>
      <path d="M321.76,182.47a1.94,1.94,0,0,1,1.55.65,2.4,2.4,0,0,1,.53,1.55,2.07,2.07,0,0,1-3.58,1.48,2.38,2.38,0,0,1-.53-1.54,2,2,0,0,1,2-2.14m0-1c-4.07,0-4,6.33.05,6.33s4-6.33-.05-6.33Z"/>
    </g>
    <g>
      <path class="cls-1" d="M345.54,169.34a2.19,2.19,0,0,1-2.11-2,2.06,2.06,0,0,1,1.55-2.41,2.54,2.54,0,0,1,.7-.11,2.18,2.18,0,0,1,2.07,2.16,2.06,2.06,0,0,1-1.82,2.34Z"/>
      <path d="M345.68,165.31a1.7,1.7,0,0,1,1.57,1.7,1.58,1.58,0,0,1-1.4,1.81l-.31,0a1.71,1.71,0,0,1-1.62-1.58,1.61,1.61,0,0,1,1.2-1.86,1.87,1.87,0,0,1,.56-.09m0-1a3.27,3.27,0,0,0-.84.12c-3.09.88-2.2,5.41.7,5.41a2.56,2.56,0,0,0,.47,0c3.43-.55,2.64-5.49-.33-5.49Z"/>
    </g>
    <g>
      <path class="cls-1" d="M356.9,146a2.58,2.58,0,0,1-2.63-2.74,2.8,2.8,0,0,1,.65-1.85,2.43,2.43,0,0,1,1.93-.82,2.57,2.57,0,0,1,2.62,2.73,2.85,2.85,0,0,1-.64,1.86A2.44,2.44,0,0,1,356.9,146Z"/>
      <path d="M356.85,141.08a2,2,0,0,1,1.58.66,2.41,2.41,0,0,1,.54,1.57,2.12,2.12,0,0,1-3.66,1.51,2.45,2.45,0,0,1-.54-1.57,2,2,0,0,1,2.08-2.17m0-1c-4.14,0-4.09,6.41,0,6.41s4.08-6.41,0-6.41Z"/>
    </g>
    <g>
      <path class="cls-1" d="M334.64,176.09a1.59,1.59,0,0,1-1.49-1.47,1.62,1.62,0,0,1,1.49-1.5,1,1,0,0,1,.61.21,7.22,7.22,0,0,1,.89.73.77.77,0,0,1,.22.56.75.75,0,0,1-.21.53,7.75,7.75,0,0,1-.87.72,1,1,0,0,1-.64.22Z"/>
      <path d="M334.64,173.62a.5.5,0,0,1,.32.11,10.09,10.09,0,0,1,.83.68.35.35,0,0,1,.07.21.22.22,0,0,1-.06.17,8,8,0,0,1-.82.68.56.56,0,0,1-.34.12,1.1,1.1,0,0,1-1-1,1.14,1.14,0,0,1,1-1m0-1a2,2,0,1,0,0,4,1.51,1.51,0,0,0,.94-.32,9.39,9.39,0,0,0,.91-.76,1.3,1.3,0,0,0,0-1.82,9.63,9.63,0,0,0-.93-.76,1.47,1.47,0,0,0-.91-.31Z"/>
    </g>
    <g>
      <path class="cls-1" d="M361.94,165.08c-4.52,0-6.58-3.54-6.58-6.83a7.06,7.06,0,0,1,1.62-4.62,6.19,6.19,0,0,1,4.85-2.07c4.52,0,6.57,3.54,6.57,6.83a7.05,7.05,0,0,1-1.61,4.62A6.19,6.19,0,0,1,361.94,165.08Z"/>
      <path d="M361.83,152.06c4.17,0,6.07,3.28,6.07,6.33,0,4.27-3,6.19-6,6.19a5.74,5.74,0,0,1-4.54-2,6.75,6.75,0,0,1-1.54-4.38,5.76,5.76,0,0,1,6-6.19m0-1c-9.36,0-9.25,14.52.11,14.52s9.24-14.52-.11-14.52Z"/>
    </g>
    <g>
      <path class="cls-1" d="M358.15,125.45a2.11,2.11,0,0,1-2.15-2.24,2.35,2.35,0,0,1,.53-1.53,2,2,0,0,1,1.58-.67,2.11,2.11,0,0,1,2.14,2.25A2,2,0,0,1,358.15,125.45Z"/>
      <path d="M358.11,121.51a1.63,1.63,0,0,1,1.64,1.75,1.55,1.55,0,0,1-1.6,1.69,1.53,1.53,0,0,1-1.23-.51,1.89,1.89,0,0,1-.42-1.23,1.56,1.56,0,0,1,1.61-1.7m0-1c-3.51,0-3.47,5.44,0,5.44s3.46-5.44,0-5.44Z"/>
    </g>
    <g>
      <path class="cls-1" d="M343.59,108.59a3.84,3.84,0,0,1-3.48-3.24,3.79,3.79,0,0,1,.75-3,2.81,2.81,0,0,1,2.21-1,2.93,2.93,0,0,1,3,2.77l0,.11.1.15,0,0a2.7,2.7,0,0,1-.44,3.16,2.83,2.83,0,0,1-2.14,1Z"/>
      <path d="M343.1,100.84v1a2.47,2.47,0,0,1,2.44,2.33l0,.22.11.19.08.11a2.21,2.21,0,0,1-.4,2.53,2.35,2.35,0,0,1-1.77.87,3.43,3.43,0,0,1-2.35-5.46,2.3,2.3,0,0,1,1.83-.79l0-1m0,0h0c-2.56,0-3.79,2.32-3.44,4.58a4.31,4.31,0,0,0,4,3.67,3.32,3.32,0,0,0,2.52-1.21,3.16,3.16,0,0,0,.46-3.79.1.1,0,0,1,0,0,3.41,3.41,0,0,0-3.43-3.2Z"/>
    </g>
    <g>
      <path class="cls-1" d="M152.66,122a3.55,3.55,0,0,1-3.62-3.78,3.94,3.94,0,0,1,.89-2.56,3.4,3.4,0,0,1,2.67-1.13,3.55,3.55,0,0,1,3.62,3.77,3.89,3.89,0,0,1-.89,2.56A3.41,3.41,0,0,1,152.66,122Z"/>
      <path d="M152.6,115a2.91,2.91,0,0,1,2.33,1,3.54,3.54,0,0,1,.79,2.28,3,3,0,0,1-3.06,3.2,2.94,2.94,0,0,1-2.33-1,3.57,3.57,0,0,1-.79-2.29A3,3,0,0,1,152.6,115m0-1c-5.46,0-5.39,8.47.06,8.47s5.39-8.47-.06-8.47Z"/>
    </g>
    <g>
      <path class="cls-1" d="M142.66,156.85c-4,0-5.88-3.17-5.88-6.11a6.31,6.31,0,0,1,1.44-4.13,5.52,5.52,0,0,1,4.34-1.85c4,0,5.88,3.16,5.88,6.1A6.34,6.34,0,0,1,147,155,5.51,5.51,0,0,1,142.66,156.85Z"/>
      <path d="M142.56,145.26c3.69,0,5.38,2.9,5.38,5.6s-1.64,5.49-5.28,5.49a5.14,5.14,0,0,1-4-1.72,6,6,0,0,1-1.35-3.89c0-2.73,1.63-5.48,5.28-5.48m0-1c-8.45,0-8.34,13.09.1,13.09s8.33-13.09-.1-13.09Z"/>
    </g>
    <g>
      <path class="cls-1" d="M160.17,161.7a2,2,0,0,1-2.06-2.15,2.22,2.22,0,0,1,.51-1.46,1.91,1.91,0,0,1,1.51-.64,2,2,0,0,1,2.06,2.15,2.22,2.22,0,0,1-.51,1.46A1.91,1.91,0,0,1,160.17,161.7Z"/>
      <path d="M160.13,158a1.44,1.44,0,0,1,1.16.48,1.78,1.78,0,0,1,.4,1.17,1.5,1.5,0,0,1-1.52,1.6,1.55,1.55,0,0,1-1.56-1.65,1.47,1.47,0,0,1,1.52-1.6m0-1c-3.39,0-3.35,5.25,0,5.25s3.35-5.25,0-5.25Z"/>
    </g>
    <g>
      <path class="cls-1" d="M146.38,172.39a1.45,1.45,0,0,1-1.49-1.56,1.68,1.68,0,0,1,.36-1.07,1.42,1.42,0,0,1,1.1-.46,1.46,1.46,0,0,1,1.5,1.57,1.71,1.71,0,0,1-.37,1.07A1.38,1.38,0,0,1,146.38,172.39Z"/>
      <path d="M146.35,169.8a.91.91,0,0,1,.74.3,1.21,1.21,0,0,1,.26.77,1,1,0,0,1-1.71.73,1.21,1.21,0,0,1-.25-.77.94.94,0,0,1,1-1m0-1c-2.64,0-2.61,4.09,0,4.09s2.61-4.09,0-4.09Z"/>
    </g>
    <g>
      <path class="cls-1" d="M170.19,81a1.5,1.5,0,0,1-1.54-1.61,1.73,1.73,0,0,1,.38-1.11,1.43,1.43,0,0,1,1.13-.47,1.5,1.5,0,0,1,1.54,1.62A1.47,1.47,0,0,1,170.19,81Z"/>
      <path d="M170.16,78.28a1,1,0,0,1,.77.31,1.27,1.27,0,0,1,.27.81,1,1,0,0,1-1,1.07,1,1,0,0,1-.77-.31,1.27,1.27,0,0,1-.27-.8,1,1,0,0,1,1-1.08m0-1c-2.7,0-2.67,4.19,0,4.19s2.67-4.19,0-4.19Z"/>
    </g>
    <g>
      <path class="cls-1" d="M165,93.91a3.3,3.3,0,0,1-1.66-1l-.31-.25a.82.82,0,0,1-.29-1,1.49,1.49,0,0,1,1.25-1,.78.78,0,0,1,.64.34l.27.32c.92,1.1,1.24,1.69.69,2.25a.79.79,0,0,1-.59.29Z"/>
      <path d="M164,91.21s.13,0,.25.15l.28.33c1,1.16.92,1.37.71,1.58s-.2.14-.23.14c-.34,0-1-.53-1.34-.84l-.32-.26a.34.34,0,0,1-.13-.45,1,1,0,0,1,.78-.65m0-1c-1.27,0-2.58,1.83-1.28,2.88.63.5,1.47,1.32,2.29,1.32A1.29,1.29,0,0,0,166,94c1.09-1.1-.22-2.36-.91-3.23a1.29,1.29,0,0,0-1-.53Z"/>
    </g>
    <g>
      <path class="cls-1" d="M382,172.72a1.76,1.76,0,0,1-1.8-1.89,2,2,0,0,1,.44-1.28,1.65,1.65,0,0,1,1.32-.55,1.74,1.74,0,0,1,1.8,1.88A1.71,1.71,0,0,1,382,172.72Z"/>
      <path d="M381.91,169.49a1.3,1.3,0,0,1,1.3,1.39,1.24,1.24,0,0,1-1.26,1.34,1.3,1.3,0,0,1-1.3-1.39,1.24,1.24,0,0,1,1.26-1.34m0-1c-3,0-3,4.73,0,4.73s3-4.73,0-4.73Z"/>
    </g>
  </g>
  <image class="snake" width="413" height="500" transform="translate(46 -1)" xlink:href="assets/snake1.png"/>
</svg>
