<svg xmlns="http://www.w3.org/2000/svg" viewBox="0 0 172.22 94.47">
  <defs>
    <style>
     #btn-eyes1 .cls-1 {
        fill: #fff;
      }

      #btn-eyes1 .cls-2 {
        fill: #e8e8e8;
      }

      #btn-eyes1 .cls-3 {
        fill: #333;
      }

     #btn-eyes1 .cls-4 {
        fill: #fff;
      }
    </style>
  </defs>
  <g id="btn-eyes1">
    <g id="eyes1-2" data-name="eyes1">
      <g>
        <g>
          <g>
            <path class="cls-1" d="M164,47.24c0-.81-.18-1.55-.23-2.35a38.83,38.83,0,0,1-76.35-7.64,38.4,38.4,0,0,0-1.46,10,39,39,0,1,1,78,0Z"/>
            <path class="cls-2" d="M164,47.24a39,39,0,0,1-78,0,38.4,38.4,0,0,1,1.46-10,38.83,38.83,0,0,0,76.35,7.64C163.82,45.69,164,46.43,164,47.24Z"/>
          </g>
          <g>
            <g>
              <path class="cls-3" d="M114.08,56.2a19,19,0,1,1,19-19A19,19,0,0,1,114.08,56.2Z"/>
              <path d="M114.08,18.79A18.46,18.46,0,1,1,95.64,37.25a18.49,18.49,0,0,1,18.44-18.46m0-1a19.46,19.46,0,1,0,19.47,19.46,19.45,19.45,0,0,0-19.47-19.46Z"/>
            </g>
            <g>
              <path class="cls-1" d="M121.85,39.38a7.27,7.27,0,1,1,7.27-7.27A7.28,7.28,0,0,1,121.85,39.38Z"/>
              <path d="M121.85,25.34a6.77,6.77,0,1,1-6.77,6.77,6.78,6.78,0,0,1,6.77-6.77m0-1a7.77,7.77,0,1,0,7.77,7.77,7.78,7.78,0,0,0-7.77-7.77Z"/>
            </g>
          </g>
        </g>
        <g>
          <g>
            <path class="cls-1" d="M67.42,45.3a34,34,0,0,0-1.07-5.88,30.39,30.39,0,0,1-59.75,6c0,.62-.18,1.21-.18,1.84a30.53,30.53,0,0,1,61-1.94Z"/>
            <path class="cls-2" d="M67.49,47.24a30.54,30.54,0,0,1-61.07,0c0-.63.15-1.22.18-1.84a30.39,30.39,0,0,0,59.75-6,34,34,0,0,1,1.07,5.88c0,.31,0,.62,0,.93S67.49,46.9,67.49,47.24Z"/>
          </g>
          <g>
            <g>
              <path class="cls-3" d="M45.49,54.15A14.73,14.73,0,1,1,60.2,39.42,14.74,14.74,0,0,1,45.49,54.15Z"/>
              <path d="M45.49,25.2A14.23,14.23,0,1,1,31.26,39.42,14.24,14.24,0,0,1,45.49,25.2m0-1A15.23,15.23,0,1,0,60.7,39.42,15.22,15.22,0,0,0,45.49,24.2Z"/>
            </g>
            <g>
              <path class="cls-1" d="M39.4,41A5.58,5.58,0,1,1,45,35.4,5.6,5.6,0,0,1,39.4,41Z"/>
              <path d="M39.4,30.32a5.08,5.08,0,1,1-5.08,5.08,5.09,5.09,0,0,1,5.08-5.08m0-1a6.08,6.08,0,1,0,6.09,6.08,6.09,6.09,0,0,0-6.09-6.08Z"/>
            </g>
          </g>
        </g>
      </g>
      <g class="skin">
        <g>
          <path class="cls-4" d="M125,94A46.79,46.79,0,0,1,78.24,47.24a41.4,41.4,0,0,1,.73-7.4A46.67,46.67,0,1,1,125,94Zm0-86.26A39.52,39.52,0,1,0,164.5,47.24,39.57,39.57,0,0,0,125,7.71Z"/>
          <path d="M125,1A46.24,46.24,0,1,1,78.74,47.24a41,41,0,0,1,.73-7.34A45.82,45.82,0,0,1,125,1m0,86.25a40,40,0,1,0-40-40,40.06,40.06,0,0,0,40,40M125,0a46.88,46.88,0,0,0-46.5,39.75,42,42,0,0,0-.74,7.49A47.24,47.24,0,1,0,125,0Zm0,86.25a39,39,0,1,1,39-39,39,39,0,0,1-39,39Z"/>
        </g>
        <g>
          <path class="cls-4" d="M37,83.7a36.46,36.46,0,0,1,0-72.92A36.13,36.13,0,0,1,72.85,41.45a32.91,32.91,0,0,1,.57,5.79A36.51,36.51,0,0,1,37,83.7Zm0-67.5a31,31,0,1,0,31,31c0-.34,0-.68,0-1s0-.61,0-.91A31.06,31.06,0,0,0,37,16.2Z"/>
          <path d="M37,11.28a35.64,35.64,0,0,1,35.4,30.26,32.83,32.83,0,0,1,.56,5.7,36,36,0,1,1-36-36m0,67.49A31.56,31.56,0,0,0,68.49,47.24c0-.35,0-.7,0-1s0-.64,0-1A31.53,31.53,0,1,0,37,78.77m0-68.49a37,37,0,1,0,37,37,33.22,33.22,0,0,0-.58-5.87A36.67,36.67,0,0,0,37,10.28Zm0,67.49A30.54,30.54,0,1,1,67.42,45.3c0,.31,0,.62,0,.93s0,.67,0,1A30.53,30.53,0,0,1,37,77.77Z"/>
        </g>
      </g>
    </g>
  </g>
</svg>
