<svg xmlns="http://www.w3.org/2000/svg" viewBox="0 0 397.61 187.04">
  <defs>
    <style>
      #btn-eyes3 .cls-1 {
        fill: #fff;
      }

      #btn-eyes3 .cls-2 {
        fill: #fff;
      }

      #btn-eyes3 .cls-3 {
        fill: #e8e8e8;
      }

      #btn-eyes3 .cls-4 {
        fill: #333;
      }
    </style>
  </defs>
  <g id="btn-eyes3">
    <g id="eyes3-2" data-name="eyes3">
      <g class="skin">
        <g>
          <path class="cls-1" d="M54.37,170.12A53.88,53.88,0,0,1,.5,116.25a48.81,48.81,0,0,1,.84-8.53,53.4,53.4,0,0,1,53-45.34,53.87,53.87,0,0,1,0,107.74Zm0-99.29a45.42,45.42,0,1,0,45.42,45.42A45.47,45.47,0,0,0,54.37,70.83Z"/>
          <path d="M54.37,62.88A53.35,53.35,0,1,1,1,116.25a48.45,48.45,0,0,1,.84-8.47,52.9,52.9,0,0,1,52.53-44.9m0,99.28A45.92,45.92,0,1,0,8.45,116.25a46,46,0,0,0,45.92,45.91m0-100.28A54,54,0,0,0,.85,107.63,49,49,0,0,0,0,116.25a54.07,54.07,0,0,0,6,24.81A54.37,54.37,0,1,0,54.37,61.88Zm0,99.28a44.92,44.92,0,1,1,44.92-44.91,44.92,44.92,0,0,1-44.92,44.91Z"/>
        </g>
        <g>
          <path class="cls-1" d="M143.37,109.12A53.88,53.88,0,0,1,89.5,55.25a48.81,48.81,0,0,1,.84-8.53,53.4,53.4,0,0,1,53-45.34,53.87,53.87,0,0,1,0,107.74Zm0-99.29a45.42,45.42,0,1,0,45.42,45.42A45.47,45.47,0,0,0,143.37,9.83Z"/>
          <path d="M143.37,1.88A53.35,53.35,0,1,1,90,55.25a48.45,48.45,0,0,1,.84-8.47,52.9,52.9,0,0,1,52.53-44.9m0,99.28A45.92,45.92,0,1,0,97.45,55.25a46,46,0,0,0,45.92,45.91m0-100.28A54,54,0,0,0,89.85,46.63,49,49,0,0,0,89,55.25a54.07,54.07,0,0,0,6,24.81A54.37,54.37,0,1,0,143.37.88Zm0,99.28a44.92,44.92,0,1,1,44.92-44.91,44.92,44.92,0,0,1-44.92,44.91Z"/>
        </g>
        <g>
          <path class="cls-1" d="M343.24,186.54a53.94,53.94,0,0,1-53.87-53.87,49,49,0,0,1,.84-8.53c.24-1.54.56-3.1.94-4.65l.26-1.06-1,.49a61.78,61.78,0,0,1-28.34,6.81,62.69,62.69,0,0,1-62.61-62.61,55.58,55.58,0,0,1,1-9.92A62.05,62.05,0,0,1,262.1.5a62.6,62.6,0,0,1,59.57,81.87l-.34,1,1-.43a53.89,53.89,0,1,1,20.9,103.56Zm0-99.29a45.49,45.49,0,0,0-28.93,10.41l-.05,0,0,.06a63,63,0,0,1-9.89,11.53l-.05,0,0,.06a45.41,45.41,0,1,0,39-22.16ZM262.1,10.48a52.64,52.64,0,1,0,52.64,52.64c0-.15,0-.3,0-.44A52.76,52.76,0,0,0,262.1,10.48Z"/>
          <path d="M262.1,1a62.19,62.19,0,0,1,62.11,62.12,61.56,61.56,0,0,1-3,19.09l-.67,2.08,2-.84a53.39,53.39,0,1,1-32.66,49.22,48.54,48.54,0,0,1,.84-8.47c.23-1.51.55-3,.93-4.59l.52-2.13-2,1a61.31,61.31,0,0,1-28.11,6.75A62.18,62.18,0,0,1,200,63.12a55.22,55.22,0,0,1,1-9.86A61.55,61.55,0,0,1,262.1,1m0,115.25a53.19,53.19,0,0,0,53.14-53.13c0-.15,0-.3,0-.44a53.14,53.14,0,1,0-53.13,53.57m81.14,62.33A45.92,45.92,0,1,0,314,97.28l-.11.09-.08.12A62.71,62.71,0,0,1,304,108.93l-.11.1-.07.13a45.91,45.91,0,0,0,39.43,69.42M262.1,0A62.63,62.63,0,0,0,200,53.11a56.08,56.08,0,0,0-1,10,63.07,63.07,0,0,0,91.68,56.25c-.38,1.53-.7,3.09-.95,4.68a49,49,0,0,0-.85,8.62,54.26,54.26,0,1,0,33.28-50.15A63.11,63.11,0,0,0,262.1,0Zm0,115.25a52.14,52.14,0,1,1,52.13-52.53c0,.13,0,.26,0,.4a52.13,52.13,0,0,1-52.14,52.13Zm81.14,62.33a44.91,44.91,0,0,1-38.57-67.91,63.54,63.54,0,0,0,10-11.62,44.91,44.91,0,1,1,28.61,79.53Z"/>
        </g>
      </g>
      <g>
        <g>
          <path class="cls-2" d="M99,116.43a44.5,44.5,0,0,1-89,0c0-.56,0-1.1,0-1.65a44.5,44.5,0,0,1,89,1.65Z"/>
          <path class="cls-3" d="M99,116.43A44.5,44.5,0,1,1,11.61,105a44.29,44.29,0,0,0,87.08,8.71C98.75,114.66,99,115.5,99,116.43Z"/>
        </g>
        <g>
          <g>
            <path class="cls-4" d="M42,126.72A21.69,21.69,0,1,1,63.72,105,21.7,21.7,0,0,1,42,126.72Z"/>
            <path d="M42,83.85A21.19,21.19,0,1,1,20.85,105,21.22,21.22,0,0,1,42,83.85m0-1A22.19,22.19,0,1,0,64.22,105,22.17,22.17,0,0,0,42,82.85Z"/>
          </g>
          <path class="cls-2" d="M42,99.17a8.87,8.87,0,1,0,8.87-8.85A8.87,8.87,0,0,0,42,99.17Z"/>
        </g>
      </g>
      <g>
        <g>
          <path class="cls-2" d="M188.29,55.25a44.92,44.92,0,0,1-89.84,0c0-.55,0-1.1,0-1.64a44.91,44.91,0,0,1,89.8,1.64Z"/>
          <path class="cls-3" d="M188.29,55.25a44.92,44.92,0,0,1-89.84,0,44.07,44.07,0,0,1,1.69-11.49A44.7,44.7,0,0,0,188,52.55C188.08,53.47,188.29,54.33,188.29,55.25Z"/>
        </g>
        <g>
          <g>
            <path class="cls-4" d="M130.83,65.65a21.9,21.9,0,1,1,21.9-21.89A21.91,21.91,0,0,1,130.83,65.65Z"/>
            <path d="M130.83,22.36a21.4,21.4,0,1,1-21.38,21.4,21.42,21.42,0,0,1,21.38-21.4m0-1a22.4,22.4,0,1,0,22.4,22.4,22.39,22.39,0,0,0-22.4-22.4Z"/>
          </g>
          <ellipse class="cls-2" cx="139.77" cy="37.83" rx="8.95" ry="8.94"/>
        </g>
      </g>
      <g>
        <g>
          <path class="cls-2" d="M314.24,63.12a52.14,52.14,0,0,1-104.28,0c0-.64,0-1.27,0-1.89a52.13,52.13,0,0,1,104.22,1.49C314.24,62.85,314.24,63,314.24,63.12Z"/>
          <path class="cls-3" d="M314.24,63.12a52.14,52.14,0,0,1-104.28,0,51.56,51.56,0,0,1,2-13.34,51.88,51.88,0,0,0,102,10.2c.06.94.25,1.81.3,2.74C314.24,62.85,314.24,63,314.24,63.12Z"/>
        </g>
        <g>
          <g>
            <path class="cls-4" d="M247.54,75.27a25.5,25.5,0,1,1,25.51-25.49A25.52,25.52,0,0,1,247.54,75.27Z"/>
            <path d="M247.54,24.78a25,25,0,1,1-25,25,25,25,0,0,1,25-25m0-1a26,26,0,1,0,26,26,26,26,0,0,0-26-26Z"/>
          </g>
          <path class="cls-2" d="M247.54,42.9a10.39,10.39,0,1,0,10.39-10.37A10.38,10.38,0,0,0,247.54,42.9Z"/>
        </g>
      </g>
      <g>
        <g>
          <path class="cls-2" d="M388.16,132.67a44.92,44.92,0,0,1-89.83,0c0-.56,0-1.11,0-1.66a44.91,44.91,0,0,1,89.79,1.66Z"/>
          <path class="cls-3" d="M388.16,132.67a44.92,44.92,0,0,1-89.83,0A44,44,0,0,1,300,121.18,44.69,44.69,0,0,0,387.89,130C388,130.89,388.16,131.74,388.16,132.67Z"/>
        </g>
        <g>
          <g>
            <path class="cls-4" d="M330.7,143.06a21.9,21.9,0,1,1,21.9-21.88A21.9,21.9,0,0,1,330.7,143.06Z"/>
            <path d="M330.7,99.77a21.4,21.4,0,1,1-21.38,21.41A21.43,21.43,0,0,1,330.7,99.77m0-1a22.4,22.4,0,1,0,22.4,22.41,22.39,22.39,0,0,0-22.4-22.41Z"/>
          </g>
          <path class="cls-2" d="M330.7,115.25a8.95,8.95,0,1,0,8.94-8.94A8.94,8.94,0,0,0,330.7,115.25Z"/>
        </g>
      </g>
    </g>
  </g>
</svg>
