<svg xmlns="http://www.w3.org/2000/svg" viewBox="0 0 650.99 182.14">
  <defs>
    <style>
      #btn-arms2 .cls-1 {
        fill: #fff;
      }
    </style>
  </defs>
  <g id="btn-arms2">
    <g id="arms2-2" data-name="arms2">
      <g>
        <path class="cls-1" d="M16.57,181.64a6.83,6.83,0,0,1-5-2.27c-5.43-6.11-7.33-16-7.9-19.94-.26-1.82-.77-3.91-1.3-6.12-1.2-4.9-2.55-10.45-1.49-14.49,2.5-9.45,16-18.75,26.48-21.18l.27-.06.09-.26a172.22,172.22,0,0,1,7.17-16.81C42.1,85.27,51.36,72,65.87,56.19,93.16,26.45,130.8,6.69,171.85.57a6.16,6.16,0,0,1,1-.07c3.42,0,5.72,2.85,6.23,5.66a5.49,5.49,0,0,1-3.46,6.41l-.61,0-1.42-.07-.93-.05.49.84-.27.07.44.61a7.47,7.47,0,0,1,1.1,6.87,6.1,6.1,0,0,1-4.77,3.79c-2.5.55-5.09,1.07-7.83,1.62-30.22,6.08-71.6,14.39-120.88,91l-.41.63.75.13c14.17,2.47,27.41,14.29,29.51,26.35a6.44,6.44,0,0,1-2.19,6.1l-1.18.85a7.21,7.21,0,0,1-4.18,1.44,6.59,6.59,0,0,1-3.53-1.05l-1.3-9.28-1,2.7a22.64,22.64,0,0,0-8.51-10.28l-2.37-1.65,1.68,2.35a56.87,56.87,0,0,1,8.55,17.14l.17.57c2.06,6.79,6.34,20.94-.79,25.92a11.68,11.68,0,0,1-6.73,2.32c-4.63,0-8.7-3.38-10.61-8.82a41,41,0,0,1-1.69-7.53l-.39-2.63L36.1,165c-1,4.31-3.59,6.58-7.72,6.74h-.46a13,13,0,0,1-3.74-.56l-.51-.16-.12.53a39.36,39.36,0,0,1-2.24,6.87A5,5,0,0,1,16.57,181.64Z"/>
        <path d="M172.8,1c3.14,0,5.26,2.64,5.74,5.25a5,5,0,0,1-3,5.82L175,12,173.57,12l-1.86-.1.62,1.06L172,13l.89,1.22a7,7,0,0,1,1,6.41,5.69,5.69,0,0,1-4.42,3.47c-2.5.55-5.08,1.07-7.82,1.62-30.3,6.09-71.8,14.43-121.2,91.19l-.81,1.26,1.48.26c14,2.44,27,14.08,29.11,25.94a6,6,0,0,1-2,5.62l-1.18.84a6.67,6.67,0,0,1-3.89,1.35,6,6,0,0,1-3.06-.86c-.25-1.7-.48-3.4-.72-5.1l-.28-1.94-.56-4-1.22,3.39a23.88,23.88,0,0,0-8.19-9.31l-4.75-3.3,3.36,4.7a56.18,56.18,0,0,1,8.48,17l.17.56c2,6.69,6.24,20.59-.6,25.37a11.18,11.18,0,0,1-6.44,2.23c-4.41,0-8.3-3.25-10.14-8.49A40.35,40.35,0,0,1,37.57,165l-.77-5.26-1.19,5.18c-.93,4.06-3.37,6.2-7.25,6.35h-.44a12.33,12.33,0,0,1-3.6-.54l-1-.31-.23,1.05a38.68,38.68,0,0,1-2.21,6.79,4.44,4.44,0,0,1-4.28,2.86A6.32,6.32,0,0,1,11.94,179c-5.34-6-7.22-15.76-7.78-19.67-.26-1.84-.77-3.94-1.31-6.16C1.67,148.35.34,142.86,1.37,139c2.45-9.28,15.72-18.42,26.1-20.82L28,118l.18-.52a172,172,0,0,1,7.15-16.75c7.18-15.2,16.43-28.41,30.9-44.2C93.45,26.87,131,7.17,171.93,1.07A5.1,5.1,0,0,1,172.8,1m0-1a6,6,0,0,0-1,.08c-40.51,6-78.54,25.53-106.28,55.77C52.87,69.64,42.56,83.12,34.44,100.3a169,169,0,0,0-7.19,16.85C17.12,119.49,3.05,128.65.4,138.7c-1.57,6,1.93,14.93,2.77,20.8,1,6.74,3.41,15,8,20.2a7.37,7.37,0,0,0,5.38,2.44,5.45,5.45,0,0,0,5.2-3.47,40.64,40.64,0,0,0,2.27-7,13.47,13.47,0,0,0,3.88.58h.48c5-.19,7.3-3.26,8.18-7.13a40.42,40.42,0,0,0,1.72,7.62c2,5.65,6.22,9.16,11.08,9.16a12.21,12.21,0,0,0,7-2.41c7.63-5.34,2.82-20.38.81-27a57.54,57.54,0,0,0-8.62-17.29c4.26,3,7.67,7.07,8.76,11.44l.79-2.2q.54,3.76,1.06,7.51a7.15,7.15,0,0,0,4,1.25,7.68,7.68,0,0,0,4.47-1.53l1.18-.85a7,7,0,0,0,2.4-6.6C69,131.23,55,119.85,41.31,117.46,95,34.06,139.77,31.71,169.71,25.09c6.32-1.41,6.67-7.75,4-11.45l.21,0c-.13-.21-.26-.42-.38-.63l2.14.11c7-2.64,3.93-13.08-2.85-13.08Z"/>
      </g>
      <g>
        <path class="cls-1" d="M633.13,181.64a5.41,5.41,0,0,1-5.16-3.18,38,38,0,0,1-2.41-6.87l-.12-.5-.5.13a14.72,14.72,0,0,1-4.05.57h-.5c-4.48-.16-7.29-2.43-8.35-6.75l-.6-2.39-.38,2.44a38.07,38.07,0,0,1-1.83,7.52c-2.06,5.45-6.46,8.83-11.48,8.83a13.32,13.32,0,0,1-7.29-2.33c-7.68-5-3.07-19.11-.86-25.9l.18-.57A55.71,55.71,0,0,1,599,135.5l1.78-2.3-2.44,1.57c-4.47,2.88-7.76,6.6-9.22,10.38l-1-2.65-1.38,9.13a7.54,7.54,0,0,1-3.84,1.06,8.24,8.24,0,0,1-4.55-1.45l-1.26-.85a6.17,6.17,0,0,1-2.38-6.09c2.27-12.05,16.56-23.87,31.85-26.35l.79-.13-.46-.65c-53.12-76.56-97.72-84.88-130.28-90.95-2.95-.55-5.74-1.07-8.45-1.62-3.38-.7-4.72-2.56-5.24-4A7.11,7.11,0,0,1,464.15,14l.49-.62-.3-.07s.54-.84.54-.84l-1,.05-2.2.1a5.36,5.36,0,0,1-3.79-6.24A6.92,6.92,0,0,1,464.7.5a7.37,7.37,0,0,1,1,.07C510,6.7,550.59,26.45,580,56.21c15.64,15.81,25.63,29.07,33.41,44.31a163.41,163.41,0,0,1,7.72,16.81l.1.25.27.06c11.35,2.43,25.87,11.74,28.56,21.19,1.14,4-.31,9.58-1.59,14.47-.58,2.22-1.13,4.3-1.41,6.12-.61,4-2.66,13.83-8.51,19.93a7.64,7.64,0,0,1-5.43,2.29Z"/>
        <path d="M464.7,1a6.42,6.42,0,0,1,1,.07c44.16,6.11,84.65,25.81,114,55.49,15.6,15.78,25.56,29,33.31,44.19a164.09,164.09,0,0,1,7.71,16.75l.19.51.53.12c11.22,2.4,25.55,11.55,28.19,20.84,1.11,3.89-.33,9.37-1.6,14.21-.58,2.22-1.13,4.32-1.41,6.16C646,163.26,644,173,638.2,179a7.18,7.18,0,0,1-5.07,2.13,4.91,4.91,0,0,1-4.7-2.89,37.65,37.65,0,0,1-2.39-6.78l-.24-1-1,.27a14.54,14.54,0,0,1-3.92.55h-.47c-4.24-.15-6.89-2.29-7.9-6.36l-1.18-4.8-.78,4.88a36.68,36.68,0,0,1-1.79,7.42c-2,5.25-6.21,8.51-11,8.51a12.77,12.77,0,0,1-7-2.25c-7.37-4.77-2.84-18.65-.66-25.33l.18-.56a55.12,55.12,0,0,1,9.14-17l3.54-4.59-4.87,3.14a24.45,24.45,0,0,0-8.92,9.49l-1.27-3.27-.56,3.71-.51,3.37c-.19,1.22-.37,2.44-.56,3.66a7,7,0,0,1-3.38.88,7.71,7.71,0,0,1-4.27-1.37l-.48-.31-.79-.53a5.76,5.76,0,0,1-2.16-5.58c2.24-11.87,16.34-23.51,31.44-26l1.57-.25-.91-1.3C554,40.15,509.32,31.82,476.67,25.73c-2.95-.55-5.74-1.07-8.44-1.62-2.5-.52-4.18-1.79-4.87-3.67a6.6,6.6,0,0,1,1.18-6.18l1-1.24-.37-.09.68-1.06-1.95.1L462.4,12l-.62,0a4.88,4.88,0,0,1-3.37-5.65A6.42,6.42,0,0,1,464.7,1m0-1c-7.31,0-10.66,10.44-3.07,13.08l2.31-.11c-.14.21-.28.42-.41.63l.23,0c-2.92,3.7-2.54,10,4.27,11.45,32.28,6.62,80.56,9,138.42,92.37-14.78,2.39-29.81,13.77-32.26,26.75a6.69,6.69,0,0,0,2.59,6.6l1.27.85a8.72,8.72,0,0,0,4.82,1.53,8.15,8.15,0,0,0,4.3-1.25c.38-2.5.75-5,1.13-7.51.29.73.58,1.47.86,2.2,1.18-4.37,4.85-8.47,9.45-11.44a56,56,0,0,0-9.3,17.29c-2.17,6.66-7.35,21.7.88,27a13.83,13.83,0,0,0,7.56,2.41c5.24,0,9.81-3.51,12-9.16a37.82,37.82,0,0,0,1.85-7.62c1,3.87,3.48,6.94,8.83,7.13h.51a15.57,15.57,0,0,0,4.18-.58,39.06,39.06,0,0,0,2.45,7,5.89,5.89,0,0,0,5.61,3.47,8.2,8.2,0,0,0,5.79-2.44c5-5.19,7.6-13.46,8.65-20.2.9-5.87,4.68-14.82,3-20.8-2.85-10-18-19.21-28.94-21.55a165.2,165.2,0,0,0-7.75-16.85C605.11,83.12,594,69.64,580.37,55.85,550.47,25.61,509.47,6.12,465.8.08A6.87,6.87,0,0,0,464.7,0Z"/>
      </g>
    </g>
  </g>
</svg>
