<svg xmlns="http://www.w3.org/2000/svg" xmlns:xlink="http://www.w3.org/1999/xlink" viewBox="0 0 448.88 481.39">
  <defs>
    <style>
    #btn-body3 .cls-1 {
        fill: #fff;
      }

    #btn-body3 .cls-2 {
        fill: #fff;
      }
    </style>
  </defs>
  <g id="btn-body3">
    <g id="body3-2" data-name="body3">
      <g id="body-2" data-name="body">
        <path class="cls-1" d="M222.46,480.89c-29.49,0-58.56-9.22-86.4-27.4-25.85-16.88-49.49-40.64-70.28-70.6C25.4,324.67,1.29,249.7,1.29,182.32c0-37.73,35.05-68.41,98.68-86.4l.28-.08.07-.29A122.87,122.87,0,0,1,143,28.63,120.85,120.85,0,0,1,219.15,2,122.35,122.35,0,0,1,337.29,92.72l.08.29.28.07C408.16,110.56,447,142.25,447,182.32c0,67.09-24.73,142.06-66.16,200.56-20.91,29.52-45.61,53.94-71.44,70.6C281.21,471.67,252,480.89,222.46,480.89Z"/>
        <path d="M219.15,2.46A121.84,121.84,0,0,1,336.81,92.85l.15.57.57.14c33.12,8.21,59.42,19.65,78.16,34,20.44,15.64,30.8,34.07,30.8,54.78,0,67-24.7,141.85-66.07,200.26-20.87,29.47-45.53,53.84-71.3,70.47-28.1,18.14-57.26,27.33-86.66,27.33s-58.37-9.19-86.13-27.32c-25.79-16.85-49.39-40.55-70.14-70.47-40.32-58.13-64.4-133-64.4-200.27,0-19.56,9.27-37.12,27.56-52.19C46.17,116.27,70,104.92,100.11,96.4l.56-.16.14-.57A122.33,122.33,0,0,1,143.28,29,120.35,120.35,0,0,1,219.15,2.46m0-1a122.76,122.76,0,0,0-119.31,94c-57.61,16.29-99,45.23-99,86.9,0,136.83,98.32,299.06,221.67,299.06s225-162.23,225-299.06c0-44.2-46.62-74.09-109.72-89.74A122.79,122.79,0,0,0,219.15,1.46Z"/>
      </g>
      <g class="shadow">
        <path class="cls-1" d="M443,239.72A271.53,271.53,0,0,0,218.72,120.93c-84.73,0-163,38.68-215,106.15a315.19,315.19,0,0,1-3.2-44c0-37.91,35.22-68.75,99.16-86.83l.29-.08.06-.29a123.55,123.55,0,0,1,42.85-67.25A121.46,121.46,0,0,1,219.43,1.82,122.94,122.94,0,0,1,338.15,93l.07.29.29.07c70.85,17.56,109.87,49.41,109.87,89.68A311.65,311.65,0,0,1,443,239.72Z"/>
        <path d="M219.43,2.32A122.44,122.44,0,0,1,337.66,93.15l.15.57.58.14c33.28,8.25,59.7,19.74,78.54,34.15,20.54,15.72,30.95,34.24,30.95,55.05a310.38,310.38,0,0,1-5.18,55.38,272.05,272.05,0,0,0-224-118c-84.5,0-162.6,38.38-214.69,105.4a313.57,313.57,0,0,1-3-42.77c0-19.65,9.32-37.29,27.69-52.45,16.9-13.93,40.83-25.34,71.11-33.9l.56-.16.14-.57a123,123,0,0,1,42.68-67A121,121,0,0,1,219.43,2.32m0-1A123.36,123.36,0,0,0,99.53,95.75C41.64,112.11,0,141.2,0,183.06a314.34,314.34,0,0,0,3.38,45.26C53,163.35,131,121.43,218.72,121.43c93.34,0,175.66,47.41,224.52,119.57a312.16,312.16,0,0,0,5.64-57.94c0-44.4-46.85-74.45-110.25-90.17A123.38,123.38,0,0,0,219.43,1.32Z"/>
      </g>
      <g id="freakles1">
        <g>
          <path class="cls-2" d="M108.15,193.34c-2.84,0-6.32-1.39-6.77-5.31a6.66,6.66,0,0,1,1.69-5,4.78,4.78,0,0,1,3.56-1.73c2.84,0,6.32,1.38,6.78,5.3a6.72,6.72,0,0,1-1.69,5A4.81,4.81,0,0,1,108.15,193.34Z"/>
          <path d="M106.63,181.82c2.76,0,5.86,1.27,6.28,4.86a6.22,6.22,0,0,1-1.56,4.59,4.35,4.35,0,0,1-3.2,1.57c-2.76,0-5.86-1.28-6.28-4.86a6.23,6.23,0,0,1,1.57-4.6,4.3,4.3,0,0,1,3.19-1.56m0-1c-3.59,0-6.12,4-5.75,7.27.45,3.86,3.7,5.75,7.27,5.75s6.13-4,5.76-7.28c-.46-3.86-3.71-5.74-7.28-5.74Z"/>
        </g>
        <g>
          <path class="cls-2" d="M126.35,205.25a3.54,3.54,0,0,1-2.57-1.17,4.17,4.17,0,0,1-1.16-3,4.05,4.05,0,0,1,4.21-3.74,3.55,3.55,0,0,1,2.57,1.16,4.19,4.19,0,0,1,1.16,3A4.06,4.06,0,0,1,126.35,205.25Z"/>
          <path d="M126.83,197.83a3.06,3.06,0,0,1,2.21,1,3.61,3.61,0,0,1,1,2.63,3.54,3.54,0,0,1-3.71,3.28,3.06,3.06,0,0,1-2.21-1,3.64,3.64,0,0,1-1-2.64,3.55,3.55,0,0,1,3.71-3.27m0-1a4.47,4.47,0,1,0,4.23,4.69,4.52,4.52,0,0,0-4.23-4.69Z"/>
        </g>
        <g>
          <path class="cls-2" d="M108.13,215.11c-2.82,0-6.27-1.38-6.71-5.29a6.64,6.64,0,0,1,1.67-4.92,4.83,4.83,0,0,1,3.56-1.73c2.82,0,6.27,1.39,6.71,5.29a6.64,6.64,0,0,1-1.67,4.92A4.79,4.79,0,0,1,108.13,215.11Z"/>
          <path d="M106.65,203.67c2.62,0,5.81,1.27,6.22,4.85a6.14,6.14,0,0,1-1.55,4.53,4.33,4.33,0,0,1-3.19,1.57c-2.62,0-5.81-1.28-6.22-4.86a6.12,6.12,0,0,1,1.56-4.53,4.33,4.33,0,0,1,3.18-1.56m0-1c-3.55,0-6.09,4-5.73,7.2.43,3.84,3.66,5.75,7.21,5.75s6.1-4,5.73-7.21c-.43-3.83-3.66-5.74-7.21-5.74Z"/>
        </g>
        <g>
          <path class="cls-2" d="M76,182.31a4.3,4.3,0,0,1-4.39-4.56,4.83,4.83,0,0,1,1.11-3.18A4.23,4.23,0,0,1,76,173.15a4.3,4.3,0,0,1,4.39,4.55,4.83,4.83,0,0,1-1.12,3.18A4.23,4.23,0,0,1,76,182.31Z"/>
          <path d="M76,173.65a3.78,3.78,0,0,1,3.9,4A3.82,3.82,0,0,1,76,181.8,3.68,3.68,0,0,1,73,180.57a4.37,4.37,0,0,1-1-2.82,3.82,3.82,0,0,1,3.93-4.1m0-1c-6.55,0-6.59,10.15,0,10.15s6.59-10.15,0-10.15Z"/>
        </g>
        <g>
          <path class="cls-2" d="M135.75,221.86a2.41,2.41,0,0,1-2.59-2.6,3.85,3.85,0,0,1,.91-2.48,3.25,3.25,0,0,1,2.56-1.16,2.42,2.42,0,0,1,2.6,2.6,3.86,3.86,0,0,1-.92,2.48A3.25,3.25,0,0,1,135.75,221.86Z"/>
          <path d="M136.63,216.12a1.93,1.93,0,0,1,2.1,2.1,3.07,3.07,0,0,1-3,3.15,2,2,0,0,1-1.59-.61,2.19,2.19,0,0,1-.5-1.5,3,3,0,0,1,3-3.14m0-1c-4.64,0-5.57,7.25-.88,7.25s5.58-7.25.88-7.25Z"/>
        </g>
        <g>
          <path class="cls-2" d="M156.91,229a6.36,6.36,0,0,1-6.33-6.62,5.32,5.32,0,0,1,1.22-3.54,4.91,4.91,0,0,1,3.81-1.53,5.94,5.94,0,0,1,4.69,2.11,7.06,7.06,0,0,1,1.64,4.51A4.75,4.75,0,0,1,156.91,229Z"/>
          <path d="M155.61,217.76a5.86,5.86,0,0,1,5.83,6.12c0,2.21-1.19,4.58-4.53,4.58a5.49,5.49,0,0,1-4.31-1.94,6.51,6.51,0,0,1-1.52-4.19c0-2.21,1.19-4.57,4.53-4.57m0-1c-8.23,0-6.85,12.7,1.3,12.7s6.84-12.7-1.3-12.7Z"/>
        </g>
        <g>
          <path class="cls-2" d="M313.49,223.62a5.45,5.45,0,0,1-4-1.93,7.2,7.2,0,0,1-1.88-5.38c.43-4.1,4-5.94,7.36-5.94a5.43,5.43,0,0,1,4,1.94,7.21,7.21,0,0,1,1.87,5.37C320.43,221.78,316.85,223.62,313.49,223.62Z"/>
          <path d="M315,210.87a5,5,0,0,1,3.66,1.77,6.69,6.69,0,0,1,1.74,5c-.41,4.05-4,5.49-6.86,5.49a5,5,0,0,1-3.65-1.76,6.75,6.75,0,0,1-1.75-5c.42-4.05,4-5.49,6.86-5.49m0-1c-3.89,0-7.42,2.21-7.86,6.39-.36,3.58,2.49,7.86,6.4,7.86s7.43-2.21,7.86-6.39c.37-3.58-2.48-7.86-6.4-7.86Z"/>
        </g>
        <g>
          <path class="cls-2" d="M292.1,228.83a6.15,6.15,0,0,1-6.12-6.4,5.26,5.26,0,0,1,1.22-3.52,4.81,4.81,0,0,1,3.76-1.53,6.14,6.14,0,0,1,6.12,6.41,5.35,5.35,0,0,1-1.21,3.52A4.86,4.86,0,0,1,292.1,228.83Z"/>
          <path d="M291,217.88a5.66,5.66,0,0,1,5.62,5.91,4.78,4.78,0,0,1-1.09,3.19,4.28,4.28,0,0,1-3.39,1.35,5.65,5.65,0,0,1-5.62-5.9,4.81,4.81,0,0,1,1.09-3.19,4.29,4.29,0,0,1,3.39-1.36m0-1c-8.06,0-6.85,12.45,1.14,12.45S299,216.88,291,216.88Z"/>
        </g>
        <g>
          <path class="cls-2" d="M271.29,238.64a3.87,3.87,0,0,1-2.79-1.24,4.17,4.17,0,0,1,3.13-7.13,3.85,3.85,0,0,1,2.79,1.24,4.17,4.17,0,0,1-3.13,7.13Z"/>
          <path d="M271.63,230.77a3.36,3.36,0,0,1,2.43,1.09,3.67,3.67,0,0,1-2.77,6.28,3.37,3.37,0,0,1-2.43-1.08,3.83,3.83,0,0,1-1.09-2.74,3.77,3.77,0,0,1,3.86-3.55m0-1a4.69,4.69,0,1,0,4.52,4.85,4.75,4.75,0,0,0-4.52-4.85Z"/>
        </g>
        <g>
          <path class="cls-2" d="M313.11,192.17a3.45,3.45,0,0,1-2.7-1.12,3.9,3.9,0,0,1-.89-2.56,4,4,0,0,1,4.07-4.26,3.45,3.45,0,0,1,2.7,1.12,3.9,3.9,0,0,1,.89,2.56A4,4,0,0,1,313.11,192.17Z"/>
          <path d="M313.59,184.73a2.94,2.94,0,0,1,2.33,1,3.38,3.38,0,0,1,.76,2.23,3.56,3.56,0,0,1-3.57,3.76,2.9,2.9,0,0,1-2.32-.95,3.41,3.41,0,0,1-.77-2.23,3.56,3.56,0,0,1,3.57-3.76m0-1c-5.74,0-6.25,8.94-.48,8.94s6.25-8.94.48-8.94Z"/>
        </g>
        <g>
          <path class="cls-2" d="M306.64,202a2.65,2.65,0,0,1-2.63-2.76,2.22,2.22,0,0,1,.51-1.49,2,2,0,0,1,1.58-.64,2.64,2.64,0,0,1,2.63,2.76,2.22,2.22,0,0,1-.51,1.49A2,2,0,0,1,306.64,202Z"/>
          <path d="M306.1,197.6a2.17,2.17,0,0,1,2.13,2.26,1.73,1.73,0,0,1-.39,1.16,1.51,1.51,0,0,1-1.2.47,2.17,2.17,0,0,1-2.13-2.26,1.78,1.78,0,0,1,.38-1.16,1.53,1.53,0,0,1,1.21-.47m0-1c-3.81,0-3.24,5.89.54,5.89s3.24-5.89-.54-5.89Z"/>
        </g>
        <g>
          <path class="cls-2" d="M335.28,202.68a4.73,4.73,0,0,1-4.82-5,5,5,0,0,1,1.15-3.29,4.36,4.36,0,0,1,3.45-1.46,4.73,4.73,0,0,1,4.82,5,5,5,0,0,1-1.15,3.29A4.41,4.41,0,0,1,335.28,202.68Z"/>
          <path d="M335.06,193.41a4.25,4.25,0,0,1,4.32,4.52,4.51,4.51,0,0,1-1,3,3.91,3.91,0,0,1-3.07,1.29,4.24,4.24,0,0,1-4.32-4.52,4,4,0,0,1,4.1-4.25m0-1c-6.95,0-6.71,10.77.22,10.77s6.71-10.77-.22-10.77Z"/>
        </g>
        <g>
          <path class="cls-2" d="M332,214.24a2.7,2.7,0,0,1-2.68-2.82,2.3,2.3,0,0,1,.51-1.51,2.07,2.07,0,0,1,1.61-.64,2.7,2.7,0,0,1,2.68,2.82,2.23,2.23,0,0,1-.52,1.51A2,2,0,0,1,332,214.24Z"/>
          <path d="M331.4,209.77a2.22,2.22,0,0,1,2.18,2.32,1.8,1.8,0,0,1-.39,1.18,1.58,1.58,0,0,1-1.23.47,2.22,2.22,0,0,1-2.18-2.32,1.8,1.8,0,0,1,.39-1.18,1.56,1.56,0,0,1,1.23-.47m0-1c-3.86,0-3.27,6,.56,6s3.27-6-.56-6Z"/>
        </g>
        <g>
          <path class="cls-2" d="M302,231.52a2.34,2.34,0,0,1-1.49-.48l-.22-.14a2,2,0,0,1-.93-1.43,1.87,1.87,0,0,1,.49-1.49l.06-.07,0-.09a2.27,2.27,0,0,1,1.53-1.59l.41-.09h0l.69-.14h.24l.35,0,.19.05.67.47a2.41,2.41,0,0,1,1,2,2.3,2.3,0,0,1-1.05,1.87l-.07,0,0,.07a2.36,2.36,0,0,1-1.93,1Z"/>
          <path d="M302.84,226.48h0a1.15,1.15,0,0,1,.26,0h.07l.59.42a1.93,1.93,0,0,1,.82,1.55,1.77,1.77,0,0,1-.84,1.46l-.13.1-.1.13A1.86,1.86,0,0,1,302,231a2.43,2.43,0,0,1-.85-.17,2.69,2.69,0,0,1-.36-.22l-.21-.14a1.54,1.54,0,0,1-.72-1.08,1.36,1.36,0,0,1,.36-1.09l.13-.15.07-.17a1.76,1.76,0,0,1,1.18-1.28l.35-.08H302l.07,0,.55-.11h.18m0-1a4.68,4.68,0,0,0-1,.16h0l-.42.1a2.78,2.78,0,0,0-1.89,1.9,2.39,2.39,0,0,0,.55,3.67,4.66,4.66,0,0,0,.75.45A3.17,3.17,0,0,0,302,232a2.86,2.86,0,0,0,2.34-1.25,2.79,2.79,0,0,0,0-4.65l.32,0a2.9,2.9,0,0,0-1.38-.65,2.25,2.25,0,0,0-.44,0Z"/>
        </g>
        <g>
          <path class="cls-2" d="M328.91,178.57a4.24,4.24,0,0,1-2-.44v-.07l-.32-.17a6.07,6.07,0,0,1-2.35-1.89l-.77-1.4a5.94,5.94,0,0,1,4.92-8l.61,0a6,6,0,0,1,5.53,3.75c.88,2.22.29,5.61-1.95,6.91l-.68.39-.12.14a5.6,5.6,0,0,1-2.91.81Z"/>
          <path d="M329.05,167.06a5.48,5.48,0,0,1,5.06,3.45c.8,2,.22,5.15-1.74,6.29l-.61.35-.15.1-.11.11h0a5.08,5.08,0,0,1-2.58.7,4,4,0,0,1-1.38-.23v-.09l-.7-.32a5.51,5.51,0,0,1-2.12-1.68l-.52-.95-.21-.38a5.43,5.43,0,0,1-.28-2.82,5.5,5.5,0,0,1,4.77-4.51,5.44,5.44,0,0,1,.57,0m0-1c-.23,0-.45,0-.67,0a6.42,6.42,0,0,0-5.3,8.74l.8,1.46a6.56,6.56,0,0,0,2.54,2v.06a4.58,4.58,0,0,0,2.49.67,6.08,6.08,0,0,0,3.24-.93l.11-.12.61-.36c2.45-1.42,3.13-5.07,2.17-7.52a6.49,6.49,0,0,0-6-4.08Z"/>
        </g>
        <g>
          <path class="cls-2" d="M348.79,180.42a3,3,0,0,1-2.2-1,3.83,3.83,0,0,1-1-2.83,3.68,3.68,0,0,1,3.91-3.26,3,3,0,0,1,2.2,1,3.88,3.88,0,0,1,1,2.83A3.68,3.68,0,0,1,348.79,180.42Z"/>
          <path d="M349.48,173.79a2.5,2.5,0,0,1,1.83.88,3.34,3.34,0,0,1,.89,2.45,3.16,3.16,0,0,1-3.41,2.8,2.52,2.52,0,0,1-1.83-.87,3.38,3.38,0,0,1-.9-2.46,3.18,3.18,0,0,1,3.42-2.8m0-1a4.15,4.15,0,0,0-4.41,3.72c-.18,2.07,1.49,4.41,3.72,4.41a4.15,4.15,0,0,0,4.41-3.72c.18-2.07-1.49-4.41-3.72-4.41Z"/>
        </g>
        <g>
          <path class="cls-2" d="M356.48,197.88a3,3,0,0,1-3-3.12,2.35,2.35,0,0,1,.55-1.6,2.15,2.15,0,0,1,1.71-.67,3,3,0,0,1,3,3.11,2.4,2.4,0,0,1-.55,1.6A2.15,2.15,0,0,1,356.48,197.88Z"/>
          <path d="M355.76,193a2.51,2.51,0,0,1,2.47,2.61,1.62,1.62,0,0,1-1.75,1.78,2.32,2.32,0,0,1-1.82-.82,2.79,2.79,0,0,1-.66-1.8,1.62,1.62,0,0,1,1.76-1.77m0-1c-4.14,0-3.39,6.39.72,6.39s3.38-6.39-.72-6.39Z"/>
        </g>
        <g>
          <path class="cls-2" d="M329.17,145.76a3.1,3.1,0,0,1-1.31-.31c-.45-.22-.93-.42-1.45-.63l-.16-.14-.11-.06c-.16-.1-.32-.2-.47-.31l-.05.05-.88-.64a3.83,3.83,0,0,1-1.49-3.38A5.47,5.47,0,0,1,325.6,136a4.75,4.75,0,0,1,2.51-.74,5.3,5.3,0,0,1,4.8,3.54,5.71,5.71,0,0,1,.27,2.83c-.24,1.94-2,4.12-4,4.12Z"/>
          <path d="M328.11,135.77a4.8,4.8,0,0,1,4.33,3.22,5.1,5.1,0,0,1,.24,2.59c-.21,1.74-1.76,3.68-3.52,3.68a2.62,2.62,0,0,1-1.08-.25c-.39-.2-.8-.38-1.24-.56l-.33-.19-.12-.08a3.74,3.74,0,0,1-.42-.27l-.05.05-.84-.61-.05,0a3.45,3.45,0,0,1-1.29-3,5,5,0,0,1,2.13-3.92,4.23,4.23,0,0,1,2.24-.67m0-1a5.25,5.25,0,0,0-2.77.82c-2.69,1.66-3.77,6.42-.9,8.54l1.21.88-.28-.3c.2.15.41.27.62.4a.25.25,0,0,1,0,.07c.58.22,1.14.45,1.7.72a3.41,3.41,0,0,0,1.51.36c2.31,0,4.25-2.39,4.51-4.56a6.07,6.07,0,0,0-.29-3.07,5.81,5.81,0,0,0-5.27-3.86Z"/>
        </g>
        <g>
          <path class="cls-2" d="M347.74,158.64a5.44,5.44,0,0,1-5.71-5,5.66,5.66,0,0,1,1.56-4.1,4.74,4.74,0,0,1,3.44-1.57,5.43,5.43,0,0,1,5.71,5,5.68,5.68,0,0,1-1.56,4.11A4.74,4.74,0,0,1,347.74,158.64Z"/>
          <path d="M347,148.44a5,5,0,0,1,5.21,4.56,5.13,5.13,0,0,1-1.42,3.72,4.23,4.23,0,0,1-3.08,1.42,5,5,0,0,1-5.21-4.56,5.16,5.16,0,0,1,1.42-3.72,4.23,4.23,0,0,1,3.08-1.42m0-1c-3.19,0-5.68,3.15-5.5,6.2a6,6,0,0,0,6.21,5.5c3.19,0,5.68-3.16,5.49-6.2a5.94,5.94,0,0,0-6.2-5.5Z"/>
        </g>
        <g>
          <path class="cls-2" d="M364.43,166.7a3.38,3.38,0,0,1-3.33-3.48,2.54,2.54,0,0,1,.58-1.69,2.33,2.33,0,0,1,1.83-.71,3.38,3.38,0,0,1,3.33,3.48,2.53,2.53,0,0,1-.58,1.69A2.34,2.34,0,0,1,364.43,166.7Z"/>
          <path d="M363.51,161.32a2.65,2.65,0,0,1,2.07.94,3.25,3.25,0,0,1,.76,2,1.74,1.74,0,0,1-1.91,1.9,2.68,2.68,0,0,1-2.07-.93,3.28,3.28,0,0,1-.76-2.05,1.75,1.75,0,0,1,1.91-1.9m0-1c-4.46,0-3.5,6.88.92,6.88s3.49-6.88-.92-6.88Z"/>
        </g>
        <g>
          <path class="cls-2" d="M106.45,141.41c-2.77,0-5.7-1.76-6-5.1a5.82,5.82,0,0,1,1.58-4.29,4.76,4.76,0,0,1,3.49-1.62c2.77,0,5.71,1.75,6,5.1a5.82,5.82,0,0,1-1.58,4.29A4.79,4.79,0,0,1,106.45,141.41Z"/>
          <path d="M105.57,130.9c2.46,0,5.22,1.45,5.45,4.64a5.32,5.32,0,0,1-1.45,3.91,4.27,4.27,0,0,1-3.12,1.46c-2.46,0-5.21-1.45-5.45-4.64a5.3,5.3,0,0,1,1.45-3.91,4.27,4.27,0,0,1,3.12-1.46m0-1c-3.29,0-5.8,3.35-5.57,6.44.26,3.45,3.17,5.57,6.45,5.57s5.8-3.35,5.57-6.45c-.25-3.45-3.17-5.56-6.45-5.56Z"/>
        </g>
        <g>
          <path class="cls-2" d="M88.74,165.73a5.6,5.6,0,0,1-5.87-5.08,5.77,5.77,0,0,1,1.57-4.23,4.79,4.79,0,0,1,3.48-1.6,5.58,5.58,0,0,1,5.87,5.07,5.79,5.79,0,0,1-1.58,4.24A4.78,4.78,0,0,1,88.74,165.73Z"/>
          <path d="M87.92,155.31a5.11,5.11,0,0,1,5.37,4.61,5.3,5.3,0,0,1-1.45,3.87,4.26,4.26,0,0,1-3.1,1.44,5.12,5.12,0,0,1-5.37-4.62,5.26,5.26,0,0,1,1.44-3.85,4.28,4.28,0,0,1,3.11-1.45m0-1c-3.26,0-5.76,3.29-5.55,6.37a6.08,6.08,0,0,0,6.37,5.55c3.26,0,5.76-3.3,5.55-6.37a6.08,6.08,0,0,0-6.37-5.55Z"/>
        </g>
        <g>
          <path class="cls-2" d="M80.48,195.45a2.07,2.07,0,0,1-2.08-2.18,2,2,0,0,1,.44-1.3,1.7,1.7,0,0,1,1.35-.55,2.06,2.06,0,0,1,2.08,2.18,2,2,0,0,1-.44,1.29A1.69,1.69,0,0,1,80.48,195.45Z"/>
          <path d="M80.19,191.92a1.58,1.58,0,0,1,1.58,1.68,1.47,1.47,0,0,1-.32,1,1.22,1.22,0,0,1-1,.38,1.58,1.58,0,0,1-1.58-1.68,1.45,1.45,0,0,1,.32-1,1.2,1.2,0,0,1,1-.38m0-1c-3.24,0-3,5,.29,5s3-5-.29-5Z"/>
        </g>
        <g>
          <path class="cls-2" d="M93.07,203.07a3,3,0,0,1-2.31-.93A3.28,3.28,0,0,1,90,200,3.79,3.79,0,0,1,93.78,196a3,3,0,0,1,2.31.93,3.28,3.28,0,0,1,.75,2.17A3.79,3.79,0,0,1,93.07,203.07Z"/>
          <path d="M93.78,196.52a2.49,2.49,0,0,1,1.94.76,2.78,2.78,0,0,1,.62,1.84,3.3,3.3,0,0,1-3.27,3.45,2.45,2.45,0,0,1-1.93-.76,2.78,2.78,0,0,1-.62-1.84,3.3,3.3,0,0,1,3.26-3.45m0-1c-5.15,0-5.92,8-.71,8s5.92-8,.71-8Z"/>
        </g>
        <g>
          <path class="cls-2" d="M68.65,162.19a2.9,2.9,0,0,1-3.18-2.45,3.13,3.13,0,0,1,.79-2.34,2.15,2.15,0,0,1,1.6-.79A2.9,2.9,0,0,1,71,159.06a3.1,3.1,0,0,1-.78,2.33A2.2,2.2,0,0,1,68.65,162.19Z"/>
          <path d="M67.86,157.11c.57,0,2.46.15,2.69,2a2.63,2.63,0,0,1-.67,1.93,1.69,1.69,0,0,1-1.23.63,2.44,2.44,0,0,1-2.69-2,2.72,2.72,0,0,1,.67-2,1.69,1.69,0,0,1,1.23-.62m0-1c-1.81,0-3.08,2.06-2.89,3.69a3.4,3.4,0,0,0,3.68,2.89c1.81,0,3.09-2.06,2.89-3.69a3.39,3.39,0,0,0-3.68-2.89Z"/>
        </g>
        <g>
          <path class="cls-2" d="M87.08,144l-.47,0a4.19,4.19,0,0,1-1.6-.7l-.14-.09a3.83,3.83,0,0,1-1.32-2.62,3,3,0,0,1,.75-2.33,2.76,2.76,0,0,1,2-1,2.59,2.59,0,0,1,.48,0l.34.07.17,0a2.75,2.75,0,0,1,2.16,1.77l0,.07,0,.06a3.11,3.11,0,0,1,.57,2.12v.09l0,.09a1.57,1.57,0,0,1-.27,1.4,2.37,2.37,0,0,1-1.84.82h0a2.31,2.31,0,0,1-.83-.15Z"/>
          <path d="M86.35,137.76l.34,0,.38.08.17,0A2.23,2.23,0,0,1,89,139.35l0,.14.09.12a2.55,2.55,0,0,1,.47,1.76l0,.18,0,.18a1.06,1.06,0,0,1-.17,1,1.89,1.89,0,0,1-1.45.63,1.84,1.84,0,0,1-.66-.12l-.12.33a5.67,5.67,0,0,1-.58,0,3.57,3.57,0,0,1-1.4-.62l-.14-.09a3.29,3.29,0,0,1-1.1-2.27,2.53,2.53,0,0,1,.64-1.94,2.23,2.23,0,0,1,1.67-.81h0m0-1a3.51,3.51,0,0,0-3.3,3.89,4.21,4.21,0,0,0,1.56,3,4.78,4.78,0,0,0,1.93.85,6.32,6.32,0,0,0,.77.06c.38,0,.56-.08-.27-.39h0a2.85,2.85,0,0,0,1,.18c1.52,0,3-1.13,2.59-2.85A3.56,3.56,0,0,0,90,139a3.24,3.24,0,0,0-2.53-2.09l-.52-.11a2.75,2.75,0,0,0-.57-.05Z"/>
        </g>
        <g>
          <path class="cls-2" d="M180.49,31.67a3.67,3.67,0,0,1-2.66-1.19,4.25,4.25,0,0,1-1.19-3.05,4.13,4.13,0,0,1,4.27-3.87,3.69,3.69,0,0,1,2.66,1.2,4.24,4.24,0,0,1,1.18,3A4.11,4.11,0,0,1,180.49,31.67Z"/>
          <path d="M180.91,24.06a3.17,3.17,0,0,1,2.29,1,3.72,3.72,0,0,1,1.06,2.68,3.64,3.64,0,0,1-3.77,3.39,3.19,3.19,0,0,1-2.3-1,3.73,3.73,0,0,1-1.05-2.68,3.64,3.64,0,0,1,3.77-3.39m0-1a4.56,4.56,0,1,0,4.34,4.77,4.63,4.63,0,0,0-4.34-4.77Z"/>
        </g>
        <g>
          <path class="cls-2" d="M228,37.9a5,5,0,0,1-3.77-8.6,4.67,4.67,0,0,1,3.38-1.5,5,5,0,0,1,3.77,8.61A4.7,4.7,0,0,1,228,37.9Z"/>
          <path d="M227.63,28.3A4.54,4.54,0,0,1,231,36.06a4.17,4.17,0,0,1-3,1.34A4.63,4.63,0,0,1,223.27,33a4.68,4.68,0,0,1,1.34-3.38,4.21,4.21,0,0,1,3-1.34m0-1a5.55,5.55,0,1,0,5.74,5.36,5.59,5.59,0,0,0-5.74-5.36Z"/>
        </g>
        <g>
          <path class="cls-2" d="M264.49,41.71a5.4,5.4,0,0,1-5.36-5l0-.72a5.46,5.46,0,0,1,5.05-5.73h.29a6,6,0,0,1,4.16,1.85,4.26,4.26,0,0,1,1.27,3.15l0,.75c-.12,2.52-1.51,5.53-5,5.74Z"/>
          <path d="M264.43,30.71a5.46,5.46,0,0,1,3.8,1.69,3.78,3.78,0,0,1,1.13,2.79v.22l0,.53c-.11,2.31-1.37,5.07-4.56,5.26h-.29a4.9,4.9,0,0,1-4.85-4.56l0-.42,0-.31a5,5,0,0,1,4.58-5.2h.26m0-1h-.32A6,6,0,0,0,258.59,36c0,.24,0,.48,0,.72a5.92,5.92,0,0,0,5.85,5.51h.35c3.45-.21,5.34-3,5.5-6.21l0-.75c.16-3.11-3.07-5.53-5.93-5.53Z"/>
        </g>
        <g>
          <path class="cls-2" d="M241,23.9a4.87,4.87,0,0,1-3.54-8.31,4.64,4.64,0,0,1,3.33-1.44,4.86,4.86,0,0,1,3.54,8.31A4.64,4.64,0,0,1,241,23.9Z"/>
          <path d="M240.81,14.65A4.36,4.36,0,0,1,244,22.11a4.15,4.15,0,0,1-3,1.29,4.36,4.36,0,0,1-3.18-7.46,4.15,4.15,0,0,1,3-1.29m0-1a5.38,5.38,0,1,0,5.48,5.27,5.41,5.41,0,0,0-5.48-5.27Z"/>
        </g>
        <g>
          <path class="cls-2" d="M198.92,40.7a3.93,3.93,0,0,1-3.08-1.29,4.49,4.49,0,0,1-1-2.94A4.22,4.22,0,0,1,199.13,32a4,4,0,0,1,4.1,4.23A4.22,4.22,0,0,1,198.92,40.7Z"/>
          <path d="M199.13,32.49a3.39,3.39,0,0,1,2.7,1.12,4,4,0,0,1,.9,2.61,3.75,3.75,0,0,1-3.81,4,3.37,3.37,0,0,1-2.7-1.13,4,4,0,0,1-.9-2.61,3.74,3.74,0,0,1,3.81-4m0-1c-6.26,0-6.49,9.72-.21,9.72s6.49-9.72.21-9.72Z"/>
        </g>
        <g>
          <path class="cls-2" d="M162.38,51.24c-3.07,0-6.54-1.41-7.06-5.36A7,7,0,0,1,157,40.67a4.83,4.83,0,0,1,3.59-1.77c3.07,0,6.54,1.41,7,5.36a6.91,6.91,0,0,1-1.7,5.2A4.81,4.81,0,0,1,162.38,51.24Z"/>
          <path d="M160.62,39.4c1.39,0,6,.35,6.56,4.92a6.36,6.36,0,0,1-1.59,4.81,4.29,4.29,0,0,1-3.21,1.61c-1.39,0-6-.35-6.56-4.92A6.44,6.44,0,0,1,157.41,41a4.32,4.32,0,0,1,3.21-1.6m0-1c-3.67,0-6.22,4.27-5.79,7.55.52,4,3.88,5.79,7.55,5.79s6.22-4.27,5.79-7.55c-.52-4-3.88-5.79-7.55-5.79Z"/>
        </g>
        <g>
          <path class="cls-2" d="M147.43,61.65a4,4,0,0,1-4.1-4.23,4.83,4.83,0,0,1,1.09-3.1,4.1,4.1,0,0,1,3.22-1.39,4,4,0,0,1,4.1,4.23A4.22,4.22,0,0,1,147.43,61.65Z"/>
          <path d="M147.64,53.43a3.41,3.41,0,0,1,2.7,1.12,4,4,0,0,1,.9,2.61,3.74,3.74,0,0,1-3.81,4,3.43,3.43,0,0,1-2.7-1.12,4,4,0,0,1-.9-2.61,3.75,3.75,0,0,1,3.81-4m0-1c-6.26,0-6.48,9.72-.21,9.72s6.48-9.72.21-9.72Z"/>
        </g>
        <g>
          <path class="cls-2" d="M206.46,24.74c-3.4,0-6-2.16-6.3-5.25a6.52,6.52,0,0,1,1.68-4.8A4.64,4.64,0,0,1,205.25,13l1.78.05c2.88.06,6.09,1.47,6.46,5.22a6.18,6.18,0,0,1-1.57,4.6,5,5,0,0,1-3.63,1.79Z"/>
          <path d="M205.25,13.54h.08l.89,0,.81,0c2.66.06,5.62,1.35,6,4.77a5.75,5.75,0,0,1-1.44,4.21,4.53,4.53,0,0,1-3.27,1.63l-.88,0-.77,0h-.17c-2.56,0-5.47-1.5-5.8-4.8A6,6,0,0,1,202.21,15a4.16,4.16,0,0,1,3-1.49m0-1c-3.43,0-5.91,3.9-5.59,7,.37,3.59,3.41,5.7,6.8,5.7h.19l1.65,0c3.46-.08,6-3.69,5.69-6.94-.37-3.75-3.48-5.59-6.94-5.67l-1.69-.05Z"/>
        </g>
        <g>
          <path class="cls-2" d="M272.71,48.68a2.83,2.83,0,0,1-3.11-2.42,3,3,0,0,1,.77-2.27,2.16,2.16,0,0,1,1.59-.78,2.83,2.83,0,0,1,3.11,2.42,3,3,0,0,1-.77,2.26A2.12,2.12,0,0,1,272.71,48.68Z"/>
          <path d="M272,43.71a2.36,2.36,0,0,1,2.61,2,2.52,2.52,0,0,1-.64,1.87,1.66,1.66,0,0,1-1.22.62,2.38,2.38,0,0,1-2.62-2,2.56,2.56,0,0,1,.65-1.87,1.68,1.68,0,0,1,1.22-.62m0-1c-1.78,0-3,2-2.86,3.61a3.33,3.33,0,0,0,3.61,2.86c1.78,0,3.05-2,2.86-3.61A3.33,3.33,0,0,0,272,42.71Z"/>
        </g>
        <g>
          <path class="cls-2" d="M285.44,36.51a1.15,1.15,0,0,1-1.13-1.12,1.31,1.31,0,0,0,0-.31,1.79,1.79,0,0,1,.44-1.44A1.81,1.81,0,0,1,286,33a1.23,1.23,0,0,1,1.11.79,2,2,0,0,1,.16,1.35h0l-.07.28a1,1,0,0,1-.23.3l-.06,0,0,0-.09,0,0,0-.09.09h-.16l-.07,0-.11,0-.09.09A1,1,0,0,1,285.44,36.51Z"/>
          <path d="M286,33.46h0c.1,0,.41,0,.67.52a1.44,1.44,0,0,1,.08,1.11l0,.08-.14.16,0,0,0,0h0l-.08.06h-.16l-.14.12-.16.07-.16.18a.54.54,0,0,1-.42.19.63.63,0,0,1-.63-.64,2,2,0,0,0,0-.36A1.41,1.41,0,0,1,286,33.46m0-1a2.41,2.41,0,0,0-2.25,2.72,2.34,2.34,0,0,1,0,.26A1.63,1.63,0,0,0,285.44,37a1.54,1.54,0,0,0,1.19-.55h.05l.06,0a.69.69,0,0,0,.21-.06,1.79,1.79,0,0,0,.14-.13c.05,0,.11,0,.16-.08s0-.08.07-.12a1.65,1.65,0,0,0,.33-.43h0a2.39,2.39,0,0,0-.06-2.07A1.73,1.73,0,0,0,286,32.46Zm1.63,3.13h0Zm0,0Z"/>
        </g>
        <g>
          <path class="cls-2" d="M289.82,63.69a5.1,5.1,0,0,1-3.77-1.85,7.17,7.17,0,0,1-1.79-5.33c.5-4.15,4.21-5.62,7.24-5.62a5.1,5.1,0,0,1,3.77,1.85,7.13,7.13,0,0,1,1.79,5.33C296.56,62.22,292.85,63.69,289.82,63.69Z"/>
          <path d="M291.5,51.39a4.57,4.57,0,0,1,3.39,1.68A6.63,6.63,0,0,1,296.57,58c-.47,3.82-3.79,5.18-6.75,5.18a4.58,4.58,0,0,1-3.39-1.68,6.63,6.63,0,0,1-1.68-4.94c.47-3.82,3.79-5.18,6.75-5.18m0-1c-3.79,0-7.24,2-7.74,6.06-.41,3.42,2.28,7.74,6.06,7.74s7.24-2,7.74-6.06c.41-3.41-2.27-7.74-6.06-7.74Z"/>
        </g>
        <g>
          <path class="cls-2" d="M190.72,17.8a4.32,4.32,0,0,1-.62-.05,3.33,3.33,0,0,1-2.81-3.31A3.1,3.1,0,0,1,190,11.32a4.44,4.44,0,0,1,.71-.06,3.91,3.91,0,0,1,.83.09,3.33,3.33,0,0,1,2.77,3.21,3.17,3.17,0,0,1-2.65,3.13,3.5,3.5,0,0,1-.89.11Z"/>
          <path d="M190.66,11.76a2.94,2.94,0,0,1,.72.08,2.83,2.83,0,0,1,2.38,2.73,2.7,2.7,0,0,1-2.26,2.64,3.59,3.59,0,0,1-.78.09,2.32,2.32,0,0,1-.53-.05,2.83,2.83,0,0,1-2.4-2.82A2.59,2.59,0,0,1,190,11.81a4.7,4.7,0,0,1,.63-.05m0-1a4.4,4.4,0,0,0-.8.07c-4.26.8-4,6.67.15,7.41a4.28,4.28,0,0,0,1.72-.06,3.78,3.78,0,0,0-1.07-7.42Z"/>
        </g>
        <g>
          <path class="cls-2" d="M162.61,28.23a2.53,2.53,0,0,1-2.51-2.64,2.22,2.22,0,0,1,.49-1.46,2,2,0,0,1,1.54-.61,2.53,2.53,0,0,1,2.51,2.64,2.17,2.17,0,0,1-.49,1.45A1.92,1.92,0,0,1,162.61,28.23Z"/>
          <path d="M162.13,24a2,2,0,0,1,2,2.14,1.68,1.68,0,0,1-.37,1.12,1.46,1.46,0,0,1-1.16.45,2,2,0,0,1-2-2.14,1.73,1.73,0,0,1,.37-1.13,1.49,1.49,0,0,1,1.16-.44m0-1c-3.69,0-3.19,5.71.48,5.71s3.2-5.71-.48-5.71Z"/>
        </g>
        <g>
          <path class="cls-2" d="M175.73,43.34l-.1,0-.24,0h0a.75.75,0,0,0-.23,0H175s-.09-.06-.2-.08l-.36-.12A2.13,2.13,0,0,1,173,41v-.26a2.75,2.75,0,0,1,0-.4,2.35,2.35,0,0,1,1.72-2.14l.36-.11a.34.34,0,0,1,.14-.05h.13l.14,0,.26,0h0l.21,0h0l.07,0,.16,0,.18,0a1.45,1.45,0,0,1,.29.06l1,.38.1,0A1.87,1.87,0,0,1,179,40.51a2.64,2.64,0,0,1-1.19,2.19c-.12,0-.2,0-.93.46a4,4,0,0,1-1.05.17Z"/>
          <path d="M175.32,38.57h0l.33.05h.22l.17,0,.2,0,.17,0,0,0,0,0c.3.1.6.22.91.34l.11,0a1.33,1.33,0,0,1,.89,1.34,2.17,2.17,0,0,1-.86,1.72,3.85,3.85,0,0,0-.92.46,3.63,3.63,0,0,1-.95.15l-.35,0-.25,0-.2-.05-.34-.12A1.6,1.6,0,0,1,173.45,41v-.24a2.63,2.63,0,0,1,0-.31v-.1a1.81,1.81,0,0,1,1.34-1.66l.08,0a3.19,3.19,0,0,0,.33-.11h.09m0-1h-.19c-.18,0-.3.11-.46.14l-.12,0a2.81,2.81,0,0,0-2.07,2.52,3.29,3.29,0,0,0,0,.63.65.65,0,0,0,0,.14,2.62,2.62,0,0,0,1.8,2.54l.44.14c.1,0,.16.07.27.09h.15c.09,0,.16,0,.26,0s.24.05.37.05h.06a4.19,4.19,0,0,0,1.27-.23c.48-.27.72-.4.74-.4l-.2.13c2.07-.79,2.68-4.19.31-5.11-.37-.14-.71-.28-1.07-.4a2.5,2.5,0,0,0-.57-.14c-.11,0-.2-.06-.31-.07h0l-.2,0c-.16,0-.28-.06-.43-.06Z"/>
        </g>
        <g>
          <path class="cls-2" d="M214.16,37.32a4.88,4.88,0,0,1-3.44-1.39,4.29,4.29,0,0,1-1.24-3.11,4.5,4.5,0,0,1,4.67-4.42,5.33,5.33,0,0,1,1.12.12,4.82,4.82,0,0,1,1.72.66,4.1,4.1,0,0,1,2,3.43,5,5,0,0,1-2.22,4,4.38,4.38,0,0,1-1.59.56A5,5,0,0,1,214.16,37.32Z"/>
          <path d="M214.15,28.9a5,5,0,0,1,1,.11,4.29,4.29,0,0,1,1.56.59,3.61,3.61,0,0,1,1.77,3,4.47,4.47,0,0,1-2,3.63,4.07,4.07,0,0,1-1.4.48,4.88,4.88,0,0,1-.93.09,4.33,4.33,0,0,1-3.08-1.24,3.79,3.79,0,0,1-1.1-2.76,4,4,0,0,1,4.17-3.92m0-1a5,5,0,1,0,0,9.92,6.07,6.07,0,0,0,1.12-.11,4.76,4.76,0,0,0,1.78-.64c2.94-2,3.46-6.2.21-8.31a5.34,5.34,0,0,0-1.89-.73,5.85,5.85,0,0,0-1.23-.13Z"/>
        </g>
        <g>
          <path class="cls-2" d="M220.08,16.32H220l-.09,0a1.3,1.3,0,0,1-.35-.16s0,0-.06-.06l-.15-.18a1,1,0,0,1-.13-.27.8.8,0,0,1,.12-.85l.08-.08.09-.07a.69.69,0,0,1,.39-.11H220c.24,0,.49.08.75.1a1,1,0,0,1,.78,1,.57.57,0,0,1-.57.61l-.29,0h0l-.06,0a.82.82,0,0,1-.33.07Z"/>
          <path d="M219.85,15h.1l.68.09a.44.44,0,0,1,.31.26.41.41,0,0,1,0,.31.42.42,0,0,1-.13,0h-.06l-.26,0-.11,0-.1.05a.24.24,0,0,1-.13,0h-.07l-.07,0-.09,0h0l-.07,0,0,0h0l-.06-.07,0,0,0,0a.2.2,0,0,1,0-.08l0-.06v0a.32.32,0,0,1,0-.27l.07-.07h0l0,0a.19.19,0,0,1,.12,0m0-1a1.16,1.16,0,0,0-.71.23l-.08,0a.5.5,0,0,0-.12.13,1.27,1.27,0,0,0-.25,1.35v0a1.41,1.41,0,0,0,.18.37,1.61,1.61,0,0,0,.24.28.76.76,0,0,1,.09.09,1.42,1.42,0,0,0,.41.2l.08,0a1.42,1.42,0,0,0,.22.07h.27a1.3,1.3,0,0,0,.54-.12l.26,0c1.57-.21,1.15-2.4-.23-2.59L220,14Z"/>
        </g>
        <g>
          <path class="cls-2" d="M244.09,36.79a2.36,2.36,0,0,1-1.76-.88,3.46,3.46,0,0,1-.86-2.57,3.16,3.16,0,0,1,1.17-2.06,3.12,3.12,0,0,1,1.31-.59l.26.12.18.08.18-.06a2,2,0,0,1,.67-.12c1.4,0,2.35,1.6,2.35,3.08a2.91,2.91,0,0,1-.78,2.06A3.68,3.68,0,0,1,244.09,36.79Z"/>
          <path d="M243.89,31.21l.11.06.36.15.36-.12a1.63,1.63,0,0,1,.52-.09c1.09,0,1.85,1.36,1.85,2.58a2.42,2.42,0,0,1-.64,1.71,3.2,3.2,0,0,1-2.36.79,1.89,1.89,0,0,1-1.39-.71,3,3,0,0,1-.73-2.17,2.63,2.63,0,0,1,1-1.73,2.68,2.68,0,0,1,.94-.47m.14-1.05A3.63,3.63,0,0,0,241,33.28c-.23,1.76,1.15,4,3.11,4,5.78,0,4.49-7.08,1.15-7.08a2.78,2.78,0,0,0-.83.14l-.38-.19Z"/>
        </g>
        <g>
          <path class="cls-2" d="M262.13,22.2a2.64,2.64,0,0,1-2.63-2.75A2.22,2.22,0,0,1,260,18a2,2,0,0,1,1.58-.64,2.64,2.64,0,0,1,2.63,2.76,2.22,2.22,0,0,1-.51,1.49A2,2,0,0,1,262.13,22.2Z"/>
          <path d="M261.59,17.82a2.17,2.17,0,0,1,2.13,2.26,1.72,1.72,0,0,1-.38,1.16,1.53,1.53,0,0,1-1.21.46A2.17,2.17,0,0,1,260,19.45a1.73,1.73,0,0,1,.39-1.16,1.51,1.51,0,0,1,1.2-.47m0-1c-3.8,0-3.24,5.88.54,5.88s3.24-5.88-.54-5.88Z"/>
        </g>
        <g>
          <path class="cls-2" d="M146.78,41.46a2.83,2.83,0,0,1-2.61-1.69l-.23-.56a2.79,2.79,0,0,1,.21-2.55,2.84,2.84,0,0,1,2.13-1.5h.87l.19.07a2.77,2.77,0,0,1,1.92,1.57,2.9,2.9,0,0,1,.11,2.44l-.29.69a2.41,2.41,0,0,1-2.3,1.51Z"/>
          <path d="M146.39,35.66H147l.2,0a2.31,2.31,0,0,1,1.6,1.32,2.46,2.46,0,0,1,.09,2c-.1.22-.2.46-.29.69a1.92,1.92,0,0,1-1.84,1.2,2.35,2.35,0,0,1-2.15-1.38L144.4,39a2.56,2.56,0,0,1,1.94-3.36h0m0-1h-.18a3.53,3.53,0,0,0-2.73,4.73c.07.19.15.38.23.57a3.33,3.33,0,0,0,3.07,2,2.9,2.9,0,0,0,2.76-1.82l.29-.68a3.44,3.44,0,0,0-.11-2.85,3.35,3.35,0,0,0-2.29-1.86c-.1,0-.18-.06-.28-.07h-.76Z"/>
        </g>
        <g>
          <path class="cls-2" d="M131.16,66.5A2.34,2.34,0,0,1,128.8,64a2.08,2.08,0,0,1,.48-1.39,1.84,1.84,0,0,1,1.47-.6,2.34,2.34,0,0,1,2.35,2.47,2.09,2.09,0,0,1-.48,1.39A1.81,1.81,0,0,1,131.16,66.5Z"/>
          <path d="M130.75,62.54a1.87,1.87,0,0,1,1.85,2,1.65,1.65,0,0,1-.35,1.06,1.4,1.4,0,0,1-1.09.43,1.87,1.87,0,0,1-1.86-2,1.58,1.58,0,0,1,.36-1.06,1.34,1.34,0,0,1,1.09-.43m0-1c-3.53,0-3.11,5.46.41,5.46s3.1-5.46-.41-5.46Z"/>
        </g>
        <g>
          <path class="cls-2" d="M303.63,70.82a3.51,3.51,0,0,1-2.53-1.15,4.18,4.18,0,0,1-1.14-3A4,4,0,0,1,304.14,63a3.54,3.54,0,0,1,2.54,1.16,4.09,4.09,0,0,1,1.13,3A4,4,0,0,1,303.63,70.82Z"/>
          <path d="M304.14,63.46a3,3,0,0,1,2.17,1,3.56,3.56,0,0,1,1,2.62,3.49,3.49,0,0,1-3.68,3.23,2.94,2.94,0,0,1-2.16-1,3.56,3.56,0,0,1-1-2.63,3.5,3.5,0,0,1,3.68-3.23m0-1a4.44,4.44,0,1,0,4.17,4.68,4.44,4.44,0,0,0-4.17-4.68Z"/>
        </g>
        <g>
          <path class="cls-2" d="M295.16,48.93a5.15,5.15,0,0,1-2.31-.79c-1.39-.74-1.87-2.9-1.36-4.33a3.88,3.88,0,0,1,3.85-2.48h0a2.9,2.9,0,0,1,1.3.32A4.07,4.07,0,0,1,299,45.21a3.42,3.42,0,0,1-2,3.14,1.21,1.21,0,0,1-.25.08l-.18,0-.46.22a2.2,2.2,0,0,1-1,.23Z"/>
          <path d="M295.44,41.83a2.39,2.39,0,0,1,1,.27,3.56,3.56,0,0,1,2.08,3.12,2.85,2.85,0,0,1-1.72,2.67l-.18.06-.19.06-.08,0-.07,0-.21.11-.16.07a1.67,1.67,0,0,1-.76.18,4.7,4.7,0,0,1-2.07-.73A3.24,3.24,0,0,1,292,44a3.45,3.45,0,0,1,3.41-2.15h.07m0-1h-.11A4.37,4.37,0,0,0,291,43.65c-.59,1.65,0,4.05,1.6,4.93a5.45,5.45,0,0,0,2.54.85,2.69,2.69,0,0,0,1.2-.28l.39-.19a2.6,2.6,0,0,0,.49-.17c3.4-1.69,2.79-6.11-.36-7.59a3.35,3.35,0,0,0-1.44-.37Z"/>
        </g>
        <g>
          <path class="cls-2" d="M307.6,53.11l-.09,0a1.9,1.9,0,0,0-.25,0,1.58,1.58,0,0,0-.28,0h-.17l-.15-.05-.27-.08-.12,0a2.27,2.27,0,0,1-1.72-2.3v-.27c0-.06,0-.12,0-.18a.57.57,0,0,1,0-.13,2.47,2.47,0,0,1,2.33-2.54h.1l.12,0a1.55,1.55,0,0,0,.32,0,.78.78,0,0,0,.22,0h0l.11,0,.26.07.1,0c.12,0,.25.06.36.11a3.63,3.63,0,0,1,.73.31l0,0,.26.11A2,2,0,0,1,310.79,50a2.74,2.74,0,0,1-1.45,2.44,3.32,3.32,0,0,1-.95.44l-.25.07-.22.06a2.6,2.6,0,0,1-.31.07Z"/>
          <path d="M307,48h0a1.81,1.81,0,0,0,.41.05l.22,0,.26.07.11,0,.3.08,0,0h0a3.2,3.2,0,0,1,.57.23l.08.06.1,0,.12.05.06,0a1.49,1.49,0,0,1,1,1.38,2.23,2.23,0,0,1-1.18,2l0,0,0,0a2.8,2.8,0,0,1-.77.36h-.06l-.15,0-.28.08-.16,0h0l-.32,0h-.09l-.32,0h-.05l-.24-.09-.17,0a1.8,1.8,0,0,1-1.37-1.83v-.26c0-.06,0-.12,0-.18v0l0-.06V50a1.9,1.9,0,0,1,1.86-2H307m-.08,4.61h0M307,47h-.15a2.9,2.9,0,0,0-2.77,3c0,.13,0,.26,0,.39s0,.19,0,.29a2.78,2.78,0,0,0,2.11,2.78l.13,0a3.09,3.09,0,0,0,.46.14h.14c.13,0,.22,0,.35,0s.23,0,.36,0h0a4.68,4.68,0,0,0,.67-.16l.2-.05a3.72,3.72,0,0,0,1.07-.49c2-1,2.51-4.1.15-5.17l-.21-.08a3.7,3.7,0,0,0-.81-.36c-.18-.07-.38-.11-.58-.17s-.25-.09-.4-.1h0c-.1,0-.17,0-.26,0S307.15,47,307,47Z"/>
        </g>
        <g>
          <path class="cls-2" d="M139.45,72.35a1.9,1.9,0,0,1-1.73-1l-.14-.25a3.15,3.15,0,0,1-.13-2.93,2.37,2.37,0,0,1,2-1.27h.23A2.9,2.9,0,0,1,142,68.33a2.21,2.21,0,0,1,.06,2.24l-.23.39a2.87,2.87,0,0,1-2.41,1.39Z"/>
          <path d="M139.64,67.38a2.35,2.35,0,0,1,2,1.2,1.71,1.71,0,0,1,.07,1.73l-.12.21-.11.2a2.43,2.43,0,0,1-2,1.13,1.42,1.42,0,0,1-1.31-.78c0-.06-.08-.14-.13-.23a2.67,2.67,0,0,1-.11-2.45,1.89,1.89,0,0,1,1.56-1h.18m0-1-.29,0c-2.53.27-3.32,2.94-2.21,4.93l.15.26a2.4,2.4,0,0,0,2.16,1.26,3.38,3.38,0,0,0,2.85-1.64c.08-.14.14-.26.22-.39,1.15-2-.77-4.44-2.88-4.44Z"/>
        </g>
        <g>
          <path class="cls-2" d="M135.32,47.27a1.21,1.21,0,0,1-.95-.4,1.43,1.43,0,0,1-.32-.92,1.24,1.24,0,0,1,1.27-1.33,1.21,1.21,0,0,1,1,.39,1.45,1.45,0,0,1,.31.93A1.24,1.24,0,0,1,135.32,47.27Z"/>
          <path d="M135.32,45.12a.71.71,0,0,1,.57.22.94.94,0,0,1,.19.6.75.75,0,0,1-.76.83.73.73,0,0,1-.57-.22,1,1,0,0,1-.2-.6.75.75,0,0,1,.77-.83m0-1a1.83,1.83,0,0,0,0,3.65,1.83,1.83,0,0,0,0-3.65Z"/>
        </g>
      </g>
      <image id="image" width="446" height="480"  xlink:href="assets/fish1.png"/>
    </g>
  </g>
</svg>
