<svg xmlns="http://www.w3.org/2000/svg" viewBox="0 0 308.92 132.81">
  <defs>
    <style>
      #btn-feet3 .cls-1 {
        fill: #fff;
      }

      #btn-feet3 .cls-2 {
        fill: #fff;
      }
    </style>
  </defs>
  <g id="btn-feet3">
    <g id="feet3-2" data-name="feet3">
      <g id="feet-2" data-name="feet">
        <g>
          <path class="cls-1" d="M139.21,132.31c-10.48,0-18.19-1-20.62-2.66-4-3.71-2.93-11.44-2.28-14.67a6,6,0,0,1,2.13-2.35l.32-.2-.11-.36c-4.07-14.27-5.09-36.07,1.82-52.58C125.4,47.73,136.44,34,151.36,34A27.38,27.38,0,0,1,164,37.3c16.42,8.51,17.29,49.62,15.45,70.17l0,.33.3.16c1.64.84,2.76,2.79,3.17,5.48.61,4.07-.58,9.94-4,13.34-7.33,3.63-25.48,5.53-39.66,5.53Z"/>
          <path d="M151.36,34.5a26.89,26.89,0,0,1,12.42,3.24C180,46.13,180.79,87,179,107.42l-.06.68.6.3c1.49.77,2.52,2.58,2.9,5.12.59,3.92-.54,9.56-3.81,12.84-7.31,3.58-25.29,5.45-39.37,5.45-10.15,0-17.9-1-20.29-2.53-3.75-3.58-2.78-11-2.14-14.13a5.4,5.4,0,0,1,1.92-2.1l.63-.4-.2-.72c-4.06-14.19-5.07-35.85,1.79-52.25,4.87-11.61,15.76-25.18,30.43-25.18m0-1c-14.58,0-26,13.07-31.35,25.8-6.78,16.19-6.07,38.08-1.84,52.91a6.44,6.44,0,0,0-2.33,2.6c-.9,4.35-1.48,11.57,2.47,15.25,2.71,1.86,11.08,2.75,20.91,2.75,14.7,0,32.69-2,39.95-5.62,5.46-5.31,5.93-17,.79-19.68,1.75-19.61,1.39-61.78-15.72-70.66a27.79,27.79,0,0,0-12.88-3.35Z"/>
        </g>
        <g>
          <path class="cls-1" d="M43.28,101.24H41.07A53.17,53.17,0,0,1,25,98.81a68.5,68.5,0,0,1-10.54-4C6.88,91.29,4.2,86,6,78.23A21.31,21.31,0,0,1,6.67,76l0-.15,0-.15c-1.56-5.68-14.77-55.87,3-69.23a27.81,27.81,0,0,1,17-6C40.16.5,52,10.69,58.56,20.22,69,35.33,71.68,64,68.32,83.05l0,.28.22.19a9.62,9.62,0,0,1,3,4.13c1,2.93.83,5.39-.48,7.31-3.59,5.27-14.78,5.77-21.47,6.07l-1.87.09C46.22,101.2,44.75,101.24,43.28,101.24Z"/>
          <path d="M26.61,1C40,1,51.66,11.07,58.15,20.5,68.47,35.5,71.17,64,67.83,83l-.1.56.43.37A9.17,9.17,0,0,1,71,87.81c1,2.82.81,5.06-.42,6.87-3.45,5.06-14.92,5.57-21.08,5.85l-1.87.09c-1.43.08-2.9.12-4.35.12H41.07a52.84,52.84,0,0,1-16-2.42,67,67,0,0,1-10.44-3.93c-7.42-3.48-9.93-8.43-8.15-16a20.43,20.43,0,0,1,.63-2.15l.11-.29-.09-.31C5.49,69.52,1.54,53.66,1.05,37.76.57,22.32,3.65,11.65,10,6.91A27.34,27.34,0,0,1,26.61,1m0-1A28.22,28.22,0,0,0,9.35,6.11C-5.76,17.49.71,56,6.2,75.87a21.66,21.66,0,0,0-.66,2.25c-1.91,8.13,1,13.56,8.69,17.18a68.23,68.23,0,0,0,10.6,4,53.3,53.3,0,0,0,16.24,2.46h2.21c1.45,0,2.91,0,4.4-.12,8-.44,28.94-.33,24.26-14.13a10.08,10.08,0,0,0-3.13-4.35C72,65.15,70,35.91,59,19.94,51.89,9.65,39.76,0,26.61,0Z"/>
        </g>
        <g>
          <path class="cls-1" d="M267.37,108.61c-1.41,0-2.81,0-4.18-.12l-1.78-.09c-6.35-.29-17-.79-20.51-5.92-1.34-2-1.52-4.46-.55-7.46a9.65,9.65,0,0,1,2.87-4.13l.2-.19,0-.27c-3.23-19-.61-47.74,9.37-62.85C259,18.05,270.39,7.87,283.39,7.87a26,26,0,0,1,16.26,6c12.93,10.15,9.61,43.64,2.84,69.24l0,.14.05.15a21.62,21.62,0,0,1,.62,2.19c1.75,7.79-.81,13.07-8.07,16.63a63.41,63.41,0,0,1-10,3.92,48.89,48.89,0,0,1-15.54,2.47h-2.13Z"/>
          <path d="M283.39,8.37a25.52,25.52,0,0,1,15.95,5.9c6,4.74,9,15.41,8.54,30.85C307.41,61,303.62,76.9,302,83l-.08.29.1.29c.25.76.45,1.44.61,2.14,1.71,7.63-.7,12.58-7.81,16.07a64,64,0,0,1-10,3.91,48.62,48.62,0,0,1-15.37,2.43h-2.14c-1.38,0-2.78,0-4.14-.12l-1.79-.09c-5.84-.27-16.71-.78-20.12-5.71-1.26-1.83-1.42-4.13-.48-7a9.17,9.17,0,0,1,2.72-3.91l.41-.37-.09-.54c-3.21-18.94-.62-47.49,9.29-62.49,6.22-9.42,17.43-19.49,30.23-19.49m0-1c-12.63,0-24.27,9.65-31.06,19.94-10.55,16-12.5,45.21-9.45,63.2a10.22,10.22,0,0,0-3,4.35c-4.49,13.8,15.6,13.69,23.28,14.13q2.13.12,4.2.12h2.14a49.25,49.25,0,0,0,15.69-2.49,63.68,63.68,0,0,0,10.08-4c7.39-3.63,10.17-9,8.34-17.18a19,19,0,0,0-.64-2.25c5.27-19.93,11.48-58.39-3-69.76a26.49,26.49,0,0,0-16.57-6.11Z"/>
        </g>
      </g>
      <g class="nails">
        <g id="nails-2" data-name="nails">
          <g>
            <path class="cls-2" d="M70,96.17A7.43,7.43,0,0,1,67.64,89l.16-1a7.43,7.43,0,0,1,.49-1.51l0-.05,0-.06a4.49,4.49,0,0,1,.28-1,5.34,5.34,0,0,1,.55-1.16,8.8,8.8,0,0,1,2.31,3.45C72.69,91.26,72.19,94.05,70,96.17Z"/>
            <path d="M69.27,85A8.08,8.08,0,0,1,71,87.81c1.08,3.21.74,5.72-1,7.65a6.57,6.57,0,0,1-2-4.74A7.09,7.09,0,0,1,68,89.6a4.53,4.53,0,0,0,.15-.7h0l.13-.85a6.9,6.9,0,0,1,.46-1.41l0-.11,0-.1a4.06,4.06,0,0,1,.25-.87v-.07a4.22,4.22,0,0,1,.18-.45m-.18-1.59a5.7,5.7,0,0,0-.94,1.73,5.35,5.35,0,0,0-.32,1.06,7.59,7.59,0,0,0-.52,1.64c-.07.42-.12.76-.15,1l0-.14c-.07.43-.11.64-.11.64s0-.16.08-.5a7.71,7.71,0,0,0-.2,1.85,7.82,7.82,0,0,0,3,6.11c2.4-2,3.46-5,2-9.35a9.93,9.93,0,0,0-2.85-4Z"/>
          </g>
          <g>
            <path class="cls-2" d="M25.78,99c-.33-.08-.67-.17-1-.28a67.12,67.12,0,0,1-10.35-3.87A20.69,20.69,0,0,1,9.92,92a10.73,10.73,0,0,1,2.9-7.85l.06-.06,0-.09a6.69,6.69,0,0,1,.75-1.43c1.45-2,4.35-3.19,7.75-3.19h.45c3,.1,6.67,1.78,8,4.79C30.91,86.73,31,89.31,31,92v1a4.85,4.85,0,0,1-2,3.87l-.07.06-.05.07a4.61,4.61,0,0,1-2.61,2.07Z"/>
            <path d="M21.41,79.92h.43c2.82.1,6.32,1.67,7.53,4.48,1,2.42,1.08,5,1.13,7.64,0,.34,0,.68,0,1a4.46,4.46,0,0,1-1.81,3.47l-.14.11-.09.15a4.69,4.69,0,0,1-.61.79,4.1,4.1,0,0,1-1.6,1l-.36-.09c-.32-.09-.64-.17-1-.29a65.23,65.23,0,0,1-10.25-3.84,20.49,20.49,0,0,1-4.26-2.6,10.28,10.28,0,0,1,2.78-7.26l.13-.13.07-.17a6,6,0,0,1,.69-1.33c1.35-1.86,4.09-3,7.34-3m0-1c-2.94,0-6.36.92-8.15,3.4a6.74,6.74,0,0,0-.81,1.53,11.25,11.25,0,0,0-3,8.43,21.21,21.21,0,0,0,4.8,3,68.83,68.83,0,0,0,10.41,3.9c.53.17,1.1.3,1.65.46a5.32,5.32,0,0,0,2.28-1.36,5.77,5.77,0,0,0,.75-1,5.45,5.45,0,0,0,2.19-4.28c-.06-3.13,0-6.12-1.22-9-1.36-3.16-5.18-5-8.42-5.09Z"/>
          </g>
          <g>
            <path class="cls-2" d="M43.64,101.22l-2.18,0c-.45,0-.88,0-1.3,0l-.67,0a.6.6,0,0,1-.08-.08,1,1,0,0,1-.2-.21A9.74,9.74,0,0,1,47.51,87a8.24,8.24,0,0,1,1.39.12A13.27,13.27,0,0,1,57,91.58c2.5,2.58,3.23,5.81,2,8.68-3.44.5-7,.66-9.59.78l-1.71.08C46.35,101.19,45,101.22,43.64,101.22Z"/>
            <path d="M47.51,87.54a7.13,7.13,0,0,1,1.3.11,12.61,12.61,0,0,1,7.79,4.28c2.28,2.35,3,5.26,2,7.87-3.33.47-6.73.62-9.25.74l-1.72.08c-1.29.07-2.6.1-4,.1l-2.18,0c-.43,0-.85,0-1.27,0l-.49,0,0,0A8.64,8.64,0,0,1,40.11,92a8.73,8.73,0,0,1,7.4-4.5m0-1c-7,0-12.06,8.33-8.74,14.53.13.24.34.36.49.56.73,0,1.45.07,2.19.07l2.18,0c1.34,0,2.68,0,4-.1a114.71,114.71,0,0,0,11.61-.91c1.58-3.32.55-6.87-2-9.48A13.66,13.66,0,0,0,49,86.66a9.3,9.3,0,0,0-1.47-.12Z"/>
          </g>
        </g>
        <g id="nails-3" data-name="nails">
          <g>
            <path class="cls-2" d="M138.59,132.29c-9.73,0-17-1-19.68-2.47l0-.07c0-.06-.06-.14-.07-.18a7.48,7.48,0,0,1,1.89-5.83,7.11,7.11,0,0,1,5.26-2.51,6.37,6.37,0,0,1,2.34.46c4.72,1.88,9.64,4.5,10.28,9.62A5.33,5.33,0,0,1,138.59,132.29Z"/>
            <path d="M126,121.73a5.8,5.8,0,0,1,2.16.42c4.58,1.83,9.36,4.36,10,9.22,0,.13,0,.27,0,.42-9.24-.07-16.17-.92-18.81-2.32a7,7,0,0,1,1.77-5.4,6.65,6.65,0,0,1,4.89-2.34m0-1a8.06,8.06,0,0,0-7.64,8.91,4.63,4.63,0,0,0,.18.52c2.86,1.78,11,2.62,20.57,2.63a10,10,0,0,0,0-1.55c-.68-5.46-6-8.2-10.58-10a7,7,0,0,0-2.53-.49Z"/>
          </g>
          <g>
            <path class="cls-2" d="M179.16,126.47a4.53,4.53,0,0,1-2.33-2.7c-.6-1.92-1.17-4.12-.32-5.89a10.84,10.84,0,0,1,6.13-5.45C183.64,116.61,182.64,122.76,179.16,126.47Z"/>
            <path d="M182.27,113.1c.71,3.85-.25,9.32-3.21,12.74a3.93,3.93,0,0,1-1.75-2.22c-.57-1.83-1.12-3.91-.34-5.53a10.28,10.28,0,0,1,5.3-5m.72-1.3a11.31,11.31,0,0,0-6.93,5.86c-.94,2-.31,4.33.29,6.26a5.18,5.18,0,0,0,2.91,3.16c3.79-3.78,5.08-10.62,3.73-15.28Z"/>
          </g>
          <g>
            <path class="cls-2" d="M148.58,132a10.11,10.11,0,0,1-.65-2.19c-.3-1.83.55-4.87,2-5.82a12.13,12.13,0,0,1,2.87-1.36l.09,0,.08-.07a6,6,0,0,1,4-1.38,8.47,8.47,0,0,1,3.57.79c3.77,1.81,5.92,4,7.19,7.49.05.14.09.29.13.45A154.93,154.93,0,0,1,148.58,132Z"/>
            <path d="M157,121.69a7.89,7.89,0,0,1,3.35.74c3.6,1.73,5.67,3.85,6.9,7.1a154.81,154.81,0,0,1-18.31,2,8.87,8.87,0,0,1-.48-1.76c-.28-1.64.49-4.48,1.75-5.31a11.65,11.65,0,0,1,2.75-1.31l.19-.06.15-.13a5.49,5.49,0,0,1,3.7-1.26m0-1a6.51,6.51,0,0,0-4.37,1.51,12.13,12.13,0,0,0-3,1.41c-1.69,1.12-2.5,4.45-2.19,6.32a10.83,10.83,0,0,0,.82,2.63,152.27,152.27,0,0,0,20.18-2.24,6.15,6.15,0,0,0-.24-1c-1.41-3.81-3.84-6-7.45-7.76a9,9,0,0,0-3.78-.84Z"/>
          </g>
        </g>
        <g id="nails-4" data-name="nails">
          <g>
            <path class="cls-2" d="M270.59,108.52a7.5,7.5,0,0,1-2.67-3.76,8,8,0,0,1,.55-6.46,11.19,11.19,0,0,1,8.88-5.12,6.86,6.86,0,0,1,2.11.32,9.06,9.06,0,0,1,5.39,4.37c.11.23.24.48.38.75.67,1.28,1.5,2.88,1.38,4.14l-.2,2-.07.34v.09c0,.14,0,.28,0,.42v0l-.3.11c-.29.1-.58.21-.87.29A49,49,0,0,1,270.59,108.52Z"/>
            <path d="M277.35,93.68a6.13,6.13,0,0,1,1.95.3,8.54,8.54,0,0,1,5.1,4.11l.39.76c.64,1.23,1.43,2.75,1.32,3.87-.06.66-.13,1.32-.19,2l-.05.26V105l0,.1v.19c-.28.1-.55.2-.87.3A48.28,48.28,0,0,1,270.75,108a7,7,0,0,1-2.36-3.42,7.41,7.41,0,0,1,.52-6,10.64,10.64,0,0,1,8.44-4.87m0-1A11.62,11.62,0,0,0,268,98.05a8.49,8.49,0,0,0-.6,6.88,8.06,8.06,0,0,0,3,4.09,48.94,48.94,0,0,0,14.86-2.46c.5-.14,1-.35,1.51-.51,0-.28,0-.56,0-.84,0-.07,0-.19.07-.37.07-.68.13-1.35.19-2,.17-1.68-1.11-3.75-1.8-5.16A9.63,9.63,0,0,0,279.62,93a7.23,7.23,0,0,0-2.27-.35Z"/>
          </g>
          <g>
            <path class="cls-2" d="M296.83,101.2a14.92,14.92,0,0,1-2.12-2.75,8.85,8.85,0,0,1-1.22-6.21,3.15,3.15,0,0,1,.56-1.5l.4-.9.2-.27A7.63,7.63,0,0,1,295.93,88a16.33,16.33,0,0,1,6.88-3.52c.11.36.22.71.31,1.12C304.71,92.68,302.72,97.65,296.83,101.2Z"/>
            <path d="M302.47,85.08c.06.2.12.4.17.62,1.5,6.71-.32,11.45-5.72,14.86a13.79,13.79,0,0,1-1.78-2.36A8.38,8.38,0,0,1,294,92.32v0a2.86,2.86,0,0,1,.13-.58,4,4,0,0,0,.44-.84h0l.31-.72.19-.28a7.46,7.46,0,0,1,1.19-1.46,15.93,15.93,0,0,1,6.22-3.31m.67-1.17a16.53,16.53,0,0,0-7.53,3.71,10.19,10.19,0,0,0-1.62,2l-.35.81h0l-.25.57.25-.57a3.65,3.65,0,0,0-.64,1.71,9.36,9.36,0,0,0,1.28,6.54,15.24,15.24,0,0,0,2.47,3.13c6.23-3.61,8.56-8.8,6.86-16.34a14.81,14.81,0,0,0-.47-1.58Z"/>
          </g>
          <g>
            <path class="cls-2" d="M254.34,107.89c-9.16-1-13.93-3.74-14.54-8.29a7.88,7.88,0,0,1,5.13-2.23c.49,0,1-.07,1.45-.07,3.36,0,5.72,1.18,7.21,3.61A8.9,8.9,0,0,1,254.34,107.89Z"/>
            <path d="M246.38,97.8c3.18,0,5.39,1.1,6.78,3.37a8.33,8.33,0,0,1,.81,6.18c-8.45-1-12.93-3.5-13.64-7.57A7.46,7.46,0,0,1,245,97.87a14,14,0,0,1,1.41-.07m0-1c-.49,0-1,0-1.5.07a8.38,8.38,0,0,0-5.61,2.56c.66,6.29,8.42,8.27,15.43,9a9.51,9.51,0,0,0-.68-7.79c-1.78-2.9-4.57-3.85-7.64-3.85Z"/>
          </g>
        </g>
      </g>
    </g>
  </g>
</svg>
