<svg xmlns="http://www.w3.org/2000/svg" viewBox="0 0 151.33 151.34">
  <defs>
    <style>
       #btn-eyes2 .cls-1 {
        fill: #fff;
      }

      #btn-eyes2 .cls-2 {
        fill: #e8e8e8;
      }

      #btn-eyes2 .cls-3 {
        fill: #333;
      }

     #btn-eyes2 .cls-4 {
        fill: #fff;
      }
    </style>
  </defs>
  <g id="btn-eyes2">
    <g id="eye2">
      <g>
        <g>
          <path class="cls-1" d="M137.77,75.67a62.11,62.11,0,0,1-124.21,0c0-.41,0-.81,0-1.22s0-.56,0-.84a62.1,62.1,0,0,1,124.16,1.58C137.77,75.35,137.77,75.51,137.77,75.67Z"/>
          <path class="cls-2" d="M137.77,75.67a62.11,62.11,0,0,1-124.21,0c0-.41,0-.81,0-1.22s0-.56,0-.84a64.36,64.36,0,0,1,2.28-13.82A61.81,61.81,0,0,0,137.4,71.94c.06,1.1.3,2.15.36,3.25C137.77,75.35,137.77,75.51,137.77,75.67Z"/>
        </g>
        <g>
          <g>
            <path class="cls-3" d="M73.07,94.5A30.46,30.46,0,1,1,95.85,84.26,30.41,30.41,0,0,1,73.07,94.5Z"/>
            <path d="M73.09,34.08A30,30,0,1,1,50.66,44.16,29.93,29.93,0,0,1,73.09,34.08m0-1a30.95,30.95,0,1,0,20.54,7.8,30.92,30.92,0,0,0-20.54-7.8Z"/>
          </g>
          <path class="cls-1" d="M67,58.61a12.37,12.37,0,1,0-1-17.46A12.36,12.36,0,0,0,67,58.61Z"/>
        </g>
      </g>
      <g class="skin">
        <path class="cls-4" d="M75.66,150.34A74.75,74.75,0,0,1,1,75.67,65,65,0,0,1,2.17,63.84,74,74,0,0,1,75.66,1a74.67,74.67,0,1,1,0,149.34Zm0-137.27A62.31,62.31,0,0,0,13.1,73.59c0,.28,0,.57,0,.86,0,.46,0,.83,0,1.22a62.61,62.61,0,0,0,125.21,0c0-.17,0-.34,0-.51A62.75,62.75,0,0,0,75.66,13.07Z"/>
        <path d="M75.66,1.5A74.17,74.17,0,1,1,1.5,75.67,64.64,64.64,0,0,1,2.67,63.9a73.47,73.47,0,0,1,73-62.4m0,137.26a63.17,63.17,0,0,0,63.11-63.09c0-.17,0-.34,0-.51A63.1,63.1,0,0,0,12.6,73.54c0,.3,0,.61,0,.91s0,.81,0,1.22a63.17,63.17,0,0,0,63.1,63.09M75.66.5a74.57,74.57,0,0,0-74,63.25A65.7,65.7,0,0,0,.5,75.67,75.17,75.17,0,1,0,75.66.5Zm0,137.26a62.11,62.11,0,0,1-62.1-62.09c0-.41,0-.81,0-1.22s0-.56,0-.84a62.1,62.1,0,0,1,124.16,1.58c0,.16,0,.32,0,.48a62.1,62.1,0,0,1-62.11,62.09Z"/>
      </g>
    </g>
  </g>
</svg>
