<svg xmlns="http://www.w3.org/2000/svg" viewBox="0 0 275.65 123.73">
  <defs>
    <style>
      #btn-mouth3 .cls-3 {
        fill: #333;
      }

      #btn-mouth3 .cls-4 {
        fill: #c1272d;
      }

      #btn-mouth3 .cls-2 {
        fill: #fff;
      }

      #btn-mouth3 .cls-1 {
        fill: #bdefec;
      }
    </style>
  </defs>
  <g id="btn-mouth3">
    <g id="mouth3-2" data-name="mouth3">
      <g class="hole">
        <path class="cls-3" d="M137.83,123.23C62.1,123.23.5,89.36.5,47.73.5,39.59,4,36.11,12.11,36.11c6.84,0,16.6,2.54,27.89,5.48,17.41,4.52,39.08,10.16,62.67,10.16h0c29.53,0,55-8.79,77.84-26.88C200.66,8.93,219.74.5,235.7.5c23.59,0,39.45,19,39.45,47.23C275.15,89.36,213.55,123.23,137.83,123.23Z"/>
        <path d="M235.7,1c11.87,0,21.83,4.68,28.8,13.53,6.55,8.31,10.15,20.1,10.15,33.2,0,41.36-61.38,75-136.82,75S1,89.09,1,47.73c0-7.79,3.32-11.12,11.11-11.12,6.78,0,16.5,2.53,27.76,5.46C57.31,46.61,79,52.25,102.67,52.25c29.65,0,55.22-8.83,78.16-27C200.88,9.39,219.85,1,235.7,1h0m0-1c-14.88,0-33.58,7.13-55.49,24.48-25.9,20.5-52.73,26.77-77.54,26.77-39.16,0-73.26-15.64-90.56-15.64C4.38,35.61,0,38.73,0,47.73c0,42,61.7,76,137.83,76s137.82-34,137.82-76C275.65,21.17,261.34,0,235.7,0Z"/>
      </g>
      <g class="tongue">
        <path class="cls-4" d="M137.83,123.23c-26.36,0-52-4.14-74.13-12-.39-9.4,3.11-19.38,9.86-28.16C79.81,75,91.13,69.53,101.73,69.53a28.49,28.49,0,0,1,4.67.38c7.24,1.21,13.06,5.61,18.7,9.87A76,76,0,0,0,135.87,87a28.49,28.49,0,0,0,13.2,3.45c5.2,0,10.56-1.56,17.39-5,6.07-3.1,10.53-4.9,15.39-4.9a24.29,24.29,0,0,1,10.5,2.65c3.15,1.49,6.28,3,9.31,4.53,5.47,2.7,11.13,5.5,17,8a37.49,37.49,0,0,1,12,7.68C205.29,116.16,172.34,123.23,137.83,123.23Z"/>
        <path d="M101.73,70a27.61,27.61,0,0,1,4.59.37c7.12,1.2,12.63,5.36,18.48,9.78a76.75,76.75,0,0,0,10.84,7.26,28.93,28.93,0,0,0,13.43,3.5c5.28,0,10.71-1.57,17.62-5.1,6-3.07,10.4-4.85,15.16-4.85a23.9,23.9,0,0,1,10.29,2.6c3.14,1.48,6.27,3,9.29,4.52,5.48,2.71,11.15,5.51,17,8a37.92,37.92,0,0,1,11.38,7.08c-25.26,12.62-57.87,19.56-92,19.56-26.17,0-51.62-4.09-73.65-11.83-.27-9.06,3.27-19,9.78-27.49C80.11,75.41,91.27,70,101.73,70h0m0-1C91,69,79.43,74.66,73.16,82.8c-6.89,9-10.43,19.33-9.95,28.82,21.51,7.65,47.11,12.11,74.62,12.11,36.18,0,69.1-7.7,93.69-20.28-3.3-3.58-8.09-6.37-12.66-8.28-9.09-3.81-17.42-8.3-26.3-12.48A24.77,24.77,0,0,0,181.85,80c-5.09,0-9.78,2-15.62,5-6,3.07-11.5,5-17.16,5a28,28,0,0,1-13-3.39c-10.17-5.23-17.87-15.16-29.62-17.13a27.77,27.77,0,0,0-4.75-.39Z"/>
      </g>
      <g class="teeth">
        <g>
          <path class="cls-2" d="M59.31,75.07C57.19,72.85,44.82,59.18,43.13,42.4c9.86,2.56,20.44,5.18,32,7C68.88,66.54,61,73.67,59.31,75.07Z"/>
          <path d="M43.7,43.07c9.51,2.45,19.68,5,30.74,6.75-5.8,15.62-12.91,22.67-15.09,24.56-2.75-3-13.78-15.72-15.65-31.31m-1.13-1.33c1.56,19,16.7,34,16.7,34S68.61,69.09,75.79,49a339.16,339.16,0,0,1-33.22-7.28Z"/>
        </g>
        <g>
          <path class="cls-2" d="M121.47,122.68a235.3,235.3,0,0,1-25.74-3.08c.23-8.53,1.59-16,4.06-22.15l6.74-16.86c.67.27,3.55,2.45,9.18,20.26A187.27,187.27,0,0,1,121.47,122.68Z"/>
          <path d="M106.77,81.36c1,.94,3.74,4.71,8.46,19.64a190.3,190.3,0,0,1,5.63,21.14,235.48,235.48,0,0,1-24.62-3,63.5,63.5,0,0,1,4-21.55l6.51-16.27m-.38-1.3a.43.43,0,0,0-.2,0L99.33,97.26c-3,7.44-4,15.74-4.11,22.75a236.7,236.7,0,0,0,26.85,3.21,179.89,179.89,0,0,0-5.89-22.52c-6.06-19.19-9-20.64-9.79-20.64Z"/>
        </g>
        <g>
          <path class="cls-2" d="M158.35,78.09c-4.37,0-17.21-17.11-23.88-30.17a119.2,119.2,0,0,0,32.17-13.44,142,142,0,0,1-7.15,42.61c-.3.88-.76,1-1.13,1Z"/>
          <path d="M166.13,35.37A141.75,141.75,0,0,1,159,76.93c-.22.66-.48.66-.66.66-3.77,0-16-15.65-23.15-29.34a119.64,119.64,0,0,0,30.93-12.88m1-1.78a118,118,0,0,1-33.41,14c6.47,12.91,19.71,31,24.61,31A1.66,1.66,0,0,0,160,77.25a142.78,142.78,0,0,0,7.19-43.66Z"/>
        </g>
        <g>
          <path class="cls-2" d="M214.7,85.65a8.9,8.9,0,0,1-1.1-.06L202.75,59.08c-6.58-16.06-6.82-17.55-7.13-19.43-.22-1.34-.47-2.86-2.64-9a54.74,54.74,0,0,1-2.69-12.95C207,6.3,222.23.53,235.7.53c1.08,0,2.17,0,3.23.11-.6,3.5-1.25,7.14-1.91,10.84-2.84,16-6.06,34.07-6.22,47.78-.28,23.81-11.35,26.39-16.1,26.39Z"/>
          <path d="M235.7,1c.88,0,1.77,0,2.64.08-.57,3.31-1.17,6.71-1.81,10.28-2.84,16-6.07,34.11-6.23,47.87-.28,23.36-11,25.89-15.6,25.89-.3,0-.55,0-.75,0L203.21,58.89c-6.55-16-6.8-17.47-7.1-19.32-.22-1.36-.48-2.9-2.65-9.1a54.56,54.56,0,0,1-2.65-12.54C207.3,6.71,222.39,1,235.7,1m0-1C223,0,207.6,5.2,189.76,17.44a55.93,55.93,0,0,0,2.75,13.36c5.4,15.36-1.19,1.7,9.78,28.47l11,26.78a8.8,8.8,0,0,0,1.45.1c4.24,0,16.31-2.18,16.6-26.88.2-16.94,5-40.1,8.21-59.08C238.27.08,237,0,235.7,0Z"/>
        </g>
      </g>
      <g class="skin">
        <path class="cls-1" d="M137.83,123.23C63.18,123.23,2.26,90.32.54,49.51c8.36,38,67,67.14,137.29,67.14,70.67,0,129-29,137.28-67.17C273.42,90.31,212.48,123.23,137.83,123.23Z"/>
        <path d="M274,55.28c-6.93,37.83-65.34,67.45-136.13,67.45S8.62,93.11,1.69,55.29c12.7,35.44,69.16,61.86,136.14,61.86,36,0,70.06-7.58,96-21.34,20.79-11,34.64-25.12,40.14-40.53m1.55-11.94c-3,40.49-63.5,72.81-137.68,72.81C64.34,116.15,4.31,84.44.24,44.49A21.3,21.3,0,0,0,0,47.73c0,42,61.7,76,137.83,76s137.82-34,137.82-76c0-1.48,0-2.95-.14-4.39Z"/>
      </g>
    </g>
  </g>
</svg>
