<svg xmlns="http://www.w3.org/2000/svg" viewBox="0 0 298.31 68.1">
  <defs>
    <style>
     #btn-feet1 .cls-1 {
        fill: #fff;
      }
    </style>
  </defs>
  <g id="btn-feet1">
    <g id="feet1-2" data-name="feet1">
      <g>
        <path class="cls-1" d="M44.19,67.6a5.79,5.79,0,0,1-4.86-2.4C33,55.36,38.21,44.26,41.85,38.52l.52-.82-1,.06c-5.84.33-11.35,2.13-16.68,3.86-5.82,1.9-11.84,3.86-18.33,3.94h0A5.1,5.1,0,0,1,1.56,42C-4.55,26.6,17.6,11.19,29.28,6.14A68.19,68.19,0,0,1,56.07.5a60.83,60.83,0,0,1,8.79.63c1.55-.06,3-.09,4.42-.09C81.18,1,91,3.3,98.4,7.75c14.12,8.5,24.56,28,17,42.4A6.6,6.6,0,0,1,110,53h0a3.51,3.51,0,0,1-.74-.07c-3.62-.66-7.74-3-12.24-7l-.63-.56-.19.81A68.49,68.49,0,0,1,90.1,62.93a7.22,7.22,0,0,1-6.2,4.18,6.87,6.87,0,0,1-3.79-1.21c-5.22-3.46-9.31-10.18-12.17-20l-.24-.83-.6.63c-2.18,2.32-4.31,4.73-6.36,7.07A136.52,136.52,0,0,1,47.57,66.45,5.16,5.16,0,0,1,44.19,67.6Z"/>
        <path d="M56.07,1a61.16,61.16,0,0,1,8.71.62l.1,0H65c1.46-.06,2.91-.09,4.31-.09,11.81,0,21.52,2.23,28.86,6.64,13.93,8.38,24.25,27.58,16.79,41.74A6.06,6.06,0,0,1,110,52.51a3.34,3.34,0,0,1-.65-.06c-3.53-.65-7.57-3-12-6.89l-1.25-1.1-.39,1.61a67.51,67.51,0,0,1-6.07,16.62,6.71,6.71,0,0,1-5.76,3.92,6.34,6.34,0,0,1-3.51-1.13c-5.12-3.39-9.15-10-12-19.69l-.49-1.67-1.19,1.27c-2.19,2.32-4.32,4.74-6.38,7.08a136.62,136.62,0,0,1-13.12,13.6,4.66,4.66,0,0,1-3.05,1,5.28,5.28,0,0,1-4.44-2.17c-6.14-9.6-1.06-20.5,2.52-26.14l1-1.64-2,.11c-5.9.34-11.45,2.14-16.81,3.89C18.78,43,12.8,45,6.39,45.06H6.32A4.6,4.6,0,0,1,2,41.84c-6-15.09,15.91-30.26,27.45-35.24A67.75,67.75,0,0,1,56.07,1m0-1a68.36,68.36,0,0,0-27,5.68c-12,5.18-34.28,20.65-28,36.53a5.56,5.56,0,0,0,5.22,3.85H6.4c12.54-.16,22.91-7.11,35-7.8-5.31,8.37-8,18.58-2.52,27.21a6.3,6.3,0,0,0,5.28,2.63,5.66,5.66,0,0,0,3.7-1.27c7.29-6.27,13-13.82,19.57-20.76,2.35,8.06,6.15,16.12,12.37,20.24a7.31,7.31,0,0,0,4.07,1.3,7.7,7.7,0,0,0,6.64-4.44A69.15,69.15,0,0,0,96.7,46.31c3.93,3.47,8.25,6.35,12.49,7.12a4.41,4.41,0,0,0,.83.08c2.16,0,4.83-1.31,5.79-3.13,8.08-15.32-3.75-35-17.15-43.06C90.45,2.4,80.07.54,69.28.54c-1.44,0-2.9,0-4.35.09A62.43,62.43,0,0,0,56.07,0Z"/>
      </g>
      <g>
        <path class="cls-1" d="M254.18,67.6a5.1,5.1,0,0,1-3.36-1.15,136.17,136.17,0,0,1-13.15-13.64c-2-2.34-4.18-4.76-6.36-7.08l-.6-.64-.24.84c-2.85,9.8-6.94,16.51-12.15,20a6.89,6.89,0,0,1-3.78,1.21,7.22,7.22,0,0,1-6.2-4.18,68.08,68.08,0,0,1-6.11-16.74l-.19-.81-.62.56c-4.5,4-8.61,6.34-12.23,7a3.51,3.51,0,0,1-.74.07,6.58,6.58,0,0,1-5.34-2.86c-7.59-14.4,2.84-33.9,16.95-42.4C207.46,3.3,217.25,1,229.13,1c1.41,0,2.87,0,4.33.09A63,63,0,0,1,242.32.5a68,68,0,0,1,26.75,5.64C280.74,11.19,302.86,26.6,296.75,42A5.07,5.07,0,0,1,292,45.56c-6.55-.08-12.56-2-18.37-3.94-5.32-1.73-10.83-3.53-16.66-3.86l-1-.06.52.82c3.64,5.75,8.8,16.84,2.52,26.68A5.79,5.79,0,0,1,254.18,67.6Z"/>
        <path d="M242.32,1a67.48,67.48,0,0,1,26.55,5.6c11.52,5,33.39,20.15,27.41,35.24A4.59,4.59,0,0,1,292,45.06h-.07c-6.4-.08-12.37-2-18.14-3.91C268.43,39.4,262.9,37.6,257,37.26l-1.95-.11,1.05,1.64c3.57,5.64,8.65,16.54,2.52,26.14a5.28,5.28,0,0,1-4.44,2.17,4.65,4.65,0,0,1-3-1A135.24,135.24,0,0,1,238,52.48c-2-2.35-4.18-4.77-6.36-7.09l-1.2-1.28L230,45.79c-2.82,9.68-6.84,16.3-12,19.69a6.34,6.34,0,0,1-3.51,1.13,6.71,6.71,0,0,1-5.75-3.92,67.52,67.52,0,0,1-6.06-16.62l-.39-1.61-1.25,1.1c-4.42,3.93-8.45,6.24-12,6.89a3.34,3.34,0,0,1-.65.06,6,6,0,0,1-4.9-2.59c-7.45-14.16,2.85-33.36,16.76-41.74,7.33-4.41,17-6.64,28.82-6.64,1.41,0,2.85,0,4.31.09h.09l.1,0A60.88,60.88,0,0,1,242.32,1m0-1a62.26,62.26,0,0,0-8.84.63q-2.17-.09-4.35-.09C218.35.54,208,2.4,199.8,7.32c-13.39,8.07-25.2,27.74-17.13,43.06,1,1.82,3.62,3.13,5.78,3.13a4.41,4.41,0,0,0,.83-.08c4.23-.77,8.55-3.65,12.47-7.12a69.53,69.53,0,0,0,6.15,16.86,7.7,7.7,0,0,0,6.63,4.44,7.26,7.26,0,0,0,4.06-1.3c6.22-4.12,10-12.18,12.36-20.24,6.53,6.94,12.26,14.49,19.54,20.76a5.65,5.65,0,0,0,3.69,1.27,6.3,6.3,0,0,0,5.28-2.63c5.51-8.63,2.78-18.84-2.52-27.21,12.1.69,22.46,7.64,35,7.8H292a5.55,5.55,0,0,0,5.21-3.85c6.29-15.88-16-31.35-27.94-36.53A68.22,68.22,0,0,0,242.32,0Z"/>
      </g>
    </g>
  </g>
</svg>
