<svg xmlns="http://www.w3.org/2000/svg" viewBox="0 0 502.82 126.55">
  <defs>
    <style>
      #btn-ears3 .cls-1 {
        fill: #fff;
      }
    </style>
  </defs>
  <g id="btn-ears3">
    <g id="ears3-2" data-name="ears3">
      <g>
        <path class="cls-1" d="M177.84,114.22c-22.89-14.67-43.55-21.8-63.15-21.8-15.4,0-28.09,4.36-39.29,8.2-3.44,1.18-6.7,2.3-9.92,3.26a67.2,67.2,0,0,1-19,3.09C17.41,107,6.74,80.34.81,56.59,9.48,62.84,16.39,67.71,23,67.71a13.06,13.06,0,0,0,2.17-.18l1.32-.22-1.14-.7c-5.82-3.58-14.46-23-4.61-43.1C28.62,34.77,35.5,44.44,43.62,48.45l.84.41-.12-.92c-1.83-14,4.16-27.27,11.2-33.53,1.55,7.88,7.65,27.2,20.23,34.83l.7.43.06-.82c.89-14.39,6.16-32.17,18.28-39.36C99.18,23.85,105,33.83,112.67,40l.94.75-.13-1.2a26.93,26.93,0,0,1-.14-5.22c.48-6,2.33-11.83,5.8-18.37A38.18,38.18,0,0,1,132.42,1.19c-3.34,12-1.2,32.24,3.13,41.2a24.35,24.35,0,0,0,2.72,4l1.87,2.39-1-2.87c-2.44-6.92-2.34-13.44.28-18.35,2.33-4.37,6.53-7.44,12.5-9.15-1.94,8.86,2.14,19.81,7.19,26.91l.71,1,.19-1.21c1-6.5,3.68-9.16,9.39-9.35-.82,27,8.85,33.39,19.08,40.2,4.32,2.88,8.78,5.85,12.75,10.46C198.85,109.92,179.88,113.86,177.84,114.22Z"/>
        <path d="M131.59,2.38c-3,12.44-.73,31.44,3.51,40.23a25.54,25.54,0,0,0,2.77,4l3.75,4.78-2-5.73c-2.39-6.79-2.3-13.17.25-18,2.16-4,6-6.95,11.41-8.66-1.56,8.86,2.47,19.51,7.43,26.48l1.42,2,.39-2.42c.95-6.08,3.26-8.58,8.37-8.91-.68,26.78,9,33.25,19.33,40.1,4.23,2.82,8.61,5.73,12.5,10.2-1.06,10.09-5.22,17.72-12.38,22.69A28.15,28.15,0,0,1,178,113.69C155,99,134.35,91.92,114.69,91.92c-15.48,0-28.22,4.37-39.45,8.23-3.44,1.18-6.69,2.29-9.91,3.25a66.46,66.46,0,0,1-18.86,3.07C18.29,106.47,7.58,81,1.63,57.8,9.86,63.71,16.52,68.21,23,68.21A14.16,14.16,0,0,0,25.25,68l2.63-.44-2.28-1.4c-2.71-1.67-6.31-7.45-7.93-15.27a41.85,41.85,0,0,1,3.14-26.42c7.73,11,14.52,20.43,22.59,24.41l1.68.82-.24-1.85c-1.76-13.41,3.73-26.11,10.39-32.49,1.82,8.42,8,26.83,20.28,34.29l1.41.86L77,48.88C77.9,34.83,83,17.55,94.52,10.26c4.38,14.12,10.22,24,17.83,30.11l1.88,1.52-.25-2.4a26.82,26.82,0,0,1-.14-5.13,45.87,45.87,0,0,1,5.75-18.18,36.61,36.61,0,0,1,12-13.8M133.3,0c-8.17,5.33-11.69,10.22-14.6,15.71a47.52,47.52,0,0,0-5.86,18.57A28.84,28.84,0,0,0,113,39.6C106.08,34,99.92,24.84,95.1,8.75,81.75,16.2,76.85,35.56,76,48.82,63.75,41.36,57.33,22,55.88,13.46c-7.55,6.2-13.94,20-12,34.54-7.91-3.9-14.53-13.11-23.19-25.47C10.13,43.08,19.13,63.38,25.08,67a13.29,13.29,0,0,1-2.09.17C16.28,67.21,9.22,62,0,55.39c6.93,28.46,18.64,52.08,46.47,52.08a67.08,67.08,0,0,0,19.15-3.11c14-4.18,29.15-11.44,49.07-11.44,16.86,0,37.14,5.19,63,21.82,0,0,21.55-2.86,24-28.52-13.7-16.09-33.18-12.5-31.84-51-6.51,0-9.32,3-10.39,9.78-5.14-7.22-9.26-18.54-6.91-27.32-15.81,4.08-18,16.75-13.94,28.37A25,25,0,0,1,136,42.18C131.57,33,129.37,11.82,133.3,0Z"/>
      </g>
      <g>
        <path class="cls-1" d="M456,126.05c-6.87,0-14.56-1.7-22.86-5-3.12-1.26-6.26-2.67-9.57-4.16-12.66-5.71-27-12.18-46.14-12.18-17.36,0-36.05,5.3-57.14,16.19-2-.54-20.53-6.23-20.69-29.89,4.38-4.22,9.1-6.76,13.66-9.22C324.07,75.9,334.3,70.39,336,43.48c5.67.72,8.06,3.62,8.47,10.18l.08,1.22.8-.93C351,47.34,356.12,36.82,355,27.83c5.79,2.25,9.68,5.7,11.6,10.25,2.15,5.14,1.65,11.65-1.42,18.32l-1.27,2.76L366,57a25,25,0,0,0,3.07-3.67c5.15-8.54,9.16-28.49,7-40.74a38.07,38.07,0,0,1,11.83,15.92c2.86,6.85,4.15,12.83,4.08,18.84a28.93,28.93,0,0,1-.62,5.18l-.24,1.18,1-.66c8.18-5.42,14.93-14.81,20.62-28.7,11.38,8.28,15,26.47,14.54,40.88l0,.83.75-.36c13.21-6.43,21.1-25.1,23.37-32.81,6.43,6.89,11.17,20.65,8,34.43l-.21.91.87-.34c8.46-3.22,16.21-12.21,25.13-22.7,7.93,20.93-2.48,39.46-8.61,42.49l-1.2.59,1.3.34a13.52,13.52,0,0,0,3.44.44c6.24,0,13.14-4,21.82-9.07-7.63,21.75-19.82,46.12-45.91,46.12Z"/>
        <path d="M376.73,13.81a37.08,37.08,0,0,1,10.66,14.85c2.83,6.77,4.11,12.7,4,18.63a27.94,27.94,0,0,1-.61,5.09l-.47,2.36,2-1.33c8.14-5.39,14.87-14.66,20.56-28.33,10.82,8.34,14.25,26,13.82,40.09l-.05,1.65,1.49-.72c12.91-6.28,20.78-24,23.37-32.27,6,7,10.33,20.14,7.33,33.32L458.46,69l1.74-.66c8.4-3.2,16.05-11.93,24.77-22.2a41.87,41.87,0,0,1,.67,26.6c-2.34,7.63-6.46,13.06-9.32,14.47l-2.39,1.18,2.58.68a13.6,13.6,0,0,0,3.57.46c6.08,0,12.7-3.65,20.9-8.45-7.62,21.26-19.72,44.5-45,44.5-6.81,0-14.44-1.69-22.67-5-3.12-1.26-6.25-2.67-9.56-4.16-12.7-5.73-27.11-12.22-46.34-12.22-17.39,0-36.1,5.29-57.2,16.16a28.15,28.15,0,0,1-9.91-5.41c-6.67-5.61-10.1-13.6-10.22-23.74,4.29-4.09,8.92-6.58,13.4-9,10.87-5.86,21.15-11.4,23-38.13,5.06.8,7.12,3.51,7.51,9.64l.16,2.45,1.6-1.86c5.58-6.49,10.59-16.72,9.85-25.68,5.24,2.2,8.78,5.45,10.56,9.68,2.1,5,1.59,11.37-1.42,17.91l-2.53,5.52,4.17-4.41a25.13,25.13,0,0,0,3.13-3.77c5-8.37,9-27.07,7.24-39.72m-1.49-2.54c2.82,12.13-1.34,33-6.6,41.75a25.06,25.06,0,0,1-3,3.59c5.15-11.19,4.12-24-11.25-29.55,1.53,9-3.63,19.85-9.41,26.56-.43-6.86-3-10-9.44-10.7C333.28,81.4,314.21,76,299.09,90.75c.06,25.78,21.25,30.64,21.25,30.64,23.29-12.06,41.74-16.23,57.08-16.23,23.94,0,40.27,10.16,55.52,16.31,8.68,3.5,16.3,5.08,23.05,5.08,24.88,0,37.79-21.51,46.83-47.74-9.19,5.4-16.36,9.69-22.74,9.69a13.25,13.25,0,0,1-3.32-.42C483,85,493.87,65.6,485.31,44.17c-9.77,11.51-17.2,20.06-25.46,23.21,3.24-14.3-1.83-28.64-8.77-35.51-2.24,8.31-10.43,27.05-23.35,33.33.41-13.28-2.67-33-15.27-41.68-6.29,15.58-13.28,24.17-20.66,29.06a29.14,29.14,0,0,0,.63-5.27,47.34,47.34,0,0,0-4.12-19c-2.38-5.73-5.43-10.93-13.07-17Z"/>
      </g>
    </g>
  </g>
</svg>
