<svg xmlns="http://www.w3.org/2000/svg" viewBox="0 0 496.13 281.7">
  <defs>
    <style>
    #btn-arms3 .cls-1 {
        fill: #fff;
      }
    </style>
  </defs>
  <g id="btn-arms3">
    <g id="arms3-2" data-name="arms3">
      <g>
        <path class="cls-1" d="M61,247.85A6.29,6.29,0,0,1,55,244.11c-8.25-18.65-14.62-105.34-13.25-130.69,1-18,6.5-32.71,16-42.55a43.93,43.93,0,0,1,32-13.42c.59,0,1.19,0,1.79,0a6.81,6.81,0,0,0,2.31.88,4.7,4.7,0,0,0,.74.12c2.52,2.17,4.54,5.86,2.74,9.86-1.19,2.63-4,4.61-6.61,6.2C77,78.05,66.24,86,61.93,95.73c-4.76,10.81-1.15,79.23.6,98.51.21,2.35.41,4.82.6,7.35.95,12.22,2,26.07,6.35,36.62a5.82,5.82,0,0,1-.56,5.65,9.92,9.92,0,0,1-7.88,4Z"/>
        <path d="M89.69,58h0c.54,0,1.1,0,1.64,0a7.08,7.08,0,0,0,2.48.9,3.44,3.44,0,0,0,.5.09c2.34,2.06,4.16,5.49,2.51,9.17-1.13,2.49-3.83,4.4-6.36,5.94-13.79,3.55-24.62,11.56-29,21.45-5.16,11.7-.77,84.12.56,98.76.22,2.34.4,4.77.6,7.34,1,12.26,2,26.15,6.38,36.77a5.33,5.33,0,0,1-.5,5.18A9.39,9.39,0,0,1,61,247.35a5.82,5.82,0,0,1-5.61-3.45c-8.22-18.59-14.57-105.14-13.2-130.45,1-17.88,6.44-32.48,15.82-42.23A43.4,43.4,0,0,1,89.69,58m0-1c-23.82,0-46.33,17.38-48.46,56.44-1.38,25.41,5,112.21,13.29,130.92a6.76,6.76,0,0,0,6.52,4c5.33,0,11.23-4.64,8.9-10.33-5.18-12.66-5.67-30.17-6.91-43.82-1.69-18.54-5.41-87.44-.64-98.27S79,78,90.86,75c2.89-1.76,5.66-3.79,6.87-6.47,1.77-3.94.07-8-3-10.54l-.79-.1.45,0a6.37,6.37,0,0,1-2.78-1c-.64,0-1.29,0-1.93,0Z"/>
      </g>
      <g>
        <path class="cls-1" d="M106.7,246.84a9.2,9.2,0,0,1-4.08-1C91.44,240.24,89.78,230,88.89,218.09l0-.36-.35-.09c-8.42-2.12-16.9-3.58-25.09-5-17.4-3-33.84-5.82-50.53-14.51-15.34-8-16.4-38.92-3.07-89.46a662.9,662.9,0,0,1,27.39-80.3c8-17.54,21.91-26.06,42.5-26.06a129.13,129.13,0,0,1,14.19.94c5.72.62,7.08,4.55,7.38,6.83.69,5.22-2.56,11.48-6.82,13.15a4,4,0,0,1-1.44.24,20.18,20.18,0,0,1-4.16-.71,41.56,41.56,0,0,0-10.14-1.38A39.38,39.38,0,0,0,69,22.66l0-.18-.61.3,0,0-.19.05-.05,0c-16.95,8.63-23.61,26.32-30,46.85-6.27,20.17-9.39,34.3-12.41,48-2.34,10.58-4.55,20.58-8.09,32.86-6.8,23.67-.37,31.64,21.13,42.2,11.09,5.45,23.45,6.8,35.39,8.1,4.42.48,9,1,13.43,1.68l.18,0,.16-.1c5.08-3.17,8.18-5.22,10-6.45,1.22-.8,2-1.29,2.44-1.56a37.57,37.57,0,0,1,18-4.39c6.61,0,12.36,1.68,16.19,4.73A6.21,6.21,0,0,1,137,200a9.8,9.8,0,0,1-4.18,7.3,27.18,27.18,0,0,1-16.14,5.23h0a48.92,48.92,0,0,1-7-.59l-.7-.1.14.7c.56,2.62,2.53,6,4.28,9a26.09,26.09,0,0,1,2.69,5.3l.15.68c1.56,7.09,2.69,12.21-3.51,17A9.86,9.86,0,0,1,106.7,246.84Z"/>
        <path d="M79.71,2.81a128.17,128.17,0,0,1,14.13.94c5.11.55,6.6,3.78,7,6.4.66,5-2.44,11-6.52,12.61A3.34,3.34,0,0,1,93,23a20.34,20.34,0,0,1-4-.7,42.2,42.2,0,0,0-10.25-1.39,39.13,39.13,0,0,0-9.36,1.17l-.06-.33-1.13.58-.57.16c-.94.27-1.52.43-1.6,1-15.75,9.09-22.42,27-28.37,46.13-6.27,20.2-9.4,34.33-12.42,48-2.34,10.58-4.55,20.56-8.08,32.84-6.9,24-.39,32.08,21.39,42.78,11.17,5.49,23.57,6.84,35.56,8.15,4.41.48,9,1,13.4,1.67l.37.06.32-.2c5.08-3.17,8.19-5.22,10-6.45,1.21-.8,1.93-1.28,2.41-1.54a37.55,37.55,0,0,1,17.75-4.33c6.5,0,12.14,1.64,15.88,4.62a5.7,5.7,0,0,1,2.25,4.84,9.24,9.24,0,0,1-4,6.9,26.62,26.62,0,0,1-15.85,5.15,49.08,49.08,0,0,1-7-.58l-1.42-.21.29,1.4c.57,2.71,2.57,6.12,4.34,9.13a26.16,26.16,0,0,1,2.63,5.15l.15.68c1.58,7.17,2.62,11.9-3.32,16.5a9.21,9.21,0,0,1-5.69,2.19,8.61,8.61,0,0,1-3.86-1c-10.94-5.45-12.57-15.59-13.45-27.31l-.06-.71-.7-.18c-8.44-2.13-16.92-3.59-25.13-5-17.36-3-33.76-5.81-50.38-14.47C-2,189.82-3,159.08,10.3,108.8A667.48,667.48,0,0,1,37.66,28.57c4.46-9.77,10.88-16.83,19.09-21,6.38-3.23,13.89-4.79,23-4.79m0-1c-15.23,0-32.88,4.28-43,26.35C33.62,35-25.2,178.86,12.66,198.57c24.92,13,50.07,13.08,75.73,19.56.84,11.18,2.34,22.31,14,28.12a9.6,9.6,0,0,0,4.31,1.08,10.28,10.28,0,0,0,6.3-2.4c6.65-5.14,5.18-10.72,3.54-18.18-.6-2.73-6-9.77-7-14.27a49.63,49.63,0,0,0,7.12.59,27.47,27.47,0,0,0,16.42-5.32c4.21-2.88,6.5-9.6,1.77-13.35-4.21-3.36-10.27-4.84-16.5-4.84A38.35,38.35,0,0,0,100.13,194c-1.28.72-4.17,2.82-12.49,8-16.4-2.59-33.57-2.31-48.68-9.74-21.2-10.42-27.66-18-20.87-41.61,8.15-28.32,9.43-45.17,20.5-80.8,6.72-21.64,13.57-38.32,29.74-46.55L67,23.68s1.43-.41,1.54-.45h0l-.21.11.4-.11a39.64,39.64,0,0,1,10-1.35C85.67,21.88,90,24,93,24a4.28,4.28,0,0,0,1.62-.28c7.8-3,11.6-19.61-.69-20.94a132.66,132.66,0,0,0-14.24-.94Z"/>
      </g>
      <g>
        <path class="cls-1" d="M466.28,111.41c-5.15,0-10.25-.4-14.35-.71-2.06-.16-3.83-.3-5.35-.37-1,0-2.15-.07-3.44-.07-2.58,0-5.42.09-8.42.19-3.38.11-6.87.23-10.43.23-11.11,0-24.72-1.05-31.44-9.2a182.54,182.54,0,0,1-12.57-18C378,80,375.62,76.26,373.1,72.68a45.89,45.89,0,0,0-7.64-7.76l-1.39-1.2-.32.2a7.16,7.16,0,0,1-2.23,1c-2.74.71-5.47,1.66-8.1,2.58-5.14,1.79-10.46,3.65-15.87,3.65a22.24,22.24,0,0,1-5.37-.64c-2.78-.7-5.67-3.85-5.37-7,1.19-12.64,8.87-19.28,22.82-19.75l.84,0L350,43c-1.84-3.14-3.76-6.26-5.62-9.27s-3.92-6.35-5.88-9.69c-2.46-4.2-4.44-10.28-3.29-14.43C336.81,3.9,341,.5,346.47.5a14.15,14.15,0,0,1,8.64,3.11c9.44,7.36,11.06,17.2,12.79,27.61a92.37,92.37,0,0,0,2.9,13.38l0,.06,0,.05c8,12.47,17.11,24.83,25,35.27,10.31,13.67,21.32,13.86,35.24,14.09,2.72.05,5.53.1,8.5.24l2.92.16c3.38.18,7.21.4,11,.4,7.75,0,18.57-.76,23-7.33,2.89-4.3,2.66-10.61-.68-18.75-3.7-9.05-8.95-17.05-14-24.79a187,187,0,0,1-11.29-18.82,83,83,0,0,1-4-10.59,72.77,72.77,0,0,0-4.4-11.25,1.15,1.15,0,0,1,0-1.15,1,1,0,0,1,.86-.51,1,1,0,0,1,.3,0c10.36,3.1,18,15,24.72,25.58,2,3.07,3.83,6,5.63,8.45,12.34,17,25.87,39.3,21,62-2,9.22-11.25,13.7-28.32,13.7Z"/>
        <path d="M346.47,1a13.71,13.71,0,0,1,8.33,3c9.29,7.25,10.9,17,12.6,27.3a93.65,93.65,0,0,0,2.92,13.45l0,.13.07.1c8,12.48,17.12,24.85,25,35.31,10.46,13.86,21.57,14,35.64,14.28,2.71.05,5.51.1,8.47.24l2.92.16c3.39.18,7.22.4,11.05.4,7.86,0,18.85-.79,23.39-7.55,3-4.45,2.77-10.91-.63-19.22-3.73-9.09-9-17.12-14.07-24.87A185.29,185.29,0,0,1,451,25a82.84,82.84,0,0,1-4-10.52A73.72,73.72,0,0,0,442.52,3.1a.65.65,0,0,1,0-.65.53.53,0,0,1,.43-.27.44.44,0,0,1,.16,0c10.18,3,17.76,14.9,24.44,25.36,2,3.09,3.84,6,5.64,8.49C485.5,52.91,499,75.14,494.12,97.6c-1.94,9-11,13.31-27.84,13.31-5.13,0-10.22-.39-14.31-.71-2.06-.16-3.84-.3-5.37-.37-1,0-2.17-.07-3.47-.07-2.58,0-5.42.09-8.43.19-3.37.11-6.86.23-10.42.23-11,0-24.46-1-31-9A183.7,183.7,0,0,1,380.7,83.25c-2.3-3.57-4.67-7.27-7.19-10.86a45.86,45.86,0,0,0-7.73-7.85l-1.1-1-.57-.5-.63.41a6.58,6.58,0,0,1-2.09.93c-2.76.72-5.49,1.67-8.14,2.6-5.33,1.86-10.37,3.62-15.7,3.62A21.75,21.75,0,0,1,332.3,70c-2.59-.64-5.27-3.56-5-6.49,1.17-12.35,8.69-18.84,22.34-19.3l1.68-.06-.85-1.45c-1.84-3.14-3.76-6.26-5.63-9.27s-3.91-6.34-5.87-9.68c-2.33-4-4.34-10.06-3.24-14C337.23,4.26,341.25,1,346.47,1m0-1c-5.15,0-10,3.09-11.71,9.46-1.25,4.54,1.09,11,3.35,14.81,3.88,6.62,7.79,12.62,11.5,19-11.58.39-21.89,5.24-23.3,20.2-.32,3.35,2.61,6.78,5.75,7.56a22.75,22.75,0,0,0,5.49.66c8.27,0,16-4.16,24.09-6.25A7.58,7.58,0,0,0,364,64.34c3.15,2.76,6.43,5.44,8.66,8.62,6.76,9.62,12.21,19.66,19.77,28.84,6.57,8,19.41,9.38,31.82,9.38,6.77,0,13.42-.42,18.85-.42,1.21,0,2.35,0,3.42.07,4.64.22,12.06,1.08,19.73,1.08,12.79,0,26.28-2.39,28.81-14.1C500,75.34,486.87,53.09,474,35.46c-7.85-10.77-16.95-30.14-30.6-34.22a1.86,1.86,0,0,0-.45-.06,1.62,1.62,0,0,0-1.34,2.39c3.38,6.3,5.08,15.06,8.43,21.83C457.65,40.6,468.82,53,475.37,69c9,22-6.49,25.39-21.83,25.39-4.93,0-9.84-.36-13.92-.56-18.4-.9-31.23,1.94-43.36-14.13-8.43-11.14-17.22-23.06-25-35.23-4.62-14.35-2.1-30.51-15.85-41.24A14.64,14.64,0,0,0,346.47,0Z"/>
      </g>
      <g>
        <path class="cls-1" d="M362.65,281.2a11,11,0,0,1-8.8-4.25,7.25,7.25,0,0,1-.94-6.82,50.64,50.64,0,0,1,6.63-13.45c3.5-7,7-12.32,12.94-15.73a10,10,0,0,1,4.91-1.24,9.78,9.78,0,0,1,4.85,1.23,82.16,82.16,0,0,0,7.68,3.89l.09,0h1.64l-.62-.8c-5-6.42-10.94-13.38-12.74-15.08a75.47,75.47,0,0,0-6.56-5.32c-4.1-3.08-8-6-10.43-10.15l0,0-.25-.4a6.51,6.51,0,0,1-.06-6.81,8.82,8.82,0,0,1,7.41-4.55,7.12,7.12,0,0,1,5.23,2.37c4,4.24,8.64,8.32,13.51,12.64,12.13,10.75,24.67,21.87,28.78,36.08l.08.3.31.06a60.08,60.08,0,0,0,10.49,1,32.22,32.22,0,0,0,7.49-.8l.11,0,.09-.07,2.35-.65a17.6,17.6,0,0,0,2.89-.86l.05,0,0,0c2.23-2.37,1.9-29.93,1.23-59.37-.06-2.48-.11-4.52-.13-6-.12-6.4-.63-17.8-1-27-.33-7.39-.62-13.78-.57-14.81l0-.45-.45-.07c-8.33-1.19-11.71-6.26-12.55-7.79a17.45,17.45,0,0,1-.83-13.69,12.79,12.79,0,0,1,6.81-7.91,20.43,20.43,0,0,1,8-1.79,15.48,15.48,0,0,1,11.23,4.94c6.77,6.79,10.28,19.67,10.25,28.89,0,6.33.24,22.29.51,39.19.43,27.2.92,58,.49,60.47-1.74,17.39-10.69,25.47-28.18,25.47h0c-1.1,0-2.25,0-3.41-.09-16.45-.89-48.33-9.23-49.6-9.85l-.21-.11-.22.09a14.59,14.59,0,0,0-2.83,1.69l-.09.07,0,.1c-1.46,2.91-3.27,5.78-5,8.57-.94,1.49-1.91,3-2.8,4.53A8.7,8.7,0,0,1,362.65,281.2Z"/>
        <path d="M440.33,113.47a15,15,0,0,1,10.88,4.79c6.67,6.69,10.13,19.42,10.1,28.54,0,6.33.24,22.29.51,39.19.41,25.84.92,58,.5,60.38v.07c-1.73,17.29-10.27,25-27.68,25-1.09,0-2.23,0-3.38-.09-16.82-.91-48-9.2-49.4-9.8l-.42-.21-.44.19a13.87,13.87,0,0,0-2.93,1.74l-.18.14-.11.21c-1.45,2.88-3.25,5.75-5,8.52-.94,1.49-1.92,3-2.81,4.55a8.22,8.22,0,0,1-7.32,4,10.51,10.51,0,0,1-8.39-4,6.78,6.78,0,0,1-.88-6.37A50.58,50.58,0,0,1,360,257l0-.06,0-.08c3.42-6.85,6.89-12.1,12.7-15.45a9.42,9.42,0,0,1,4.66-1.17,9.14,9.14,0,0,1,4.6,1.17c2.09,1.22,4.77,2.57,7.73,3.91l.17.08h2.79l-1.26-1.61c-5-6.43-11-13.42-12.79-15.13a73.22,73.22,0,0,0-6.6-5.36c-3.92-2.94-7.65-5.73-10.06-9.6l.06,0-.51-.82a6,6,0,0,1,0-6.29,8.29,8.29,0,0,1,7-4.3,6.64,6.64,0,0,1,4.87,2.21c4.05,4.26,8.66,8.35,13.54,12.68,12.07,10.7,24.56,21.77,28.63,35.84l.17.6.61.11a60.15,60.15,0,0,0,10.58,1,33.27,33.27,0,0,0,7.61-.81l.22,0,.06-.05c.35-.12,1.45-.42,2.27-.64,2.58-.7,2.82-.78,3.05-.94l.09-.06.08-.08c1.93-2,2.31-18.79,1.37-59.72-.06-2.48-.11-4.52-.14-6-.11-6.41-.62-17.81-1-27-.33-7.38-.62-13.75-.57-14.76l0-.9-.9-.13c-8.1-1.16-11.37-6.07-12.18-7.54a17,17,0,0,1-.8-13.29,12.32,12.32,0,0,1,6.54-7.61,19.78,19.78,0,0,1,7.78-1.75m0-1a20.68,20.68,0,0,0-8.17,1.83c-7.84,3.35-10.19,15.08-6.23,22.3,1.83,3.34,6.09,7.07,12.92,8.05-.11,2.33,1.4,30.15,1.61,41.79s1.77,62.07-1,65c-.25.18-5.09,1.39-5.27,1.54a32.39,32.39,0,0,1-7.38.78,59.24,59.24,0,0,1-10.4-1c-5.8-20-28.26-34-42.4-48.93a7.61,7.61,0,0,0-5.6-2.52c-5.78,0-11.2,6.63-7.77,12.12l0,0c3.82,6.86,11.54,10.51,17.31,16,1.67,1.58,7.54,8.39,12.69,15h-.5a83.62,83.62,0,0,1-7.64-3.87,10.16,10.16,0,0,0-5.1-1.3,10.49,10.49,0,0,0-5.16,1.3c-6.39,3.69-10,9.61-13.09,15.88A51.59,51.59,0,0,0,352.43,270c-2.28,6.7,4.06,11.73,10.22,11.73a9.17,9.17,0,0,0,8.18-4.51c2.53-4.28,5.57-8.63,7.84-13.14a13.36,13.36,0,0,1,2.73-1.62c1.24.63,33.13,9,49.79,9.91,1.19.06,2.33.09,3.44.09,20,0,27.12-10.4,28.68-25.89.7-4-1-83.37-1-99.74,0-12.17-6.42-34.33-22-34.33Z"/>
      </g>
    </g>
  </g>
</svg>
