<svg xmlns="http://www.w3.org/2000/svg" viewBox="0 0 271 164.3">
  <defs>
    <style>
      #btn-ears1 .cls-1 {
        fill: #fff;
      }
    </style>
  </defs>
  <g id="btn-ears1">
    <g id="ears1-2" data-name="ears1">
      <g id="ears-2" data-name="ears">
        <g>
          <path class="cls-1" d="M28.63,163.42C1.66,141.46-1.2,102,1.19,72.74A276.32,276.32,0,0,1,13,13.63c4.92,1.72,48.2,18.63,82.34,91.19l3.8,8.09C69.35,119.82,34.91,139.7,28.63,163.42Z"/>
          <path d="M13.33,14.27c3,1.11,13.35,5.36,26.68,16.23,14.67,12,36.11,34.59,54.9,74.53l2.54,5.41,1,2.13a139.79,139.79,0,0,0-43.31,18.55c-10.1,6.69-22.77,17.49-26.78,31.42C16.94,153,9,139.54,4.73,122.46c-3.55-14.2-4.57-30.91-3-49.66A277,277,0,0,1,13.33,14.27M12.7,13S-24.73,121.7,28.93,164.3c5.91-24.78,41.82-44.45,70.95-51l-4.07-8.66C59.21,26.82,12.7,13,12.7,13Z"/>
        </g>
        <g>
          <path class="cls-1" d="M242.37,150.42c-6.28-23.72-40.71-43.6-70.53-50.51l3.8-8.09C209.8,19.22,253.07,2.35,258,.63a277.27,277.27,0,0,1,11.82,59.11C272.2,89,269.34,128.46,242.37,150.42Z"/>
          <path d="M257.67,1.27A277.39,277.39,0,0,1,269.32,59.8c1.52,18.75.5,35.46-3.05,49.66C262,126.54,254.06,140,242.64,149.54c-4-13.94-16.67-24.73-26.78-31.42a139.74,139.74,0,0,0-43.3-18.55l.53-1.15c.95-2,1.94-4.13,3-6.39C194.89,52.09,216.32,29.45,231,17.5,244.32,6.63,254.63,2.38,257.67,1.27M258.3,0s-46.51,13.82-83.11,91.6c-1.47,3.13-2.8,6-4.06,8.66,29.13,6.59,65,26.26,70.94,51C295.73,108.7,258.3,0,258.3,0Z"/>
        </g>
      </g>
      <g class="shadow">
        <g>
          <path class="cls-1" d="M41.54,151.37C9,124.52,29.34,58.72,31.37,52.47c3.93,1.42,32.09,13,54.39,60.38L88.2,118C68,122.74,45.9,135.57,41.54,151.37Z"/>
          <path d="M31.69,53.12C34,54,40.61,56.89,49,63.74c9.69,7.91,23.87,22.89,36.3,49.32l1.15,2.46,1,2.17A93,93,0,0,0,59,130c-6.64,4.39-14.92,11.44-17.76,20.54-17-14.5-18.74-39.93-17.2-58.93a184,184,0,0,1,7.61-38.44m-.63-1.28S6.22,124,41.83,152.25c3.92-16.45,27.75-29.5,47.08-33.87l-2.7-5.75C61.92,61,31.06,51.84,31.06,51.84Z"/>
        </g>
        <g>
          <path class="cls-1" d="M229.46,138.37C225.1,122.57,203,109.74,182.81,105l2.43-5.18c22.3-47.39,50.46-59,54.39-60.38C241.66,45.72,262,111.52,229.46,138.37Z"/>
          <path d="M239.31,40.12a183.55,183.55,0,0,1,7.61,38.41c1.55,19-.24,44.45-17.19,59-2.85-9.1-11.13-16.15-17.77-20.54a93,93,0,0,0-28.44-12.26l2.17-4.63C198.13,73.63,212.3,58.65,222,50.74c8.4-6.85,15-9.73,17.31-10.62m.64-1.28S209.08,48,184.79,99.63l-2.7,5.75c19.33,4.37,43.16,17.42,47.08,33.87C264.78,111,240,38.84,240,38.84Z"/>
        </g>
      </g>
    </g>
  </g>
</svg>
