<svg xmlns="http://www.w3.org/2000/svg" viewBox="0 0 230.8 87.37">
  <defs>
    <style>
      #btn-mouth1 .cls-1 {
        fill: #fff;
      }

      #btn-mouth1 .cls-2 {
        fill: #fff;
      }
    </style>
  </defs>
  <g id="btn-mouth1">
    <g id="mouth1-2" data-name="mouth1">
      <g class="teeth">
        <path class="cls-2" d="M40.33,54.72c.12-.84.24-2.3.41-4.34.78-9.35,2.61-31.22,8.49-41.33,2.21-3.8,3.5-6,4.23-7.3,2,2.24,10.15,12.5,13.22,36l3.46,26.53Z"/>
        <path d="M53.55,2.61c2.53,3,9.78,13.3,12.63,35.18l3.36,25.74L40.88,54.37c.1-.88.21-2.21.36-3.95C42,41.11,43.83,19.31,49.66,9.3l3.89-6.69M53.87,0s-.55.88-.55.88l0,0c.39-.69.52-.92.51-.92Zm-.51.92C52.73,2,51.4,4.34,48.8,8.8c-7.39,12.69-8.37,43-9,46.26l31,9.91L67.17,37.66C63.74,11.32,54.05,1.59,53.36.92Z"/>
      </g>
      <g class="skin">
        <path class="cls-1" d="M119.22,86.87l-6.1-.21c-1.91,0-4-.21-6.38-.44-.72-.08-1.45-.14-2.19-.2-1.44-.13-2.93-.26-4.32-.5l-1.06-.17c-3.8-.61-7.72-1.24-11.48-2.17a134,134,0,0,1-23.46-7.67l-5.45-2.4-5.15-2.7c-2.29-1.13-4.45-2.44-6.54-3.71C46,66.05,45,65.41,43.91,64.8A141.74,141.74,0,0,1,27.55,52.66a136.94,136.94,0,0,1-12.3-11.88l-.91-1c-1.36-1.5-2.63-2.92-3.77-4.3L6.86,30.71a54.74,54.74,0,0,1-3.54-5C2.84,25,2.42,24.37,2,23.84l-.36-.54.53.44c.51.42,1.08.91,1.73,1.47,1.24,1.08,2.79,2.42,4.65,3.88l4.59,3.69,5.54,4.14c3.62,2.66,8.09,5.65,13.65,9.15,5,3.19,10.71,6.1,16.72,9.17l.14.07a167.53,167.53,0,0,0,19.7,7.95,149.85,149.85,0,0,0,21.77,5.66c3.27.71,6.67,1.14,10,1.56l1.42.18c1.18.16,2.35.25,3.48.33l2.15.18.31,0c1.74.16,3.53.32,5.55.32l6.12.15,5.57-.28,5.76-.26c.44,0,.89,0,1.33-.06a29.07,29.07,0,0,0,4.44-.4L148,69.11c2.33-.37,4.61-.93,6.82-1.48,1.34-.33,2.68-.66,4-.95l1.92-.43c1.12-.24,2.28-.49,3.4-.81l5.07-1.71c1.22-.42,2.44-.8,3.65-1.18,2.07-.64,4.2-1.31,6.19-2.15l9.07-3.85A59.08,59.08,0,0,0,195.58,53l.93-.49,7.61-4c1.56-.85,3-1.75,4.38-2.62.76-.47,1.51-.94,2.25-1.38l2.81-1.73a84.65,84.65,0,0,0,8-5.27c3.44-2.48,6.07-4.3,7.64-5.36-1.16,1.5-3.15,4-5.86,7.28-.42.47-.83,1-1.26,1.52a28.1,28.1,0,0,1-2.62,3l-5.16,5c-.64.6-1.3,1.23-2,1.88-1.28,1.23-2.59,2.5-4,3.72L201.09,60A93.1,93.1,0,0,1,188,68.52c-1.38.8-2.78,1.61-4.2,2.45-2.07,1.15-4.27,2.1-6.59,3.12-1.19.52-2.39,1-3.59,1.6L168.28,78c-1.17.43-2.41.82-3.62,1.2-.67.2-1.35.41-2,.63-1.25.37-2.52.76-3.8,1.16-2.57.8-5.23,1.63-7.93,2.23l-12.36,2.24a37.37,37.37,0,0,1-5.94.66l-10,.58-3,.17Z"/>
        <path d="M4.08,26c1.16,1,2.55,2.19,4.18,3.47L10,30.85l2.91,2.34L15.34,35l3.08,2.31C22,40,26.52,43,32.1,46.5c5,3.2,10.73,6.11,16.75,9.19l.17.08a167.4,167.4,0,0,0,19.74,8,149.88,149.88,0,0,0,21.81,5.68c3.31.71,6.72,1.15,10,1.57l1.42.18c1.2.16,2.37.24,3.51.33l2.15.18.32,0c1.75.15,3.55.32,5.56.32l6.12.15h.08l5.54-.28,5.76-.26c.44,0,.88,0,1.32-.06a30,30,0,0,0,4.49-.4l4.7-.66,6.5-.9c2.35-.38,4.64-.94,6.86-1.49,1.31-.33,2.67-.67,4-1l1.89-.42c1.13-.24,2.3-.5,3.43-.82h.05l5.06-1.71c1.21-.41,2.44-.8,3.64-1.17,2.07-.65,4.22-1.32,6.23-2.17l5.67-2.41L188.29,57a60.29,60.29,0,0,0,7.54-3.55l.91-.48,5.47-2.86L204.37,49c1.56-.86,3-1.76,4.4-2.63.76-.48,1.5-.94,2.25-1.39l2.8-1.72a86.44,86.44,0,0,0,8-5.28c1.9-1.38,3.56-2.55,4.93-3.5-1,1.29-2.31,2.86-3.79,4.66-.44.49-.85,1-1.29,1.55a27.34,27.34,0,0,1-2.58,2.91l-5.14,5c-.65.6-1.31,1.24-2,1.89-1.26,1.22-2.56,2.48-4,3.68l-2.26,1.71-5,3.73h0l0,0a92.27,92.27,0,0,1-13,8.47c-1.39.8-2.79,1.62-4.18,2.45-2.07,1.14-4.26,2.09-6.57,3.1-1.18.51-2.39,1-3.57,1.59l-3.73,1.6-1.61.7c-1.17.44-2.35.81-3.61,1.2l-2,.63c-1.28.37-2.58.77-3.83,1.17-2.56.79-5.21,1.62-7.85,2.21l-6.1,1.1L138.42,85a36.75,36.75,0,0,1-5.84.64l-.34,0-6.41.38-3.21.18-1.61.1-.81,0-.39,0h-.56l-6.14-.21c-1.86,0-3.88-.2-6.32-.44-.73-.08-1.46-.14-2.2-.2-1.43-.13-2.91-.25-4.28-.49l-1.08-.17c-3.78-.61-7.69-1.24-11.44-2.17a134,134,0,0,1-23.36-7.64l-1.35-.6L59,72.67,53.85,70c-2.26-1.11-4.42-2.42-6.5-3.69-1-.63-2.12-1.29-3.15-1.88A140.7,140.7,0,0,1,27.87,52.27,134.25,134.25,0,0,1,15.63,40.45l-.92-1c-1.35-1.5-2.63-2.91-3.74-4.26L9.08,32.74,7.24,30.39A50.5,50.5,0,0,1,4.08,26M.24,21.45l-.24.2,1.63,2.49C2.76,25.69,4.17,28.22,6.47,31l3.71,4.76c1.4,1.69,3,3.44,4.7,5.34A137.29,137.29,0,0,0,27.23,53,142.09,142.09,0,0,0,43.67,65.23c3.15,1.82,6.28,3.92,9.73,5.63l5.18,2.71L64,76a135.47,135.47,0,0,0,23.54,7.7c4.12,1,8.34,1.66,12.58,2.35,2.11.36,4.36.46,6.54.7s4.43.42,6.41.44l6.12.21h.64l.4,0,.8,0,1.61-.09,3.22-.18,6.41-.39a40.7,40.7,0,0,0,6.34-.67L151,83.71c4-.9,7.92-2.29,11.78-3.4,1.91-.63,3.83-1.16,5.67-1.85l5.38-2.32c3.5-1.63,7-3,10.23-4.74,6.3-3.75,12.42-6.93,17.32-11l7.23-5.46c2.19-1.88,4.13-3.88,6-5.62l5.15-5a56.34,56.34,0,0,0,3.92-4.52c4.6-5.55,7.09-8.87,7.09-8.87l-.24-.25s-3.47,2.27-9.32,6.49c-2.85,2.24-6.63,4.4-10.75,7-2.09,1.25-4.21,2.68-6.6,4l-7.61,4a67.3,67.3,0,0,1-8.36,4l-9.07,3.85c-3.1,1.31-6.49,2.17-9.81,3.32L164,65c-1.72.49-3.51.81-5.28,1.23-3.57.76-7.11,1.84-10.8,2.43L136.7,70.18a41.73,41.73,0,0,1-5.71.45l-5.75.27-5.54.27L113.57,71c-2.11,0-4-.18-5.81-.35s-3.71-.25-5.62-.5c-3.82-.5-7.63-.94-11.36-1.74a150.65,150.65,0,0,1-21.7-5.64,170.55,170.55,0,0,1-19.63-7.92c-6-3.08-11.77-6-16.82-9.22S23,39.43,19,36.52l-5.53-4.13L8.89,28.7C6.07,26.49,4,24.58,2.52,23.35L.24,21.45Z"/>
      </g>
    </g>
  </g>
</svg>
