<svg xmlns="http://www.w3.org/2000/svg" viewBox="0 0 257.08 113.8">
  <defs>
    <style>
     #btn-mouth2 .cls-1 {
        fill: #fff;
      }

      #btn-mouth2 .cls-2 {
        fill: #fff;
      }

      #btn-mouth2 .cls-3 {
        fill: #333;
      }
    </style>
  </defs>
  <g id="btn-mouth2">
    <g id="mouth2-2" data-name="mouth2">
      <g class="hole">
        <path class="cls-3" d="M128.53,113.3c-33.49,0-65.17-11.75-89.19-33.08C15.58,59.14,1.82,30.94.53.76,37.78,15.89,82,23.89,128.53,23.89s90.76-8,128-23.13c-1.29,30.18-15.06,58.38-38.81,79.46C193.71,101.55,162,113.3,128.53,113.3Z"/>
        <path d="M1.07,1.51c37.16,15,81.19,22.88,127.46,22.88S218.85,16.48,256,1.51c-1.49,29.76-15.15,57.52-38.6,78.34-23.94,21.25-55.5,33-88.88,33S63.6,101.1,39.67,79.85C16.22,59,2.55,31.27,1.07,1.51M257.08,0c-35.85,14.69-80.34,23.39-128.55,23.39S35.85,14.69,0,0C2.25,63.19,58.92,113.8,128.53,113.8S254.82,63.19,257.08,0Z"/>
      </g>
      <g class="skin">
        <path class="cls-1" d="M128.53,113.3c-33.46,0-65.12-11.73-89.14-33C17.22,60.6,3.74,34.75,1,6.86c13.57,54.2,66.08,92.85,127.56,92.85s114-38.66,127.58-92.85c-2.77,27.89-16.25,53.74-38.43,73.41C193.66,101.57,162,113.3,128.53,113.3Z"/>
        <path d="M254.71,13.62c-4.13,25.15-17.1,48.3-37.36,66.27-23.93,21.22-55.47,32.91-88.82,32.91S63.65,101.11,39.72,79.89C19.46,61.93,6.49,38.77,2.36,13.62c16.1,50.91,67,86.59,126.17,86.59S238.62,64.53,254.71,13.62M257.06.13c-10.53,56.26-64,99.08-128.53,99.08S10.55,56.39,0,.13C2.34,63.27,59,113.8,128.53,113.8S254.74,63.27,257.06.13Z"/>
      </g>
      <g class="teeth">
        <g>
          <path class="cls-2" d="M35.25,46.39c-1.33-2-6.67-10-8.19-15-2.77-5.76-4.82-13.78-6-23.28a316.45,316.45,0,0,0,31.09,8.1,39.64,39.64,0,0,1-2,7.51C44.58,38.22,37.06,44.93,35.25,46.39Z"/>
          <path d="M21.67,8.84c9.55,3,19.6,5.61,29.93,7.78a39.41,39.41,0,0,1-1.86,6.94C44.53,37,37.66,43.67,35.35,45.65c-1.68-2.53-6.41-9.85-7.81-14.38l0-.07,0-.07C24.84,25.63,22.84,18,21.67,8.84M20.49,7.42c1,8.45,2.83,17.36,6.09,24.14,1.77,5.74,8.55,15.55,8.55,15.55s9-6.37,15.54-23.19a40.67,40.67,0,0,0,2.07-8.08A319.48,319.48,0,0,1,20.49,7.42Z"/>
        </g>
        <g>
          <path class="cls-2" d="M126,57.14c-1.33-2-6.67-10.07-8.19-15a69.21,69.21,0,0,1-5.32-18.6c5.65.23,10.9.34,16,.34,4.75,0,9.61-.1,14.84-.3A41.29,41.29,0,0,1,141,34.48C135.35,49,127.83,55.68,126,57.14Z"/>
          <path d="M113.1,24.07c5.42.21,10.48.32,15.43.32,4.58,0,9.27-.09,14.29-.28a40.62,40.62,0,0,1-2.31,10.19c-5.21,13.41-12.08,20.12-14.39,22.1-1.68-2.53-6.41-9.86-7.82-14.39l0-.07,0-.07a67.77,67.77,0,0,1-5.15-17.8m-1.18-1c1.08,6.9,2.8,13.79,5.43,19.27,1.77,5.74,8.55,15.56,8.55,15.56s9-6.38,15.54-23.2a43.29,43.29,0,0,0,2.48-11.59c-5.08.2-10.21.32-15.39.32-5.59,0-11.13-.14-16.61-.36Z"/>
        </g>
        <g>
          <path class="cls-2" d="M80.63,52.56c-1.32-2-6.67-10.06-8.19-15A69,69,0,0,1,67.13,19c9.79,1.6,20,2.82,30.38,3.65a39.65,39.65,0,0,1-1.92,7.26C90,44.36,82.44,51.09,80.63,52.56Z"/>
          <path d="M67.73,19.6c9.44,1.52,19.24,2.7,29.19,3.5a37.38,37.38,0,0,1-1.8,6.63C89.91,43.14,83.05,49.84,80.74,51.82c-1.69-2.53-6.42-9.85-7.82-14.39l0-.07,0-.07A67.63,67.63,0,0,1,67.73,19.6m-1.21-1.21c1.08,6.93,2.8,13.83,5.44,19.33,1.78,5.75,8.56,15.56,8.56,15.56s9-6.37,15.53-23.19a39.45,39.45,0,0,0,2-7.9c-10.8-.84-21.35-2.11-31.57-3.8Z"/>
        </g>
        <g>
          <path class="cls-2" d="M221.23,47.21c-1.84-1.43-9.71-8.16-15.57-22.68a38.34,38.34,0,0,1-2.14-8,320,320,0,0,0,32.53-8.38c-1.18,9.85-3.35,18.14-6.27,24C228.17,37.13,222.58,45.28,221.23,47.21Z"/>
          <path d="M235.46,8.83c-1.19,9.46-3.31,17.41-6.13,23.07l0,.07,0,.08c-1.46,4.56-6.42,12-8.15,14.43-2.35-1.93-9.54-8.63-15-22.13a36.53,36.53,0,0,1-2-7.45,323.49,323.49,0,0,0,31.36-8.07m1.18-1.42A318.59,318.59,0,0,1,203,16.11a39.58,39.58,0,0,0,2.25,8.61c6.78,16.82,16.14,23.2,16.14,23.2s7-9.82,8.89-15.57c3.48-7,5.42-16.26,6.41-24.94Z"/>
        </g>
        <g>
          <path class="cls-2" d="M174.54,51.78c-1.84-1.43-9.71-8.15-15.56-22.68a37,37,0,0,1-1.8-6.26c10.61-.78,21.1-2,31.21-3.58a65.82,65.82,0,0,1-5.3,17.45C181.48,41.7,175.89,49.85,174.54,51.78Z"/>
          <path d="M187.77,19.86a63.73,63.73,0,0,1-5.13,16.62l0,.07,0,.07c-1.46,4.56-6.42,12-8.15,14.44-2.35-1.92-9.52-8.59-15-22.14a35.39,35.39,0,0,1-1.65-5.63c10.18-.76,20.26-1.91,30-3.43M189,18.65c-10.5,1.69-21.34,2.93-32.43,3.73a38.47,38.47,0,0,0,1.93,6.91c6.79,16.82,16.14,23.2,16.14,23.2s7-9.82,8.88-15.56c2.61-5.23,4.34-11.71,5.48-18.28Z"/>
        </g>
      </g>
    </g>
  </g>
</svg>
