<svg xmlns="http://www.w3.org/2000/svg" viewBox="0 0 635.85 190.86">
  <defs>
    <style>
      #btn-ears2 .cls-1 {
        fill: #fff;
      }
    </style>
  </defs>
  <g id="btn-ears2">
    <g id="ears2-2" data-name="ears2">
      <g id="ears-2" data-name="ears">
        <g>
          <path class="cls-1" d="M492.53,190.05c-6.09-3.43-11.16-9.69-16.07-15.76a107.55,107.55,0,0,0-9.7-10.93c-7.57-7-13.81-9.67-21-12.72-2.89-1.23-5.89-2.49-9.28-4.15-13.34-6.52-20.95-16.87-22.61-30.76-3.47-29.08,20-65.57,38.28-80.74C481.31,10.78,520,5.7,547.39,5.7A246.36,246.36,0,0,1,590,9.49q2.89.51,5.84,1c13.48,2.27,27.41,4.62,39.37,11.11C625.82,37,606.29,40.38,589,43.39c-5.43.94-10.56,1.84-15.3,3l-3.77,1,3.89,0c19.95.1,32.88,6,41.75,19.14a73.72,73.72,0,0,0-10.54-.77,69,69,0,0,0-21.68,3.54l-.91.3.76.58c3.17,2.39,6.92,4.69,10.9,7.12,14.11,8.63,30.1,18.41,27.14,37.22-5.8-.24-12.54-1.8-19.68-3.46-8.65-2-17.59-4.08-26-4.08-9.21,0-16.27,2.58-21.56,7.88l-.34.34.33.36c9,9.56,17.49,20.38,18.93,34.75-6.61-3.14-16.65-6.63-24.42-6.63-4.72,0-8,1.3-9.73,3.85-2.05,3-1.91,7.67.41,13.89-4.47-.24-11.18-3.26-18.27-6.45-8.73-3.93-17.75-8-24.65-8a10.64,10.64,0,0,0-6.89,2.13c-4.93,4-2.19,15.13.45,25.89C491.31,180.88,492.68,186.45,492.53,190.05Z"/>
          <path d="M547.39,5.2v1A246.13,246.13,0,0,1,589.86,10l5.85,1c13.26,2.23,27,4.54,38.74,10.8-9.33,14.81-28.53,18.16-45.5,21.11-5.44,1-10.58,1.85-15.34,3.07l-7.54,1.93,7.78,0c19.29.1,31.94,5.67,40.69,18a73.22,73.22,0,0,0-9.48-.62,69.05,69.05,0,0,0-21.83,3.57l-1.82.59,1.52,1.16c3.19,2.4,7,4.71,10.94,7.14,13.87,8.49,29.56,18.08,27,36.28-5.65-.3-12.21-1.82-19.13-3.43-8.68-2-17.65-4.09-26.1-4.09-9.35,0-16.52,2.62-21.91,8l-.69.68.67.71c10.08,10.72,17.15,20.61,18.7,33.58-6.65-3.06-16.29-6.3-23.83-6.3-4.89,0-8.3,1.37-10.15,4.07-2,3-2,7.58.1,13.61-4.37-.51-10.68-3.35-17.34-6.35-8.77-3.95-17.84-8-24.85-8a11.1,11.1,0,0,0-7.2,2.24c-5.18,4.21-2.41,15.49.28,26.39,1.32,5.39,2.58,10.52,2.65,14.06-5.68-3.47-10.51-9.43-15.2-15.21a107.16,107.16,0,0,0-9.74-11c-7.63-7.09-13.91-9.74-21.17-12.81-2.89-1.22-5.88-2.49-9.26-4.14-13.18-6.44-20.69-16.66-22.33-30.37-3.46-28.9,19.91-65.2,38.1-80.3C481.52,11.26,520.12,6.2,547.39,6.2v-1m0,0c-34.34,0-69.56,7.82-95.59,29.4-27.17,22.55-63.19,89.06-15.57,112.34,12.13,5.93,19.76,7.09,30.19,16.79,8.95,8.32,16.14,21.69,26.55,27.13,1.09-9.56-10.8-35.19-3.23-41.34a10.12,10.12,0,0,1,6.57-2c12.74,0,33.7,14.47,43.48,14.47H540c-5.3-13.55.19-17.76,8.59-17.76,8,0,18.53,3.78,25,7-1.17-14.7-9.41-25.57-19.15-35.93,5.8-5.8,13.2-7.73,21.21-7.73,15.45,0,33.18,7.18,46.08,7.55,4.25-24.8-23.64-34.28-38.15-45.25a68.2,68.2,0,0,1,21.52-3.52,74.6,74.6,0,0,1,11.57.93c-9.76-15.14-23.86-20.2-42.78-20.3,20.48-5.24,49.85-4.77,62-25.52C622,13.72,605.42,11.7,590,9a248.1,248.1,0,0,0-42.65-3.8Z"/>
        </g>
        <g>
          <path class="cls-1" d="M145.67,184.86c-.16-3.6,1.23-9.17,2.7-15,2.69-10.75,5.47-21.87.45-25.89a10.86,10.86,0,0,0-7-2.12c-7,0-16.19,4.06-25,8-7.22,3.19-14,6.22-18.59,6.46,2.34-6.19,2.5-10.84.46-13.84-1.76-2.59-5.09-3.91-9.92-3.91-7.9,0-18.12,3.49-24.84,6.64C65.37,130.78,74,120,83.15,110.39l.34-.36-.35-.34c-5.38-5.3-12.54-7.88-21.9-7.88-8.53,0-17.63,2.08-26.42,4.09-7.25,1.65-14.11,3.22-20,3.45-3-18.8,13.24-28.58,27.59-37.21,4-2.44,7.85-4.73,11.07-7.12l.77-.58-.92-.3a70.77,70.77,0,0,0-22-3.55,76.25,76.25,0,0,0-10.72.78c9-13.13,22.16-19,42.44-19.13l3.95,0-3.83-1c-4.82-1.21-10-2.11-15.56-3.06C30,35.19,10.19,31.78.7,16.39,12.87,9.9,27,7.55,40.76,5.28l5.9-1A254,254,0,0,1,89.9.5c27.81,0,67.18,5.08,96.85,29.3,18.54,15.12,42.38,51.55,38.93,80.61-1.65,14-9.39,24.35-23,30.89-3.44,1.65-6.48,2.92-9.42,4.14-7.35,3.05-13.69,5.68-21.39,12.72A108.68,108.68,0,0,0,162,169.1C157,175.16,151.86,181.43,145.67,184.86Z"/>
          <path d="M89.9,1c27.73,0,67,5.06,96.54,29.19,18.44,15.05,42.17,51.28,38.74,80.16-1.63,13.78-9.27,24-22.71,30.5-3.43,1.65-6.47,2.91-9.4,4.13-7.39,3.06-13.77,5.71-21.53,12.81a108.46,108.46,0,0,0-9.91,11c-4.77,5.79-9.68,11.76-15.47,15.22.06-3.53,1.35-8.66,2.69-14.05,2.73-10.91,5.55-22.19.29-26.41a11.39,11.39,0,0,0-7.3-2.23c-7.12,0-16.34,4.08-25.26,8-6.77,3-13.2,5.85-17.64,6.35,2.14-6,2.18-10.53.14-13.55C97.22,139.4,93.74,138,88.74,138c-7.67,0-17.48,3.25-24.24,6.31,1.57-13,8.76-22.86,19-33.58l.68-.72-.7-.69c-5.48-5.4-12.76-8-22.25-8-8.59,0-17.71,2.08-26.53,4.1-7,1.61-13.72,3.13-19.46,3.42C12.62,90.65,28.57,81.05,42.67,72.56c4-2.43,7.87-4.74,11.1-7.14l1.56-1.16-1.85-.6A71.43,71.43,0,0,0,31.3,60.09a76,76,0,0,0-9.65.63c8.9-12.33,21.77-17.89,41.37-18l7.91,0-7.67-1.93c-4.84-1.22-10.07-2.12-15.6-3.07-17.25-3-36.76-6.31-46.25-21.12C13.4,10.32,27.35,8,40.85,5.77c2-.33,3.94-.65,5.89-1A254.21,254.21,0,0,1,89.9,1m0-1A256,256,0,0,0,46.57,3.8C30.93,6.5,14.1,8.53,0,16.2,12.35,37,42.2,36.49,63,41.74,43.8,41.82,29.46,46.88,19.54,62a77,77,0,0,1,11.76-.94,70.17,70.17,0,0,1,21.88,3.53c-14.75,11-43.11,20.46-38.78,45.25,13.11-.38,31.13-7.56,46.84-7.56,8.14,0,15.66,1.93,21.55,7.73C72.89,120.4,64.52,131.28,63.33,146c6.58-3.19,17.32-7,25.41-7,8.53,0,14.11,4.21,8.72,17.76h.18c9.94,0,31.24-14.46,44.2-14.46a10.36,10.36,0,0,1,6.67,2c7.7,6.16-4.39,31.78-3.28,41.35,10.57-5.45,17.89-18.82,27-27.14,10.6-9.7,18.36-10.86,30.69-16.78,48.4-23.28,11.79-89.8-15.83-112.34C160.61,7.82,124.81,0,89.9,0Z"/>
        </g>
      </g>
      <g class="shadow">
        <g>
          <path class="cls-1" d="M477.08,144.78c-3.92-2.22-7.22-6.16-10.41-10a69.77,69.77,0,0,0-6.47-7.06c-5.06-4.56-9.23-6.26-14.06-8.22-1.92-.79-3.91-1.6-6.15-2.66-8.88-4.2-13.92-10.87-15-19.83-2.19-18.64,13.36-42,25.43-51.64,19.39-15.56,45.13-18.82,63.31-18.82A169.93,169.93,0,0,1,542,29l3.87.64c8.9,1.45,18.1,3,26,7.05-6.21,9.7-19.08,11.86-30.46,13.78-3.62.61-7,1.19-10.2,2l-3,.73,3,.25c14.73,1.22,21.33,3.25,27.45,11.92a49.14,49.14,0,0,0-6.66-.45,47.3,47.3,0,0,0-14.46,2.29l-.94.3.79.58c2.12,1.55,4.62,3,7.27,4.6,9.3,5.5,19.83,11.73,18,23.61a79.51,79.51,0,0,1-12.91-2.22c-5.76-1.29-11.72-2.63-17.32-2.63-6.18,0-10.91,1.68-14.46,5.13l-.36.34.35.36c5.89,6.06,11.46,12.91,12.51,21.95-4.41-2-10.95-4.16-16-4.16-3.25,0-5.49.89-6.67,2.64-1.31,1.94-1.23,4.89.22,8.77-2.95-.25-7.28-2.13-11.85-4.12-5.82-2.54-11.84-5.16-16.47-5.16a7.36,7.36,0,0,0-4.67,1.4c-3.37,2.65-1.54,9.87.23,16.86C476.22,139.05,477.1,142.48,477.08,144.78Z"/>
          <path d="M513.76,27.08A169,169,0,0,1,542,29.5l3.87.64c8.67,1.42,17.63,2.87,25.35,6.75C565,46,553,48,541.35,50c-3.63.61-7.06,1.19-10.24,2l-5.92,1.47,6.08.5c14,1.16,20.58,3,26.4,10.78a50.17,50.17,0,0,0-5.57-.31,47.66,47.66,0,0,0-14.61,2.31l-1.88.6,1.59,1.16c2.13,1.57,4.65,3,7.31,4.63,9,5.35,19.26,11.4,17.81,22.65A82.37,82.37,0,0,1,550,93.57c-5.79-1.3-11.78-2.64-17.43-2.64-6.31,0-11.16,1.72-14.81,5.27l-.72.69.7.72c6.49,6.68,11.09,12.84,12.26,20.79-4.42-1.91-10.57-3.85-15.44-3.85-3.42,0-5.81,1-7.08,2.86s-1.35,4.79-.12,8.46c-2.82-.47-6.76-2.19-10.9-4-5.87-2.56-11.94-5.2-16.67-5.2a7.86,7.86,0,0,0-5,1.51c-3.63,2.85-1.75,10.23.06,17.37a54.64,54.64,0,0,1,1.72,8.31c-3.5-2.24-6.54-5.86-9.48-9.38a70.77,70.77,0,0,0-6.53-7.11c-5.12-4.62-9.33-6.33-14.2-8.32-1.91-.78-3.89-1.59-6.13-2.64-8.71-4.12-13.65-10.66-14.68-19.44-2.17-18.46,13.27-41.59,25.24-51.19,19.28-15.47,44.9-18.71,63-18.71h0m0-1c-22.86,0-46.3,5-63.62,18.93-18.08,14.5-42.05,57.32-10.37,72.31,8.08,3.81,13.15,4.56,20.09,10.8,6,5.36,10.75,14,17.67,17.47.72-6.16-7.19-22.66-2.15-26.62a6.88,6.88,0,0,1,4.36-1.29c8.49,0,22.43,9.31,28.94,9.31h.12c-3.53-8.73.12-11.44,5.71-11.44,5.3,0,12.33,2.43,16.64,4.48-.78-9.45-6.26-16.45-12.74-23.12,3.85-3.74,8.78-5,14.11-5,10.28,0,22.08,4.62,30.66,4.86,2.83-16-15.74-22.06-25.39-29.12A46.74,46.74,0,0,1,552.1,65.4a51.24,51.24,0,0,1,7.71.6c-6.49-9.74-13.4-11.82-28.46-13.07,13.62-3.37,33.17-3.06,41.25-16.42-9.23-4.95-20.25-6.25-30.48-8a170.54,170.54,0,0,0-28.36-2.44Z"/>
        </g>
        <g>
          <path class="cls-1" d="M161.37,139.59c0-2.3.87-5.73,1.8-9.34,1.81-7,3.67-14.21.24-16.87a7.55,7.55,0,0,0-4.74-1.4c-4.7,0-10.82,2.63-16.74,5.16-4.65,2-9.05,3.88-12,4.13,1.46-3.86,1.54-6.79.24-8.73-1.19-1.78-3.47-2.68-6.8-2.68-5.17,0-11.84,2.17-16.32,4.17,1.07-9,6.73-15.9,12.72-22l.36-.36-.37-.35c-3.61-3.45-8.41-5.12-14.69-5.12-5.69,0-11.75,1.34-17.61,2.63a81.85,81.85,0,0,1-13.13,2.22C72.42,79.21,83.13,73,92.59,67.47c2.69-1.57,5.23-3,7.38-4.59l.81-.59-1-.3a48.81,48.81,0,0,0-14.71-2.28,52.28,52.28,0,0,0-6.76.44c6.22-8.67,12.93-10.69,27.91-11.91l3.09-.25-3-.73c-3.22-.78-6.7-1.36-10.38-2C84.4,43.37,71.32,41.2,65,31.51c8-4.11,17.4-5.61,26.46-7.06l3.9-.63a174.54,174.54,0,0,1,28.74-2.44c18.48,0,44.64,3.27,64.35,18.82,12.24,9.66,28,33,25.86,51.57-1.05,9-6.17,15.69-15.22,19.9-2.29,1.06-4.32,1.88-6.28,2.66-4.9,2-9.12,3.67-14.26,8.22a70.51,70.51,0,0,0-6.58,7C168.72,133.42,165.36,137.36,161.37,139.59Z"/>
          <path d="M124.1,21.88c18.4,0,44.44,3.25,64,18.72,12.15,9.58,27.83,32.68,25.67,51.11-1,8.81-6.05,15.37-14.93,19.51-2.28,1.06-4.3,1.87-6.26,2.65-4.94,2-9.2,3.7-14.41,8.3a71.51,71.51,0,0,0-6.62,7.11c-3,3.53-6.1,7.17-9.68,9.41a54.54,54.54,0,0,1,1.75-8.32c1.84-7.14,3.75-14.52.06-17.38a8,8,0,0,0-5.05-1.51c-4.81,0-11,2.65-16.94,5.2-4.21,1.81-8.22,3.53-11.1,4,1.25-3.64,1.22-6.47-.08-8.41s-3.72-2.9-7.22-2.9c-5,0-11.21,1.94-15.71,3.86,1.19-8,5.87-14.12,12.47-20.8l.72-.72-.74-.7c-3.71-3.54-8.63-5.26-15-5.26-5.74,0-11.83,1.34-17.71,2.64a85.2,85.2,0,0,1-12.6,2.18c-1.47-11.25,8.92-17.3,18.12-22.66,2.7-1.57,5.25-3.06,7.42-4.62l1.63-1.17L100,61.52a49.19,49.19,0,0,0-14.86-2.31,51.79,51.79,0,0,0-5.66.31C85.37,51.79,92,49.9,106.3,48.74l6.17-.5-6-1.47c-3.24-.79-6.73-1.36-10.42-2-11.82-2-24-4-30.3-13.09,7.85-3.88,17-5.34,25.8-6.76,1.31-.21,2.61-.41,3.9-.63a174.65,174.65,0,0,1,28.66-2.43m0-1a176,176,0,0,0-28.82,2.44c-10.41,1.74-21.61,3.05-31,8,8.22,13.35,28.08,13,41.93,16.43C90.91,49,83.89,51.06,77.29,60.81a52.79,52.79,0,0,1,7.82-.6,48.37,48.37,0,0,1,14.57,2.26C89.86,69.53,71,75.64,73.87,91.6c8.72-.24,20.71-4.86,31.16-4.86,5.42,0,10.43,1.24,14.35,5-6.59,6.67-12.16,13.66-13,23.13,4.38-2,11.53-4.49,16.91-4.49,5.68,0,9.4,2.71,5.81,11.44h.11c6.61,0,20.79-9.32,29.42-9.32a7,7,0,0,1,4.44,1.3c5.12,4-2.92,20.46-2.19,26.61,7-3.5,11.91-12.11,18-17.47,7.05-6.24,12.21-7,20.42-10.8,32.2-15,7.84-57.8-10.54-72.31-17.6-13.89-41.43-18.93-64.66-18.93Z"/>
        </g>
      </g>
    </g>
  </g>
</svg>
