<svg xmlns="http://www.w3.org/2000/svg" viewBox="0 0 382.42 185.37">
  <defs>
    <style>
       #btn-feet2 .cls-1 {
        fill: #fff;
      }
    </style>
  </defs>
  <g id="btn-feet2">
    <g id="feet2-2" data-name="feet2">
      <g id="feet-2" data-name="feet">
        <path class="cls-1" d="M80.08,184.87a5.21,5.21,0,0,1-5-3.49A8,8,0,0,1,76.59,173c1.39-1.32,2.71-2.63,4-3.92l2-2-1.67.36c-3.62.77-6.9,1.52-10,2.29-1.1.27-2.26.57-3.47.89-6.4,1.66-14.37,3.74-21.53,3.74a23.7,23.7,0,0,1-10-1.91,8.07,8.07,0,0,1-4.36-5.2,5.55,5.55,0,0,1,1.09-4.84,35.27,35.27,0,0,1,4.08-4.28l1.57-1.41-2,.56c-3.74,1-6.61,1.94-9.31,2.93A37.5,37.5,0,0,1,14,162.82a24.52,24.52,0,0,1-9.94-2,6,6,0,0,1-3.57-4.72c-.3-6.51,3-10.68,11-13.94,1.9-.77,3.79-1.56,5.69-2.34C28.08,135.27,39.36,130.61,51,128a104.65,104.65,0,0,1,23-2.63,102.59,102.59,0,0,1,32.68,5.44l1.51.5-1-1.27C83.05,97.59,59.4,36.6,92.78.94c.66,5.53-1,11.43-2.66,17.15-1.28,4.49-2.6,9.14-2.81,13.62A132.89,132.89,0,0,0,87.63,49l.14,1.69.8-1.5A3.93,3.93,0,0,1,92,47a3.63,3.63,0,0,1,.73.08l.37.08.18-.34a17,17,0,0,1,1.24-1.94l.07-.09,0-.1A72.47,72.47,0,0,1,106.87,17a4.91,4.91,0,0,1,4-1.93c2,0,4.6,1.12,5.33,3.56,1.49,4.94.82,8,0,11.56a38.06,38.06,0,0,0-1.14,9.26c0,.26,0,.52,0,.79s0,.5,0,.75v.18l.12.14a22,22,0,0,1,2.07,2.94l.41.7.44-.68a45.64,45.64,0,0,1,6.23-7.74,4.84,4.84,0,0,1,3.46-1.38,5.08,5.08,0,0,1,3.65,1.47,4.08,4.08,0,0,1,1.14,3.07,17.79,17.79,0,0,1-1.41,6.17l-.12.29.21.23a5.3,5.3,0,0,1,1.11,1.83l.39,1.14.53-1.09a120.94,120.94,0,0,1,17.28-26.51,1.5,1.5,0,0,1,1.17-.57,2,2,0,0,1,1.64,1,1.62,1.62,0,0,1,0,1.67c-9.4,17.37-21.86,43.08-21.61,65.59.12,10.43,2.48,20.62,4.77,30.48a203.55,203.55,0,0,1,4,20V140l0,.08a18.44,18.44,0,0,0,1.82,3c2,2.66,3.92,5.13,4.88,8.24,1.56,5.1-1.54,10.67-6.92,12.41a39,39,0,0,1-12.15,2.25h0a25.12,25.12,0,0,1-3-.18h-.12l-.12,0a125.46,125.46,0,0,0-15.12,7.8c-9.08,5.2-18.46,10.59-29.54,11.14Z"/>
        <path d="M92.38,2.11c.33,5.11-1.23,10.56-2.74,15.84-1.29,4.52-2.62,9.2-2.83,13.74A132,132,0,0,0,87.14,49l.28,3.38,1.59-3a3.44,3.44,0,0,1,3-1.91,2.56,2.56,0,0,1,.62.07l.75.16L93.7,47a17,17,0,0,1,1.21-1.89L95,45l0-.21a72.15,72.15,0,0,1,12.2-27.48,4.39,4.39,0,0,1,3.64-1.72,5,5,0,0,1,4.85,3.2c1.46,4.82.82,7.69,0,11.31a38.33,38.33,0,0,0-1.16,9.38c0,.26,0,.53,0,.79s0,.5,0,.74v.36l.24.28a21.09,21.09,0,0,1,2,2.88l.83,1.39.87-1.36a45.08,45.08,0,0,1,6.16-7.65,4.34,4.34,0,0,1,3.11-1.24A4.66,4.66,0,0,1,131.2,37a3.64,3.64,0,0,1,1,2.7,17.47,17.47,0,0,1-1.38,6l-.24.58.42.46a4.91,4.91,0,0,1,1,1.66l.78,2.28,1.06-2.17a120.86,120.86,0,0,1,17.21-26.41,1,1,0,0,1,.79-.39,1.5,1.5,0,0,1,1.21.74,1.13,1.13,0,0,1,0,1.18C143.68,41,131.18,66.8,131.43,89.43c.12,10.48,2.49,20.7,4.78,30.58a200.8,200.8,0,0,1,3.95,20l0,.17.08.15a20.34,20.34,0,0,0,1.87,3.13l.05.07c2,2.57,3.82,5,4.75,8,1.48,4.84-1.48,10.12-6.59,11.79a38.67,38.67,0,0,1-12,2.22,24.17,24.17,0,0,1-3-.18l-.25,0-.24.1a127.87,127.87,0,0,0-15.18,7.83c-9.44,5.42-18.36,10.53-29.32,11.08h-.3a4.73,4.73,0,0,1-4.54-3.18,7.47,7.47,0,0,1,1.39-7.81c1.41-1.34,2.75-2.67,4-3.95l.74-.73,2.42-2.4-3.33.71c-3.62.77-6.9,1.52-10,2.3l-3.47.88c-6.38,1.66-14.32,3.73-21.41,3.73a23.25,23.25,0,0,1-9.8-1.86A7.59,7.59,0,0,1,32,167.2a5.07,5.07,0,0,1,1-4.42,35.12,35.12,0,0,1,4-4.22l3.13-2.83-4.07,1.13c-3.76,1-6.65,1.95-9.35,2.94A37,37,0,0,1,14,162.32a23.79,23.79,0,0,1-9.73-2A5.41,5.41,0,0,1,1,156c-.29-6.27,2.9-10.29,10.66-13.46,1.9-.77,3.79-1.55,5.69-2.34,10.89-4.5,22.14-9.15,33.71-11.75A104.33,104.33,0,0,1,74,125.87a101.83,101.83,0,0,1,32.52,5.42l3,1-1.9-2.55C92.92,110,82.27,86.12,78.41,64.22c-3.16-17.91-3.21-43,14-62.11M93.05,0a.15.15,0,0,0-.11,0c-32.82,34.2-13.18,94,13.89,130.3A103.34,103.34,0,0,0,74,124.87a105.06,105.06,0,0,0-23.13,2.64c-13.65,3.08-26.62,8.88-39.56,14.15C4.43,144.46-.33,148.43,0,156.08a6.42,6.42,0,0,0,3.87,5.16A24.93,24.93,0,0,0,14,163.32a38.17,38.17,0,0,0,13.06-2.58c3.09-1.14,6.18-2.06,9.28-2.92a37.16,37.16,0,0,0-4.15,4.34c-3.07,3.9-.45,9,3.46,10.8a24,24,0,0,0,10.22,2c8.57,0,18.16-2.91,25.12-4.64,3.36-.84,6.69-1.59,10-2.29-1.54,1.52-3.1,3.08-4.77,4.67-3.94,3.78-2.63,12.71,3.84,12.71h.35c17.13-.86,29.75-12.84,44.82-19a26.81,26.81,0,0,0,3.09.18,39.82,39.82,0,0,0,12.31-2.27c5.45-1.77,8.92-7.53,7.23-13-1-3.23-2.93-5.75-4.95-8.41a18.39,18.39,0,0,1-1.78-3c-2.13-16.69-8.53-33.11-8.72-50.46-.24-21.82,11.4-46.58,21.55-65.35a2.37,2.37,0,0,0-2.12-3.4,2,2,0,0,0-1.55.74A122.57,122.57,0,0,0,133,48a5.87,5.87,0,0,0-1.2-2,18.42,18.42,0,0,0,1.44-6.34c.1-3.18-2.57-5-5.29-5a5.39,5.39,0,0,0-3.82,1.53A46.59,46.59,0,0,0,117.8,44a22.74,22.74,0,0,0-2.12-3c0-.51,0-1,0-1.54-.09-9.4,3.68-12.37,1.09-21a6,6,0,0,0-5.81-3.91,5.35,5.35,0,0,0-4.45,2.14A73.39,73.39,0,0,0,94.1,44.55a17.4,17.4,0,0,0-1.28,2,4,4,0,0,0-.84-.09,4.42,4.42,0,0,0-3.85,2.44,133.13,133.13,0,0,1-.32-17.18c.48-10.4,7-21.45,5.36-31.62A.14.14,0,0,0,93.05,0Z"/>
      </g>
      <g id="feet-3" data-name="feet">
        <path class="cls-1" d="M301.2,184.86c-11.19-.55-20.67-5.94-29.84-11.15a131.13,131.13,0,0,0-15.26-7.8l-.12,0h-.13a25.5,25.5,0,0,1-3,.18,39.85,39.85,0,0,1-12.29-2.25c-5.42-1.75-8.56-7.31-7-12.4,1-3.12,2.87-5.59,4.88-8.2a18.33,18.33,0,0,0,1.88-3.1l0-.08,0-.08a201.55,201.55,0,0,1,4-20.06c2.31-9.86,4.7-20,4.82-30.47.25-22.51-12.34-48.21-21.83-65.59a1.63,1.63,0,0,1,0-1.66,2,2,0,0,1,1.67-1,1.53,1.53,0,0,1,1.19.57,121.06,121.06,0,0,1,17.45,26.51l.53,1.07.39-1.12a5.32,5.32,0,0,1,1.12-1.83l.21-.23-.12-.3a17.59,17.59,0,0,1-1.42-6.16,4.05,4.05,0,0,1,1.14-3,5.21,5.21,0,0,1,3.7-1.49,5,5,0,0,1,3.51,1.39A45.82,45.82,0,0,1,263,44.26l.43.67.42-.68a20.67,20.67,0,0,1,2.09-3l.12-.14s0-.62,0-.84,0-.59,0-.88A37.94,37.94,0,0,0,265,30.18c-.79-3.55-1.47-6.62,0-11.56.75-2.44,3.32-3.56,5.39-3.56a5,5,0,0,1,4.1,1.93,72.4,72.4,0,0,1,12.41,27.67l0,.1.06.09a15.66,15.66,0,0,1,1.26,1.95l.18.33.37-.08a3.65,3.65,0,0,1,.74-.08A4,4,0,0,1,293,49.15l.8,1.48L293.9,49a132.91,132.91,0,0,0,.33-17.24c-.21-4.48-1.55-9.13-2.84-13.62C289.74,12.37,288,6.46,288.7.94c33.73,35.65,9.84,96.64-14.58,129.1l-1,1.27,1.51-.5a104.57,104.57,0,0,1,33-5.44A106.78,106.78,0,0,1,330.94,128c11.72,2.61,23.12,7.27,34.13,11.78,1.92.79,3.83,1.57,5.75,2.34,8.07,3.26,11.38,7.43,11.08,13.94a6,6,0,0,1-3.62,4.72,24.93,24.93,0,0,1-10,2,38.27,38.27,0,0,1-13-2.55c-2.72-1-5.63-1.9-9.4-2.93l-2.05-.56,1.58,1.41a34.61,34.61,0,0,1,4.13,4.29,5.49,5.49,0,0,1,1.1,4.81,8.1,8.1,0,0,1-4.41,5.22,24.15,24.15,0,0,1-10.11,1.91c-7.23,0-15.29-2.08-21.75-3.74l-3.5-.89c-3.14-.77-6.45-1.52-10.12-2.29l-1.68-.36,2,2c1.3,1.28,2.63,2.58,4,3.89a8,8,0,0,1,1.54,8.32,5.27,5.27,0,0,1-5.08,3.53Z"/>
        <path d="M289.1,2.1c17.38,19.08,17.32,44.21,14.13,62.12-3.9,21.9-14.66,45.78-29.51,65.52l-1.92,2.54,3-1a103.85,103.85,0,0,1,32.85-5.42,106.47,106.47,0,0,1,23.15,2.62c11.68,2.6,23.05,7.25,34.05,11.75l5.75,2.34c7.84,3.17,11.06,7.2,10.77,13.46a5.47,5.47,0,0,1-3.32,4.28,24.32,24.32,0,0,1-9.84,2,37.76,37.76,0,0,1-12.85-2.52c-2.73-1-5.64-1.9-9.44-2.94l-4.1-1.13,3.17,2.84a35,35,0,0,1,4.07,4.22,5,5,0,0,1,1,4.39,7.62,7.62,0,0,1-4.13,4.88,23.67,23.67,0,0,1-9.9,1.86c-7.17,0-15.19-2.07-21.63-3.73l-3.5-.89c-3.16-.77-6.47-1.52-10.13-2.29l-3.36-.71,2.45,2.4.75.74c1.31,1.28,2.66,2.61,4.08,3.94a7.41,7.41,0,0,1,1.42,7.77,4.79,4.79,0,0,1-4.61,3.22h-.3c-11.08-.55-20.51-5.9-29.63-11.08a129.8,129.8,0,0,0-15.32-7.83l-.24-.1-.25,0a24.5,24.5,0,0,1-3,.18,39.46,39.46,0,0,1-12.14-2.22c-5.16-1.67-8.15-7-6.66-11.78.95-3,2.82-5.47,4.81-8l0-.06a19.83,19.83,0,0,0,1.89-3.12l.08-.16,0-.17a201.72,201.72,0,0,1,4-20c2.32-9.88,4.71-20.1,4.83-30.57.25-22.63-12.37-48.42-21.89-65.84a1.14,1.14,0,0,1,0-1.17,1.55,1.55,0,0,1,1.24-.75,1,1,0,0,1,.82.4,120.91,120.91,0,0,1,17.38,26.4l1.05,2.15.79-2.26a4.78,4.78,0,0,1,1-1.65l.42-.47-.23-.58a17.15,17.15,0,0,1-1.39-6,3.55,3.55,0,0,1,1-2.68,4.68,4.68,0,0,1,3.34-1.34,4.44,4.44,0,0,1,3.16,1.24,45.24,45.24,0,0,1,6.22,7.65l.87,1.35.82-1.38a21.09,21.09,0,0,1,2-2.88l.23-.27V41c0-.22,0-.44,0-.65s0-.6,0-.9a38.74,38.74,0,0,0-1.17-9.37c-.81-3.62-1.45-6.49,0-11.31.67-2.19,3-3.2,4.91-3.2a4.46,4.46,0,0,1,3.69,1.72A71.65,71.65,0,0,1,286.4,44.76l0,.21.13.17A17.64,17.64,0,0,1,287.79,47l.36.67.73-.16a2.73,2.73,0,0,1,.64-.07,3.48,3.48,0,0,1,3,1.91l1.6,3L294.4,49a133.83,133.83,0,0,0,.33-17.3c-.21-4.54-1.56-9.22-2.86-13.74-1.53-5.29-3.1-10.74-2.77-15.85M288.44,0a.12.12,0,0,0-.12.11c-1.66,10.17,4.92,21.22,5.41,31.62a131.36,131.36,0,0,1-.33,17.18,4.46,4.46,0,0,0-3.88-2.44,4,4,0,0,0-.85.09,16.34,16.34,0,0,0-1.3-2A73.07,73.07,0,0,0,274.88,16.7a5.43,5.43,0,0,0-4.5-2.14,6,6,0,0,0-5.86,3.91c-2.62,8.59,1.18,11.56,1.1,21,0,.52,0,1,0,1.54a22,22,0,0,0-2.14,3,46.61,46.61,0,0,0-6.36-7.82,5.45,5.45,0,0,0-3.86-1.53c-2.74,0-5.44,1.87-5.34,5A18.21,18.21,0,0,0,249.34,46a5.92,5.92,0,0,0-1.22,2A122.45,122.45,0,0,0,230.6,21.41a2.06,2.06,0,0,0-1.57-.74,2.37,2.37,0,0,0-2.14,3.4c10.26,18.77,22,43.53,21.77,65.35-.2,17.35-6.66,33.77-8.81,50.46a18.45,18.45,0,0,1-1.79,3c-2.05,2.66-4,5.18-5,8.41-1.7,5.5,1.8,11.26,7.31,13a40.57,40.57,0,0,0,12.44,2.27,27.15,27.15,0,0,0,3.11-.18c15.22,6.14,28,18.12,45.27,19h.35c6.54,0,7.86-8.93,3.88-12.71-1.68-1.59-3.26-3.15-4.82-4.67,3.34.7,6.7,1.45,10.1,2.29,7,1.73,16.71,4.64,25.37,4.64a24.43,24.43,0,0,0,10.32-2c3.95-1.83,6.6-6.9,3.49-10.8a36.82,36.82,0,0,0-4.19-4.34c3.13.86,6.25,1.78,9.37,2.92a38.94,38.94,0,0,0,13.19,2.58,25.37,25.37,0,0,0,10.25-2.08,6.45,6.45,0,0,0,3.91-5.16c.35-7.65-4.46-11.62-11.4-14.42-13.07-5.27-26.17-11.07-39.95-14.15a107.17,107.17,0,0,0-23.37-2.64,105.25,105.25,0,0,0-33.16,5.47C301.86,94,321.7,34.24,288.54,0a.14.14,0,0,0-.1,0Z"/>
      </g>
    </g>
  </g>
</svg>
