<svg xmlns="http://www.w3.org/2000/svg" viewBox="0 0 466.5 364.8">
  <defs>
    <style>
      #btn-arms1 .cls-1 {
        fill: #fff;
      }
    </style>
  </defs>
  <g id="btn-arms1">
    <g id="arms1-2" data-name="arms1">
      <g>
        <path class="cls-1" d="M65.64,364.3c-21.71,0-42.78-33.67-49.23-51.7C-16.44,220.82,1.66,129.68,67.36,56l.09-.11,0-.14c.27-1.58.62-3.46,1.1-5.36a23.28,23.28,0,0,0,.24-7.54c-.22-2.93-.42-5.7.56-8.34,3.68-9.93,6.72-13.81,14.8-18.85a3.85,3.85,0,0,1,2-.6A4,4,0,0,1,90,17.76c1.8,5.15,1.64,9.39-.5,13.34l-1.68,3.08,2.47-2.49A127.88,127.88,0,0,1,101,21.86c5.64-4.52,14.63-7.44,22.9-7.44A26.83,26.83,0,0,1,135.94,17c3.43,1.75,4.5,7.67,3.52,12.15-.42,1.89-1.83,6.31-6,6.48-.72,0-1.43.05-2.15.05-2.16,0-4.35-.12-6.47-.24s-4.19-.22-6.24-.22c-4,0-9.09.38-13.7,3.32l-3.14,2,3.56-1.1a21.18,21.18,0,0,1,5.5-1c2.64-.12,4.74-.18,6.61-.18,12.29,0,21.58,2.47,27,14.52.06.11.23.5.23.5l.14.3A4,4,0,0,1,145,54a.93.93,0,0,1,0,.13s0,.1.05.15a25.65,25.65,0,0,1,.91,2.53,5.84,5.84,0,0,1,.08,2.94l0,.06v.06c.07,3.91-1,7.32-2.73,9.12a5,5,0,0,1-3.64,1.53h0a9.19,9.19,0,0,1-3.92-1c-5.29-2.55-8.52-4.77-11.54-9.81-2.79-4.65-6.22-6.72-11.13-6.72a30.34,30.34,0,0,0-6,.74c-.87.21-3.75.91-6.28,1.76l-2.18.74,2.29.23a25.09,25.09,0,0,1,10.5,3.46c7.71,4.67,16.44,18.06,15.63,27-.54,6.13-5.14,12.73-11.61,12.73a10.54,10.54,0,0,1-5.57-1.7c-4-2.48-4.9-7.08-5.75-11.52s-1.73-9.14-5.84-11.6l-.32-.19-.27.25c-1.56,1.41-142.7,156.36-33.1,284.44-.9-.26-1.85-.59-3-1l-2.78-1.06,2.27,1.91c4.13,3.48,4.42,3.5,4.68,3.5h.39l.12-.38a.52.52,0,0,1,.53-.4.69.69,0,0,1,.68.48l.23.88a.78.78,0,0,1-.13.69,1,1,0,0,1-.75.4Z"/>
        <path d="M123.87,14.92a26.32,26.32,0,0,1,11.85,2.52c3.21,1.64,4.19,7.29,3.25,11.59-.39,1.78-1.71,5.94-5.54,6.09-.68,0-1.37.05-2.12.05-2.16,0-4.34-.12-6.45-.24s-4.21-.22-6.27-.22c-4,0-9.26.39-14,3.4l-6.28,4,7.11-2.21a20.83,20.83,0,0,1,5.38-.95c2.64-.12,4.73-.18,6.59-.18,12.09,0,21.24,2.42,26.59,14.27a2.1,2.1,0,0,1,.13.26l.08.17q.08.18.15.33c0,.11.11.22.17.36l0,.07a.85.85,0,0,0,.07.21,23.31,23.31,0,0,1,.88,2.46,5.2,5.2,0,0,1,.07,2.69l0,.12v.12c.06,3.78-.9,7-2.59,8.76A4.43,4.43,0,0,1,139.68,70a8.77,8.77,0,0,1-3.7-1c-5.2-2.51-8.38-4.69-11.34-9.62s-6.44-7-11.55-7a30.9,30.9,0,0,0-6.06.73h0l-.11,0,.12.58-.15-.57c-.83.19-3.73.9-6.28,1.76l-4.37,1.47,4.59.47a24.57,24.57,0,0,1,10.29,3.39c7.59,4.6,16.18,17.75,15.4,26.55-.53,5.9-4.93,12.27-11.12,12.27a10.07,10.07,0,0,1-5.31-1.62c-3.84-2.37-4.65-6.65-5.52-11.2s-1.77-9.35-6.07-11.93L97.85,74l-.55.5c-.68.62-10,10.83-21.89,27.88-10.6,15.23-25.59,39.39-36.77,68C19.24,219.92,7.85,292.61,63,358.25l-1.25-.46-5.55-2.14,4.54,3.83c4.29,3.62,4.56,3.62,5,3.62h.8l.2-.75,0,0c.07,0,.18,0,.19.1l.1.35.13.53a.3.3,0,0,1,0,.28.52.52,0,0,1-.38.19c-.39,0-.77,0-1.16,0-21.47,0-42.35-33.46-48.76-51.37A270.5,270.5,0,0,1,2.3,248.93,242.06,242.06,0,0,1,4.37,183.6c7.86-46.11,29.18-88.94,63.36-127.29l.19-.21,0-.28c.27-1.58.62-3.44,1.1-5.33a24,24,0,0,0,.25-7.7c-.21-2.87-.42-5.59.53-8.13,3.63-9.8,6.63-13.62,14.6-18.6a3.32,3.32,0,0,1,1.77-.52,3.52,3.52,0,0,1,3.3,2.39c1.75,5,1.6,9.11-.47,12.93L85.7,37l4.94-5a122.16,122.16,0,0,1,10.65-9.79c5.55-4.45,14.42-7.33,22.58-7.33m0-1c-8.42,0-17.43,2.92-23.21,7.55a127.72,127.72,0,0,0-10.73,9.87c2.37-4.38,2.26-8.81.53-13.74a4.51,4.51,0,0,0-4.24-3.06,4.28,4.28,0,0,0-2.3.67c-8.37,5.23-11.42,9.41-15,19.1-1.9,5.12.49,10.77-.81,15.93-.45,1.79-.8,3.6-1.12,5.41C-4.94,136.33-13.68,230,15.94,312.77c6.4,17.89,27.65,52,49.7,52,.4,0,.81,0,1.21,0a1.39,1.39,0,0,0,1.34-1.72c-.07-.29-.15-.59-.23-.88a1.17,1.17,0,0,0-1.16-.85,1,1,0,0,0-1,.77s0,0,0,0a30.23,30.23,0,0,1-4.35-3.38c1.1.42,2.22.82,3.37,1.14l.13,0c.32,0,.5-.36.24-.67C-43.76,232.36,94.9,78,98,75.2c7.93,4.75,3.25,18,11.58,23.12a11.07,11.07,0,0,0,5.84,1.77c6.4,0,11.51-6.43,12.11-13.18.84-9.31-8.14-22.81-15.87-27.49a25.45,25.45,0,0,0-10.71-3.53c2.84-1,6.19-1.74,6.22-1.75h0a30.21,30.21,0,0,1,6-.73c4.33,0,7.78,1.61,10.7,6.47,3.1,5.18,6.42,7.44,11.75,10A9.71,9.71,0,0,0,139.68,71c5,0,7-5.79,6.87-11.16a6.18,6.18,0,0,0-.08-3.19,24.94,24.94,0,0,0-.92-2.56,2.64,2.64,0,0,0-.1-.3c-.1-.24-.21-.45-.32-.69s-.14-.33-.22-.49c-5.64-12.45-15.43-14.81-27.49-14.81-2.14,0-4.36.07-6.63.18a22.31,22.31,0,0,0-5.63,1c4.12-2.63,8.66-3.24,13.43-3.24,4.12,0,8.4.46,12.72.46.72,0,1.44,0,2.16-.05,8.2-.33,8.94-16.39,2.7-19.57a27.17,27.17,0,0,0-12.3-2.63Z"/>
      </g>
      <g>
        <path class="cls-1" d="M385,350.39c-.5,0-1,0-1.49,0a1.43,1.43,0,0,1-1.12-.53.56.56,0,0,1-.08-.53l.29-.88a1,1,0,0,1,1-.51c.15,0,.65,0,.78.43l.12.34.39,0c.24,0,.57,0,5.69-3.47l2.78-1.89-3.21,1c-1.46.45-2.7.79-3.87,1.06,36.75-34.62,54-74.5,51.3-118.54-2.83-46-27.24-88.16-47.22-115.47C368.83,81.94,347,62.19,345.21,60.88L345,60.7l-.27.13c-5.08,2.45-6.17,7.1-7.23,11.6s-2.13,9-7.14,11.52a15.6,15.6,0,0,1-7,1.73,14.84,14.84,0,0,1-14.54-12.75c-1-9,9.84-22.31,19.42-27a36.69,36.69,0,0,1,13.11-3.49l2.83-.23-2.74-.75c-2.8-.76-6-1.41-7.65-1.72l-.1,0,.39.54-.5.45.09-1a46,46,0,0,0-7.47-.74c-6,0-10.24,2.06-13.67,6.67-3.76,5.06-7.79,7.28-14.36,9.84a13.89,13.89,0,0,1-5,1.06A7,7,0,0,1,288,54.48c-1.86-1.9-2.89-5-2.82-8.57v-.07l0-.08a4.57,4.57,0,0,1,.09-2.88,22.59,22.59,0,0,1,1.11-2.51,1,1,0,0,0,.1-.23c.09-.18.16-.29.23-.41l.19-.32.07-.14c.07-.11.13-.22.19-.33,6.8-12.1,18.39-14.58,33.7-14.58,2.32,0,4.92.06,8.2.18a32.52,32.52,0,0,1,6.89,1l4.16,1-3.81-2c-5.68-2.93-12-3.3-16.9-3.3-2.54,0-5.18.11-7.73.22s-5.36.24-8.05.24c-.89,0-1.78,0-2.67-.05-4.78-.15-7.16-4-7.8-7.54-.75-4.14.62-9.42,4.62-11.07A40.54,40.54,0,0,1,312.79.5C323.1.5,334.29,3.43,341.31,8a154,154,0,0,1,13.28,9.83l2.6,2.12-1.87-2.78c-2.64-3.93-2.84-8.15-.62-13.26a5.13,5.13,0,0,1,4.8-2.75,5.83,5.83,0,0,1,2.64.62c10,5,13.82,8.92,18.4,18.86,1.2,2.62.95,5.38.68,8.29a19,19,0,0,0,.3,7.58c.53,1.68.93,3.35,1.37,5.36l0,.15.12.11c42.5,38.42,69,81.32,78.77,127.52,8.94,42.26,3.71,85.67-15.55,129C438.26,316.69,412.07,350.38,385,350.39Z"/>
        <path d="M312.79,1C323,1,334.09,3.9,341,8.39a154.69,154.69,0,0,1,13.24,9.8l5.19,4.23-3.73-5.56C353.16,13,353,9.09,355.16,4.08a4.63,4.63,0,0,1,4.34-2.45,5.41,5.41,0,0,1,2.42.56c9.91,5,13.65,8.82,18.16,18.63,1.15,2.5.9,5.19.64,8a19.48,19.48,0,0,0,.32,7.78c.52,1.66.92,3.33,1.36,5.31l.07.32.24.21c42.42,38.35,68.87,81.16,78.61,127.25A195.54,195.54,0,0,1,463.89,235a227.39,227.39,0,0,1-18.08,63.46c-8,17.94-34,51.45-60.77,51.45-.49,0-1,0-1.46,0a1,1,0,0,1-.74-.31.08.08,0,0,1,0-.1l.06-.18c.07-.23.14-.46.22-.7a.71.71,0,0,1,.49-.16c.18,0,.3.05.31.09l.27.7h.71c.41,0,.73,0,6-3.56l5.56-3.77-6.42,2-2,.59c35.91-34.42,52.75-74,50.07-117.63-2.84-46.07-27.3-88.36-47.32-115.73-21.57-29.49-43.45-49.29-45.25-50.61l-.49-.35-.54.26c-5.29,2.56-6.41,7.33-7.5,11.94s-2.07,8.8-6.87,11.19a15.32,15.32,0,0,1-6.79,1.67,14.34,14.34,0,0,1-14.05-12.3C308.3,64.12,319,51,328.42,46.4A36.1,36.1,0,0,1,341.35,43l5.65-.47L341.53,41c-2.82-.77-6-1.42-7.68-1.74h-.1l-.19.9.15-.91a45.82,45.82,0,0,0-7.55-.75c-6.2,0-10.53,2.12-14.07,6.87-3.69,5-7.66,7.15-14.15,9.68a13.27,13.27,0,0,1-4.77,1,6.52,6.52,0,0,1-4.85-1.93c-1.77-1.8-2.75-4.8-2.68-8.21v-.15l0-.14a4.17,4.17,0,0,1,.07-2.57,22.64,22.64,0,0,1,1.08-2.42,3.09,3.09,0,0,0,.14-.32v0l.17-.28.2-.34.09-.16.19-.34c6.67-11.87,18.11-14.3,33.24-14.3,2.32,0,4.92.06,8.19.18a32.78,32.78,0,0,1,6.79,1l8.33,2.07-7.64-3.93c-5.77-3-12.18-3.35-17.12-3.35-2.55,0-5.19.11-7.75.22s-5.35.24-8,.24c-.94,0-1.8,0-2.65-.05-5.64-.18-7-5.5-7.33-7.13-.71-4,.56-9,4.32-10.51A39.76,39.76,0,0,1,312.79,1m0-1a40.93,40.93,0,0,0-15.27,2.63c-7.74,3.18-6.81,19.24,3.35,19.57.9,0,1.79.05,2.69.05,5.35,0,10.67-.46,15.78-.46,5.91,0,11.56.61,16.67,3.24a34,34,0,0,0-7-1c-2.82-.1-5.57-.18-8.23-.18-15,0-27.12,2.36-34.11,14.81-.1.16-.19.33-.28.5s-.27.44-.4.69c0,.09-.07.19-.12.29a22.63,22.63,0,0,0-1.14,2.56,5.06,5.06,0,0,0-.1,3.19c-.11,5.38,2.33,11.16,8.53,11.16A14.18,14.18,0,0,0,298.31,56c6.61-2.57,10.73-4.83,14.58-10,3.62-4.86,7.9-6.47,13.27-6.47a45.27,45.27,0,0,1,7.39.74h0s4.18.77,7.73,1.74A37.07,37.07,0,0,0,328,45.5c-9.61,4.68-20.74,18.19-19.7,27.49a15.39,15.39,0,0,0,15,13.19,16.23,16.23,0,0,0,7.23-1.78c10.33-5.13,4.53-18.36,14.37-23.12,3.82,2.79,175.87,157.16,40.73,284-.32.29-.09.66.31.66a.39.39,0,0,0,.15,0c1.42-.32,2.82-.71,4.19-1.13a39.69,39.69,0,0,1-5.41,3.38s0,0,0,0a1.25,1.25,0,0,0-1.26-.77,1.47,1.47,0,0,0-1.44.85c-.1.29-.19.59-.28.88-.3.9.57,1.67,1.65,1.72.51,0,1,0,1.51,0,27.36,0,53.74-34.15,61.68-52,36.75-82.75,25.91-176.43-63.34-257.12-.4-1.81-.82-3.62-1.39-5.4-1.61-5.17,1.35-10.82-1-15.93-4.46-9.69-8.25-13.88-18.62-19.1A6.39,6.39,0,0,0,359.5.63a5.66,5.66,0,0,0-5.26,3.05c-2.14,4.93-2.27,9.36.67,13.74a154.56,154.56,0,0,0-13.33-9.87C334.42,2.92,323.24,0,312.79,0Z"/>
      </g>
    </g>
  </g>
</svg>
