<svg xmlns="http://www.w3.org/2000/svg" xmlns:xlink="http://www.w3.org/1999/xlink" viewBox="0 0 497.52 521">
  <defs>
    <style>
      #btn-body1 .cls-1 {
        fill: #fff;
      }

      #btn-body1 .cls-2 {
        fill: #fff;
      }

      

    </style>
  </defs>
  <g id="Layer_2" data-name="Layer 2">
    <g id="btn-body1">
      <g id="body1-2" data-name="body1">
        <g id="body">
          <path class="cls-1" d="M289,510.43c1.28-21.81-4.95-36.66-18.51-44.14l-.84-.46.1.94c.28,2.86-2.33,6.7-5.08,10.76s-5.68,8.37-5.88,12.13c-11.93-17-14.64-30.33-15.77-42.23v-.14l-.08-.1a.65.65,0,0,0-.55-.32c-.77,0-.92.91-1.31,5.14a42.37,42.37,0,0,1-.56,4.52l-.07-.08-.24.3a23.67,23.67,0,0,1-1.69-4.36c-1.13-3.48-1.6-4.7-2.41-4.7a.74.74,0,0,0-.64.4l-.07.1v.11c-1.07,9.62-4.05,23.17-12.16,33.14l-.06.08,0,.1c-.81,3-1.52,5.55-2.25,8-.36-1.32-.74-2.55-1.05-3.55l-.23-.73-.58.5-.34.31a74.54,74.54,0,0,0-10.56-17.6l-.31-.38-.39.3c-10.32,8-15,22.12-14,41.92-13.33-15.92-35-54.32-28.2-77l.25-.85-.85.22c-7.06,1.78-12.41,5.82-15.48,11.68s-3.51,13.1-1.22,20.44c-12.17-12.1-19.71-29.57-25-43.61l-.36-1-.53.89c-4.1,6.88-9.27,25.51-4,35.31-23.45-19.27-46.58-50.11-39.33-78.19l1.18-4.54L77.78,378c-6.49,13-6.44,27.36-6.39,41.3,0,4.52,0,9.18-.18,13.74-17.64-28.44-22.37-62.5-13.32-96.11l.25-.92-.89.32c-12.66,4.42-13.58,28.62-14.39,50-.06,1.62-.12,3.21-.19,4.78-.78-2.15-1.64-4.42-2.53-6.78C32.42,363.88,21.85,336,31.9,307.75l-.92-.37a57.31,57.31,0,0,1-4.27,7.25c-.62.94-1.21,1.84-1.71,2.66C23.91,297.94,23.33,281.1,35.47,264c3.73-5.26,8.84-9.32,13.78-13.25,6.51-5.17,12.66-10.06,15.82-17.42l.32-.75-.81.05c-34,2.07-53.85,30.57-63.21,49.07,6.55-66,28.7-94,89.9-114.74l1.83-.62L91.2,166a194.37,194.37,0,0,0-34.77-3.63c-1.27,0-2.53,0-3.77.05,25.06-22,56.7-22.52,87.31-23,6.78-.11,13.79-.23,20.63-.57l.58,0-.12-.57c-4.45-21.33-37.6-30.09-61.81-36.49-6.77-1.79-13.18-3.48-18-5.21,9.53-8.39,22.5-9.67,35.06-10.91,3.6-.36,7.32-.72,10.84-1.26l.79-.12-.45-.65c-4.75-6.93-11.89-11.35-18.78-15.61-5.09-3.15-9.91-6.13-13.72-10A114.19,114.19,0,0,1,107,57.24c13.21,0,24.17,2.62,33.51,8l1,.57-.25-1.12c-3.59-15.86-13.54-34.76-26.74-50.85,30,8.63,66.48,40.95,72,74.8l.22,1.4.71-1.23c14.16-24.89,35.2-39.17,57.7-39.17,19.85,0,38.5,11,52.52,30.95l.57.82.31-1c10.47-31.8,47.12-59,75.82-66.63-14.26,16.08-25,35-28.91,50.86l-.27,1.08,1-.52c10.11-5.4,22-8,36.28-8,4.11,0,8.51.23,13.08.67-4.13,3.86-9.33,6.84-14.83,10-7.45,4.27-15.16,8.68-20.3,15.6l-.5.68.83.11c3.81.54,7.83.9,11.72,1.26,13.58,1.24,27.62,2.52,37.93,10.91-5.25,1.72-12.18,3.42-19.5,5.21-26.17,6.39-62,15.15-66.83,36.48l-.13.58.6,0c7.39.34,15,.46,22.3.57,33.12.52,67.34,1,94.45,23-1.34,0-2.72-.06-4.1-.06A225.59,225.59,0,0,0,399.56,166l-2.06.35,2,.62c66.26,20.73,90.2,48.82,97.27,114.91-10.08-18.48-31.55-47.16-68.43-49.24l-.83-.05.35.76c3.26,7,10,9.89,17.08,12.91,6.1,2.6,12.41,5.28,16.68,10.85,13,17,14.57,43.88,13.48,64-.87-1.2-2.17-2.77-3.61-4.51-2.71-3.28-5.78-7-6.85-9.21l-.93.35.23.9c6.74,25.8,11.63,44.54-4.61,81.13-4.11-15.67-14.95-41.05-22.81-53.25l-1.86-2.89,1,3.3c9.8,33.64,4.65,67.75-14.48,96.21-.23-4.6-.21-9.3-.2-13.85C421,405.31,421,390.9,414,378l-2.12-3.9,1.19,4.27c7.85,28.12-17.25,59-42.65,78.26,5.75-9.79.13-28.51-4.31-35.4l-.52-.81-.36.89c-5.69,14.08-13.88,31.62-27.11,43.72,2.4-7.06,2.09-14-.9-19.83-3.19-6.16-9.26-10.56-17.1-12.38l-.86-.2.27.84C326.9,456.08,303.37,494.58,289,510.43Z"/>
          <path d="M372.86,14.77c-13.77,15.86-24.12,34.28-27.92,49.81l-.53,2.17,2-1c10-5.36,21.83-8,36.05-8,3.76,0,7.75.19,11.9.57-3.94,3.46-8.79,6.23-13.89,9.15-7.51,4.3-15.26,8.74-20.46,15.74l-1,1.36,1.67.23c3.82.53,7.85.9,11.74,1.26,13.19,1.2,26.81,2.44,36.94,10.22-5.12,1.62-11.68,3.22-18.58,4.91-26.3,6.43-62.31,15.23-67.2,36.86l-.26,1.16,1.19.06c7.41.34,15,.46,22.33.58,32.55.5,66.18,1,93,22-.87,0-1.75,0-2.63,0a226.79,226.79,0,0,0-37.68,3.64l-4.1.69,4,1.25c34.33,10.74,56.05,23.08,70.45,40,14.24,16.78,22.4,39.11,26.19,72-10.58-18.57-31.92-45.32-67.62-47.33l-1.67-.09.71,1.51c3.34,7.22,10.14,10.11,17.33,13.16,6,2.57,12.29,5.23,16.48,10.7,12.62,16.48,14.39,42.43,13.45,62.32-.79-1-1.76-2.18-2.8-3.44-2.69-3.26-5.74-6.95-6.78-9.11l-1.86.69.23.9c6.63,25.4,11.46,43.93-4,79.51-4.37-15.78-14.84-40.13-22.5-52l-3.72-5.78,1.92,6.6c9.61,33,4.78,66.44-13.57,94.51-.16-4.09-.14-8.25-.13-12.29.06-14,.11-28.49-7-41.55l-4.22-7.79,2.38,8.53c7.61,27.27-16.12,57.22-40.81,76.46,4.21-10.35-1-27.45-5.25-34l-1-1.62-.72,1.79c-5.48,13.53-13.26,30.27-25.61,42.24a25.14,25.14,0,0,0-1.5-18.4c-3.25-6.29-9.44-10.78-17.43-12.64l-1.72-.4.54,1.68c4.05,12.49-1.79,29.31-7.4,41.21A156.18,156.18,0,0,1,289.54,509c.93-21.25-5.4-35.77-18.85-43.19l-1.67-.92.19,1.89c.26,2.68-2.41,6.62-5,10.43s-5.1,7.52-5.79,11.05c-11.23-16.37-13.85-29.33-14.94-40.92l0-.27-.15-.21a1.18,1.18,0,0,0-1-.53c-1.3,0-1.41,1.3-1.81,5.59-.1,1.13-.24,2.64-.39,3.66-.4-.94-.87-2.39-1.19-3.38-1.22-3.75-1.71-5.05-2.89-5.05a1.27,1.27,0,0,0-1.07.63l-.12.2,0,.22c-1.07,9.56-4,23-12,32.88l-.14.17,0,.2c-.54,2-1.13,4.13-1.76,6.31-.21-.7-.41-1.34-.59-1.92l-.45-1.46-1,.85a75.38,75.38,0,0,0-10.36-17.07l-.61-.77-.78.6c-10.2,7.92-15,21.65-14.24,40.84a157.42,157.42,0,0,1-20.3-34.07c-5.2-11.92-10.6-28.75-6.85-41.26l.5-1.69-1.71.43a24,24,0,0,0-15.79,11.94c-2.89,5.52-3.49,12.12-1.79,18.91-11.31-11.95-18.45-28.57-23.48-42l-.73-2-1.06,1.79c-3.88,6.52-8.69,23.48-4.89,33.83C94,435.53,72.17,405.65,79.2,378.44l2.34-9.09-4.21,8.39c-6.54,13.05-6.49,27.52-6.44,41.52,0,4,0,8.05-.11,12.07-16.86-28-21.27-61.39-12.4-94.31l.49-1.83-1.79.62c-13,4.54-13.9,28.92-14.72,50.44l-.09,2.27c-.53-1.43-1.09-2.91-1.66-4.42-7.69-20.32-18.23-48.15-8.23-76.19l-1.86-.74a55.75,55.75,0,0,1-4.23,7.18l-.88,1.35c-1-18.6-1.25-34.91,10.47-51.45C39.56,259,44.65,255,49.56,251.1c6.56-5.21,12.76-10.14,16-17.62l.64-1.49-1.62.1c-32.85,2-52.55,28.43-62.41,47,3.52-32.7,11.06-54.95,24.19-71.68,13.3-16.95,33.38-29.29,65.1-40l3.65-1.24-3.79-.69a194.47,194.47,0,0,0-34.86-3.64c-.8,0-1.6,0-2.38,0,10.82-9.18,23.74-15.21,39.4-18.42,15-3.06,31-3.32,46.53-3.58,6.78-.12,13.8-.24,20.64-.58l1.17-.06-.24-1.15c-4.51-21.63-37.84-30.43-62.17-36.86C93,99.5,86.93,97.9,82.21,96.28c9.34-7.79,21.93-9,34.12-10.23,3.61-.36,7.33-.73,10.86-1.26l1.58-.24-.9-1.32c-4.81-7-12-11.45-18.93-15.75-4.73-2.93-9.22-5.71-12.87-9.18,3.82-.37,7.5-.56,11-.56,13.12,0,24,2.6,33.26,7.94l2,1.14-.5-2.23C138.26,49.07,128.69,30.66,116,14.8c29.56,9.22,64.7,40.85,70,73.93l.46,2.8,1.4-2.47c14.08-24.72,35-38.91,57.27-38.91,19.68,0,38.19,10.92,52.11,30.74l1.15,1.63.62-1.89c10.22-31,45.54-57.71,73.86-65.86M375.81,13c-30,7.29-67.27,35.5-77.76,67.37-13.52-19.25-32.24-31.17-52.93-31.17-23.5,0-44.46,15.38-58.14,39.42C181.3,53.43,143.29,20.86,113.14,13c11.8,14.08,23.55,33.71,27.65,51.86-10.3-5.94-21.92-8.07-33.76-8.07a116,116,0,0,0-13.14.79c9.1,9.79,24.83,14.14,33.16,26.27-15.89,2.4-34.33,1.29-46.78,12.85,21.62,8,74.61,14.33,80.3,41.61-38.26,1.94-78.41-3.37-109.28,24.66,1.7-.07,3.42-.1,5.14-.1a195.24,195.24,0,0,1,34.68,3.62C30.52,187,7,214.24.61,284.32c12.12-25.23,32.85-49.33,64-51.23-5.55,12.94-21,18.5-29.55,30.58C22.66,281.17,23.42,298.25,24.6,319c1.4-2.71,5.08-7.5,6.83-11.42-11.72,32.88,4.35,65.2,11.63,86.05,1-22.26.54-52.05,14.35-56.87-9,33.49-4.64,68.3,14.22,97.84,1.1-19-2.18-38.9,6.6-56.41-8,31.05,20.44,64.14,43.25,81.69-9.45-7.28-3.8-30.36,1-38.43,5.88,15.74,13.74,33.31,26.58,45.23-5.72-15.18.54-29.61,15.67-33.43C157.86,456.16,180.22,496,194,511.81c-1.08-16.13,1.35-33.4,13.69-43A74.18,74.18,0,0,1,218.45,487c.3-.24.57-.51.86-.77.54,1.72,1.05,3.45,1.49,5.23,1-3.09,1.87-6.34,2.77-9.66,7.38-9.06,11-21.67,12.27-33.39.07-.12.14-.17.22-.17,1.06,0,2.92,9.16,4.12,9.16a.34.34,0,0,0,.24-.14.22.22,0,0,0,.15.09c.92,0,1-9.93,1.77-9.93,0,0,.09,0,.14.11,1.32,13.93,4.8,27.23,16.91,43.93-1.64-7.44,11.45-18.16,10.81-24.69,16.26,9,19.43,27.69,18.17,45.09,14.9-15.79,39.08-55.65,31.66-78.56,16.36,3.82,23.13,18.25,16.94,33.43,13.89-11.92,22.38-29.49,28.74-45.23,5.2,8.07,11.31,31.15,1.09,38.43,24.67-17.55,55.44-50.64,46.78-81.69,9.49,17.51,5.94,37.4,7.13,56.41,20.4-29.54,25.13-64.35,15.38-97.84,8,12.41,19.31,39,23.1,54.5,17.21-38.06,11.81-57.54,5-83.68,1.89,3.92,9.81,12.31,11.32,15,1.28-20.76-.09-48.34-13.49-65.84-9.27-12.09-27.71-10.73-33.71-23.67,33.69,1.9,56.11,26,69.22,51.23-6.95-70.08-32.35-97.37-97.88-117.88a227.91,227.91,0,0,1,37.51-3.62c1.86,0,3.71,0,5.56.1-33.39-28-76.81-22.72-118.19-24.66C330.68,111,388,104.64,411.37,96.65,397.9,85.09,378,86.2,360.78,83.8c9-12.13,26-16.48,35.85-26.27a135.14,135.14,0,0,0-14.2-.79c-12.81,0-25.38,2.13-36.52,8.07C350.35,46.66,363.05,27,375.81,13Z"/>
        </g>
        <g class="shadow">
          <g>
            <path class="cls-1" d="M122.69,24.79c-2.66-3.89-5.39-7.56-8.15-10.93a82.11,82.11,0,0,1,9.66,3.5,37.63,37.63,0,0,1,6.23,6.52C127.78,24.26,125.07,24.55,122.69,24.79Z"/>
            <path d="M116,14.8a84.39,84.39,0,0,1,8,3,37.81,37.81,0,0,1,5.59,5.72c-2.25.3-4.53.54-6.59.75-2.28-3.33-4.62-6.5-7-9.46M113.14,13a154,154,0,0,1,9.3,12.37c3-.3,6-.62,8.87-1.06a36.46,36.46,0,0,0-6.85-7.33,80.34,80.34,0,0,0-11.32-4Z"/>
          </g>
          <g>
            <path class="cls-1" d="M364.33,79.06c-4.36-.11-8.81-.18-13.12-.25-7.16-.12-14.57-.23-21.8-.56,1.88-7.33,7.65-13.6,17.62-19.12-.63,1.92-1.17,3.79-1.6,5.57l-.27,1.08,1-.52c10.11-5.4,22-8,36.28-8,4.11,0,8.51.23,13.08.67-4.13,3.86-9.33,6.84-14.83,10C375,71.17,369.07,74.54,364.33,79.06Z"/>
            <path d="M382.43,57.74c3.76,0,7.75.19,11.9.57-3.94,3.46-8.79,6.23-13.89,9.15-5.68,3.25-11.54,6.61-16.3,11.1-4.3-.11-8.67-.18-12.91-.25-7-.11-14.14-.23-21.17-.53,1.92-6.67,7.21-12.44,16.1-17.58-.47,1.5-.87,3-1.22,4.38l-.53,2.17,2-1c10-5.36,21.83-8,36.05-8m0-1c-12.81,0-25.38,2.13-36.52,8.07q.82-3.33,2-6.72c-9.8,5.21-17.13,11.82-19.12,20.63,11.84.56,23.84.53,35.74.85,9.41-9.07,23.5-13.48,32.1-22a135.14,135.14,0,0,0-14.2-.79Z"/>
          </g>
          <g>
            <path class="cls-1" d="M366,23.88c.55-.7,1.14-1.38,1.77-2.05-.54.7-1.07,1.39-1.58,2.07Z"/>
            <path d="M372.17,17.17a37.64,37.64,0,0,0-7.12,7.09l1.34.17c1.89-2.53,3.83-4.93,5.78-7.26Z"/>
          </g>
          <g>
            <path class="cls-1" d="M468.53,248.35l.18.14c-.08-.14-.2-.32-.26-.45C468.48,248.14,468.5,248.24,468.53,248.35Z"/>
            <path d="M468.45,248c0,.1.05.2.08.31l.18.14c-.08-.14-.2-.32-.26-.45Z"/>
          </g>
          <g>
            <path class="cls-1" d="M124.05,79.37c-4.43-4.66-10-8.11-15.38-11.45-5.08-3.16-9.9-6.14-13.71-10A116.92,116.92,0,0,1,107,57.24c13.21,0,24.17,2.62,33.51,8l1,.57-.25-1.12a85.32,85.32,0,0,0-3.21-10.56c15.32,6.61,23.89,14.51,26.15,24.11-6.63.32-13.41.44-20,.56S130.74,79,124.05,79.37Z"/>
            <path d="M138.94,55.06c14.18,6.31,22.27,13.77,24.65,22.72-6.43.3-13,.42-19.36.53-6.57.11-13.35.23-20,.55-4.45-4.62-10-8-15.32-11.37-4.72-2.93-9.21-5.72-12.86-9.19,3.82-.37,7.5-.56,11-.56,13.12,0,24,2.6,33.26,7.94l2,1.14-.5-2.23a85.84,85.84,0,0,0-2.83-9.53m-1.75-1.84a86,86,0,0,1,3.6,11.59c-10.3-5.94-21.92-8.07-33.76-8.07a116,116,0,0,0-13.14.79c8,8.66,21.24,13.07,30,22.35,13.58-.68,27.41-.47,41-1.16C162.37,66.9,151,59,137.19,53.22Z"/>
          </g>
          <g>
            <path class="cls-1" d="M1.37,281.65c2.92-29.25,9-50.47,19-66.63s24.76-28.35,46.29-38.39c-3.32,5.41-8.43,9.47-13.81,13.75-5,4-10.16,8.08-14,13.46-9.76,13.78-11.51,27.38-11.11,43.52C17.66,255.62,8.55,267.43,1.37,281.65Z"/>
            <path d="M65.3,177.84c-3.27,4.63-7.88,8.3-12.73,12.15-5,4-10.21,8.13-14.06,13.56-9.79,13.82-11.59,27.44-11.2,43.58-9.57,7.84-18.2,18.8-25.17,31.95,3-27.82,9-48.19,18.7-63.8s23.9-27.58,44.46-37.44m2.61-2.32C24.33,195.39,6.14,224,.61,284.32c6.59-13.71,15.75-27.06,27.71-36.72-.41-15.63,1.05-29.41,11-43.47,8.11-11.45,22.39-17,28.58-28.61Z"/>
          </g>
          <g>
            <path class="cls-1" d="M475.09,321.08c-.86-1.18-2.14-2.72-3.55-4.43l-1.14-1.4a104.07,104.07,0,0,0,4.34-18.77A168.69,168.69,0,0,1,475.09,321.08Z"/>
            <path d="M474.57,300.83a173.59,173.59,0,0,1,.09,18.86c-.78-1-1.72-2.14-2.74-3.37l-1-1.17a110.42,110.42,0,0,0,3.61-14.32m.15-9.1a99.07,99.07,0,0,1-4.88,23.63,80.41,80.41,0,0,1,5.66,7.24,165,165,0,0,0-.78-30.87Z"/>
          </g>
          <g>
            <path class="cls-1" d="M496.76,281.83a117.93,117.93,0,0,0-16.27-23.11c.71-17.63-1-32.66-5.06-44.74C486.88,230.46,493.53,251.66,496.76,281.83Z"/>
            <path d="M476.94,217.15c9.93,15.52,15.93,35.19,19,62.26a117,117,0,0,0-15-20.87c.62-16-.74-29.91-4.06-41.39m-3.21-6.36c5.87,15,6.87,32.94,6.25,48.12a118.86,118.86,0,0,1,17.54,25.41c-3.23-32.54-10.44-55.84-23.79-73.53Z"/>
          </g>
          <g>
            <path class="cls-1" d="M289,510.43c1.28-21.81-4.95-36.66-18.51-44.14l-.84-.46.1.94c.28,2.86-2.33,6.7-5.08,10.76s-5.68,8.37-5.88,12.13c-11.93-17-14.64-30.33-15.77-42.23v-.14l-.08-.1a.65.65,0,0,0-.55-.32c-.77,0-.92.91-1.31,5.14a42.37,42.37,0,0,1-.56,4.52l-.07-.08-.24.3a23.67,23.67,0,0,1-1.69-4.36c-1.13-3.48-1.6-4.7-2.41-4.7a.74.74,0,0,0-.64.4l-.07.1v.11c-1.07,9.62-4.05,23.17-12.16,33.14l-.06.08,0,.1c-.81,3-1.52,5.55-2.25,8-.36-1.32-.74-2.55-1.05-3.55l-.23-.73-.58.5-.34.31a74.54,74.54,0,0,0-10.56-17.6l-.31-.38-.39.3c-10.32,8-15,22.12-14,41.92-13.33-15.92-35-54.32-28.2-77l.25-.85-.85.22c-7.06,1.78-12.41,5.82-15.48,11.68s-3.51,13.1-1.22,20.44c-12.17-12.1-19.71-29.57-25-43.61l-.36-1-.54.89c-4.09,6.88-9.26,25.51-4,35.31-23.45-19.27-46.58-50.11-39.33-78.19l1.18-4.54L77.78,378c-6.49,13-6.44,27.36-6.39,41.3,0,4.52,0,9.18-.18,13.74-17.64-28.44-22.37-62.5-13.32-96.11l.25-.92-.89.32c-12.66,4.42-13.58,28.62-14.39,50-.06,1.61-.12,3.21-.19,4.78-.78-2.15-1.64-4.42-2.53-6.78C32.42,363.88,21.85,336,31.9,307.75l-.92-.37a57.31,57.31,0,0,1-4.27,7.25c-.62.94-1.21,1.84-1.71,2.66-.9-16.1-1.48-31.37,6.12-46.15-.4,20.19,6.68,38.92,12.4,54.07,1.21,3.2,2.35,6.23,3.33,9l.86,2.44.12-2.58c.11-2.37.2-4.83.3-7.34.77-20.49,1.65-43.66,12.81-48.72-8.92,34.1-3.77,68.61,14.53,97.29l.83,1.3.09-1.54c.3-5.09.28-10.33.26-15.39,0-12.33-.08-25,4.45-36.7-4.24,28.8,20.69,59.53,44.34,77.73l.61-.79c-8.79-6.77-4.06-28.08.61-36.86,5.48,14.53,13.42,32.43,26.32,44.42l1.56,1.44-.75-2c-2.91-7.73-2.74-15.4.49-21.59a22,22,0,0,1,14-10.94c-6.26,23.65,16.44,63.05,29.62,78.17l1,1.11-.1-1.47c-1.33-20,3.09-34.19,13.12-42.25a72.83,72.83,0,0,1,10.37,17.62l.26.63.52-.44a3.73,3.73,0,0,0,.3-.26c.4,1.28.85,2.83,1.25,4.45l.43,1.73.53-1.7c1-3.21,2-6.62,2.75-9.57,8-9.88,11.07-23.15,12.23-32.82.38.82.9,2.4,1.27,3.54,1.22,3.73,1.76,5.14,2.66,5.14a.64.64,0,0,0,.28-.06h.11c.84,0,1-1.15,1.45-5.69.06-.68.14-1.46.21-2.17,1.34,11.78,4.63,25.05,16.75,41.76l1.41,1.95-.52-2.35c-.83-3.76,2.43-8.56,5.58-13.21,2.6-3.82,5.06-7.46,5.26-10.5,12.95,7.58,18.73,22.44,17.16,44.18l-.1,1.4,1-1c14.26-15.11,38.81-54.52,32-78.2,7.13,1.87,12.65,6,15.58,11.66,3.13,6.05,3.19,13.46.17,20.88l-.78,1.92,1.57-1.35c14-12,22.57-29.95,28.5-44.5,5.06,8.71,10.24,30.13.71,36.91l.58.82c25.66-18.26,52.72-49.14,47.9-78,5,11.73,5,24.56,4.94,37,0,5.06,0,10.3.28,15.39l.09,1.44.82-1.19A116.35,116.35,0,0,0,438.64,350a111.25,111.25,0,0,1-17.51,83.13c-.23-4.6-.21-9.3-.2-13.85C421,405.31,421,390.9,414,378l-2.12-3.9,1.19,4.27c7.85,28.12-17.25,59-42.65,78.26,5.75-9.79.13-28.51-4.31-35.4l-.52-.81-.36.89c-5.69,14.08-13.88,31.62-27.11,43.72,2.4-7.06,2.09-14-.91-19.83-3.18-6.16-9.25-10.56-17.09-12.38l-.86-.2.27.84C326.9,456.08,303.37,494.58,289,510.43Z"/>
            <path d="M30.6,273.33c.13,19.44,6.92,37.41,12.45,52.06,1.21,3.2,2.35,6.22,3.33,9l1.71,4.88.24-5.16c.11-2.37.2-4.83.3-7.34.74-19.73,1.59-42,11.55-47.78a125.59,125.59,0,0,0-1.53,56.26l-1.57.54c-13,4.54-13.9,28.92-14.72,50.44l-.09,2.27c-.53-1.43-1.09-2.91-1.66-4.42-7.69-20.32-18.23-48.15-8.24-76.19l-1.85-.74a55.75,55.75,0,0,1-4.23,7.18l-.88,1.35c-.8-14.74-1.11-28.79,5.19-42.37m389.62,53.31c3.56,10.6,3.52,22,3.48,33.07,0,5.07,0,10.31.28,15.42l.18,2.88,1.64-2.37a116.68,116.68,0,0,0,12.65-23.77,110.56,110.56,0,0,1-16.89,79.68c-.16-4.09-.14-8.25-.13-12.29.06-14,.11-28.49-7-41.55l-4.22-7.79,2.38,8.53c7.61,27.27-16.12,57.23-40.81,76.46,4.21-10.35-1-27.45-5.25-34l-1-1.62-.72,1.79c-5.48,13.53-13.26,30.27-25.61,42.24a25.14,25.14,0,0,0-1.5-18.4c-3.25-6.29-9.44-10.78-17.43-12.64l-1.72-.4.54,1.68c4.05,12.49-1.79,29.31-7.4,41.21A155.81,155.81,0,0,1,289.54,509c.93-21.25-5.4-35.77-18.85-43.19l-1.67-.92.19,1.89c.26,2.68-2.41,6.62-5,10.43s-5.1,7.52-5.79,11.05c-11.23-16.37-13.85-29.33-14.94-40.92l0-.27-.15-.21a1.18,1.18,0,0,0-1-.53c-1.3,0-1.41,1.3-1.81,5.59-.1,1.13-.24,2.64-.39,3.66-.4-.94-.87-2.39-1.19-3.38-1.22-3.75-1.71-5.05-2.89-5.05a1.27,1.27,0,0,0-1.07.63l-.12.2,0,.22c-1.07,9.56-4,23-12,32.88l-.14.17,0,.2c-.54,2-1.13,4.13-1.76,6.31-.21-.7-.41-1.34-.59-1.92l-.45-1.46-1,.85a75.38,75.38,0,0,0-10.36-17.07l-.61-.77-.78.6c-10.2,7.92-15,21.65-14.24,40.84a157.42,157.42,0,0,1-20.3-34.07c-5.2-11.92-10.6-28.75-6.85-41.26l.5-1.69-1.71.43a24,24,0,0,0-15.79,11.94c-2.89,5.52-3.49,12.12-1.79,18.91-11.31-11.95-18.45-28.57-23.48-42l-.73-2-1.06,1.79c-3.88,6.52-8.69,23.48-4.89,33.83C94,435.53,72.17,405.65,79.2,378.44l2.34-9.09-4.21,8.39c-6.54,13.05-6.49,27.52-6.44,41.52,0,4,0,8.05-.11,12.07-16.86-28-21.27-61.39-12.4-94.31l.36-1.34a119.58,119.58,0,0,0,16.31,39.93l1.66,2.6.18-3.08c.3-5.11.28-10.35.26-15.42,0-10.87-.07-22,3-32.48-1.39,27.73,22.36,56.52,45,73.9l1.22-1.58c-8.27-6.36-4.19-26.06.23-35.22,5.49,14.38,13.38,31.78,26,43.54l3.12,2.9-1.5-4c-2.86-7.61-2.7-15.13.47-21.18a21.31,21.31,0,0,1,12.85-10.45c-5.55,23.92,16.85,62.77,29.93,77.77l2,2.23-.2-3c-1.3-19.54,2.92-33.49,12.54-41.5a72.53,72.53,0,0,1,10,17.09l.51,1.27.77-.64c.34,1.11.7,2.38,1,3.69l.85,3.45,1.07-3.39c1-3.19,1.93-6.56,2.73-9.49,7.49-9.31,10.67-21.55,12-31,.2.58.39,1.18.56,1.69,1.24,3.8,1.84,5.48,3.13,5.48a1.26,1.26,0,0,0,.33-.05h.06c1.14,0,1.45-1.12,1.74-4,1.69,10.77,5.54,22.88,16.26,37.68l2.82,3.89-1-4.7c-.78-3.55,2.41-8.26,5.5-12.82,2.42-3.56,4.73-7,5.25-10,12.32,7.6,17.79,22.16,16.26,43.33l-.2,2.8,1.93-2.05c14.15-15,38.39-53.87,32.37-77.82,6.59,1.93,11.68,5.85,14.43,11.17,3.06,5.91,3.11,13.18.15,20.46l-1.57,3.83,3.14-2.69c13.76-11.81,22.31-29.3,28.25-43.73,4.82,9.06,9.34,29,.35,35.36l1.16,1.63c24.6-17.51,50.47-46.59,48.57-74.52M31.69,269c-8.84,15.67-8.15,31.34-7.09,50,1.4-2.71,5.08-7.5,6.83-11.42-11.72,32.88,4.35,65.2,11.63,86.05,1-22.26.54-52.05,14.35-56.87-9,33.49-4.64,68.3,14.22,97.84,1.1-19-2.18-38.9,6.6-56.41-8,31.05,20.44,64.14,43.25,81.69-9.45-7.28-3.8-30.36,1-38.43,5.88,15.74,13.74,33.31,26.58,45.23-5.72-15.18.54-29.61,15.67-33.43C157.86,456.16,180.22,496,194,511.81c-1.08-16.13,1.35-33.4,13.69-43A74.18,74.18,0,0,1,218.45,487c.3-.24.57-.51.86-.77.54,1.72,1.05,3.45,1.49,5.23,1-3.09,1.87-6.34,2.77-9.66,7.38-9.06,11-21.67,12.27-33.39.07-.12.14-.17.22-.17,1.06,0,2.92,9.16,4.12,9.16a.34.34,0,0,0,.24-.14.22.22,0,0,0,.15.09c.92,0,1-9.93,1.77-9.93,0,0,.09,0,.14.11,1.32,13.93,4.8,27.23,16.91,43.93-1.64-7.44,11.45-18.16,10.81-24.69,16.26,9,19.43,27.69,18.17,45.09,14.9-15.79,39.08-55.65,31.66-78.56,16.36,3.82,23.13,18.25,16.94,33.43,13.89-11.92,22.38-29.49,28.74-45.23,5.2,8.07,11.31,31.15,1.09,38.43,24.67-17.55,55.44-50.64,46.78-81.69,9.49,17.51,5.94,37.4,7.13,56.41a112.48,112.48,0,0,0,18.09-86.52,115.49,115.49,0,0,1-13.82,27c-1.2-19,2.36-38.91-7.14-56.42,8.67,31.05-22.1,64.14-46.77,81.69,10.22-7.27,4.1-30.36-1.09-38.43-6.36,15.74-14.85,33.31-28.74,45.23,6.19-15.18-.58-29.61-16.95-33.42,7.43,22.91-16.75,62.76-31.65,78.55,1.25-17.4-1.91-36.11-18.17-45.08.64,6.52-12.46,17.25-10.82,24.68-12.1-16.69-15.58-30-16.9-43.93-.05-.07-.1-.11-.15-.11-.78,0-.84,9.93-1.76,9.93a.18.18,0,0,1-.15-.09.31.31,0,0,1-.24.14c-1.2,0-3.06-9.16-4.12-9.16-.08,0-.15.06-.22.17-1.31,11.72-4.89,24.33-12.27,33.4-.9,3.31-1.8,6.56-2.77,9.65-.44-1.78-1-3.51-1.49-5.23-.3.26-.57.53-.87.78A74,74,0,0,0,212,409.29c-12.34,9.58-14.77,26.85-13.7,43-13.77-15.79-36.13-55.64-29.27-78.55-15.13,3.81-21.39,18.24-15.67,33.42-12.84-11.92-20.69-29.49-26.57-45.23-4.8,8.07-10.46,31.16-1,38.43-22.81-17.55-51.27-50.64-43.25-81.69-8.79,17.51-5.5,37.4-6.61,56.42C57,345.52,52.65,310.72,61.68,277.22c-13.81,4.83-13.31,34.61-14.35,56.86-5.72-16.36-16.8-39.81-15.64-65.05Z"/>
          </g>
          <g>
            <path class="cls-1" d="M459.32,389.74c-3.3-12.54-11.27-32.3-18.57-45.94a115.56,115.56,0,0,0,1-63.3c7.83,13.36,17.68,37.05,21.19,51.33l.34,1.41.6-1.32c1.26-2.79,2.43-5.58,3.63-8.69C472,343.62,471.88,361.44,459.32,389.74Z"/>
            <path d="M443.13,283.9c7.46,13.64,16.12,34.87,19.35,48.05l.69,2.82,1.19-2.64c1.06-2.33,2-4.66,3-7.17,4,19.32,3.65,36.6-8,63.28-3.49-12.55-11.11-31.32-18.15-44.49a115.6,115.6,0,0,0,1.85-59.85m-2.78-6.68c6.49,22.28,6.53,45.13-.14,66.63,7.35,13.7,15.8,34.46,19,47.41,14-31.06,13-49.74,8.48-69.77-1.24,3.28-2.6,6.65-4.22,10.23-3.79-15.46-15.1-42.09-23.1-54.5Z"/>
          </g>
        </g>
        <g class="chest">
          <path class="cls-1" d="M276.59,432c.77-14.78-3.54-24.85-12.8-30l-.83-.46.09.94c.19,1.9-1.58,4.51-3.45,7.27s-3.7,5.45-4,8c-8-11.44-9.78-20.46-10.54-28.52v-.13L245,389a.59.59,0,0,0-.51-.28c-.69,0-.78.76-1,3.67-.08.92-.2,2.22-.34,2.89l-.08.1a23.52,23.52,0,0,1-1-2.77c-.82-2.52-1.14-3.33-1.8-3.33a.64.64,0,0,0-.57.35l-.07.09v.12c-.73,6.57-2.76,15.83-8.3,22.63l-.07.08,0,.1c-.5,1.83-.94,3.43-1.39,4.94-.17-.6-.36-1.23-.58-1.92l-.23-.74-.64.58a51.49,51.49,0,0,0-7.17-11.9l-.31-.39-.39.31c-7,5.46-10.28,15-9.66,28.39-9.14-11.1-23.58-36.95-19-52.23l.26-.85-.86.22a16,16,0,0,0-10.71,8.08,18.21,18.21,0,0,0-1,13.53c-8.07-8.25-13.11-19.95-16.63-29.39l-.37-1-.53.9c-2.73,4.58-6.15,16.77-3.07,23.7-15.84-13.2-31.24-34-26.35-53l1.17-4.55-2.1,4.2c-4.47,8.9-4.43,18.8-4.4,28.38,0,2.92,0,5.93-.1,8.89-11.84-19.37-15-42.49-8.84-65.31l.25-.92-.9.32c-8.77,3.06-9.41,19.72-10,34.41,0,.83-.06,1.66-.1,2.47-.46-1.25-1-2.56-1.46-3.9-5.28-14-12.52-33.06-5.65-52.34l-.92-.37a38.29,38.29,0,0,1-2.92,4.95l-.91,1.4c-.72-13-1-24.4,7.18-36,2.54-3.59,6-6.36,9.41-9.05,4.48-3.56,8.71-6.92,10.89-12l.32-.74-.81.05c-22.93,1.39-36.49,20.25-43.07,33,4.59-44.55,19.81-63.6,61.43-77.68l1.82-.62-1.89-.35a133.61,133.61,0,0,0-23.85-2.49c-.72,0-1.45,0-2.16,0a53.63,53.63,0,0,1,8.28-5.86,133.1,133.1,0,0,1,26.66,5.6c5.86,5.22,13.24,8.75,20.37,12.16,1.56.75,3.11,1.49,4.62,2.24,16.91,8.37,35.51,16.34,56.9,17.87h.34a3.46,3.46,0,0,0,3.39-2.51l.49.1c.33.06.65.13,1,.18l5.46,12.36,5.33-11.16c1.79.11,3.6.17,5.37.17,30,0,52.53-15.44,76.39-31.78,6.22-4.26,12.65-8.66,19.18-12.73,12.93,2.19,23.05,6.44,31.68,13.35-.78,0-1.58,0-2.37,0a155.72,155.72,0,0,0-25.78,2.49l-2.05.35,2,.62c45.07,14.11,61.52,33.18,66.47,77.85-7.08-12.71-21.76-31.74-46.65-33.14l-.83-.05.35.76c2.26,4.87,6.88,6.84,11.78,8.92,4.16,1.77,8.47,3.61,11.37,7.39,8.79,11.48,9.93,29.62,9.23,43.34-.58-.77-1.36-1.71-2.21-2.73a44.07,44.07,0,0,1-4.68-6.3l-.93.35.16.62c4.58,17.56,7.92,30.33-3,55.09-2.91-10.79-10.22-27.85-15.54-36.11l-1.86-2.89,1,3.3c6.65,22.85,3.23,46-9.64,65.41-.14-3-.12-6-.11-9,0-9.57.07-19.48-4.76-28.39l-2.11-3.89,1.19,4.26c5.29,19-11.44,39.84-28.61,53,3.39-6.92-.33-19.18-3.3-23.79l-.52-.81-.36.89c-3.83,9.48-9.31,21.24-18.1,29.5a17.17,17.17,0,0,0-.82-13.14c-2.2-4.26-6.4-7.3-11.82-8.56l-.86-.2.28.84C302.19,395,286.47,420.92,276.59,432Z"/>
          <path d="M348.75,180.85c12.18,2.08,21.83,6,30.09,12.3H378a155.54,155.54,0,0,0-25.86,2.5l-4.11.69,4,1.25c23.46,7.34,38.31,15.77,48.13,27.35,9.51,11.19,15,26,17.71,47.66-7.54-12.7-22.06-29.94-45.84-31.28l-1.67-.1.7,1.52c2.35,5.05,7.28,7.15,12,9.17,4.11,1.75,8.35,3.55,11.18,7.24,8.41,11,9.74,28.21,9.18,41.67-.42-.53-.89-1.1-1.38-1.69a45.23,45.23,0,0,1-4.62-6.19l-1.87.68.17.63c4.47,17.15,7.75,29.7-2.39,53.46-3.14-10.85-10.1-26.93-15.22-34.88L374.36,307l1.93,6.6c6.46,22.19,3.36,44.68-8.72,63.67-.07-2.47-.06-5-.05-7.41,0-9.64.07-19.6-4.82-28.63l-4.23-7.78,2.38,8.53c5.09,18.23-10.49,38.27-27,51.41,2.22-7.27-1.19-18.24-4-22.57l-1-1.62-.72,1.79c-3.62,9-8.72,20-16.69,28.05a17.23,17.23,0,0,0-1.32-11.74c-2.27-4.39-6.59-7.53-12.15-8.82l-1.73-.4.55,1.68c4.54,14-9.36,38.78-19.6,50.76.39-14-4.11-24-13.11-29l-1.67-.92.19,1.89c.16,1.72-1.63,4.37-3.37,6.94-1.58,2.33-3.2,4.71-3.85,7a54.44,54.44,0,0,1-9.79-27.31l0-.27-.15-.22a1.14,1.14,0,0,0-.92-.49c-1.17,0-1.27,1.12-1.55,4.13,0,.35-.07.77-.11,1.19l-.36-1.08c-.82-2.53-1.2-3.68-2.28-3.68a1.17,1.17,0,0,0-1,.58l-.12.19,0,.23c-.72,6.5-2.73,15.66-8.19,22.37l-.13.17-.06.2c-.32,1.19-.61,2.27-.9,3.3,0-.1-.07-.2-.1-.3l-.46-1.47-.71.62a52.07,52.07,0,0,0-7-11.37l-.61-.77-.79.6c-6.9,5.36-10.23,14.54-9.91,27.31-9.46-12.07-22.15-36.64-18-50.61l.51-1.69-1.71.43a16.75,16.75,0,0,0-11,8.34,18.18,18.18,0,0,0-1.51,12c-7.26-8.08-11.92-19-15.23-27.85l-.73-1.95-1.07,1.79c-2.56,4.3-5.68,15.15-3.69,22.41-15.23-13.14-29.51-33.11-24.82-51.3l2.35-9.09-4.21,8.39c-4.52,9-4.48,19-4.45,28.61,0,2.36,0,4.78,0,7.17-11-18.94-13.87-41.35-7.92-63.46l.5-1.83-1.79.62c-9.1,3.18-9.74,20-10.3,34.85-.2-.52-.39-1-.6-1.57-5.25-13.88-12.45-32.89-5.64-52L99,293a37.52,37.52,0,0,1-2.88,4.89L96,298c-.64-12.3-.6-23.15,7.17-34.11,2.5-3.53,6-6.28,9.31-8.94,4.34-3.45,8.81-7,11-12.2l.64-1.49-1.62.1c-21.84,1.33-35.24,18.28-42.26,31C82.8,250.79,87.91,236,96.66,224.9c9.07-11.57,22.79-20,44.47-27.33l3.65-1.23-3.79-.7a133.71,133.71,0,0,0-23.94-2.5h-.76a54,54,0,0,1,7-4.83,132.84,132.84,0,0,1,26.3,5.54c5.9,5.23,13.28,8.75,20.41,12.16l4.61,2.23c17,8.4,35.61,16.39,57.09,17.93h.37a3.89,3.89,0,0,0,3.71-2.44h.07l.73.15L241.48,235l.88,2,.94-2,4.72-9.87c1.69.1,3.39.15,5.06.15,30.14,0,52.75-15.48,76.67-31.87,6.17-4.22,12.54-8.58,19-12.61m-.21-1C317.71,199,291,224.33,253.08,224.33c-1.86,0-3.75-.06-5.67-.19l-5,10.48L237.27,223c-.73-.12-1.45-.29-2.19-.42a3,3,0,0,1-3,2.59h-.3c-20.38-1.46-38.5-8.8-56.71-17.82-8.43-4.17-17.87-8-25-14.39a134.15,134.15,0,0,0-27-5.68,55.37,55.37,0,0,0-9.54,6.93c1.18-.05,2.36-.08,3.54-.08a134.53,134.53,0,0,1,23.76,2.48c-41.53,14.06-57.63,32.76-62,80.8,8.31-17.29,22.51-33.82,43.86-35.11-3.8,8.87-14.38,12.67-20.25,20.95-8.5,12-8,23.7-7.17,37.92,1-1.85,3.49-5.14,4.68-7.82-8,22.53,3,44.68,8,59,.71-15.25.38-35.67,9.84-39-6.19,23-3.18,46.81,9.74,67.06.76-13-1.49-26.67,4.52-38.67-5.49,21.29,14,44,29.65,56-6.48-5-2.6-20.81.69-26.34,4,10.79,9.41,22.83,18.21,31-3.92-10.4.37-20.3,10.74-22.91-4.7,15.71,10.62,43,20.06,53.84-.73-11.05.93-22.89,9.39-29.46a51,51,0,0,1,7.37,12.43c.21-.17.39-.36.59-.53.37,1.17.72,2.36,1,3.58.67-2.12,1.28-4.34,1.9-6.61,5-6.22,7.51-14.86,8.41-22.9.05-.07.1-.11.15-.11.73,0,2,6.27,2.83,6.27a.19.19,0,0,0,.16-.09.15.15,0,0,0,.11.06c.62,0,.66-6.8,1.2-6.8a.13.13,0,0,1,.1.07c.91,9.55,3.29,18.67,11.59,30.11-1.13-5.09,7.85-12.44,7.41-16.92,11.14,6.15,13.31,19,12.46,30.9,10.2-10.82,26.78-38.13,21.69-53.84,11.22,2.61,15.86,12.51,11.62,22.91,9.51-8.17,15.33-20.21,19.69-31,3.56,5.53,7.76,21.36.75,26.34,16.9-12,38-34.7,32.06-56,6.51,12,4.07,25.63,4.89,38.67,14-20.25,17.22-44.1,10.54-67.06,5.47,8.5,13.23,26.75,15.83,37.35,11.8-26.09,8.1-39.43,3.42-57.35,1.3,2.68,6.72,8.44,7.76,10.29.87-14.22-.06-33.13-9.25-45.12-6.35-8.29-19-7.35-23.1-16.22,23.09,1.29,38.45,17.82,47.44,35.11-4.76-48-22.17-66.74-67.08-80.8A156.72,156.72,0,0,1,378,194.14c1.28,0,2.56,0,3.82.08-10-8.4-21.31-12.43-33.24-14.42Z"/>
        </g>
        <g id="hair">
          <g>
            <path class="cls-2" d="M165,283.64a23.75,23.75,0,0,1-1-5.12h0a39.45,39.45,0,0,1,.28-6.77l0-.25a26.79,26.79,0,0,1,.9-4.69l.65-2.32a18.44,18.44,0,0,1,1.15-2.5c.23-.45.46-.89.67-1.35a12.62,12.62,0,0,1,1.35-2.23c.22-.32.44-.63.65-1a21.42,21.42,0,0,1,2.79-3.42,21.79,21.79,0,0,1,3.26-3l.11,0a3,3,0,0,1,.43,0,2,2,0,0,1,1.52.62,3.11,3.11,0,0,1,.32,2.58.86.86,0,0,1,0,.15,17.53,17.53,0,0,0-2.79,2.59,16.94,16.94,0,0,0-2.44,3c-.17.26-.36.53-.55.79a9.69,9.69,0,0,0-1.22,2c-.18.4-.4.81-.61,1.22a13.77,13.77,0,0,0-1.19,2.77l-.66,1.54a13.88,13.88,0,0,0-.89,2.41c-.11.44-.26.91-.42,1.39a21.6,21.6,0,0,0-.7,2.55l-.87,4.14A23,23,0,0,1,165,283.64Z"/>
            <path d="M176.32,251.47a1.46,1.46,0,0,1,1.14.44,2.61,2.61,0,0,1,.22,2.11,17.15,17.15,0,0,0-2.72,2.54,17.73,17.73,0,0,0-2.49,3.07c-.18.27-.36.53-.55.79a10.57,10.57,0,0,0-1.26,2.08c-.18.41-.39.8-.6,1.22a14.16,14.16,0,0,0-1.21,2.8l-.44,1-.22.5a14.11,14.11,0,0,0-.91,2.48c-.11.43-.26.88-.41,1.37a20,20,0,0,0-.72,2.59l-.49,2.32-.38,1.83v.11c-.1,1.12-.2,2-.3,2.65-.14-.75-.28-1.72-.42-2.94h0a39,39,0,0,1,.28-6.65l0-.26a26.15,26.15,0,0,1,.89-4.59v-.06l.64-2.26a18,18,0,0,1,1.11-2.43c.23-.45.47-.91.69-1.39a12.12,12.12,0,0,1,1.3-2.14c.22-.32.45-.64.67-1a20.7,20.7,0,0,1,2.73-3.34l0,0,0,0a21,21,0,0,1,3.06-2.83l.33,0m0-1a2.85,2.85,0,0,0-.51,0,.45.45,0,0,0-.34.12,21.24,21.24,0,0,0-3.31,3.05,22.24,22.24,0,0,0-2.85,3.5,23,23,0,0,0-2,3.25c-.6,1.31-1.37,2.56-1.84,3.92,0,0-.25.92-.64,2.29a28.81,28.81,0,0,0-1,5,39.94,39.94,0,0,0-.29,6.92v0c.38,3.33.93,5.84,1.48,5.84s.87-1.58,1.24-5.57c.31-1.48.6-2.88.87-4.14s.81-2.73,1.12-3.92a16.78,16.78,0,0,1,1.08-2.84l.47-1.1a26.21,26.21,0,0,1,1.77-3.93,16.94,16.94,0,0,1,1.74-2.74,17.17,17.17,0,0,1,2.4-3,17.44,17.44,0,0,1,2.79-2.57,1.53,1.53,0,0,0,.16-.39c.58-2.95-1-3.79-2.34-3.79Z"/>
          </g>
          <g>
            <path class="cls-2" d="M194.34,315.83a21.77,21.77,0,0,1-2.14-4.74h0a44.22,44.22,0,0,1-1.31-6.6,57.05,57.05,0,0,1-.5-7.25v-.14a35,35,0,0,1,.27-4,89.5,89.5,0,0,1,1.61-10.39c.71-3,1.37-5.66,2.29-8.32h0l.05-.06a2.55,2.55,0,0,1,1.59-.69c.83,0,1.51.67,2,2,0,0,0,.11,0,.17-.89,2.62-1.56,5.39-2.15,7.83a89.42,89.42,0,0,0-1.54,9.87,31,31,0,0,0-.25,3.46c0,.36,0,.73,0,1.09l-.13,1.22a26.35,26.35,0,0,0-.21,3.18c-.17,2.1-.1,4.7,0,7l0,1.42A22.85,22.85,0,0,1,194.34,315.83Z"/>
            <path d="M196.21,274.17h0c.74,0,1.24.87,1.53,1.62-.88,2.6-1.54,5.33-2.13,7.78a90.31,90.31,0,0,0-1.55,9.88,32.56,32.56,0,0,0-.25,3.51l0,1.06c0,.12-.06.53-.13,1.17a26.09,26.09,0,0,0-.21,3.23,68.8,68.8,0,0,0-.05,7.05c0,.49,0,1,0,1.42V311c.17,1.13.27,2,.34,2.69-.32-.7-.69-1.62-1.11-2.79h0a44.69,44.69,0,0,1-1.29-6.52,56.53,56.53,0,0,1-.49-7.13v-.15a35.16,35.16,0,0,1,.26-3.91v0a87.47,87.47,0,0,1,1.6-10.28c.69-2.92,1.34-5.54,2.23-8.16a2,2,0,0,1,1.23-.55m0-1a3,3,0,0,0-1.92.82.43.43,0,0,0-.22.28c-.94,2.75-1.63,5.56-2.3,8.37a93.82,93.82,0,0,0-1.62,10.43,38.42,38.42,0,0,0-.27,4.17,56.45,56.45,0,0,0,.5,7.3,43,43,0,0,0,1.35,6.74v0c1.12,3.09,2.21,5.32,2.76,5.32s.55-1.62-.06-5.71c-.06-2.69-.21-5.85,0-8.39a26.78,26.78,0,0,1,.21-3.14c.08-.8.13-1.24.13-1.24.07-1.52.07-3,.29-4.54a85.49,85.49,0,0,1,1.53-9.79c.64-2.65,1.28-5.3,2.16-7.87a1.33,1.33,0,0,0-.07-.43c-.66-1.74-1.59-2.3-2.47-2.3Z"/>
          </g>
          <g>
            <path class="cls-2" d="M223.75,326.25a24.32,24.32,0,0,1-1.71-4.81l-1,.17.13-.36.37-.16.45.29c-.1-.25-.87-3.14-1.53-6.36l-1.49-7-1-9.16c-.13-1.86-.2-3.78-.27-5.64l-.12-2.94a2.33,2.33,0,0,1,1.82-1.37,2.91,2.91,0,0,1,2,1.25s.07.11.1.17l.12,3c.06,1.7.12,3.46.24,5.2l.53,5c.06.55.11,1.09.17,1.63.1,1,.2,2,.35,3l.32,4.48.47,8.62A22.87,22.87,0,0,1,223.75,326.25Z"/>
            <path d="M219.45,289.44h0a2.48,2.48,0,0,1,1.62,1.05v0c0,.95.08,1.9.12,2.85.06,1.71.12,3.48.25,5.26l.52,5c.06.54.12,1.08.17,1.62.1,1,.2,2,.35,3l.32,4.46.47,8.63c.07,1.16.1,2.06.1,2.76-.24-.69-.53-1.59-.86-2.78l-1,.17v-.88a1,1,0,0,1,.91.61c-.1-.3-.87-3.18-1.5-6.29L219.49,308l-.43-4-.54-5.1c-.13-1.86-.2-3.78-.27-5.63,0-.93-.07-1.86-.11-2.8a1.77,1.77,0,0,1,1.31-1m0-1a2.74,2.74,0,0,0-2.21,1.55.4.4,0,0,0-.11.34c.13,2.87.19,5.75.39,8.61l.55,5.14.43,4.07s.74,3.44,1.49,7c.67,3.3,1.52,6.47,1.57,6.47v0c.85,3.05,1.75,5.45,2.3,5.45s.66-1.6.42-5.76c-.18-3.39-.35-6.42-.47-8.62-.2-2.78-.33-4.52-.33-4.52-.23-1.54-.34-3.07-.52-4.61l-.52-5c-.19-2.76-.24-5.51-.37-8.26a1.29,1.29,0,0,0-.21-.39,3.31,3.31,0,0,0-2.41-1.43Z"/>
          </g>
          <g>
            <path class="cls-2" d="M261.82,305.24a31.94,31.94,0,0,1-.18-3.84l-.07-4.57,0,.09c0-1-.06-2.11-.14-3.23-.17-3.39-.64-6.86-.64-6.89-.11-1.42-.23-2.7-.36-3.9-.19-1.61-.46-3.72-.89-5.79a26.11,26.11,0,0,0-2.27-7.24,8.18,8.18,0,0,1,.67-1.9,1.22,1.22,0,0,1,1.16-.77,3.3,3.3,0,0,1,1.31.34,1,1,0,0,1,.22.17,29.3,29.3,0,0,1,2.73,8.41l0,.18c.44,2.15.72,4.3.93,6.12.16,1.55.33,3.17.41,4.79h0s0,2-.15,4.62a57.14,57.14,0,0,1-1.22,8.68A16.62,16.62,0,0,1,261.82,305.24Z"/>
            <path d="M259.07,267.7a2.75,2.75,0,0,1,1.05.27l.07,0a29.3,29.3,0,0,1,2.65,8.21l0,.17c.43,2.14.71,4.28.92,6.08.17,1.55.33,3.16.41,4.72,0,0,0,2-.15,4.6a58.18,58.18,0,0,1-1.21,8.63c-.24,1.13-.47,2-.68,2.66,0-.56,0-1.14,0-1.69,0-.39,0-.8,0-1.22l-.1-6.7-.11.35a.76.76,0,0,0,0-.15c-.17-3.28-.59-6.53-.65-6.91-.1-1.44-.22-2.72-.36-3.92-.19-1.62-.46-3.74-.89-5.82a27.53,27.53,0,0,0-2.23-7.23,7.65,7.65,0,0,1,.57-1.56c.23-.45.44-.53.73-.53m0-1a1.76,1.76,0,0,0-1.62,1.06,8.93,8.93,0,0,0-.7,2c0,.18,0,.2,0,.28a26.4,26.4,0,0,1,2.25,7.17c.39,1.88.65,3.81.88,5.75.15,1.29.26,2.6.36,3.91,0,0,.47,3.44.65,6.85s.14,6.48.21,6.48v0c.05,2.8,0,5.12.39,5.7a.21.21,0,0,0,.19.13c.43,0,1.27-1.45,2.13-5.38a59.48,59.48,0,0,0,1.23-8.77c.17-2.68.15-4.67.15-4.67-.08-1.61-.24-3.22-.41-4.83-.25-2.05-.52-4.11-.94-6.17A30.18,30.18,0,0,0,261,267.4a1.71,1.71,0,0,0-.41-.32,3.81,3.81,0,0,0-1.51-.38Z"/>
          </g>
          <g>
            <path class="cls-2" d="M283.27,289.55a24.52,24.52,0,0,1-1-5l-.33-2.62,0,.1c-.15-1.13-.35-2.53-.62-3.9a21.55,21.55,0,0,0-.69-3.06c-.14-.51-.27-1-.36-1.4a12.2,12.2,0,0,0-.73-2,14.92,14.92,0,0,0-1.33-3.41l-.85-1.73-1.14-1.56a12.59,12.59,0,0,0-2.51-2.75,3.41,3.41,0,0,1,.34-2.52,2.18,2.18,0,0,1,1.74-.61h.35a.85.85,0,0,1,.21.07,16.16,16.16,0,0,1,3,3.26l1.4,1.92,1,2,0,.07a20.8,20.8,0,0,1,1.54,3.93l.26.83a10.37,10.37,0,0,1,.27,1.29c.1.8.23,2,.4,3.42a52.46,52.46,0,0,1-.16,8.78A24.28,24.28,0,0,1,283.27,289.55Z"/>
            <path d="M275.81,259.56h.29a15.57,15.57,0,0,1,2.81,3.11l0,0,0,0,1.32,1.83,1,2,0,.07,0,.07,0,.06a18.9,18.9,0,0,1,1.47,3.78c.09.27.17.55.26.82a11,11,0,0,1,.26,1.18c.09.81.23,2,.39,3.39a51.73,51.73,0,0,1-.16,8.72c-.11,1.15-.22,2-.33,2.73-.13-.71-.27-1.64-.42-2.83l-.66-5.28-.06.25c-.08-.46-.16-.93-.25-1.39a22.81,22.81,0,0,0-.71-3.14c-.13-.49-.27-1-.35-1.37v-.06a13.89,13.89,0,0,0-.71-2,16,16,0,0,0-1.37-3.49l0-.06-.82-1.67,0-.09-.05-.07-1.08-1.45a12.89,12.89,0,0,0-2.46-2.74,2.54,2.54,0,0,1,.25-1.94,1.73,1.73,0,0,1,1.36-.43m0-1c-3,0-2.75,2.57-2.57,3.68,0,.19.05.22.13.29a12.25,12.25,0,0,1,2.47,2.71l1.09,1.48.83,1.67,0,.09a15.83,15.83,0,0,1,1.32,3.38,12.77,12.77,0,0,1,.68,1.92c.26,1.22.83,2.78,1.05,4.46.62,3.15.87,6.4.95,6.4l0,0c.39,3.15.91,5.72,1.46,5.72s.87-1.56,1.27-5.64a52.83,52.83,0,0,0,.17-8.89c-.17-1.45-.31-2.62-.4-3.43A9,9,0,0,0,284,271a25,25,0,0,0-1.81-4.79l0-.11-1-2.08-1.37-1.9a16.88,16.88,0,0,0-3.12-3.41,1.47,1.47,0,0,0-.45-.15Z"/>
          </g>
          <g>
            <path class="cls-2" d="M334.35,305.32a23.33,23.33,0,0,1-2.1-4.62l-.55-1.47q0-.11-.09-.24a25,25,0,0,0-1.73-4.33L327,288.43c-.31-.78-.69-1.56-1.07-2.33-.2-.41-.4-.83-.59-1.25l-2.39-5c-.79-1.6-1.64-3.2-2.47-4.75l-1.39-2.65c0-.61.3-2.35,1.88-2.35a3.77,3.77,0,0,1,1.45.34l.15.09,1.39,2.64c.83,1.56,1.68,3.16,2.48,4.77l2.44,5.13c.21.49.45,1,.68,1.45a25.08,25.08,0,0,1,1.25,2.85l1.35,4.44,1.19,4.18.07.6.52,3.78A25,25,0,0,1,334.35,305.32Z"/>
            <path d="M321,270.61h0a3.38,3.38,0,0,1,1.22.28c.44.85.89,1.69,1.34,2.54.82,1.54,1.67,3.14,2.45,4.73l2.44,5.12c.22.5.46,1,.7,1.47a25.94,25.94,0,0,1,1.21,2.75L331.7,292l1.17,4.12.08.58c.16,1.19.34,2.46.52,3.8.16,1.15.26,2,.32,2.73-.29-.65-.65-1.52-1.08-2.66l-.55-1.48-.06-.17a26.67,26.67,0,0,0-1.33-3.53l-.5-1.33,0,.35-2.82-6.11c-.32-.82-.71-1.61-1.08-2.37-.2-.41-.4-.82-.6-1.25l-2.38-5c-.8-1.6-1.65-3.2-2.47-4.74-.44-.84-.89-1.68-1.33-2.53.05-.57.29-1.75,1.37-1.75m0-1c-1.77,0-2.3,1.68-2.37,2.73a.47.47,0,0,0,0,.35c1.28,2.46,2.63,4.91,3.86,7.38l2.38,5c.55,1.2,1.18,2.37,1.66,3.58l2.88,6.24a24.92,24.92,0,0,1,1.7,4.27c.36,1.05.6,1.74.63,1.74s0,0,0,0c1.07,2.86,2.16,5.22,2.72,5.22s.54-1.59,0-5.78c-.22-1.58-.42-3.08-.61-4.45-.45-1.57-.85-3-1.19-4.19l-1.35-4.46c-.53-1.52-1.31-2.89-2-4.34l-2.44-5.14c-1.26-2.54-2.62-5-3.91-7.49a1.2,1.2,0,0,0-.37-.25,4.24,4.24,0,0,0-1.64-.38Z"/>
          </g>
          <g>
            <path class="cls-2" d="M311.9,328.51a24.66,24.66,0,0,1-1.21-4.86l-.43-2.29-.06.26c-.26-1.17-.62-2.72-1.1-4.27-.89-3.25-2-6.62-2-6.65l-1-3.87-.78-3.13a73.91,73.91,0,0,1-1.65-8.49v0l0-.09c.1-.25.66-1.5,1.79-1.5a3.11,3.11,0,0,1,2,1l.11.13a73.17,73.17,0,0,0,1.55,8l.76,3.06,1.19,4.55.76,4.52a58.19,58.19,0,0,1,.63,8.75A25.2,25.2,0,0,1,311.9,328.51Z"/>
            <path d="M305.45,294.1h0a2.64,2.64,0,0,1,1.61.85,74.33,74.33,0,0,0,1.55,7.88l.76,3.06,1.17,4.51.77,4.48a58.71,58.71,0,0,1,.62,8.66c-.05,1.15-.12,2-.19,2.74-.16-.69-.35-1.57-.56-2.72l-.86-4.6-.12.49c-.18-.71-.38-1.47-.61-2.22-.86-3.11-1.91-6.31-2-6.66l-1-3.86-.78-3.12a74.19,74.19,0,0,1-1.63-8.32c.08-.18.53-1.17,1.32-1.17m0-1a2.61,2.61,0,0,0-2.25,1.81.49.49,0,0,0-.08.36,75.16,75.16,0,0,0,1.67,8.55l.78,3.14,1,3.9s1.12,3.35,2,6.63,1.46,6.27,1.56,6.27,0,0,0,0c.56,3,1.21,5.58,1.75,5.58s.79-1.57,1-5.73a59.77,59.77,0,0,0-.63-8.85l-.78-4.55-1.19-4.55-.75-3.05a69.66,69.66,0,0,1-1.56-8,1.21,1.21,0,0,0-.25-.35,3.51,3.51,0,0,0-2.32-1.14Z"/>
          </g>
          <g>
            <path class="cls-2" d="M337.81,258.75a24.38,24.38,0,0,1-1.49-4.8l-.59-2.48-.07.5c-.36-1.15-.84-2.63-1.42-4.09-.27-.58-.5-1.14-.73-1.68a17.43,17.43,0,0,0-1.2-2.55l-1-1.77a18.18,18.18,0,0,0-1.92-3.28,35,35,0,0,0-5.8-6.82l-3-2.47c-.71-.5-1.44-.93-2.14-1.35-.4-.24-.81-.48-1.2-.73a3.07,3.07,0,0,1-.18-2.5,2.49,2.49,0,0,1,1.94-1.07h.18c.38.24.77.47,1.16.7.82.49,1.67,1,2.46,1.56l3.4,2.77a38.72,38.72,0,0,1,6.47,7.62,21.77,21.77,0,0,1,2.14,3.69l.3.58.52,1.24a17.58,17.58,0,0,1,.95,3l.06.22a42.72,42.72,0,0,1,1.48,8.75A24.4,24.4,0,0,1,337.81,258.75Z"/>
            <path d="M319,224.17l1,.63c.84.5,1.64,1,2.41,1.51l3.36,2.76a38.34,38.34,0,0,1,6.4,7.52l0,0,0,0a22.21,22.21,0,0,1,2.07,3.57l.28.56c0,.11.22.54.51,1.23l0,0v0a17.39,17.39,0,0,1,.91,2.84l.06.24v.06a42.07,42.07,0,0,1,1.44,8.57c0,1.16,0,2.06,0,2.76-.21-.68-.45-1.56-.72-2.71l-1.18-5-.15.95c-.23-.69-.49-1.41-.77-2.12v0l0,0c-.25-.54-.48-1.1-.7-1.64a20.36,20.36,0,0,0-1.23-2.59l-1-1.75a18.64,18.64,0,0,0-2-3.33,35.21,35.21,0,0,0-5.88-6.91l0,0,0,0-3-2.45,0,0,0,0c-.7-.48-1.43-.92-2.14-1.33l-1.05-.64a2.54,2.54,0,0,1-.16-1.93,2,2,0,0,1,1.54-.8m0-1h-.13c-3.33.53-2.65,3.07-2.15,4.22a.4.4,0,0,0,.2.27c1.09.68,2.24,1.3,3.3,2l3,2.46A34.42,34.42,0,0,1,329,238.9a17.92,17.92,0,0,1,1.88,3.23l1.06,1.78c.65,1.07,1.19,2.65,1.89,4.15,1.16,2.95,1.94,6,2.05,6a0,0,0,0,0,0,0c.7,3,1.5,5.46,2.05,5.46s.72-1.58.67-5.79a42.11,42.11,0,0,0-1.49-8.84,20.55,20.55,0,0,0-1-3.27c-.34-.81-.54-1.26-.54-1.26a26.17,26.17,0,0,0-2.45-4.31,39.83,39.83,0,0,0-6.59-7.75L323,225.52c-1.2-.84-2.48-1.55-3.72-2.32a1,1,0,0,0-.32,0Z"/>
          </g>
          <g>
            <path class="cls-2" d="M364.93,272.09a23.18,23.18,0,0,1-1.48-4.77l-.49-2-.08.33a38.35,38.35,0,0,0-1.56-4.36l-.07-.16a29.67,29.67,0,0,0-1.91-4.05l-1-1.81a15.38,15.38,0,0,0-1.18-2.18q-.36-.56-.69-1.14a36.54,36.54,0,0,0-2.94-4.36c-.39-.52-.78-1-1.15-1.57-1.68-2-3.47-4.16-5.41-6.1a3.08,3.08,0,0,1,.38-2.3,2.11,2.11,0,0,1,1.71-.63l.57,0,.2.07c2,2,3.85,4.21,5.59,6.33l1.16,1.58a41.64,41.64,0,0,1,3.19,4.73l.48.8A28.5,28.5,0,0,1,362.1,254l.49,1.25.24.6a17.16,17.16,0,0,1,.83,2.56c.1.41.21.83.32,1.25a29.25,29.25,0,0,1,.71,3.07c.21,1.67.38,3.18.5,4.46A25.67,25.67,0,0,1,364.93,272.09Z"/>
            <path d="M349.06,237.46h0l.47,0c2,2,3.79,4.15,5.48,6.2l1.17,1.58a44,44,0,0,1,3.17,4.71l.46.78a27.08,27.08,0,0,1,1.82,3.37l.49,1.25.24.62a16.3,16.3,0,0,1,.82,2.5c.1.41.21.82.32,1.25.26,1,.53,2,.69,3,.22,1.67.38,3.16.5,4.42s0,2.05,0,2.75c-.2-.68-.44-1.56-.72-2.7l-1-4-.15.6c-.28-.85-.63-1.77-1-2.68l-.07-.18a30.78,30.78,0,0,0-1.93-4.09l-1-1.76a15.11,15.11,0,0,0-1.23-2.25c-.24-.39-.47-.75-.67-1.12a38.08,38.08,0,0,0-3-4.43c-.39-.51-.77-1-1.15-1.55l0,0,0,0c-1.63-2-3.38-4-5.29-6a2.33,2.33,0,0,1,.28-1.76,1.67,1.67,0,0,1,1.33-.45m0-1c-2.73,0-2.8,2.28-2.58,3.47a.42.42,0,0,0,.13.32c1.92,1.91,3.65,4,5.36,6a58.55,58.55,0,0,1,4.06,5.88,32.81,32.81,0,0,1,1.87,3.32l1,1.83a31.42,31.42,0,0,1,1.94,4.15c1.28,2.9,2,6,2.09,6s0,0,0,0c.71,2.94,1.5,5.46,2,5.46s.72-1.58.69-5.79c-.13-1.4-.31-3-.51-4.5s-.7-3-1-4.34a22.75,22.75,0,0,0-1.09-3.24l-.5-1.26a36.51,36.51,0,0,0-2.35-4.3,64.55,64.55,0,0,0-4.4-6.39c-1.84-2.22-3.69-4.42-5.71-6.43a1.11,1.11,0,0,0-.41-.14,4.84,4.84,0,0,0-.63,0Z"/>
          </g>
          <g>
            <path class="cls-2" d="M127,262.22a23.07,23.07,0,0,1,1.09-5.12h0A41.36,41.36,0,0,1,131,251a46.48,46.48,0,0,1,4-6,29,29,0,0,1,2.49-2.69l.31-.31a49.88,49.88,0,0,1,4.37-4c.47-.39.93-.79,1.39-1.19l.2-.14c2.16-1.62,4.39-3.3,6.69-4.73h.13a2.42,2.42,0,0,1,1.88.79,2.91,2.91,0,0,1,.09,2.57,1.18,1.18,0,0,1-.08.16c-2.12,1.32-4.13,2.83-6.08,4.28l-.44.33-1.35,1.15a44.85,44.85,0,0,0-4.08,3.74,30.85,30.85,0,0,0-3,3.29l-.81.84a20,20,0,0,0-2.08,2.35,56.26,56.26,0,0,0-4,5.38l-.89,1.27A22.4,22.4,0,0,1,127,262.22Z"/>
            <path d="M150.55,232.39A1.83,1.83,0,0,1,152,233a2.51,2.51,0,0,1,0,2.08c-2.09,1.32-4.07,2.8-6,4.23l-.44.33,0,0,0,0c-.44.38-.88.76-1.33,1.13a45,45,0,0,0-4.09,3.76,30.08,30.08,0,0,0-3,3.3l-.79.82a21.49,21.49,0,0,0-2.12,2.38,58.45,58.45,0,0,0-4.08,5.42l-.89,1.28,0,.05,0,.06c-.53,1-1,1.75-1.3,2.32.16-.76.41-1.72.76-2.94h0a41.9,41.9,0,0,1,2.81-6,44.85,44.85,0,0,1,3.94-6,28.57,28.57,0,0,1,2.44-2.64l.34-.34a50.41,50.41,0,0,1,4.32-4c.45-.39.91-.77,1.36-1.17l.2-.14c2.1-1.58,4.28-3.21,6.53-4.63m-.16-1a.32.32,0,0,0-.24.08c-2.4,1.49-4.68,3.21-7,4.92a71.4,71.4,0,0,0-5.79,5.22,32.85,32.85,0,0,0-2.84,3,46,46,0,0,0-4,6.1,41.66,41.66,0,0,0-2.9,6.22v0c-1,3.38-1.44,6-.82,6,.45,0,1.45-1.32,3.2-4.62a75.82,75.82,0,0,1,4.94-6.64,19.09,19.09,0,0,1,2-2.3l.84-.88a29.87,29.87,0,0,1,3-3.26,64.54,64.54,0,0,1,5.36-4.83c2.14-1.6,4.27-3.22,6.56-4.64a1.32,1.32,0,0,0,.21-.38c1-3.24-1.11-4-2.45-4h-.14Z"/>
          </g>
          <g>
            <path class="cls-2" d="M138.12,306.42a22.72,22.72,0,0,1-.49-5.14l0-1.1-.1.09a95.2,95.2,0,0,1,1.84-12.4l.16,0,.05-.41,1.49-3.93.8-2.11a52.9,52.9,0,0,1,2.61-5c.49-.87,1-1.75,1.45-2.63a2.83,2.83,0,0,1,1.31-.38c1,0,1.69.84,1.95,2.49a.81.81,0,0,1,0,.22c-.41.77-.89,1.62-1.37,2.46a48.52,48.52,0,0,0-2.38,4.59l-2.36,6.16s-.22.43-.5,1.14l-.93,3-.48,1.46a41.14,41.14,0,0,0-1.8,6.69A24,24,0,0,1,138.12,306.42Z"/>
            <path d="M147.21,273.94c.74,0,1.23.68,1.46,2.05h0c-.42.79-.87,1.59-1.31,2.36a49,49,0,0,0-2.43,4.68l-.74,1.95-1.59,4.15c-.07.14-.27.56-.52,1.17v.08l-.36,1.15-.56,1.82c-.15.47-.31,1-.48,1.46a43.39,43.39,0,0,0-1.81,6.74c-.21,1.12-.4,2-.57,2.66-.06-.74-.12-1.7-.15-3l0-1.91c.27-3,1.13-8.88,1.62-10.89h0l.3-.8,1.48-3.92.79-2.08a54.64,54.64,0,0,1,2.59-5c.46-.81.94-1.65,1.39-2.49a2,2,0,0,1,.94-.26m0-1a3.24,3.24,0,0,0-1.49.41.39.39,0,0,0-.26.24c-1.36,2.56-2.94,5-4.09,7.69l-.8,2.12-1.48,3.92h0c-.55,0-2.52,14-2,14l0,0c.09,3.36.39,5.92.94,5.92s1-1.55,1.76-5.47a55.81,55.81,0,0,1,2.26-8.08c.39-1.25.7-2.28.92-3s.51-1.13.51-1.13l1.6-4.2.75-2c1.06-2.47,2.53-4.73,3.77-7.11a1.35,1.35,0,0,0,0-.44c-.36-2.26-1.43-2.91-2.45-2.91Z"/>
          </g>
          <g>
            <path class="cls-2" d="M174,345.14c-.2-.07-.75-.5-1.64-1.91l-.51-.82c-.65-1.37-1.79-4.15-2.09-5.06l-.08-.33a54.87,54.87,0,0,1-1-11.75,71.26,71.26,0,0,1,.68-8.12c.24-1.56.48-2.77.59-3.36,0-.1,0-.18.05-.26a2.87,2.87,0,0,1,1.18-.24,4,4,0,0,1,2.67,1.14c0,.06,0,.14,0,.23-.11.59-.33,1.71-.55,3.14a66.25,66.25,0,0,0-.64,7.7,64.35,64.35,0,0,0,.41,7.6l.58,3.38h0s0,.88.16,2.07c0,.39.05.83.08,1.28.06,1,.12,1.94.22,2.82A5,5,0,0,1,174,345.14Z"/>
            <path d="M171.18,313.79h0a3.36,3.36,0,0,1,2.12.83c-.12.61-.33,1.7-.54,3.11a56.44,56.44,0,0,0-.24,15.42v.07l.57,3.28c0,.24.05,1.05.16,2.07,0,.41.06.85.08,1.3.06,1,.12,1.94.23,2.85a11.6,11.6,0,0,1,.1,1.44,9.66,9.66,0,0,1-.86-1.2l-.49-.78c-.63-1.32-1.75-4.06-2-5l-.07-.31a53.94,53.94,0,0,1-1-11.63,70.57,70.57,0,0,1,.68-8.06c.23-1.53.46-2.74.58-3.32a2.26,2.26,0,0,1,.74-.11m0-1a3.18,3.18,0,0,0-1.49.34c-.14.05-.14.07-.15.14s-.33,1.58-.67,3.8a71.7,71.7,0,0,0-.69,8.18,54.31,54.31,0,0,0,1,11.87c-.16.07,2.45,6.39,2.73,6.39l0,0c.79,1.27,1.58,2.16,2.1,2.16s.76-.85.49-3c-.15-1.31-.21-2.88-.31-4.1s-.15-2.11-.15-2.11-.24-1.34-.59-3.35a55.61,55.61,0,0,1,.24-15.16c.32-2.09.63-3.49.63-3.57a.79.79,0,0,0-.16-.23,4.52,4.52,0,0,0-3-1.29Z"/>
          </g>
          <g>
            <path class="cls-2" d="M101.24,234.36a21.12,21.12,0,0,1,2.36-4.65l-.83-.55.4-.19.43.25v.49a35.71,35.71,0,0,1,4.17-5.17,38.82,38.82,0,0,1,3.44-3.4l1.76-1.59,3.36-2.28c.82-.55,1.71-1,2.57-1.52l1.39-.8a55.55,55.55,0,0,1,7.78-3.41,2.43,2.43,0,0,1,1.76,1.2,2.91,2.91,0,0,1-.48,2.58l-.1.13a50.53,50.53,0,0,0-7.16,3.15l-1.32.74c-.79.44-1.62.89-2.4,1.42l-1.33.91c-.77.51-1.57,1-2.32,1.62l-3.52,2.42L108,228.25,104.81,231A21.63,21.63,0,0,1,101.24,234.36Z"/>
            <path d="M128.11,212.06a1.82,1.82,0,0,1,1.26.88,2.52,2.52,0,0,1-.43,2.08,51.67,51.67,0,0,0-7.08,3.13h0l0,0c-.42.25-.85.48-1.28.72-.81.45-1.64.91-2.46,1.45-.43.31-.88.61-1.32.9-.77.52-1.57,1.06-2.3,1.61l-3.53,2.44,0,0,0,0-3.2,2.51,0,0,0,0-3.15,2.76,0,0,0,0c-.79.84-1.41,1.47-1.9,1.94.35-.7.85-1.58,1.52-2.68l-.26-.18.27.16a34.91,34.91,0,0,1,4.09-5.07l0,0,0,0a37.36,37.36,0,0,1,3.38-3.33l.06-.06,1.64-1.48,3.34-2.28c.81-.54,1.65-1,2.54-1.5.46-.26.93-.52,1.38-.79a55,55,0,0,1,7.59-3.34m0-1a.32.32,0,0,0-.16,0,53.6,53.6,0,0,0-7.88,3.45c-1.33.78-2.71,1.48-4,2.34l-3.41,2.32L111,220.71a37.92,37.92,0,0,0-3.53,3.48,34.88,34.88,0,0,0-4.25,5.28v0c-1.89,3.09-3,5.55-2.24,5.55.5,0,1.8-1,4.2-3.6,1.13-1,2.18-1.92,3.15-2.76,1.2-.95,2.28-1.8,3.2-2.51l3.53-2.44c1.17-.9,2.42-1.67,3.63-2.52s2.45-1.42,3.67-2.13a49.65,49.65,0,0,1,7.18-3.15,1.56,1.56,0,0,0,.28-.32c1.72-2.95-.17-4.22-1.51-4.5a.58.58,0,0,0-.19,0Z"/>
          </g>
          <g>
            <path class="cls-2" d="M276.92,350.85a5,5,0,0,1-1-2.28l-.23-.8c-.11-.52-.25-1.24-.37-1.87a22.72,22.72,0,0,0-.81-3.58l-.51-3.14L273.8,338c-.11-.69-.23-1.47-.4-2.27l-1-3.83c-.14-.47-.26-.95-.38-1.42-.22-.8-.44-1.64-.69-2.41l-2.41-6.4a3.75,3.75,0,0,1,3.11-1.66l.51,0,2.56,6.83c.26.82.49,1.72.74,2.63.12.48.25,1,.38,1.44l1.11,4.12.59,3.62.57,3.58a10.72,10.72,0,0,1-.12,2.09c-.11.95-.34,2.73-.67,4.19C277.34,350.31,277,350.75,276.92,350.85Z"/>
            <path d="M272,320.55h.15c.17.47.51,1.35,1.14,3l.52,1.39.78,2.08c.26.83.49,1.69.73,2.61l.39,1.45.4,1.49c.23.88.47,1.75.69,2.58l.31,1.89.29,1.73c.31,1.92.52,3.27.56,3.54a10.29,10.29,0,0,1-.12,2,39.6,39.6,0,0,1-.67,4.16,12.45,12.45,0,0,1-.31,1.31,10.42,10.42,0,0,1-.48-1.38l-.22-.78c-.11-.53-.25-1.25-.37-1.85a27.49,27.49,0,0,0-.81-3.61l-.5-3.12c-.07-.35-.13-.73-.19-1.12-.1-.7-.23-1.48-.4-2.29v-.05l-.76-2.82-.27-1c-.13-.47-.26-.94-.38-1.41-.22-.81-.44-1.65-.71-2.48l-.25-.67-1-2.58-.76-2-.32-.83a3.22,3.22,0,0,1,2.55-1.24m0-1a4.22,4.22,0,0,0-3.59,2c-.08.11-.07.14-.05.19s.52,1.37,1.24,3.29l1.23,3.25c.39,1.21.69,2.52,1.06,3.81s.7,2.6,1,3.81.4,2.39.58,3.38l.53,3.29h0c.21,0,1.22,6.17,1.38,6.17a0,0,0,0,1,0,0c.41,1.45,1,2.66,1.51,2.66s.86-.74,1.22-2.68a39.84,39.84,0,0,0,.69-4.22,11.32,11.32,0,0,0,.12-2.24s-.23-1.43-.57-3.59c-.18-1.07-.39-2.32-.61-3.67s-.73-2.72-1.1-4.12-.74-2.82-1.14-4.12-.93-2.47-1.31-3.5c-.78-2.06-1.31-3.46-1.33-3.54a.82.82,0,0,0-.26-.1,4.78,4.78,0,0,0-.64,0Z"/>
          </g>
          <g>
            <path class="cls-2" d="M204.58,375.1a22,22,0,0,1-1.58-4.88l-.33-1.33,0,.07a114.56,114.56,0,0,1-1.22-12.14h.06l.46-5.1a19.76,19.76,0,0,1,.72-4.25l1-4.32a2.41,2.41,0,0,1,1.62-.81c1,0,1.68,1,2.08,1.92,0,0,0,.13.05.19l-.91,3.82a17.7,17.7,0,0,0-.69,4.05l-.05.43-.41,4.5-.2,1.2c0,.8-.09,1.87-.15,3.21l-.09,1.41a65,65,0,0,0-.18,7.1A24.05,24.05,0,0,1,204.58,375.1Z"/>
            <path d="M205.3,342.84c.72,0,1.26.85,1.61,1.61h0l-.87,3.67a18,18,0,0,0-.71,4.15l-.05.44-.41,4.46-.2,1.2v.11c0,.74-.08,1.82-.14,3.14,0,.46-.06.93-.09,1.43a65.54,65.54,0,0,0-.18,7.13c0,1.15,0,2.05,0,2.74-.23-.7-.49-1.62-.78-2.82l-.48-1.9c-.46-3-1.07-8.94-1.11-10.93h0l.07-.8.38-4.19.05-.5v-.06a19.41,19.41,0,0,1,.71-4.14l1-4.16a1.81,1.81,0,0,1,1.16-.57m0-1a2.83,2.83,0,0,0-1.91.9.43.43,0,0,0-.19.3l-1,4.3a19.92,19.92,0,0,0-.74,4.33l0,.51-.38,4.19c-.52.06,1.07,14,1.48,14,0,0,0,0,0,0,.78,3.14,1.61,5.54,2.15,5.54s.7-1.61.59-5.73a84,84,0,0,1,.27-8.47c.06-1.33.1-2.41.14-3.15l.2-1.23.42-4.5.05-.46a16.93,16.93,0,0,1,.68-3.95l.92-3.91a1.3,1.3,0,0,0-.1-.43c-.76-1.67-1.68-2.21-2.53-2.21Z"/>
          </g>
          <g>
            <path class="cls-2" d="M243.07,338.07c-.09,0-.53-.32-1-1.71l-.21-.6c-.23-.85-.63-2.54-1-4.09l-.14-2.48a48.24,48.24,0,0,0-.54-5.72s-1-7.84-1-8.2a4.58,4.58,0,0,1,2.54-.74,4.91,4.91,0,0,1,1.36.19c.08.57,1.06,8.42,1.06,8.42a52.82,52.82,0,0,1,.54,5.88l.16,2.72h0a32.78,32.78,0,0,1-1,4.65C243.44,337.93,243.08,338.06,243.07,338.07Z"/>
            <path d="M241.68,315h0a4.76,4.76,0,0,1,.91.09c.07.55.19,1.51.4,3.15l.62,5a53.38,53.38,0,0,1,.53,5.84l.15,2.62a28.61,28.61,0,0,1-.93,4.56v.06a7.38,7.38,0,0,1-.33,1,5.83,5.83,0,0,1-.5-1.09l-.21-.59c-.22-.82-.61-2.47-.95-4,0-.27-.06-1.19-.14-2.45a48.44,48.44,0,0,0-.54-5.77l-.74-5.75c-.11-.93-.21-1.68-.27-2.14a4.3,4.3,0,0,1,2-.5m0-1a5,5,0,0,0-3,.93c-.12.07-.11.09-.11.13s.55,4.3,1.07,8.46a47.3,47.3,0,0,1,.54,5.67l.15,2.56s1.07,4.75,1.2,4.75h0c.39,1.12.94,2,1.49,2s.87-.56,1.25-2a32.41,32.41,0,0,0,1-4.83s-.06-1.09-.16-2.72a54.91,54.91,0,0,0-.54-5.93c-.54-4.27-1.08-8.57-1.09-8.69a.65.65,0,0,0-.22-.11,5.72,5.72,0,0,0-1.61-.24Z"/>
          </g>
          <g>
            <path class="cls-2" d="M306,269.41a4.41,4.41,0,0,1-.81-2.08h0c0-.05-.88-4.33-1.68-5.62l.07,0a32.3,32.3,0,0,0-3.56-9.17l-2-2.95-2.08-2.32c-.92-.84-1.66-1.41-2.05-1.71l-.15-.11a4.14,4.14,0,0,1,2.19-3.41l.14.1c.47.36,1.45,1.11,2.6,2.18l2.48,2.78,2.31,3.48a36.64,36.64,0,0,1,4,10.5l0,.58a6.94,6.94,0,0,1,0,1.51c0,.33-.06.68-.08,1.05a10.47,10.47,0,0,1-.5,3C306.43,269,306.07,269.33,306,269.41Z"/>
            <path d="M295.87,242.66a31,31,0,0,1,2.42,2l.64.71,1.79,2,1,1.45,1.32,2a36,36,0,0,1,3.93,10.32l.05.59a6.46,6.46,0,0,1,0,1.39c0,.35-.06.71-.08,1.08a9.82,9.82,0,0,1-.47,2.84l0,.05v.05a10.37,10.37,0,0,1-.42,1.25,10.21,10.21,0,0,1-.34-1.15,22.34,22.34,0,0,0-.77-3.07,20,20,0,0,0-.89-2.75,32.58,32.58,0,0,0-3.6-9.17l-.39-.58-1.58-2.35,0-.06,0-.05-1.19-1.32-.84-.94,0,0,0,0c-.84-.76-1.55-1.31-2-1.63a3.54,3.54,0,0,1,1.6-2.6m.15-1.14a1.25,1.25,0,0,0-.24,0,4.69,4.69,0,0,0-2.56,4c0,.15,0,.16,0,.19s1,.73,2.3,1.9l2,2.27,2,2.93a31.94,31.94,0,0,1,3.5,9h0a43.79,43.79,0,0,1,1.59,5.5h0c.29,1.32.75,2.58,1.32,2.58.41,0,.89-.67,1.4-2.49a15.9,15.9,0,0,0,.62-4.18,8.28,8.28,0,0,0,0-1.6c0-.4-.05-.63-.05-.63a36.62,36.62,0,0,0-4.06-10.69l-2.36-3.54L299,244c-1.63-1.51-2.91-2.38-2.95-2.45Z"/>
          </g>
          <g>
            <path class="cls-2" d="M208.06,273.85a23.92,23.92,0,0,1-.83-5.07h-1l.49-.44.48.39a58,58,0,0,1-.13-6.66,29.69,29.69,0,0,1,.25-3.49c.06-.56.12-1.08.15-1.55a19.47,19.47,0,0,1,.42-2.24l0-.1a21.43,21.43,0,0,1,1.31-3.94l.57-1.35a30.14,30.14,0,0,1,4.85-7.44h0l.09-.05a2.79,2.79,0,0,1,.89-.16,1.67,1.67,0,0,1,1.23.47,3.31,3.31,0,0,1,.66,2.38,1.15,1.15,0,0,1,0,.16,25.43,25.43,0,0,0-4.18,6.41l-.48,1.12a16.05,16.05,0,0,0-1.07,3.13c-.09.34-.18.68-.28,1h0a9.77,9.77,0,0,0-.38,1.15l-.74,3c-.52,2.39-1,5.42-1.4,8.09l0,.3A23.45,23.45,0,0,1,208.06,273.85Z"/>
            <path d="M215.67,242.25a1.18,1.18,0,0,1,.87.32,2.84,2.84,0,0,1,.52,2A26.28,26.28,0,0,0,212.9,251l-.47,1.07a16.3,16.3,0,0,0-1.1,3.24c-.09.31-.17.63-.27.95-.06.16-.22.58-.4,1.23l-.26,1.08-.48,1.95c-.52,2.38-1,5.4-1.4,8.07l-.05.36c-.14,1.14-.27,2-.39,2.7-.12-.74-.24-1.7-.35-2.9h-.61l.59-.09a55.72,55.72,0,0,1-.13-6.59,29,29,0,0,1,.24-3.42c.07-.56.13-1.09.16-1.51a16.4,16.4,0,0,1,.41-2.21l0-.09a21.51,21.51,0,0,1,1.3-3.9l.55-1.3a29.22,29.22,0,0,1,4.7-7.24,2.27,2.27,0,0,1,.71-.13m0-1a3.32,3.32,0,0,0-1.06.19.48.48,0,0,0-.32.19,30.22,30.22,0,0,0-4.94,7.57l-.56,1.33a22.73,22.73,0,0,0-1.37,4.13A17.71,17.71,0,0,0,207,257c-.11,1.4-.43,3.26-.41,5.07a53,53,0,0,0,.15,6.78h0c.29,3.24.76,5.81,1.32,5.81s.91-1.56,1.4-5.58c.42-2.69.91-5.89,1.44-8.34.31-1.27.56-2.29.73-3a9.12,9.12,0,0,1,.38-1.14,23.66,23.66,0,0,1,1.33-4.1l.47-1.1A25.14,25.14,0,0,1,218,245a1.34,1.34,0,0,0,.08-.41c0-2.61-1.2-3.36-2.39-3.36Z"/>
          </g>
          <g>
            <path class="cls-2" d="M239.26,283.65a22.56,22.56,0,0,1-1.22-5l-.2-1.13c-.16-1.22-.39-3.31-.58-5.48-.31-3.47-.42-7.11-.42-7.14l0-.72c0-1.11.07-2.25.16-3.37,0-.92.14-1.93.26-3.09l.14-1a23.18,23.18,0,0,1,2.05-7.91.34.34,0,0,1,.12-.12,2.56,2.56,0,0,1,1.43-.5.8.8,0,0,1,.49.13,3.49,3.49,0,0,1,1,1.72c.1.28.21.57.34.86v0a24.42,24.42,0,0,0-1.64,7.26c-.13,1.16-.21,2.06-.26,2.91-.1,1.43-.17,3-.2,4.6l-.36,4.44-.6,8.58A23.13,23.13,0,0,1,239.26,283.65Z"/>
            <path d="M241,248.68h0a.83.83,0,0,1,.18,0h0l0,0,0,0a3.81,3.81,0,0,1,.74,1.45l.27.69a25.82,25.82,0,0,0-1.59,7.23c-.14,1.18-.22,2.08-.27,2.93-.1,1.43-.16,3-.19,4.6l-.37,4.45-.27,3.85-.33,4.75c-.05,1.16-.11,2.05-.18,2.74-.17-.73-.37-1.68-.57-2.88l-.19-1.13c-.16-1.18-.39-3.23-.58-5.44-.3-3.28-.41-6.72-.42-7.08l0-.71c0-1.1.07-2.24.16-3.37,0-.91.13-1.88.26-3,.05-.35.09-.7.14-1.05a22.79,22.79,0,0,1,2-7.68h0l.06,0a2,2,0,0,1,1.06-.36m0-1a3,3,0,0,0-1.69.58.67.67,0,0,0-.31.32c-1.62,3.28-1.83,6.15-2.23,9.1-.11,1-.21,2.07-.27,3.1-.11,1.39-.14,2.77-.18,4.14,0,0,.1,3.65.43,7.18.28,3.38.71,6.66.77,6.66v0c.54,3.19,1.21,5.69,1.76,5.69s.81-1.59,1-5.68c.24-3.39.45-6.39.6-8.57.22-2.76.36-4.47.36-4.47,0-1.54.09-3.07.2-4.58.05-1,.15-1.93.26-2.89.3-2.59.73-5.46,1.65-7.2a1,1,0,0,0,0-.35c-.51-1.19-.77-2.31-1.47-2.77a1.28,1.28,0,0,0-.81-.24Z"/>
          </g>
          <g>
            <path class="cls-2" d="M350.62,326.13a5.09,5.09,0,0,1-.82-2.38l-.17-.9c-.06-.49-.12-1.13-.17-1.69a17.11,17.11,0,0,0-.51-3.69c0-.4-.43-4-.43-4l-.26-2.54-.84-3.92c-.47-2.44-1.12-5.12-1.78-7.32,0,0-.83-3-.91-3.25a3.66,3.66,0,0,1,2.79-1.28,4.32,4.32,0,0,1,1,.12s1.56,5.61,1.91,6.9l.88,4.12.85,4.15.79,7.45a39.53,39.53,0,0,1-1.39,6C351.09,325.63,350.74,326,350.62,326.13Z"/>
            <path d="M347.52,295.7h0a4,4,0,0,1,.59.05c.17.6.47,1.69.85,3.07.29,1,.62,2.22,1,3.51l.67,3.14.21,1,.45,2.21.39,1.89.12,1.15c.1.9.19,1.75.27,2.51.23,2.18.38,3.62.38,3.62l0,.12a41.57,41.57,0,0,1-1.37,5.92,11.14,11.14,0,0,1-.42,1.23,10.74,10.74,0,0,1-.36-1.43l-.17-.89c-.05-.49-.11-1.13-.16-1.66a21.08,21.08,0,0,0-.52-3.78l-.33-3-.11-1-.25-2.37v-.11l-.26-1.19-.57-2.65c-.47-2.47-1.13-5.17-1.79-7.36l-.58-2.11c-.11-.37-.19-.67-.25-.89a3.1,3.1,0,0,1,2.23-.91m0-1a4.07,4.07,0,0,0-3.24,1.55c-.1.11-.09.13-.08.19l1,3.43c.6,2,1.27,4.65,1.77,7.29.28,1.32.56,2.63.83,3.86s.25,2.4.35,3.38c.22,2,.36,3.29.36,3.29h0c.28,0,.64,6.16.83,6.16h0c.28,1.5.74,2.8,1.31,2.8s.9-.69,1.41-2.52a30.47,30.47,0,0,0,1.39-6.41h0s-.15-1.45-.38-3.62c-.12-1.09-.25-2.36-.4-3.71s-.56-2.74-.85-4.15-.6-2.82-.89-4.15-.69-2.5-1-3.54l-1-3.58a.9.9,0,0,0-.24-.12,5.15,5.15,0,0,0-1.18-.15Z"/>
          </g>
        </g>
        <g id="freakles2">
          <g>
            <path class="cls-2" d="M220.08,142.5a3.47,3.47,0,0,1-3.35-3.63,2.75,2.75,0,0,1,.61-1.83,2.35,2.35,0,0,1,1.89-.78,3.48,3.48,0,0,1,3.36,3.64,2.8,2.8,0,0,1-.61,1.83A2.35,2.35,0,0,1,220.08,142.5Z"/>
            <path d="M219.23,136.76a2.65,2.65,0,0,1,2.09,1,3.44,3.44,0,0,1,.77,2.17,1.9,1.9,0,0,1-2,2.1,2.61,2.61,0,0,1-2.08-1,3.44,3.44,0,0,1-.77-2.17,1.9,1.9,0,0,1,2-2.11m0-1c-4.55,0-3.66,7.24.85,7.24s3.67-7.24-.85-7.24Z"/>
          </g>
          <g>
            <path class="cls-2" d="M236.33,131.71c-4.41,0-7.05-3.87-7.05-7.61a6.07,6.07,0,0,1,1.33-4,5.26,5.26,0,0,1,4.15-1.71c4.41,0,7.05,3.87,7.05,7.61a6.08,6.08,0,0,1-1.33,4A5.26,5.26,0,0,1,236.33,131.71Z"/>
            <path d="M234.76,118.91c4.1,0,6.55,3.62,6.55,7.11,0,2.51-1.31,5.19-5,5.19a6.05,6.05,0,0,1-4.82-2.25,7.69,7.69,0,0,1-1.73-4.86c0-2.51,1.31-5.19,5-5.19m0-1c-9,0-7.33,14.3,1.57,14.3s7.33-14.3-1.57-14.3Z"/>
          </g>
          <g>
            <path class="cls-2" d="M237.1,145.18A2.94,2.94,0,0,1,234,142a4.62,4.62,0,0,1,1-2.92,3.68,3.68,0,0,1,2.91-1.34,2.94,2.94,0,0,1,3.08,3.22,4.62,4.62,0,0,1-1,2.92A3.68,3.68,0,0,1,237.1,145.18Z"/>
            <path d="M238,138.19a2.48,2.48,0,0,1,2.58,2.72,3.55,3.55,0,0,1-3.44,3.77,2.46,2.46,0,0,1-1.95-.79,3,3,0,0,1-.63-1.94,3.54,3.54,0,0,1,3.44-3.76m0-1c-5.29,0-6.2,8.49-.86,8.49s6.2-8.49.86-8.49Z"/>
          </g>
          <g>
            <path class="cls-2" d="M224.84,161.34a2.59,2.59,0,0,1-2.56-2.77,2.46,2.46,0,0,1,.53-1.59,2,2,0,0,1,1.6-.66,2.59,2.59,0,0,1,2.55,2.77,2.48,2.48,0,0,1-.52,1.58A2,2,0,0,1,224.84,161.34Z"/>
            <path d="M224.41,156.81a2.13,2.13,0,0,1,2.05,2.28,1.91,1.91,0,0,1-.41,1.26,1.48,1.48,0,0,1-1.21.49,2.13,2.13,0,0,1-2.06-2.27,1.94,1.94,0,0,1,.41-1.26,1.52,1.52,0,0,1,1.22-.5m0-1c-3.78,0-3.34,6,.43,6s3.33-6-.43-6Z"/>
          </g>
          <g>
            <path class="cls-2" d="M254.21,164.46c-4.42,0-7.06-3.88-7.06-7.62a6.06,6.06,0,0,1,1.34-4,5.24,5.24,0,0,1,4.14-1.71c4.42,0,7.05,3.87,7.05,7.61a6.08,6.08,0,0,1-1.33,4A5.27,5.27,0,0,1,254.21,164.46Z"/>
            <path d="M252.63,151.66a6.1,6.1,0,0,1,4.83,2.24,7.77,7.77,0,0,1,1.72,4.87c0,2.5-1.3,5.19-5,5.19a6.1,6.1,0,0,1-4.83-2.25,7.72,7.72,0,0,1-1.73-4.87c0-2.5,1.31-5.18,5-5.18m0-1c-9,0-7.32,14.3,1.58,14.3s7.32-14.3-1.58-14.3Z"/>
          </g>
          <g>
            <path class="cls-2" d="M267.82,139.62c-.78,0-3.35-.21-3.69-2.86a3.84,3.84,0,0,1,.93-2.86,2.39,2.39,0,0,1,1.76-.89c.78,0,3.35.21,3.7,2.86a3.88,3.88,0,0,1-.94,2.86A2.39,2.39,0,0,1,267.82,139.62Z"/>
            <path d="M266.82,133.51a2.91,2.91,0,0,1,3.2,2.42,3.36,3.36,0,0,1-.81,2.47,1.91,1.91,0,0,1-1.39.72,2.91,2.91,0,0,1-3.2-2.42,3.35,3.35,0,0,1,.81-2.47,1.91,1.91,0,0,1,1.39-.72m0-1c-2,0-3.43,2.46-3.19,4.32.3,2.28,2.16,3.29,4.19,3.29s3.43-2.46,3.19-4.32c-.29-2.28-2.16-3.29-4.19-3.29Z"/>
          </g>
          <g>
            <path class="cls-2" d="M293.16,145.46a2.92,2.92,0,0,1-2.74-1.9,9.23,9.23,0,0,1-.35-1.53l0-.21a2.79,2.79,0,0,1,.51-2.39,3.66,3.66,0,0,1,5.17,0,2.88,2.88,0,0,1,.53,2.45h0l0,0-.18,1.07a2.94,2.94,0,0,1-1.73,2.32l-.1,0A2.77,2.77,0,0,1,293.16,145.46Z"/>
            <path d="M293.13,138.86a2.86,2.86,0,0,1,2.2.9,2.1,2.1,0,0,1,.47,1.44l-.28,1.62a2.45,2.45,0,0,1-1.45,2l.37.93-.43-.91a2.22,2.22,0,0,1-.85.16,2.43,2.43,0,0,1-2.27-1.57,9.26,9.26,0,0,1-.33-1.44l0-.22a2.27,2.27,0,0,1,.41-2,2.83,2.83,0,0,1,2.2-.9m0-1c-2,0-4.08,1.35-3.59,4a11.4,11.4,0,0,0,.41,1.82,3.41,3.41,0,0,0,3.21,2.23,3.17,3.17,0,0,0,1.21-.23l.1,0a3.44,3.44,0,0,0,2-2.71v0c.09-.34.15-.7.21-1,.48-2.74-1.56-4.1-3.6-4.1Z"/>
          </g>
          <g>
            <path class="cls-2" d="M282.12,160.68c-3.1,0-4.49-2.41-4.49-4.8a5.5,5.5,0,0,1,1.18-3.48,4.39,4.39,0,0,1,3.5-1.56c3.11,0,4.49,2.41,4.49,4.8S285.34,160.68,282.12,160.68Z"/>
            <path d="M282.31,151.34c2.76,0,4,2.16,4,4.3s-1.31,4.54-4.18,4.54a3.74,3.74,0,0,1-3-1.29,4.68,4.68,0,0,1-1-3c0-2.19,1.31-4.54,4.18-4.54m0-1c-6.78,0-7,10.84-.19,10.84s7-10.84.19-10.84Z"/>
          </g>
          <g>
            <path class="cls-2" d="M197.63,140.85a5.72,5.72,0,0,1-2.57-.61l-.8-.41a5.26,5.26,0,0,1-2.5-4.83,4.49,4.49,0,0,1,2.41-4.2l1.93-.91a2.89,2.89,0,0,1,1.4-.32,6.13,6.13,0,0,1,3.87,1.6,5.77,5.77,0,0,1,1.58,5.44,5.38,5.38,0,0,1-5.32,4.24Z"/>
            <path d="M197.5,130.07a5.68,5.68,0,0,1,3.52,1.46,5.33,5.33,0,0,1,1.45,5,4.9,4.9,0,0,1-4.85,3.86,5.2,5.2,0,0,1-2.34-.56l-.34-.17-.46-.23a4.76,4.76,0,0,1-2.22-4.38,4,4,0,0,1,2.12-3.76l2-.93a2.44,2.44,0,0,1,1.15-.25m0-1a3.44,3.44,0,0,0-1.62.37c-.63.31-1.27.61-1.91.9-3.79,1.73-3.45,8.16.06,9.94l.8.4a6.12,6.12,0,0,0,2.79.67,5.9,5.9,0,0,0,5.82-4.63,6.32,6.32,0,0,0-1.73-5.91,6.57,6.57,0,0,0-4.21-1.74Z"/>
          </g>
          <g>
            <path class="cls-2" d="M196.82,158.31a1.91,1.91,0,0,1-1.52-.65,1.65,1.65,0,0,1-.2-1.42l.8-1.39a1.77,1.77,0,0,1,1-.38,1,1,0,0,1,.57.18,2.4,2.4,0,0,1,1,1.46,1.71,1.71,0,0,1-.19,1.56,1.85,1.85,0,0,1-1.49.64Z"/>
            <path d="M196.92,155a.38.38,0,0,1,.26.08,1.9,1.9,0,0,1,.84,1.19,1.28,1.28,0,0,1-.1,1.13,1.59,1.59,0,0,1-2.22,0,1.07,1.07,0,0,1-.13-.92l.7-1.23a1.2,1.2,0,0,1,.65-.23m0-1a2.3,2.3,0,0,0-1.41.55l-.88,1.53A2.24,2.24,0,1,0,199,156a2.82,2.82,0,0,0-1.19-1.72,1.38,1.38,0,0,0-.87-.29Z"/>
          </g>
          <g>
            <path class="cls-2" d="M156.2,154.73a2,2,0,0,1-2-2.15,2.12,2.12,0,0,1,.45-1.36,1.66,1.66,0,0,1,1.34-.57,2,2,0,0,1,2,2.15,2.07,2.07,0,0,1-.45,1.35A1.67,1.67,0,0,1,156.2,154.73Z"/>
            <path d="M156,151.15a1.51,1.51,0,0,1,1.48,1.65,1.63,1.63,0,0,1-.33,1,1.18,1.18,0,0,1-1,.4,1.51,1.51,0,0,1-1.48-1.65,1.66,1.66,0,0,1,.33-1,1.19,1.19,0,0,1,1-.39m0-1c-3.18,0-3,5.08.19,5.08s3-5.08-.19-5.08Z"/>
          </g>
          <g>
            <path class="cls-2" d="M174.51,144a2.73,2.73,0,0,1-2.87-3,4.45,4.45,0,0,1,1-2.81,3.54,3.54,0,0,1,2.8-1.3,2.73,2.73,0,0,1,2.87,3,4.46,4.46,0,0,1-1,2.81A3.5,3.5,0,0,1,174.51,144Z"/>
            <path d="M175.44,137.36a2.27,2.27,0,0,1,2.37,2.48,3.47,3.47,0,0,1-3.3,3.62,2.24,2.24,0,0,1-1.8-.72,2.7,2.7,0,0,1-.57-1.77,3.46,3.46,0,0,1,3.3-3.61m0-1c-5,0-6,8.1-.93,8.1s6-8.1.93-8.1Z"/>
          </g>
          <g>
            <path class="cls-2" d="M271.52,177.4a4.49,4.49,0,0,1-3.29-1.38,4.1,4.1,0,0,1-1.08-3.14,4.3,4.3,0,0,1,4-4,3,3,0,0,1,.42,0,5.22,5.22,0,0,1,3.18,1.32,3.91,3.91,0,0,1,1.47,3,3.57,3.57,0,0,1-1.28,2.8,4.39,4.39,0,0,1-2.72,1.36,4.73,4.73,0,0,1-.65,0Z"/>
            <path d="M271.1,169.33a2.19,2.19,0,0,1,.36,0,4.6,4.6,0,0,1,2.89,1.17l0,.05,0,0a3.36,3.36,0,0,1,1.24,2.59,3.08,3.08,0,0,1-1.1,2.42l-.06,0-.05.05a3.88,3.88,0,0,1-2.36,1.14,3.77,3.77,0,0,1-.58,0,4,4,0,0,1-2.92-1.22,3.59,3.59,0,0,1-1-2.77,3.84,3.84,0,0,1,3.45-3.58m0-1a4.81,4.81,0,0,0-4.45,4.52,4.72,4.72,0,0,0,4.87,5.05,5.81,5.81,0,0,0,.72-.05,4.86,4.86,0,0,0,3-1.46,4.28,4.28,0,0,0-.15-6.56,5.66,5.66,0,0,0-3.47-1.46,4,4,0,0,0-.49,0Z"/>
          </g>
          <g>
            <path class="cls-2" d="M300.39,170.83a3,3,0,0,1-2.91-3.16A2.64,2.64,0,0,1,298,166a2.18,2.18,0,0,1,1.74-.72,3,3,0,0,1,2.92,3.17,2.57,2.57,0,0,1-.57,1.7A2.15,2.15,0,0,1,300.39,170.83Z"/>
            <path d="M299.78,165.74a2.53,2.53,0,0,1,2.42,2.67,2.12,2.12,0,0,1-.45,1.38,1.68,1.68,0,0,1-1.36.54,2.51,2.51,0,0,1-2.41-2.66,2.18,2.18,0,0,1,.44-1.39,1.71,1.71,0,0,1,1.36-.54m0-1c-4.13,0-3.5,6.59.61,6.59s3.51-6.59-.61-6.59Z"/>
          </g>
          <g>
            <path class="cls-2" d="M319,160.36a3.41,3.41,0,0,1-2.09-.72,3.71,3.71,0,0,1-.68-5,3.35,3.35,0,0,1,2.74-1.34l.47,0,.92.11a3.26,3.26,0,0,1,1.13.9l.07.08.17.22a3.16,3.16,0,0,1,.67,1.58v.13a3.86,3.86,0,0,1,0,.87,3.57,3.57,0,0,1-.85,1.84l-.58.71-.49.23a1.7,1.7,0,0,1-.3.12,4.19,4.19,0,0,1-.71.22A2.56,2.56,0,0,1,319,160.36Z"/>
            <path d="M318.94,153.78l.4,0,.85.11a3,3,0,0,1,.91.76l.06.07.15.2a2.54,2.54,0,0,1,.56,1.25c0,.05,0,.09,0,.14v.13a2.75,2.75,0,0,1,0,.69,3.08,3.08,0,0,1-.74,1.57l-.51.63-.36.17h-.06l-.23.1h0l-.56.18a3.11,3.11,0,0,1-.43,0,2.9,2.9,0,0,1-1.78-.61,3.2,3.2,0,0,1-.59-4.33,2.83,2.83,0,0,1,2.34-1.14m.48-1.05.05.08-.53,0a3.84,3.84,0,0,0-3.14,1.55,4.21,4.21,0,0,0,.77,5.71,4,4,0,0,0,2.4.82,3.79,3.79,0,0,0,.58-.05,4.74,4.74,0,0,0,.74-.22c.13-.05.26-.09.38-.15.71-.3,1.45-.73,1.45-1.2a1.18,1.18,0,0,0-.19.11,4.07,4.07,0,0,0,1-2.09,4.18,4.18,0,0,0,0-.93c0-.06,0-.1,0-.16a3.48,3.48,0,0,0-.76-1.83l-.17-.23-.1-.11a3.16,3.16,0,0,0-2.42-1.27Z"/>
          </g>
          <g>
            <path class="cls-2" d="M313.27,134.92a2.87,2.87,0,0,1-2.79-3,2.54,2.54,0,0,1,.55-1.67,2.14,2.14,0,0,1,1.7-.7,2.87,2.87,0,0,1,2.79,3,2.6,2.6,0,0,1-.55,1.67A2.11,2.11,0,0,1,313.27,134.92Z"/>
            <path d="M312.73,130a2.39,2.39,0,0,1,2.29,2.53,2.08,2.08,0,0,1-.44,1.35,1.61,1.61,0,0,1-1.31.52,2.39,2.39,0,0,1-2.29-2.53,2.05,2.05,0,0,1,.43-1.34,1.65,1.65,0,0,1,1.32-.53m0-1c-4,0-3.46,6.4.54,6.4s3.45-6.4-.54-6.4Z"/>
          </g>
        </g>
        <image id="hair1" width="496" height="521" xlink:href="assets/hair1.png"/>
      </g>
    </g>
  </g>
</svg>
