<svg xmlns="http://www.w3.org/2000/svg" xmlns:xlink="http://www.w3.org/1999/xlink" viewBox="0 0 413 500">
  <defs>
    <style>
     #btn-body2 .cls-1 {
        fill: #fff;
      }

     #btn-body2 .cls-2 {
        fill: #fff;
      }
    </style>
  </defs>
  <g id="btn-body2">
    <g id="body2-2" data-name="body2">
      <g id="body-2" data-name="body">
        <path class="cls-1" d="M187.12,488.35c-38.06,0-72.47-4.15-99.52-12-30.65-8.89-51.13-22.1-60.88-39.25C13.25,413.39,8,380,11.25,337.91,14,301.45,23.3,258.76,38,214.46,65.15,133,107.81,55.53,139.49,30.19c11.8-9.44,38.35-15.54,67.65-15.54,37.41,0,68.47,9.67,83.08,25.87,30.49,33.8,67.2,115.66,91.35,203.68C407.84,340,410.87,412,389.69,437c-12.19,14.37-40.19,27.53-78.84,37C273.42,483.27,229.48,488.35,187.12,488.35Z"/>
        <path d="M207.15,15.15c37.26,0,68.18,9.61,82.7,25.71C305,57.7,322,86.61,338.74,124.45c16,36,31,78.61,42.35,119.88,12,43.91,19.48,84.43,21.5,117.17,2.25,36.29-2.35,62.29-13.29,75.19-12.11,14.3-40,27.4-78.57,36.89-37.39,9.2-81.29,14.27-123.61,14.27-38,0-72.38-4.15-99.38-12-30.52-8.86-50.9-22-60.58-39C13.73,413.23,8.55,380,11.75,338c2.78-36.42,12-79.07,26.77-123.33,27.07-81.35,69.67-158.75,101.29-184,11.71-9.37,38.14-15.43,67.33-15.43h0m0-1c-28.66,0-55.83,5.94-68,15.65C76.46,80-31.44,335.79,26.29,437.34,47.1,474,115,488.85,187.12,488.85c85.55,0,177.06-21,203-51.51,47.72-56.29-35.94-326.72-99.48-397.15-16.61-18.42-51-26-83.45-26Z"/>
      </g>
      <g class="shadow">
        <path class="cls-1" d="M187.08,488.34c-38.05,0-72.45-4.15-99.49-12-30.65-8.9-51.12-22.1-60.87-39.25C13.25,413.39,8,380,11.25,337.91,14,301.45,23.3,258.76,38,214.46,65.15,133,107.81,55.53,139.49,30.19c11.8-9.44,38.35-15.54,67.65-15.54,37.41,0,68.47,9.67,83.08,25.87,9.79,10.86,20.23,26.6,31.06,46.85-2.45-3.26-4.86-6.2-7.18-8.78-13.41-14.87-41.8-23.74-75.94-23.74-26.73,0-51,5.6-61.85,14.28-28.82,23.05-67.58,93.41-92.18,167.3C54.75,324.72,51,398.49,74,438.81c16.93,29.79,70.16,46.88,146,46.88,9.58,0,19.3-.29,29.06-.86A561,561,0,0,1,187.08,488.34Z"/>
        <path d="M207.14,15.15c37.27,0,68.19,9.61,82.71,25.71,8.9,9.87,18.34,23.79,28.14,41.49-1.19-1.45-2.37-2.82-3.52-4.1-13.5-15-42-23.9-76.31-23.9-26.83,0-51.23,5.65-62.16,14.39-28.89,23.1-67.72,93.56-92.34,167.54-13.39,40.22-21.8,79-24.33,112.14-2.93,38.42,1.85,68.91,14.19,90.64,9,15.86,27.85,28.05,56,36.21,24.61,7.15,55.9,10.92,90.49,10.92q5.4,0,10.86-.12c-14.68,1.17-29.42,1.77-43.76,1.77-38,0-72.35-4.14-99.35-12-30.52-8.86-50.89-22-60.57-39C13.73,413.23,8.55,380,11.75,338c2.78-36.42,12-79.07,26.77-123.33,27.07-81.35,69.67-158.75,101.29-184,11.71-9.37,38.14-15.43,67.33-15.43m0-1c-28.66,0-55.82,5.94-68,15.65C76.46,80-31.44,335.79,26.29,437.34c20.8,36.61,88.69,51.5,160.79,51.5a559.53,559.53,0,0,0,81.16-6c-15.93,1.54-32.21,2.35-48.26,2.35-65.29,0-126.75-13.48-145.59-46.63-52.27-92,45.44-323.61,102.23-369,11-8.79,35.59-14.17,61.54-14.17,29.4,0,60.53,6.9,75.57,23.57A148.25,148.25,0,0,1,325,93.37C313.46,71,301.71,52.52,290.59,40.19c-16.61-18.41-51-26-83.45-26Z"/>
      </g>
      <g id="freakles3">
        <g>
          <path class="cls-2" d="M197.11,193a1.3,1.3,0,0,1-1.32-1.39,1.46,1.46,0,0,1,.33-.95,1.19,1.19,0,0,1,1-.4,1.3,1.3,0,0,1,1.33,1.38,1.46,1.46,0,0,1-.33,1A1.2,1.2,0,0,1,197.11,193Z"/>
          <path d="M197.08,190.78a.73.73,0,0,1,.61.24,1,1,0,0,1,.22.64.77.77,0,0,1-.8.85.72.72,0,0,1-.6-.24,1,1,0,0,1-.22-.64.77.77,0,0,1,.79-.85m0-1c-2.41,0-2.38,3.73,0,3.73s2.39-3.73,0-3.73Z"/>
        </g>
        <g>
          <path class="cls-2" d="M175.82,189a2.28,2.28,0,0,1-2.32-2.42,2.21,2.21,0,0,1,2.28-2.37,2.28,2.28,0,0,1,2.32,2.42,2.5,2.5,0,0,1-.57,1.65A2.19,2.19,0,0,1,175.82,189Z"/>
          <path d="M175.78,184.74a1.79,1.79,0,0,1,1.82,1.92,1.72,1.72,0,0,1-1.78,1.87,1.79,1.79,0,0,1-1.82-1.92,1.72,1.72,0,0,1,1.78-1.87m0-1c-3.74,0-3.69,5.79,0,5.79s3.69-5.79,0-5.79Z"/>
        </g>
        <g>
          <path class="cls-2" d="M156.81,209.89a4.16,4.16,0,0,1-3.68-2.16,4.09,4.09,0,0,1-.15-4.26,5.08,5.08,0,0,1,4.39-2.46,6.09,6.09,0,0,1,.85.07,4.44,4.44,0,0,1,2.5,1.21c.81,1.06.87,1.15,1.08,1.15a3.62,3.62,0,0,1,.59,2,3.48,3.48,0,0,1-.45,1.73V207l-.84,1.09h0l-.1.14-.09.12a3.51,3.51,0,0,1-2.82,1.47,1.94,1.94,0,0,1-.34,0h-.14A5.27,5.27,0,0,1,156.81,209.89Z"/>
          <path d="M157.37,201.51a5,5,0,0,1,.77.07,3.93,3.93,0,0,1,2.18,1c.72.94.94,1.22,1.18,1.31a3.26,3.26,0,0,1,.25,2.49l-1,1.35,0,0,0,.07h0l-.07.1-.05.06,0,0,0,0a3,3,0,0,1-2.38,1.22h-.29l-.14,0-.14,0a4.14,4.14,0,0,1-.7.06,3.69,3.69,0,0,1-3.25-1.91,3.64,3.64,0,0,1-.15-3.77,4.6,4.6,0,0,1,4-2.2m0-1c-3.77,0-6.91,3.72-4.67,7.48a4.7,4.7,0,0,0,4.11,2.4,5.12,5.12,0,0,0,.87-.08,2.68,2.68,0,0,0,.4,0,4,4,0,0,0,3.2-1.64c.06-.07.11-.15.17-.23a.43.43,0,0,1,0,0,.41.41,0,0,0,.05-.09l.24-.19a4,4,0,0,0,0-5.65l-.24-.2c.27.38.41.56.4.56l-.78-1a4.89,4.89,0,0,0-2.77-1.34,5.84,5.84,0,0,0-.93-.08Z"/>
        </g>
        <g>
          <path class="cls-2" d="M188.37,216.58a4.65,4.65,0,0,1-4.75-4.93,5.1,5.1,0,0,1,1.17-3.35,4.47,4.47,0,0,1,3.5-1.49,4.65,4.65,0,0,1,4.75,4.93,5.13,5.13,0,0,1-1.17,3.35A4.47,4.47,0,0,1,188.37,216.58Z"/>
          <path d="M188.29,207.31a4.17,4.17,0,0,1,4.25,4.43,4.56,4.56,0,0,1-1,3,4,4,0,0,1-3.12,1.32,4.05,4.05,0,0,1-3.18-1.35,4.8,4.8,0,0,1-1.07-3.08,4,4,0,0,1,4.17-4.34m0-1c-6.95,0-6.87,10.77.08,10.77s6.86-10.77-.08-10.77Z"/>
        </g>
        <g>
          <path class="cls-2" d="M217.07,204.31a3.21,3.21,0,0,1-1-.17l-.25-.08a3.89,3.89,0,0,1-2.76-3.69,3.71,3.71,0,0,1,2.66-3.57l.29-.09a3.44,3.44,0,0,1,1-.17,3.84,3.84,0,0,1,2.64,6.61,3.77,3.77,0,0,1-2.61,1.16Z"/>
          <path d="M217,197a3.48,3.48,0,0,1,3.32,3.35,3.44,3.44,0,0,1-1,2.41,3.25,3.25,0,0,1-2.26,1,2.8,2.8,0,0,1-.86-.13l-.13,0a.32.32,0,0,1-.09,0h-.06a3.32,3.32,0,0,1-2.39-3.2,3.23,3.23,0,0,1,2.29-3.09c.11,0,.21-.06.32-.09A2.73,2.73,0,0,1,217,197m0-1a3.7,3.7,0,0,0-1.21.2l-.28.09a4.28,4.28,0,0,0,.06,8.19,2.46,2.46,0,0,0,.29.09,3.67,3.67,0,0,0,1.17.19,4.38,4.38,0,0,0,0-8.76Z"/>
        </g>
        <g>
          <path class="cls-2" d="M190.87,180.65a3.85,3.85,0,0,1-3.93-4.08,4.22,4.22,0,0,1,1-2.77,3.68,3.68,0,0,1,2.89-1.23,3.85,3.85,0,0,1,3.93,4.08A3.77,3.77,0,0,1,190.87,180.65Z"/>
          <path d="M190.8,173.07a3.26,3.26,0,0,1,2.56,1.09,3.86,3.86,0,0,1,.87,2.49,3.26,3.26,0,0,1-3.36,3.5,3.33,3.33,0,0,1-3.43-3.58,3.26,3.26,0,0,1,3.36-3.5m0-1c-5.86,0-5.78,9.08.07,9.08s5.78-9.08-.07-9.08Z"/>
        </g>
        <g>
          <path class="cls-2" d="M144.47,178.92a.2.2,0,0,0,0,.39A.2.2,0,0,0,144.47,178.92Z"/>
          <path d="M144.47,178.92a.2.2,0,0,0,0,.39.2.2,0,0,0,0-.39Z"/>
        </g>
        <g>
          <path class="cls-2" d="M144.51,183.24a3.92,3.92,0,0,1-4-4.17,4.36,4.36,0,0,1,1-2.83,3.77,3.77,0,0,1,3-1.25,3.92,3.92,0,0,1,4,4.17,4.36,4.36,0,0,1-1,2.83A3.78,3.78,0,0,1,144.51,183.24Z"/>
          <path d="M144.44,175.49a3.31,3.31,0,0,1,2.62,1.11,3.94,3.94,0,0,1,.89,2.56,3.33,3.33,0,0,1-3.44,3.58,3.41,3.41,0,0,1-3.51-3.67,3.33,3.33,0,0,1,3.44-3.58m0-1c-6,0-5.9,9.25.07,9.25s5.9-9.25-.07-9.25Z"/>
        </g>
        <g>
          <path class="cls-2" d="M133.19,199.85l-1.15,0a.64.64,0,0,1-.65-.67.6.6,0,0,1,.62-.64l1.08,0h.09l.07,0h.27a.61.61,0,0,1,.49.16.87.87,0,0,1,0,1.07.58.58,0,0,1-.43.15l-.33,0Z"/>
          <path d="M133.32,199h.33s0,.07,0,.21a.45.45,0,0,1,0,.16h-.56l-1.07,0c-.07,0-.15,0-.15-.17s.05-.14.14-.14h.07l1,0h.23m-.13-1-.1,0L132,198a1.16,1.16,0,0,0,0,2.31l1.09,0a.29.29,0,0,0,.1,0h.38a1.09,1.09,0,0,0,1.11-1.2,1.11,1.11,0,0,0-1.11-1.19h-.4Z"/>
        </g>
        <g>
          <path class="cls-2" d="M114.42,180.26a1.08,1.08,0,0,1-1.11-1.16,1.25,1.25,0,0,1,.27-.8,1,1,0,0,1,.81-.33,1.09,1.09,0,0,1,1.11,1.16,1.19,1.19,0,0,1-.28.79A1,1,0,0,1,114.42,180.26Z"/>
          <path d="M114.39,178.47a.49.49,0,0,1,.44.17.71.71,0,0,1,.17.49.56.56,0,0,1-.58.63.54.54,0,0,1-.45-.17.78.78,0,0,1-.16-.49.55.55,0,0,1,.58-.63m0-1a1.65,1.65,0,0,0,0,3.29,1.65,1.65,0,0,0,0-3.29Z"/>
        </g>
        <g>
          <path class="cls-2" d="M123.19,213.15a1.37,1.37,0,0,1-1.41-1.47,1.55,1.55,0,0,1,.35-1,1.27,1.27,0,0,1,1-.43,1.37,1.37,0,0,1,1.41,1.47,1.55,1.55,0,0,1-.35,1A1.28,1.28,0,0,1,123.19,213.15Z"/>
          <path d="M123.16,210.74a.81.81,0,0,1,.67.27,1.08,1.08,0,0,1,.24.7.86.86,0,0,1-.88.94.79.79,0,0,1-.67-.27,1.08,1.08,0,0,1-.24-.7.85.85,0,0,1,.88-.94m0-1c-2.53,0-2.5,3.91,0,3.91s2.5-3.91,0-3.91Z"/>
        </g>
        <g>
          <path class="cls-2" d="M152.45,217.69H152a1,1,0,0,1-1-1,.91.91,0,0,1,.94-.95l.45,0a1.38,1.38,0,0,1,1.33.63.75.75,0,0,1,0,.7,1.38,1.38,0,0,1-1.35.64Z"/>
          <path d="M152.46,216.22c.51,0,.67.07.91.4,0,0,0,.13,0,.13h0a.91.91,0,0,1-1,.44h-.39a.46.46,0,0,1-.49-.49.41.41,0,0,1,.46-.45l.43,0m0-1-.48,0a1.47,1.47,0,0,0,0,2.94h.44a1.9,1.9,0,0,0,1.76-.85,1.25,1.25,0,0,0,0-1.28,1.87,1.87,0,0,0-1.74-.84Z"/>
        </g>
        <g>
          <path class="cls-2" d="M246.94,201.83a9,9,0,0,1-1.15-.08,5.17,5.17,0,0,1-1.56-.62c-.24-.12-.47-.24-.7-.34a4.42,4.42,0,0,1-2.34-4.18,4.26,4.26,0,0,1,2.27-4.05,13.43,13.43,0,0,1,3.78-1.19,5.29,5.29,0,0,1,.54,0,4.34,4.34,0,0,1,3.43,1.86,5.82,5.82,0,0,1,1.12,4.84c-.64,2.41-2.61,3.8-5.39,3.8Z"/>
          <path d="M247.78,191.83a3.93,3.93,0,0,1,3,1.66,5.31,5.31,0,0,1,1,4.41,4.74,4.74,0,0,1-4.91,3.43,6.83,6.83,0,0,1-1.09-.08,5,5,0,0,1-1.4-.56q-.36-.19-.72-.36a3.92,3.92,0,0,1-2-3.72,3.79,3.79,0,0,1,2-3.59,13,13,0,0,1,3.65-1.15,2.56,2.56,0,0,1,.47,0m0-1a4,4,0,0,0-.6,0,13.55,13.55,0,0,0-3.92,1.22c-3.5,1.53-3.37,7.65.07,9.15a10.11,10.11,0,0,0,2.4,1,9.83,9.83,0,0,0,1.21.08c2.67,0,5.1-1.28,5.87-4.17.83-3.11-1.54-7.33-5-7.33Z"/>
        </g>
        <g>
          <path class="cls-2" d="M218.41,183a1.26,1.26,0,0,1-1.27-1.35,1.39,1.39,0,0,1,.31-.91,1.19,1.19,0,0,1,.94-.39,1.25,1.25,0,0,1,1.28,1.34,1.45,1.45,0,0,1-.32.92A1.17,1.17,0,0,1,218.41,183Z"/>
          <path d="M218.39,180.8a.76.76,0,0,1,.78.84.73.73,0,0,1-.76.81.72.72,0,0,1-.57-.23,1,1,0,0,1-.2-.61.72.72,0,0,1,.75-.81m0-1c-2.36,0-2.32,3.65,0,3.65s2.33-3.65,0-3.65Z"/>
        </g>
        <g>
          <path class="cls-2" d="M238.46,206.67a1.17,1.17,0,0,1-1.19-1.26,1.34,1.34,0,0,1,.29-.85,1.09,1.09,0,0,1,.88-.37,1.17,1.17,0,0,1,1.19,1.25,1.32,1.32,0,0,1-.3.86A1.09,1.09,0,0,1,238.46,206.67Z"/>
          <path d="M238.44,204.69a.68.68,0,0,1,.69.75A.69.69,0,0,1,238,206a.91.91,0,0,1-.18-.56.64.64,0,0,1,.67-.72m0-1a1.74,1.74,0,0,0,0,3.48,1.74,1.74,0,0,0,0-3.48Z"/>
        </g>
        <g>
          <path class="cls-2" d="M195.88,94.51a3,3,0,0,1-3-3.14,3.23,3.23,0,0,1,.74-2.13,2.81,2.81,0,0,1,2.22-.94,3,3,0,0,1,3,3.14,3.27,3.27,0,0,1-.75,2.13A2.82,2.82,0,0,1,195.88,94.51Z"/>
          <path d="M195.82,88.8a2.47,2.47,0,0,1,2.52,2.64A2.51,2.51,0,0,1,194,93.22a2.86,2.86,0,0,1-.64-1.85,2.39,2.39,0,0,1,2.46-2.57m0-1c-4.65,0-4.59,7.21.06,7.21s4.59-7.21-.06-7.21Z"/>
        </g>
        <g>
          <path class="cls-2" d="M178.33,78.49a3.21,3.21,0,0,1-3.27-3.41,3.51,3.51,0,0,1,.81-2.31,3,3,0,0,1,2.41-1,3.2,3.2,0,0,1,3.27,3.4,3.61,3.61,0,0,1-.8,2.32A3.07,3.07,0,0,1,178.33,78.49Z"/>
          <path d="M178.28,72.25a2.6,2.6,0,0,1,2.07.87,3.18,3.18,0,0,1,.7,2A2.64,2.64,0,0,1,178.33,78a2.6,2.6,0,0,1-2.07-.87,3.23,3.23,0,0,1-.7-2,2.63,2.63,0,0,1,2.72-2.83m0-1c-5,0-4.94,7.74.05,7.74s4.94-7.74-.05-7.74Z"/>
        </g>
        <g>
          <path class="cls-2" d="M206,72.18a2.21,2.21,0,0,1-2-2.06,2.24,2.24,0,0,1,.67-1.5,1.89,1.89,0,0,1,1.29-.6,1.4,1.4,0,0,1,.53.11l1,.42a1.75,1.75,0,0,1,1.19,1.57,1.71,1.71,0,0,1-1.17,1.54l-1,.41a1.45,1.45,0,0,1-.54.11Z"/>
          <path d="M205.94,68.52a.88.88,0,0,1,.33.06l1,.43a1.25,1.25,0,0,1,.88,1.11,1.21,1.21,0,0,1-.87,1.08l-1,.41a1,1,0,0,1-.35.07,1.7,1.7,0,0,1-1.48-1.56A1.72,1.72,0,0,1,205,69a1.39,1.39,0,0,1,.93-.45m0-1a2.58,2.58,0,0,0,0,5.16,1.91,1.91,0,0,0,.73-.15l1-.41a2.12,2.12,0,0,0,0-4l-1-.42a2,2,0,0,0-.71-.14Z"/>
        </g>
        <g>
          <path class="cls-2" d="M190.84,75.1a1.13,1.13,0,0,1-.32,0,1.23,1.23,0,0,1-.92-1.17,1.27,1.27,0,0,1,1.22-1.26,1.29,1.29,0,0,1,.88.36l.05.06h0l-.26.45.6.19a.19.19,0,0,1,.13.18.15.15,0,0,1-.12.16l.29,1h-.12l-.4-.22-.05-.39a3.68,3.68,0,0,1-.45.59A1.37,1.37,0,0,1,190.84,75.1Z"/>
          <path d="M190.82,72.12a1.74,1.74,0,0,0-.43,3.42,1.68,1.68,0,0,0,.45.06,1.85,1.85,0,0,0,.89-.24c.06,0,.74-.86.57-.86h0a.68.68,0,0,0,0-1.3c.14-.23.07-.43-.21-.58a1.72,1.72,0,0,0-1.23-.51Z"/>
        </g>
        <g>
          <path class="cls-2" d="M180.39,87.4a2.94,2.94,0,0,0-1.56,1,1,1,0,0,0,0,1,2.86,2.86,0,0,0,1.57,1C182.88,91.42,182.9,86.36,180.39,87.4Z"/>
          <path d="M181,87.26c.82,0,1.23.82,1.23,1.63,0-.81-.41-1.63-1.23-1.63Zm1.23,1.63c0,.83-.41,1.65-1.23,1.65.82,0,1.23-.82,1.23-1.65Z"/>
        </g>
        <g>
          <path class="cls-2" d="M148.59,81.1a2.75,2.75,0,0,1-2.31-1.27,2,2,0,0,1,.09-2.1,2.11,2.11,0,0,1,1.86-1.12,2.52,2.52,0,0,1,2,1,2.08,2.08,0,0,1,.38,1.89,2,2,0,0,1-2,1.63Z"/>
          <path d="M148.23,77.11a2.1,2.1,0,0,1,1.58.77,1.66,1.66,0,0,1,.29,1.47,1.48,1.48,0,0,1-1.51,1.25,2.27,2.27,0,0,1-1.88-1,1.53,1.53,0,0,1,.1-1.6,1.57,1.57,0,0,1,1.42-.87m0-1a2.58,2.58,0,0,0-2.29,1.37c-1.31,2.28.74,4.12,2.65,4.12a2.46,2.46,0,0,0,2.48-2,2.85,2.85,0,0,0-2.84-3.49Z"/>
        </g>
        <g>
          <path class="cls-2" d="M165.78,59.3a.44.44,0,0,1-.45-.48.51.51,0,0,1,.11-.34.39.39,0,0,1,.33-.13.44.44,0,0,1,.45.48.51.51,0,0,1-.11.34A.39.39,0,0,1,165.78,59.3Z"/>
          <path d="M165.77,57.85a1,1,0,0,0,0,1.95,1,1,0,0,0,0-1.95Z"/>
        </g>
        <g>
          <path class="cls-2" d="M197.53,51.23a2.22,2.22,0,0,1-.37,0,.73.73,0,0,1-.36-.1l-.06,0-.17,0a.78.78,0,0,1-.58-.92V50a.75.75,0,0,1,.48-.88l.22-.06a1.17,1.17,0,0,1,.45-.15l.39,0a1.78,1.78,0,0,1,1.5.77.88.88,0,0,1,0,.82,1.84,1.84,0,0,1-1.51.77Z"/>
          <path d="M197.52,49.37a1.3,1.3,0,0,1,1.09.55.75.75,0,0,1,0,.24,1.34,1.34,0,0,1-1.11.57l-.29,0h-.1a.51.51,0,0,1-.11,0l-.1,0-.11,0-.16,0c-.14-.06-.21-.11-.18-.36l0-.13,0-.13c0-.24,0-.29.2-.36l0,0h0l.22-.06.06,0,.06,0a.76.76,0,0,1,.18-.06h.09l.27,0m0-1a2,2,0,0,0-.42,0,1.34,1.34,0,0,0-.59.17l-.24.07a1.24,1.24,0,0,0-.78,1.41,1.25,1.25,0,0,0,.8,1.41,2.76,2.76,0,0,0,.27.08,1.39,1.39,0,0,0,.51.14,2.45,2.45,0,0,0,.46,0,2.32,2.32,0,0,0,1.91-1,1.35,1.35,0,0,0,0-1.4,2.29,2.29,0,0,0-1.91-1Z"/>
        </g>
        <g>
          <path class="cls-2" d="M213.4,84.66a2,2,0,0,1-1.76-1,1.77,1.77,0,0,1-.1-1.89,2.42,2.42,0,0,1,2.07-1.13,2.19,2.19,0,0,1,.36,0,1.59,1.59,0,0,1,1.29,1.15,2.23,2.23,0,0,1-.42,2.23,2,2,0,0,1-1.44.6Z"/>
          <path d="M213.61,81.15l.29,0a1.11,1.11,0,0,1,.89.82,1.75,1.75,0,0,1-.3,1.72,1.56,1.56,0,0,1-2.42-.29A1.33,1.33,0,0,1,212,82a1.89,1.89,0,0,1,1.63-.87m0-1c-1.9,0-3.58,1.81-2.4,3.78a2.55,2.55,0,0,0,4,.48c1.22-1.24.8-3.94-1.15-4.23l-.44,0Z"/>
        </g>
        <g>
          <path class="cls-2" d="M236,71.34a1.18,1.18,0,0,1-1.2-1.25,1.32,1.32,0,0,1,.3-.86,1.1,1.1,0,0,1,.87-.36,1.16,1.16,0,0,1,1.19,1.25,1.31,1.31,0,0,1-.29.86A1.1,1.1,0,0,1,236,71.34Z"/>
          <path d="M235.93,69.37a.6.6,0,0,1,.51.2.81.81,0,0,1,.18.55.69.69,0,0,1-1.17.52.85.85,0,0,1-.19-.55.64.64,0,0,1,.67-.72m0-1c-2.24,0-2.21,3.47,0,3.47s2.21-3.47,0-3.47Z"/>
        </g>
        <g>
          <path class="cls-2" d="M215.91,54.34a1.77,1.77,0,0,1-1.83-1.77,1.71,1.71,0,0,1,.5-1.24,1.91,1.91,0,0,1,1.34-.55,1.87,1.87,0,0,1,.9.22,1.84,1.84,0,0,1,1.1,1.58,1.76,1.76,0,0,1-1.07,1.52,1.93,1.93,0,0,1-.94.24Z"/>
          <path d="M215.92,51.28a1.44,1.44,0,0,1,.67.16,1.37,1.37,0,0,1,.83,1.13,1.27,1.27,0,0,1-.81,1.09,1.42,1.42,0,0,1-.69.18,1.28,1.28,0,0,1-1.34-1.27,1.23,1.23,0,0,1,.35-.89,1.4,1.4,0,0,1,1-.4m0-1a2.28,2.28,0,1,0,0,4.56,2.46,2.46,0,0,0,1.16-.29,2.15,2.15,0,0,0,0-4,2.31,2.31,0,0,0-1.13-.28Z"/>
        </g>
        <g>
          <path class="cls-2" d="M226,67.87a6.51,6.51,0,0,1-4.65-11.14,6.39,6.39,0,0,1,4.55-1.93,6.51,6.51,0,0,1,4.66,11.13A6.4,6.4,0,0,1,226,67.87Z"/>
          <path d="M225.87,55.3a6,6,0,0,1,4.3,10.28,5.89,5.89,0,0,1-4.2,1.79,6,6,0,0,1-4.3-10.28,5.89,5.89,0,0,1,4.2-1.79m0-1a7,7,0,1,0,7.08,7,7.09,7.09,0,0,0-7.08-7Z"/>
        </g>
        <g>
          <path class="cls-2" d="M252.26,73.34a3.07,3.07,0,0,1-3.14-3.27,3.38,3.38,0,0,1,.77-2.22,2.91,2.91,0,0,1,2.31-1,3.08,3.08,0,0,1,3.15,3.28,3.38,3.38,0,0,1-.77,2.22A3,3,0,0,1,252.26,73.34Z"/>
          <path d="M252.2,67.36a2.47,2.47,0,0,1,2,.84,3,3,0,0,1,.67,1.94,2.51,2.51,0,0,1-2.59,2.7,2.47,2.47,0,0,1-2-.83,3,3,0,0,1-.67-1.94,2.51,2.51,0,0,1,2.58-2.71m0-1c-4.82,0-4.76,7.48.06,7.48s4.77-7.48-.06-7.48Z"/>
        </g>
        <g>
          <path class="cls-2" d="M274.82,82.34a3.3,3.3,0,0,1-3.37-3.5,3.66,3.66,0,0,1,.83-2.38,3.14,3.14,0,0,1,2.48-1,3.3,3.3,0,0,1,3.36,3.5,3.61,3.61,0,0,1-.83,2.38A3.14,3.14,0,0,1,274.82,82.34Z"/>
          <path d="M274.76,75.91a2.69,2.69,0,0,1,2.13.9,3.23,3.23,0,0,1,.73,2.1,2.72,2.72,0,0,1-2.8,2.93,2.68,2.68,0,0,1-2.14-.9,3.28,3.28,0,0,1-.73-2.1,2.73,2.73,0,0,1,2.81-2.93m0-1c-5.12,0-5.05,7.93.06,7.93s5.05-7.93-.06-7.93Z"/>
        </g>
        <g>
          <path class="cls-2" d="M165.81,58.66a3.43,3.43,0,0,1-3.5-3.63,3.77,3.77,0,0,1,.86-2.46,3.27,3.27,0,0,1,2.58-1.09,3.42,3.42,0,0,1,3.49,3.62,3.8,3.8,0,0,1-.86,2.47A3.3,3.3,0,0,1,165.81,58.66Z"/>
          <path d="M165.75,52a2.79,2.79,0,0,1,2.23.94,3.4,3.4,0,0,1,.76,2.18,2.85,2.85,0,0,1-2.93,3.06,2.8,2.8,0,0,1-2.24-.95,3.38,3.38,0,0,1-.76-2.18A2.84,2.84,0,0,1,165.75,52m0-1c-5.29,0-5.22,8.18.06,8.18S171,51,165.75,51Z"/>
        </g>
        <g>
          <path class="cls-2" d="M162.18,74.37a2.11,2.11,0,0,1-1.5-.65l-.07-.08-.1,0-.4-.22a2.36,2.36,0,0,1-.67-.59,2.17,2.17,0,0,1-.58-1.77,1.91,1.91,0,0,1,.91-1.34l.31-.19a2.24,2.24,0,0,1,1.14-.31,2.21,2.21,0,0,1,1.58.64,3.34,3.34,0,0,1,1,3.26,1.58,1.58,0,0,1-1.59,1.29Z"/>
          <path d="M161.22,69.68a1.71,1.71,0,0,1,1.23.5,2.85,2.85,0,0,1,.83,2.79,1.07,1.07,0,0,1-1.1.9,1.59,1.59,0,0,1-1.13-.49l-.15-.16-.2-.08-.34-.19a1.81,1.81,0,0,1-.53-.47l0,0,0,0a1.67,1.67,0,0,1-.43-1.34,1.33,1.33,0,0,1,.67-1l.31-.19a1.66,1.66,0,0,1,.88-.24m0-1a2.78,2.78,0,0,0-1.4.38l-.31.2A2.48,2.48,0,0,0,159,73.1a2.79,2.79,0,0,0,.82.71,4.13,4.13,0,0,0,.45.25,2.59,2.59,0,0,0,1.87.81,2,2,0,0,0,2.07-1.67,3.82,3.82,0,0,0-1.09-3.73,2.75,2.75,0,0,0-1.94-.79Z"/>
        </g>
        <g>
          <path class="cls-2" d="M274.81,189.3a2.54,2.54,0,0,1-2.58-2.69,2.57,2.57,0,0,1,4.46-1.81,2.85,2.85,0,0,1,.65,1.87A2.45,2.45,0,0,1,274.81,189.3Z"/>
          <path d="M274.76,184.47a1.94,1.94,0,0,1,1.55.65,2.4,2.4,0,0,1,.53,1.55,2,2,0,0,1-2,2.13,2,2,0,0,1-2.08-2.19,2.37,2.37,0,0,1,.51-1.51,1.9,1.9,0,0,1,1.52-.63m0-1c-4.07,0-4,6.33.05,6.33s4-6.33-.05-6.33Z"/>
        </g>
        <g>
          <path class="cls-2" d="M298.54,171.34a2.19,2.19,0,0,1-2.11-2,2.06,2.06,0,0,1,1.55-2.41,2.54,2.54,0,0,1,.7-.11,2.18,2.18,0,0,1,2.07,2.16,2.06,2.06,0,0,1-1.82,2.34A2.56,2.56,0,0,1,298.54,171.34Z"/>
          <path d="M298.68,167.31a1.7,1.7,0,0,1,1.57,1.7,1.58,1.58,0,0,1-1.4,1.81l-.31,0a1.71,1.71,0,0,1-1.62-1.58,1.61,1.61,0,0,1,1.2-1.86,1.87,1.87,0,0,1,.56-.09m0-1a3.27,3.27,0,0,0-.84.12c-3.09.88-2.2,5.41.7,5.41a2.56,2.56,0,0,0,.47,0c3.43-.55,2.64-5.49-.33-5.49Z"/>
        </g>
        <g>
          <path class="cls-2" d="M309.9,148a2.58,2.58,0,0,1-2.63-2.74,2.8,2.8,0,0,1,.65-1.85,2.43,2.43,0,0,1,1.93-.82,2.57,2.57,0,0,1,2.62,2.73,2.85,2.85,0,0,1-.64,1.86A2.44,2.44,0,0,1,309.9,148Z"/>
          <path d="M309.85,143.08a2,2,0,0,1,1.58.66,2.41,2.41,0,0,1,.54,1.57,2.12,2.12,0,0,1-3.66,1.51,2.45,2.45,0,0,1-.54-1.57,2,2,0,0,1,2.08-2.17m0-1c-4.14,0-4.09,6.41,0,6.41s4.08-6.41,0-6.41Z"/>
        </g>
        <g>
          <path class="cls-2" d="M287.64,178.09a1.59,1.59,0,0,1-1.49-1.47,1.62,1.62,0,0,1,1.49-1.5,1,1,0,0,1,.61.21,9.65,9.65,0,0,1,.89.73.77.77,0,0,1,.22.56.75.75,0,0,1-.21.53,7.75,7.75,0,0,1-.87.72,1,1,0,0,1-.64.22Z"/>
          <path d="M287.64,175.62a.48.48,0,0,1,.32.11,8.46,8.46,0,0,1,.82.68.3.3,0,0,1,.08.21.22.22,0,0,1-.06.17,8,8,0,0,1-.82.68.56.56,0,0,1-.34.12,1.1,1.1,0,0,1-1-1,1.14,1.14,0,0,1,1-1m0-1a2,2,0,1,0,0,4,1.51,1.51,0,0,0,.94-.32,9.39,9.39,0,0,0,.91-.76,1.3,1.3,0,0,0,0-1.82,9.63,9.63,0,0,0-.93-.76,1.47,1.47,0,0,0-.91-.31Z"/>
        </g>
        <g>
          <path class="cls-2" d="M314.94,167.08c-4.52,0-6.58-3.54-6.58-6.83a7.06,7.06,0,0,1,1.62-4.62,6.19,6.19,0,0,1,4.85-2.07c4.52,0,6.57,3.54,6.57,6.83a7.05,7.05,0,0,1-1.61,4.62A6.19,6.19,0,0,1,314.94,167.08Z"/>
          <path d="M314.83,154.06c4.17,0,6.07,3.28,6.07,6.33s-1.84,6.19-6,6.19a5.74,5.74,0,0,1-4.54-2,6.75,6.75,0,0,1-1.54-4.38c0-3.08,1.85-6.19,6-6.19m0-1c-9.36,0-9.25,14.52.11,14.52s9.24-14.52-.11-14.52Z"/>
        </g>
        <g>
          <path class="cls-2" d="M311.15,127.45a2.11,2.11,0,0,1-2.15-2.24,2.35,2.35,0,0,1,.53-1.53,2,2,0,0,1,1.58-.67,2.11,2.11,0,0,1,2.14,2.25A2,2,0,0,1,311.15,127.45Z"/>
          <path d="M311.11,123.51a1.63,1.63,0,0,1,1.64,1.75,1.9,1.9,0,0,1-.4,1.2,1.51,1.51,0,0,1-1.2.49,1.6,1.6,0,0,1-1.65-1.74,1.56,1.56,0,0,1,1.61-1.7m0-1c-3.51,0-3.47,5.44,0,5.44s3.46-5.44,0-5.44Z"/>
        </g>
        <g>
          <path class="cls-2" d="M296.59,110.59a3.84,3.84,0,0,1-3.48-3.24,3.79,3.79,0,0,1,.75-3,2.81,2.81,0,0,1,2.21-1,2.93,2.93,0,0,1,3,2.77l0,.1.09.15,0,0a2.7,2.7,0,0,1-.44,3.16,2.83,2.83,0,0,1-2.14,1Z"/>
          <path d="M296.1,102.84v1a2.47,2.47,0,0,1,2.44,2.33l0,.22.12.19.07.11a2.21,2.21,0,0,1-.4,2.53,2.35,2.35,0,0,1-1.77.87,3.43,3.43,0,0,1-2.35-5.46,2.3,2.3,0,0,1,1.83-.79l0-1m0,0h0c-2.56,0-3.79,2.32-3.44,4.58a4.31,4.31,0,0,0,4,3.67,3.32,3.32,0,0,0,2.52-1.21,3.16,3.16,0,0,0,.46-3.79.1.1,0,0,1,0,0,3.41,3.41,0,0,0-3.43-3.2Z"/>
        </g>
        <g>
          <path class="cls-2" d="M105.66,124a3.55,3.55,0,0,1-3.62-3.78,3.94,3.94,0,0,1,.89-2.56,3.4,3.4,0,0,1,2.67-1.13,3.55,3.55,0,0,1,3.62,3.77,3.89,3.89,0,0,1-.89,2.56A3.41,3.41,0,0,1,105.66,124Z"/>
          <path d="M105.6,117a2.91,2.91,0,0,1,2.33,1,3.54,3.54,0,0,1,.79,2.28,3,3,0,0,1-3.06,3.2,3,3,0,0,1-3.12-3.28A3,3,0,0,1,105.6,117m0-1c-5.46,0-5.39,8.47.06,8.47s5.39-8.47-.06-8.47Z"/>
        </g>
        <g>
          <path class="cls-2" d="M95.66,158.85c-4,0-5.88-3.17-5.88-6.11a6.31,6.31,0,0,1,1.44-4.13,5.52,5.52,0,0,1,4.34-1.85c4,0,5.88,3.16,5.88,6.1S99.63,158.85,95.66,158.85Z"/>
          <path d="M95.56,147.26c3.69,0,5.38,2.9,5.38,5.6s-1.64,5.49-5.28,5.49a5.14,5.14,0,0,1-4-1.72,6,6,0,0,1-1.35-3.89c0-2.73,1.63-5.48,5.28-5.48m0-1c-8.45,0-8.34,13.09.1,13.09s8.33-13.09-.1-13.09Z"/>
        </g>
        <g>
          <path class="cls-2" d="M113.17,163.7a2,2,0,0,1-2.06-2.15,2.22,2.22,0,0,1,.51-1.46,1.91,1.91,0,0,1,1.51-.64,2,2,0,0,1,2.06,2.15,2.24,2.24,0,0,1-.51,1.47A1.94,1.94,0,0,1,113.17,163.7Z"/>
          <path d="M113.13,160a1.44,1.44,0,0,1,1.16.48,1.78,1.78,0,0,1,.4,1.17,1.5,1.5,0,0,1-1.52,1.6,1.44,1.44,0,0,1-1.16-.48,1.76,1.76,0,0,1-.4-1.17,1.47,1.47,0,0,1,1.52-1.6m0-1c-3.39,0-3.35,5.25,0,5.25s3.35-5.25,0-5.25Z"/>
        </g>
        <g>
          <path class="cls-2" d="M99.38,174.39a1.45,1.45,0,0,1-1.49-1.56,1.42,1.42,0,0,1,1.46-1.53,1.46,1.46,0,0,1,1.5,1.57,1.71,1.71,0,0,1-.37,1.07A1.38,1.38,0,0,1,99.38,174.39Z"/>
          <path d="M99.35,171.8a.91.91,0,0,1,.74.3,1.21,1.21,0,0,1,.26.77.93.93,0,0,1-1,1,1,1,0,0,1-1-1.06.94.94,0,0,1,1-1m0-1c-2.64,0-2.61,4.09,0,4.09s2.61-4.09,0-4.09Z"/>
        </g>
        <g>
          <path class="cls-2" d="M123.19,83a1.5,1.5,0,0,1-1.54-1.61,1.73,1.73,0,0,1,.38-1.11,1.43,1.43,0,0,1,1.13-.47,1.5,1.5,0,0,1,1.54,1.61,1.73,1.73,0,0,1-.38,1.11A1.43,1.43,0,0,1,123.19,83Z"/>
          <path d="M123.16,80.28a1,1,0,0,1,.77.31,1.27,1.27,0,0,1,.27.81,1,1,0,0,1-1,1.07,1,1,0,0,1-.77-.31,1.27,1.27,0,0,1-.27-.8,1,1,0,0,1,1-1.08m0-1c-2.7,0-2.67,4.19,0,4.19s2.67-4.19,0-4.19Z"/>
        </g>
        <g>
          <path class="cls-2" d="M118,95.91a3.3,3.3,0,0,1-1.66-1l-.31-.25a.82.82,0,0,1-.29-1,1.49,1.49,0,0,1,1.25-1,.78.78,0,0,1,.64.34l.27.32c.92,1.1,1.24,1.69.69,2.25A.79.79,0,0,1,118,95.91Z"/>
          <path d="M117,93.21s.13,0,.25.15l.28.33c1,1.16.92,1.37.71,1.58s-.2.14-.23.14c-.34,0-1-.53-1.34-.84l-.32-.26a.34.34,0,0,1-.13-.45,1,1,0,0,1,.78-.65m0-1c-1.27,0-2.58,1.83-1.28,2.88.63.5,1.46,1.32,2.29,1.32A1.29,1.29,0,0,0,119,96c1.09-1.1-.22-2.36-.91-3.23a1.29,1.29,0,0,0-1-.53Z"/>
        </g>
        <g>
          <path class="cls-2" d="M335,174.72a1.76,1.76,0,0,1-1.8-1.89,2,2,0,0,1,.44-1.28,1.66,1.66,0,0,1,1.32-.56,1.7,1.7,0,0,1,1.35.58,2,2,0,0,1,.45,1.31A1.71,1.71,0,0,1,335,174.72Z"/>
          <path d="M334.91,171.49a1.3,1.3,0,0,1,1.3,1.39,1.24,1.24,0,0,1-1.26,1.34,1.21,1.21,0,0,1-1-.4,1.5,1.5,0,0,1-.34-1,1.24,1.24,0,0,1,1.26-1.34m0-1c-3,0-3,4.73,0,4.73s3-4.73,0-4.73Z"/>
        </g>
      </g>
      <image id="image" width="413" height="500" xlink:href="assets/snake1.png"/>
    </g>
  </g>
</svg>
