<svg id="part-ears3" data-name="Layer 1" xmlns="http://www.w3.org/2000/svg" viewBox="0 0 526 140">
  <defs>
    <style>
     #part-ears3 .cls-1 {
        fill: #fff;
      }
    </style>
  </defs>
  <g id="ears3">
    <g>
      <path class="cls-1" d="M191.23,117.18c-22.89-14.66-43.55-21.79-63.15-21.79-15.41,0-28.1,4.35-39.3,8.19-3.44,1.18-6.69,2.3-9.92,3.26a67.14,67.14,0,0,1-19,3.09c-29.06,0-39.73-26.63-45.65-50.38,8.67,6.25,15.57,11.12,22.18,11.12a13.06,13.06,0,0,0,2.17-.18l1.31-.22-1.13-.7c-5.83-3.57-14.47-23-4.62-43.1C42,37.74,48.88,47.41,57,51.41l.84.42-.12-.93c-1.84-14,4.15-27.27,11.2-33.53,1.54,7.89,7.65,27.2,20.22,34.84l.71.43,0-.83c.89-14.39,6.17-32.16,18.28-39.35,4.38,14.35,10.22,24.33,17.86,30.49l.94.76-.13-1.2a27.79,27.79,0,0,1-.14-5.22,46.44,46.44,0,0,1,5.81-18.38A38.12,38.12,0,0,1,145.8,4.16c-3.34,12-1.19,32.23,3.14,41.2a23.57,23.57,0,0,0,2.71,4l1.88,2.39-1-2.86c-2.44-6.93-2.34-13.45.28-18.36,2.32-4.36,6.53-7.44,12.5-9.14-2,8.86,2.14,19.81,7.19,26.9l.71,1,.19-1.21c1-6.49,3.67-9.16,9.38-9.35-.81,26.95,8.85,33.39,19.09,40.21,4.31,2.87,8.77,5.84,12.74,10.45-1.29,12.91-7.58,19.79-12.65,23.29A28.38,28.38,0,0,1,191.23,117.18Z"/>
      <path d="M145,5.35c-3,12.44-.73,31.43,3.52,40.23a24.42,24.42,0,0,0,2.77,4L155,54.41l-2-5.74c-2.39-6.79-2.3-13.17.25-18,2.16-4,6-7,11.41-8.67-1.57,8.86,2.47,19.51,7.43,26.48l1.42,2,.38-2.42c1-6.07,3.27-8.58,8.38-8.9-.68,26.77,9,33.24,19.32,40.09,4.24,2.82,8.61,5.74,12.51,10.21-1.06,10.09-5.23,17.72-12.39,22.68a28.17,28.17,0,0,1-10.37,4.47c-22.91-14.65-43.6-21.77-63.25-21.77-15.49,0-28.22,4.37-39.46,8.22-3.44,1.18-6.68,2.29-9.9,3.25a66.58,66.58,0,0,1-18.87,3.07c-12.63,0-22.53-4.9-30.28-15-6-7.83-10.66-18.58-14.55-33.7,8.23,5.91,14.88,10.41,21.36,10.41A14,14,0,0,0,38.63,71l2.63-.45L39,69.15c-2.72-1.67-6.32-7.45-7.94-15.27a42,42,0,0,1,3.14-26.42c7.73,11,14.53,20.42,22.6,24.4l1.67.83-.24-1.85C56.47,37.42,62,24.73,68.62,18.34c1.81,8.43,8,26.83,20.27,34.3l1.42.85.1-1.65c.87-14,5.93-31.33,17.49-38.62,4.39,14.13,10.23,24,17.84,30.12l1.88,1.51-.26-2.4a26.74,26.74,0,0,1-.14-5.12c.48-5.93,2.31-11.71,5.75-18.18a36.71,36.71,0,0,1,12-13.8M146.69,3c-8.17,5.33-11.69,10.23-14.6,15.72a47.09,47.09,0,0,0-5.86,18.57,27.09,27.09,0,0,0,.14,5.31c-6.9-5.56-13.06-14.76-17.88-30.85C95.13,19.16,90.23,38.52,89.41,51.78,77.14,44.33,70.72,24.92,69.26,16.43c-7.55,6.19-13.93,20-12,34.53C49.31,47.06,42.7,37.86,34,25.5,23.52,46,32.51,66.34,38.46,70a12.08,12.08,0,0,1-2.08.17c-6.72,0-13.78-5.17-23-11.82C20.32,86.81,32,110.43,59.85,110.43A67.19,67.19,0,0,0,79,107.32c14-4.18,29.14-11.43,49.07-11.43,16.85,0,37.13,5.19,63,21.82,0,0,21.54-2.87,24-28.53-13.69-16.08-33.18-12.5-31.83-51-6.51,0-9.32,3-10.4,9.78-5.13-7.22-9.25-18.53-6.91-27.32C150.17,24.72,148,37.38,152,49a24,24,0,0,1-2.65-3.86C145,36,142.76,14.79,146.69,3Z"/>
    </g>
    <g>
      <path class="cls-1" d="M469.37,129c-6.87,0-14.56-1.69-22.86-5-3.12-1.26-6.25-2.67-9.57-4.17-12.66-5.71-27-12.17-46.14-12.17-17.35,0-36.05,5.29-57.14,16.19-2-.54-20.52-6.24-20.69-29.9,4.39-4.22,9.1-6.76,13.67-9.22,10.82-5.83,21-11.34,22.74-38.26,5.67.73,8.06,3.62,8.48,10.18l.07,1.22.8-.93c5.69-6.6,10.77-17.12,9.66-26.12,5.78,2.25,9.68,5.7,11.59,10.26,2.16,5.14,1.65,11.64-1.42,18.32l-1.27,2.75,2.09-2.2a25.64,25.64,0,0,0,3.07-3.68c5.14-8.54,9.16-28.49,6.95-40.74a38.09,38.09,0,0,1,11.83,15.93c2.86,6.84,4.16,12.82,4.09,18.84a29.26,29.26,0,0,1-.63,5.18l-.23,1.17,1-.66c8.17-5.42,14.92-14.81,20.61-28.7,11.39,8.28,15,26.47,14.54,40.89l0,.82.74-.36c13.22-6.42,21.1-25.09,23.38-32.8,6.43,6.89,11.16,20.64,8,34.42l-.2.91.87-.33c8.45-3.22,16.21-12.22,25.12-22.71,7.93,20.94-2.48,39.47-8.6,42.49l-1.2.59,1.29.34a13.11,13.11,0,0,0,3.45.44c6.23,0,13.14-4,21.82-9.07C507.65,104.65,495.46,129,469.38,129Z"/>
      <path d="M390.11,16.77a37.15,37.15,0,0,1,10.66,14.85c2.83,6.78,4.12,12.7,4.05,18.64a28.05,28.05,0,0,1-.62,5.09l-.47,2.35,2-1.32c8.15-5.4,14.88-14.67,20.56-28.33,10.82,8.33,14.26,26,13.82,40.08l-.05,1.65,1.49-.72c12.91-6.27,20.78-24,23.38-32.26,6,7,10.32,20.13,7.33,33.32l-.42,1.82,1.75-.67c8.39-3.19,16-11.93,24.77-22.19A42,42,0,0,1,499,75.67c-2.34,7.64-6.46,13.06-9.32,14.47l-2.4,1.19,2.58.68a14.11,14.11,0,0,0,3.58.45c6.08,0,12.7-3.65,20.89-8.44-7.61,21.26-19.72,44.49-45,44.49-6.81,0-14.44-1.68-22.68-5-3.11-1.25-6.24-2.66-9.55-4.15-12.71-5.73-27.11-12.22-46.35-12.22-17.39,0-36.1,5.28-57.19,16.15-2.65-.76-19.87-6.57-20.13-29.15,4.29-4.08,8.91-6.58,13.39-9,10.88-5.86,21.16-11.4,23-38.13,5.06.8,7.12,3.51,7.51,9.64l.15,2.45,1.6-1.86c5.59-6.49,10.59-16.72,9.86-25.67,5.23,2.2,8.78,5.45,10.55,9.67,2.1,5,1.6,11.37-1.41,17.92l-2.54,5.51,4.17-4.41a25.72,25.72,0,0,0,3.14-3.76c5-8.37,9-27.08,7.23-39.73m-1.48-2.54c2.81,12.14-1.34,33-6.61,41.75a24.81,24.81,0,0,1-3,3.6c5.14-11.2,4.12-24-11.25-29.55,1.53,9-3.64,19.85-9.42,26.56-.43-6.87-3-10.05-9.43-10.7C346.67,84.36,327.6,79,312.47,93.71c.06,25.78,21.25,30.64,21.25,30.64,23.29-12.06,41.75-16.22,57.08-16.22,23.94,0,40.28,10.15,55.53,16.3,8.67,3.5,16.3,5.08,23.05,5.08,24.88,0,37.78-21.51,46.83-47.74-9.19,5.4-16.37,9.69-22.74,9.69a12.75,12.75,0,0,1-3.32-.42c6.27-3.09,17.11-22.47,8.54-43.9-9.77,11.5-17.2,20-25.46,23.2,3.25-14.3-1.82-28.63-8.77-35.5-2.24,8.31-10.43,27-23.35,33.32.41-13.28-2.66-33-15.26-41.67-6.29,15.58-13.28,24.16-20.67,29.05a30.08,30.08,0,0,0,.64-5.27,47.46,47.46,0,0,0-4.12-19c-2.39-5.74-5.43-10.94-13.07-17Z"/>
    </g>
  </g>
</svg>
