<svg id="Layer_1" data-name="Layer 1" xmlns="http://www.w3.org/2000/svg" viewBox="0 0 670 231">
  <defs>
    <style>
      .cls-1 {
        fill: #fff;
      }
    </style>
  </defs>
  <g id="ears2">
    <g>
      <path class="cls-1" d="M511.82,213.73c-6.08-3.44-11.16-9.7-16.07-15.76A107.48,107.48,0,0,0,486.06,187c-7.57-7-13.81-9.67-21-12.72-2.9-1.22-5.89-2.49-9.28-4.14-13.35-6.53-20.95-16.88-22.61-30.77-3.48-29.07,20-65.57,38.28-80.74,29.19-24.2,67.92-29.29,95.27-29.29a247.36,247.36,0,0,1,42.56,3.79l5.84,1c13.48,2.27,27.41,4.61,39.36,11.11-9.34,15.38-28.87,18.78-46.12,21.79-5.43,1-10.56,1.84-15.3,3l-3.77,1,3.89,0c20,.1,32.88,6,41.74,19.13a73.51,73.51,0,0,0-10.54-.77A68.58,68.58,0,0,0,602.68,93l-.91.3.76.57c3.16,2.39,6.92,4.69,10.89,7.12,14.12,8.63,30.1,18.41,27.14,37.22-5.79-.23-12.54-1.8-19.67-3.46-8.65-2-17.6-4.08-26-4.08-9.21,0-16.26,2.58-21.56,7.89l-.34.34.33.35c9,9.56,17.49,20.38,18.94,34.75-6.61-3.14-16.65-6.63-24.43-6.63-4.71,0-8,1.3-9.73,3.85-2,3-1.9,7.67.42,13.9-4.47-.24-11.19-3.27-18.28-6.46-8.72-3.93-17.75-8-24.65-8a10.61,10.61,0,0,0-6.88,2.12c-4.93,4-2.2,15.13.45,25.89C510.61,204.56,512,210.12,511.82,213.73Z"/>
      <path d="M566.69,28.87v1a246.33,246.33,0,0,1,42.47,3.79l5.85,1c13.26,2.24,27,4.54,38.74,10.81-9.33,14.8-28.53,18.15-45.51,21.11-5.44,1-10.58,1.84-15.34,3.06l-7.54,1.93,7.78,0c19.29.09,32,5.66,40.7,18a75.31,75.31,0,0,0-9.49-.62,69.34,69.34,0,0,0-21.83,3.57l-1.82.6,1.53,1.15c3.18,2.41,6.95,4.71,10.93,7.15,13.87,8.48,29.56,18.08,27,36.27-5.65-.29-12.21-1.81-19.14-3.42-8.68-2-17.65-4.1-26.1-4.1-9.35,0-16.52,2.63-21.91,8l-.68.69.66.7c10.08,10.72,17.15,20.61,18.71,33.58-6.65-3.06-16.29-6.3-23.84-6.3h0c-4.89,0-8.3,1.37-10.14,4.07-2.06,3-2,7.59.09,13.61-4.36-.51-10.68-3.35-17.33-6.35-8.78-4-17.85-8-24.86-8a11.14,11.14,0,0,0-7.2,2.23c-5.17,4.21-2.4,15.49.28,26.4,1.32,5.39,2.59,10.52,2.65,14.05-5.68-3.47-10.51-9.43-15.19-15.21a109.47,109.47,0,0,0-9.74-11c-7.64-7.1-13.91-9.75-21.18-12.82-2.89-1.22-5.88-2.48-9.25-4.13-13.19-6.45-20.7-16.67-22.34-30.38-3.45-28.89,19.91-65.2,38.11-80.29,29.07-24.11,67.68-29.18,95-29.18v-1m0,0c-34.35,0-69.56,7.82-95.59,29.41-27.17,22.54-63.2,89.06-15.57,112.33,12.13,5.93,19.76,7.09,30.19,16.79,8.94,8.32,16.14,21.69,26.54,27.13,1.1-9.56-10.8-35.18-3.23-41.34a10.11,10.11,0,0,1,6.57-2c12.75,0,33.7,14.46,43.48,14.46h.18c-5.3-13.55.19-17.76,8.58-17.76,8,0,18.53,3.78,25,7-1.18-14.71-9.41-25.58-19.15-35.93,5.79-5.81,13.19-7.74,21.2-7.74,15.46,0,33.19,7.18,46.09,7.56,4.25-24.8-23.65-34.29-38.16-45.26A68.25,68.25,0,0,1,624.35,90a73.45,73.45,0,0,1,11.58.94c-9.76-15.15-23.87-20.21-42.78-20.3,20.48-5.24,49.85-4.78,62-25.52-13.87-7.69-30.43-9.71-45.82-12.41a248,248,0,0,0-42.64-3.8Z"/>
    </g>
    <g>
      <path class="cls-1" d="M165,208.54c-.15-3.61,1.24-9.17,2.7-15,2.69-10.76,5.47-21.88.46-25.89a10.89,10.89,0,0,0-7-2.13c-7,0-16.18,4.06-25,8-7.21,3.2-14,6.22-18.59,6.46,2.34-6.19,2.5-10.84.47-13.84-1.76-2.59-5.1-3.9-9.93-3.9-7.9,0-18.11,3.49-24.83,6.63,1.47-14.36,10.1-25.19,19.24-34.76l.35-.35-.36-.35c-5.37-5.3-12.54-7.88-21.9-7.88-8.53,0-17.62,2.08-26.42,4.09-7.25,1.65-14.1,3.22-20,3.46-3-18.81,13.23-28.59,27.58-37.22,4-2.43,7.86-4.73,11.07-7.12l.78-.58-.92-.3a71.14,71.14,0,0,0-22-3.54A76,76,0,0,0,39.88,85c9-13.13,22.16-19,42.43-19.13l4,0-3.84-1c-4.82-1.21-10-2.11-15.56-3.05-17.53-3-37.38-6.42-46.87-21.8C32.16,33.58,46.35,31.23,60.07,29c2-.33,3.94-.65,5.88-1a255.27,255.27,0,0,1,43.25-3.79c27.8,0,67.17,5.09,96.85,29.3C224.58,68.6,248.42,105,245,134.09c-1.66,13.95-9.4,24.34-23,30.88-3.44,1.66-6.49,2.92-9.43,4.14-7.34,3-13.69,5.68-21.38,12.73a107.54,107.54,0,0,0-9.86,10.93C176.32,198.84,171.15,205.1,165,208.54Z"/>
      <path d="M109.2,24.67c27.72,0,67,5.07,96.53,29.19,10,8.13,20.34,21.32,27.75,35.27,11,20.76,12.07,35.87,11,44.9-1.63,13.77-9.28,24-22.72,30.49-3.43,1.65-6.46,2.91-9.4,4.13-7.39,3.07-13.77,5.72-21.53,12.82a108.26,108.26,0,0,0-9.9,11c-4.77,5.79-9.69,11.76-15.48,15.23.07-3.53,1.35-8.67,2.7-14.06,2.73-10.91,5.54-22.19.28-26.4a11.32,11.32,0,0,0-7.3-2.24c-7.12,0-16.34,4.09-25.25,8-6.77,3-13.2,5.85-17.65,6.35,2.14-6,2.19-10.54.14-13.56-1.86-2.74-5.33-4.12-10.34-4.12-7.67,0-17.48,3.24-24.24,6.31,1.58-13,8.76-22.86,19-33.59l.68-.71-.7-.69c-5.48-5.4-12.76-8-22.26-8-8.58,0-17.71,2.09-26.53,4.1-7,1.61-13.71,3.14-19.46,3.43C31.91,114.32,47.86,104.72,62,96.24,66,93.8,69.84,91.5,73.07,89.09l1.56-1.16-1.85-.59A71.19,71.19,0,0,0,50.6,83.77a76.09,76.09,0,0,0-9.66.62c8.9-12.32,21.77-17.89,41.38-18l7.91,0-7.67-1.93C77.72,63.22,72.49,62.32,67,61.37c-17.25-3-36.76-6.3-46.24-21.11,12-6.27,25.93-8.58,39.43-10.82q3-.48,5.9-1a255.24,255.24,0,0,1,43.16-3.78m0-1a255.85,255.85,0,0,0-43.33,3.8c-15.65,2.7-32.48,4.73-46.58,12.41,12.35,20.75,42.21,20.28,63,25.53-19.22.09-33.55,5.15-43.48,20.29a77.14,77.14,0,0,1,11.77-.93,70.34,70.34,0,0,1,21.87,3.52c-14.74,11-43.1,20.46-38.77,45.25,13.1-.38,31.13-7.56,46.83-7.56,8.14,0,15.66,1.93,21.55,7.74-9.9,10.36-18.27,21.23-19.46,35.93,6.58-3.19,17.33-7,25.41-7,8.54,0,14.12,4.2,8.73,17.76h.17c9.95,0,31.24-14.47,44.2-14.47a10.36,10.36,0,0,1,6.68,2c7.69,6.16-4.4,31.78-3.28,41.34,10.57-5.45,17.89-18.81,27-27.13,10.6-9.71,18.35-10.86,30.69-16.78C270.6,142.15,234,75.62,206.36,53.08c-26.45-21.59-62.25-29.41-97.16-29.41Z"/>
    </g>
  </g>
  <g id="shadow">
    <g>
      <path class="cls-1" d="M496.37,168.45c-3.91-2.22-7.21-6.16-10.4-10a70.94,70.94,0,0,0-6.48-7.06c-5.06-4.55-9.23-6.25-14.05-8.22-1.92-.78-3.91-1.6-6.16-2.66-8.88-4.2-13.91-10.87-15-19.83-2.19-18.63,13.36-42,25.43-51.63,19.39-15.56,45.13-18.83,63.31-18.83a169.93,169.93,0,0,1,28.27,2.43l3.87.64c8.9,1.45,18.09,3,26,7.06C585,70.07,572.1,72.24,560.73,74.15c-3.62.61-7,1.19-10.21,2l-3,.74,3,.25c14.74,1.22,21.34,3.24,27.45,11.91a50.66,50.66,0,0,0-6.65-.45,47.31,47.31,0,0,0-14.47,2.29l-.94.3.8.58c2.11,1.55,4.62,3,7.27,4.6,9.3,5.51,19.82,11.74,18,23.61a79.34,79.34,0,0,1-12.92-2.21c-5.76-1.3-11.72-2.64-17.31-2.64-6.18,0-10.91,1.68-14.47,5.13l-.36.35.35.36c5.9,6.06,11.47,12.91,12.52,21.95-4.41-2-11-4.16-16.05-4.16-3.25,0-5.5.89-6.67,2.63-1.31,1.94-1.24,4.89.21,8.78-2.94-.25-7.27-2.14-11.84-4.13-5.82-2.54-11.85-5.16-16.47-5.16a7.39,7.39,0,0,0-4.68,1.4c-3.37,2.66-1.53,9.88.24,16.86C495.52,162.72,496.39,166.16,496.37,168.45Z"/>
      <path d="M533.06,50.75a168.88,168.88,0,0,1,28.18,2.43l3.88.64c8.67,1.41,17.63,2.87,25.34,6.75-6.17,9.11-18.19,11.13-29.82,13.09-3.63.61-7.06,1.19-10.24,2l-5.91,1.46,6.07.51c14,1.15,20.58,3,26.41,10.77a50.31,50.31,0,0,0-5.57-.31,47.69,47.69,0,0,0-14.62,2.32L554.9,91l1.59,1.17c2.14,1.56,4.65,3,7.31,4.62,9.05,5.36,19.26,11.4,17.82,22.66a84.87,84.87,0,0,1-12.38-2.18c-5.79-1.3-11.77-2.65-17.43-2.65-6.31,0-11.15,1.73-14.81,5.27l-.71.7.69.72c6.5,6.67,11.1,12.84,12.27,20.78-4.43-1.91-10.57-3.84-15.44-3.84-3.43,0-5.81,1-7.09,2.85s-1.35,4.79-.11,8.46c-2.83-.47-6.77-2.19-10.9-4-5.87-2.55-11.94-5.2-16.67-5.2a7.89,7.89,0,0,0-5,1.51c-3.62,2.85-1.75,10.23.07,17.37a57.31,57.31,0,0,1,1.72,8.32c-3.51-2.24-6.54-5.87-9.49-9.39a69.53,69.53,0,0,0-6.52-7.11c-5.13-4.61-9.34-6.33-14.2-8.31-1.92-.79-3.9-1.59-6.13-2.65-8.72-4.12-13.66-10.66-14.69-19.44-2.17-18.45,13.27-41.58,25.25-51.18,19.28-15.47,44.9-18.72,63-18.72h0m0-1c-22.85,0-46.29,5-63.62,18.94C451.35,83.18,427.38,126,459.07,141c8.07,3.81,13.15,4.55,20.09,10.8,5.95,5.35,10.74,13.95,17.66,17.46.73-6.15-7.18-22.65-2.15-26.61a6.84,6.84,0,0,1,4.37-1.3c8.48,0,22.43,9.31,28.94,9.31h.11c-3.53-8.72.13-11.43,5.72-11.43,5.29,0,12.33,2.43,16.63,4.48-.78-9.46-6.26-16.46-12.74-23.12,3.86-3.74,8.78-5,14.11-5,10.29,0,22.08,4.63,30.66,4.87,2.83-16-15.73-22.06-25.39-29.13a46.76,46.76,0,0,1,14.32-2.27,51.34,51.34,0,0,1,7.71.6c-6.5-9.74-13.4-11.82-28.47-13.06,13.63-3.38,33.17-3.07,41.26-16.42-9.23-5-20.25-6.26-30.49-8a170.45,170.45,0,0,0-28.36-2.44Z"/>
    </g>
    <g>
      <path class="cls-1" d="M180.67,163.26c0-2.29.86-5.72,1.8-9.34,1.8-7,3.67-14.21.24-16.86a7.58,7.58,0,0,0-4.75-1.4c-4.7,0-10.82,2.62-16.74,5.16-4.64,2-9.05,3.87-12,4.12,1.46-3.86,1.55-6.79.25-8.73-1.19-1.77-3.48-2.67-6.8-2.67-5.18,0-11.84,2.16-16.33,4.16,1.07-9,6.74-15.89,12.73-21.95l.36-.37L139,115c-3.61-3.44-8.42-5.12-14.69-5.12-5.69,0-11.75,1.34-17.61,2.63a80.86,80.86,0,0,1-13.14,2.22c-1.86-11.88,8.84-18.11,18.3-23.62,2.69-1.56,5.24-3,7.38-4.59l.82-.58-1-.3a48.88,48.88,0,0,0-14.71-2.29,52.32,52.32,0,0,0-6.76.45c6.21-8.67,12.92-10.7,27.9-11.91l3.09-.25-3-.74c-3.21-.78-6.69-1.36-10.38-2C103.69,67,90.62,64.87,84.3,55.18c8-4.1,17.4-5.6,26.46-7.06,1.31-.21,2.61-.41,3.9-.63a175.45,175.45,0,0,1,28.74-2.44c18.47,0,44.63,3.27,64.35,18.83,12.23,9.66,28,32.95,25.85,51.56-1,9-6.17,15.69-15.22,19.9-2.29,1.07-4.32,1.88-6.28,2.67-4.89,2-9.12,3.66-14.26,8.21a69.4,69.4,0,0,0-6.57,7.06C188,157.1,184.66,161,180.67,163.26Z"/>
      <path d="M143.4,45.55c18.39,0,44.44,3.25,64,18.72,12.14,9.59,27.82,32.69,25.67,51.12-1,8.81-6.06,15.37-14.94,19.5-2.28,1.06-4.3,1.87-6.25,2.65-4.94,2-9.21,3.7-14.41,8.31a70.14,70.14,0,0,0-6.62,7.1c-3,3.54-6.11,7.17-9.69,9.41a55.43,55.43,0,0,1,1.75-8.31c1.85-7.14,3.75-14.53.06-17.39a8,8,0,0,0-5-1.5c-4.8,0-11,2.64-16.94,5.2-4.21,1.8-8.22,3.52-11.09,4,1.24-3.65,1.22-6.47-.09-8.42s-3.71-2.89-7.21-2.89c-4.95,0-11.22,1.94-15.72,3.85,1.2-7.95,5.87-14.12,12.47-20.79l.72-.73-.74-.7c-3.71-3.54-8.62-5.26-15-5.26-5.75,0-11.83,1.35-17.72,2.65A86.54,86.54,0,0,1,94,114.24c-1.47-11.26,8.93-17.31,18.12-22.66,2.71-1.58,5.26-3.06,7.42-4.62l1.63-1.17-1.91-.6a49.55,49.55,0,0,0-14.86-2.31,52.11,52.11,0,0,0-5.67.31c5.93-7.73,12.6-9.62,26.85-10.77l6.18-.5-6-1.47c-3.23-.79-6.72-1.37-10.42-2-11.81-2-24-4-30.3-13.09,7.86-3.88,17-5.35,25.8-6.76l3.91-.64a174.56,174.56,0,0,1,28.66-2.43m0-1A176.17,176.17,0,0,0,114.57,47c-10.4,1.73-21.6,3-31,8C91.8,68.34,111.67,68,125.51,71.42c-15.31,1.24-22.32,3.31-28.93,13.06a52.92,52.92,0,0,1,7.83-.6A48.28,48.28,0,0,1,119,86.15c-9.81,7.06-28.68,13.17-25.81,29.13,8.73-.25,20.72-4.87,31.17-4.87,5.42,0,10.42,1.24,14.34,5-6.59,6.67-12.15,13.67-12.95,23.13,4.38-2.05,11.53-4.48,16.91-4.48,5.68,0,9.39,2.7,5.8,11.43h.12c6.61,0,20.79-9.31,29.41-9.31a7.08,7.08,0,0,1,4.44,1.29c5.12,4-2.92,20.46-2.18,26.61,7-3.5,11.9-12.1,17.95-17.46,7.06-6.25,12.22-7,20.42-10.8,32.21-15,7.85-57.81-10.53-72.32-17.61-13.89-41.43-18.93-64.66-18.93Z"/>
    </g>
  </g>
</svg>
