<svg id="Layer_1" data-name="Layer 1" xmlns="http://www.w3.org/2000/svg" viewBox="0 0 292 194">
  <defs>
    <style>
      .cls-1 {
        fill: #fff;
      }
    </style>
  </defs>
  <g id="ears1">
    <g>
      <path class="cls-1" d="M40.63,177.29C25.58,165,8.89,139.38,13.19,86.59A276.69,276.69,0,0,1,25,27.5c4.92,1.72,48.2,18.63,82.34,91.19l3.8,8.09C81.35,133.69,46.91,153.57,40.63,177.29Z"/>
      <path d="M25.33,28.14c3,1.11,13.35,5.36,26.68,16.23,14.67,12,36.11,34.59,54.9,74.53l2.55,5.42,1,2.12A139.79,139.79,0,0,0,67.14,145c-10.1,6.69-22.77,17.49-26.78,31.42-11.42-9.52-19.37-23-23.63-40.08-3.55-14.2-4.57-30.91-3-49.66A277,277,0,0,1,25.33,28.14m-.63-1.27s-37.43,108.7,16.23,151.3c5.91-24.78,41.82-44.45,70.95-51l-4.07-8.66C71.21,40.69,24.7,26.87,24.7,26.87Z"/>
    </g>
    <g>
      <path class="cls-1" d="M254.37,164.29c-6.28-23.72-40.71-43.6-70.53-50.51l3.8-8.09c18.87-40.1,40.4-62.81,55.15-74.8C257,19.37,267.68,15.29,270,14.5a277,277,0,0,1,11.82,59.11C284.2,102.91,281.34,142.33,254.37,164.29Z"/>
      <path d="M269.67,15.14a277.39,277.39,0,0,1,11.65,58.53c1.52,18.75.5,35.46-3.05,49.66-4.27,17.08-12.21,30.56-23.63,40.08-4-13.94-16.67-24.73-26.78-31.42a139.74,139.74,0,0,0-43.3-18.55l.56-1.2c.94-2,1.92-4.1,3-6.34C206.89,66,228.32,43.32,243,31.37c13.33-10.87,23.64-15.12,26.68-16.23m.63-1.27s-46.51,13.82-83.11,91.6c-1.47,3.13-2.8,6-4.06,8.66,29.13,6.59,65,26.26,70.94,51,53.66-42.6,16.23-151.3,16.23-151.3Z"/>
    </g>
  </g>
  <g id="shadow">
    <g>
      <path class="cls-1" d="M53.54,165.24C21,138.39,41.34,72.59,43.37,66.34c3.93,1.42,32.09,13,54.39,60.38l2.44,5.18C73.83,138,57,153.11,53.54,165.24Z"/>
      <path d="M43.69,67C46,67.88,52.61,70.76,61,77.61c9.69,7.91,23.87,22.89,36.3,49.32l1.23,2.63.94,2A93,93,0,0,0,71,143.82c-6.64,4.39-14.92,11.44-17.76,20.54-7.31-6.25-12.42-15-15.18-26.08-2.35-9.39-3-20.44-2-32.84A184,184,0,0,1,43.69,67m-.63-1.28S18.22,137.85,53.83,166.12c3.92-16.45,27.75-29.5,47.08-33.87l-2.7-5.75C73.92,74.88,43.06,65.71,43.06,65.71Z"/>
    </g>
    <g>
      <path class="cls-1" d="M241.46,152.24C238,140.11,221.17,125,194.81,118.9l2.43-5.18c22.3-47.39,50.47-59,54.39-60.38C253.66,59.59,274,125.39,241.46,152.24Z"/>
      <path d="M251.31,54a183.55,183.55,0,0,1,7.61,38.41c1,12.41.33,23.47-2,32.86-2.76,11.08-7.87,19.85-15.18,26.1-2.85-9.1-11.13-16.15-17.77-20.54a93,93,0,0,0-28.44-12.26l2.17-4.63C210.13,87.5,224.3,72.52,234,64.61c8.4-6.85,15-9.73,17.31-10.62m.64-1.28s-30.87,9.17-55.16,60.79l-2.7,5.75c19.33,4.37,43.16,17.42,47.08,33.87C276.78,124.85,252,52.71,252,52.71Z"/>
    </g>
  </g>
</svg>
