<svg id="Layer_1" data-name="Layer 1" xmlns="http://www.w3.org/2000/svg" viewBox="0 0 167 161">
  <defs>
    <style>
      .cls-1 {
        fill: #fff;
      }

      .cls-2 {
        fill: #e8e8e8;
      }
    </style>
  </defs>
  <g id="skin2">
    <path class="cls-1" d="M86,153.5A74.75,74.75,0,0,1,11.33,78.83,65,65,0,0,1,12.5,67,74,74,0,0,1,86,4.16,74.67,74.67,0,0,1,86,153.5ZM86,16.23A62.61,62.61,0,0,0,23.43,76.75c0,.28,0,.57,0,.86s0,.81,0,1.22a62.61,62.61,0,0,0,125.21,0c0-.17,0-.34,0-.51A62.75,62.75,0,0,0,86,16.23Z"/>
    <path d="M86,4.66A74.17,74.17,0,1,1,11.83,78.83,64.64,64.64,0,0,1,13,67.06,73.47,73.47,0,0,1,86,4.66m0,137.26A63.17,63.17,0,0,0,149.1,78.83c0-.17,0-.34,0-.51A63.1,63.1,0,0,0,22.93,76.7c0,.3,0,.61,0,.92s0,.8,0,1.21A63.17,63.17,0,0,0,86,141.92M86,3.66A74.57,74.57,0,0,0,12,66.91a65.7,65.7,0,0,0-1.18,11.92A75.17,75.17,0,1,0,86,3.66Zm0,137.26a62.11,62.11,0,0,1-62.1-62.09c0-.41,0-.81,0-1.22s0-.56,0-.84a62.1,62.1,0,0,1,124.16,1.58c0,.16,0,.32,0,.48A62.1,62.1,0,0,1,86,140.92Z"/>
  </g>
  <g id="eye2">
    <g>
      <path class="cls-1" d="M148.1,78.83a62.11,62.11,0,0,1-124.21,0c0-.41,0-.81,0-1.22s0-.56,0-.84a62.1,62.1,0,0,1,124.16,1.58C148.1,78.51,148.1,78.67,148.1,78.83Z"/>
      <path class="cls-2" d="M148.1,78.83a62.11,62.11,0,0,1-124.21,0c0-.41,0-.81,0-1.22s0-.56,0-.84A64.36,64.36,0,0,1,26.21,63,61.81,61.81,0,0,0,147.73,75.1c.06,1.1.3,2.15.36,3.25C148.1,78.51,148.1,78.67,148.1,78.83Z"/>
    </g>
    <g>
      <path d="M62.86,90.35a31,31,0,1,0-2.62-43.7A30.95,30.95,0,0,0,62.86,90.35Z"/>
      <path class="cls-1" d="M77.28,61.77a12.37,12.37,0,1,0-1-17.46A12.36,12.36,0,0,0,77.28,61.77Z"/>
    </g>
  </g>
</svg>
