<svg id="Layer_1" data-name="Layer 1" xmlns="http://www.w3.org/2000/svg" viewBox="0 0 179 100">
  <defs>
    <style>
      .cls-1 {
        fill: #fff;
      }

      .cls-2 {
        fill: #e8e8e8;
      }
    </style>
  </defs>
  <g id="skin1">
    <g>
      <path class="cls-1" d="M128.66,96.44A46.79,46.79,0,0,1,81.92,49.71a41.48,41.48,0,0,1,.73-7.4,46.67,46.67,0,1,1,46,54.13Zm0-86.26a39.52,39.52,0,1,0,39.52,39.53A39.57,39.57,0,0,0,128.66,10.18Z"/>
      <path d="M128.66,3.47A46.24,46.24,0,1,1,82.42,49.71a41,41,0,0,1,.73-7.34,45.82,45.82,0,0,1,45.51-38.9m0,86.25a40,40,0,1,0-40-40,40.06,40.06,0,0,0,40,40m0-87.25a46.88,46.88,0,0,0-46.5,39.75,42,42,0,0,0-.74,7.49A47.24,47.24,0,1,0,128.66,2.47Zm0,86.25a39,39,0,1,1,39-39,39,39,0,0,1-39,39Z"/>
    </g>
    <g>
      <path class="cls-1" d="M40.64,86.17a36.46,36.46,0,0,1,0-72.92A36.13,36.13,0,0,1,76.53,43.92a32.91,32.91,0,0,1,.57,5.79A36.51,36.51,0,0,1,40.64,86.17Zm0-67.5a31,31,0,1,0,31,31c0-.34,0-.69,0-1s0-.62-.05-.94A31.06,31.06,0,0,0,40.64,18.67Z"/>
      <path d="M40.64,13.75A35.64,35.64,0,0,1,76,44a32.83,32.83,0,0,1,.56,5.7,36,36,0,1,1-36-36m0,67.49A31.56,31.56,0,0,0,72.17,49.71c0-.35,0-.7,0-1s0-.64-.05-1A31.53,31.53,0,1,0,40.64,81.24m0-68.49a37,37,0,1,0,37,37A33.22,33.22,0,0,0,77,43.84,36.67,36.67,0,0,0,40.64,12.75Zm0,67.49A30.54,30.54,0,1,1,71.1,47.77c0,.31,0,.62.05.93s0,.67,0,1A30.53,30.53,0,0,1,40.64,80.24Z"/>
    </g>
  </g>
  <g id="eyes1">
    <g id="white1">
      <path class="cls-1" d="M167.68,49.71c0-.81-.18-1.55-.23-2.35A38.83,38.83,0,0,1,91.1,39.72a38.4,38.4,0,0,0-1.46,10,39,39,0,1,1,78,0Z"/>
      <path class="cls-1" d="M71.1,47.77A34,34,0,0,0,70,41.89a30.39,30.39,0,0,1-59.75,6c0,.62-.18,1.21-.18,1.84a30.53,30.53,0,0,1,61-1.94Z"/>
    </g>
    <g id="shadow">
      <path class="cls-2" d="M167.68,49.71a39,39,0,0,1-78,0,38.4,38.4,0,0,1,1.46-10,38.83,38.83,0,0,0,76.35,7.64C167.5,48.16,167.68,48.9,167.68,49.71Z"/>
      <path class="cls-2" d="M71.17,49.71a30.54,30.54,0,0,1-61.07,0c0-.63.15-1.22.18-1.84a30.39,30.39,0,0,0,59.75-6,34,34,0,0,1,1.07,5.88c0,.31,0,.62.05.93S71.17,49.37,71.17,49.71Z"/>
    </g>
    <g id="pupils1">
      <path d="M98.32,39.72a19.46,19.46,0,1,0,19.44-19.46A19.44,19.44,0,0,0,98.32,39.72Z"/>
      <path d="M64.38,41.89A15.22,15.22,0,1,1,49.17,26.67,15.22,15.22,0,0,1,64.38,41.89Z"/>
    </g>
    <g id="white1-2" data-name="white1">
      <g>
        <path class="cls-1" d="M125.53,41.85a7.27,7.27,0,1,1,7.27-7.27A7.28,7.28,0,0,1,125.53,41.85Z"/>
        <path d="M125.53,27.81a6.77,6.77,0,1,1-6.77,6.77,6.78,6.78,0,0,1,6.77-6.77m0-1a7.77,7.77,0,1,0,7.77,7.77,7.78,7.78,0,0,0-7.77-7.77Z"/>
      </g>
      <g>
        <path class="cls-1" d="M43.08,43.45a5.58,5.58,0,1,1,5.59-5.58A5.6,5.6,0,0,1,43.08,43.45Z"/>
        <path d="M43.08,32.79A5.08,5.08,0,1,1,38,37.87a5.09,5.09,0,0,1,5.08-5.08m0-1a6.08,6.08,0,1,0,6.09,6.08,6.09,6.09,0,0,0-6.09-6.08Z"/>
      </g>
    </g>
  </g>
</svg>
