<svg xmlns="http://www.w3.org/2000/svg" viewBox="0 0 411 199">
  <defs>
    <style>
      .cls-1 {
        isolation: isolate;
      }

      .cls-2 {
        fill: #f0d907;
        mix-blend-mode: multiply;
      }

      .cls-3, .cls-4 {
        fill: #fff;
      }

      .cls-3 {
        stroke: #000;
        stroke-miterlimit: 10;
      }

      .cls-5 {
        fill: #e8e8e8;
      }
    </style>
  </defs>
  <g class="cls-1">
    <g id="Layer_1" data-name="Layer 1">
      <path class="cls-2" d="M109.36,99.48a54.78,54.78,0,0,1-7.8-11.34A54,54,0,0,1,109.36,99.48Z"/>
      <g id="skin3">
        <path class="cls-3" d="M109.36,99.48A54.25,54.25,0,0,0,7.49,115.69a48,48,0,0,0-.85,8.62A54.37,54.37,0,1,0,109.36,99.48ZM61,169.22a44.92,44.92,0,1,1,44.92-44.91A44.91,44.91,0,0,1,61,169.22Z"/>
        <g>
          <path class="cls-4" d="M149.93,117.2A53.88,53.88,0,0,1,96.06,63.33a48.81,48.81,0,0,1,.84-8.53,53.4,53.4,0,0,1,53-45.34,53.87,53.87,0,1,1,0,107.74Zm0-99.29a45.42,45.42,0,1,0,45.42,45.42A45.48,45.48,0,0,0,149.93,17.91Z"/>
          <path d="M149.93,10A53.35,53.35,0,1,1,96.56,63.33a48.54,48.54,0,0,1,.84-8.47A52.9,52.9,0,0,1,149.93,10m0,99.28A45.92,45.92,0,1,0,104,63.33a46,46,0,0,0,45.92,45.91M149.93,9A54,54,0,0,0,96.41,54.71a49,49,0,0,0-.85,8.62,54.07,54.07,0,0,0,6,24.81A54.37,54.37,0,1,0,149.93,9Zm0,99.28a44.92,44.92,0,1,1,44.92-44.91,44.92,44.92,0,0,1-44.92,44.91Z"/>
        </g>
        <g>
          <path class="cls-4" d="M268.66,133.81A62.69,62.69,0,0,1,206.05,71.2a55.58,55.58,0,0,1,1-9.92,62.05,62.05,0,0,1,61.63-52.7,62.62,62.62,0,0,1,0,125.23Zm0-115.25A52.64,52.64,0,1,0,321.3,71.2c0-.15,0-.3,0-.44A52.76,52.76,0,0,0,268.66,18.56Z"/>
          <path d="M268.66,9.08A62.12,62.12,0,1,1,206.55,71.2a55.22,55.22,0,0,1,1-9.86A61.55,61.55,0,0,1,268.66,9.08m0,115.25A53.19,53.19,0,0,0,321.8,71.2c0-.15,0-.3,0-.44a53.14,53.14,0,1,0-53.13,53.57m0-116.25a62.63,62.63,0,0,0-62.12,53.11,56.08,56.08,0,0,0-1,10A63.11,63.11,0,1,0,268.66,8.08Zm0,115.25A52.14,52.14,0,1,1,320.79,70.8c0,.13,0,.26,0,.4a52.13,52.13,0,0,1-52.14,52.13Z"/>
        </g>
        <g>
          <path class="cls-4" d="M348.8,189.62a53.94,53.94,0,0,1-53.87-53.87,48.81,48.81,0,0,1,.84-8.53,53.4,53.4,0,0,1,53-45.34,53.87,53.87,0,0,1,0,107.74Zm0-99.29a45.42,45.42,0,1,0,45.42,45.42A45.47,45.47,0,0,0,348.8,90.33Z"/>
          <path d="M348.8,82.38a53.37,53.37,0,1,1-53.37,53.37,48.54,48.54,0,0,1,.84-8.47,52.89,52.89,0,0,1,52.53-44.9m0,99.28a45.92,45.92,0,1,0-45.91-45.91,46,46,0,0,0,45.91,45.91m0-100.28a54,54,0,0,0-53.52,45.75,49,49,0,0,0-.85,8.62A54.37,54.37,0,1,0,348.8,81.38Zm0,99.28a44.92,44.92,0,1,1,44.92-44.91,44.92,44.92,0,0,1-44.92,44.91Z"/>
        </g>
      </g>
      <g id="eyes3">
        <g>
          <g>
            <path class="cls-4" d="M105.52,124.51a44.5,44.5,0,0,1-89,0c0-.56,0-1.1,0-1.65a44.5,44.5,0,0,1,89,1.65Z"/>
            <path class="cls-5" d="M105.52,124.51a44.5,44.5,0,1,1-87.35-11.39,44.29,44.29,0,0,0,87.08,8.71C105.31,122.74,105.52,123.58,105.52,124.51Z"/>
          </g>
          <g>
            <path d="M26.41,113.12A22.19,22.19,0,1,0,48.58,90.93,22.17,22.17,0,0,0,26.41,113.12Z"/>
            <path class="cls-4" d="M48.58,107.25a8.87,8.87,0,1,0,8.87-8.85A8.87,8.87,0,0,0,48.58,107.25Z"/>
          </g>
        </g>
        <g>
          <g>
            <path class="cls-4" d="M194.85,63.33a44.92,44.92,0,0,1-89.84,0c0-.55,0-1.1,0-1.64a44.91,44.91,0,0,1,89.8,1.64Z"/>
            <path class="cls-5" d="M194.85,63.33a44.92,44.92,0,0,1-89.84,0,44.07,44.07,0,0,1,1.69-11.49,44.7,44.7,0,0,0,87.88,8.79C194.64,61.55,194.85,62.41,194.85,63.33Z"/>
          </g>
          <g>
            <path d="M115,51.84a22.39,22.39,0,1,0,22.38-22.4A22.38,22.38,0,0,0,115,51.84Z"/>
            <ellipse class="cls-4" cx="146.33" cy="45.91" rx="8.95" ry="8.94"/>
          </g>
        </g>
        <g>
          <g>
            <path class="cls-4" d="M320.8,71.2a52.14,52.14,0,0,1-104.28,0c0-.64,0-1.27,0-1.89A52.13,52.13,0,0,1,320.79,70.8C320.8,70.93,320.8,71.06,320.8,71.2Z"/>
            <path class="cls-5" d="M320.8,71.2a52.14,52.14,0,0,1-104.28,0,51.56,51.56,0,0,1,2-13.34,51.88,51.88,0,0,0,102,10.2c.06.94.25,1.81.3,2.74C320.8,70.93,320.8,71.06,320.8,71.2Z"/>
          </g>
          <g>
            <path d="M228.12,57.86a26,26,0,1,0,26-26A26,26,0,0,0,228.12,57.86Z"/>
            <path class="cls-4" d="M254.1,51a10.39,10.39,0,1,0,10.39-10.37A10.38,10.38,0,0,0,254.1,51Z"/>
          </g>
        </g>
        <g>
          <g>
            <path class="cls-4" d="M393.72,135.75a44.92,44.92,0,0,1-89.83,0c0-.56,0-1.11,0-1.66a44.91,44.91,0,0,1,89.79,1.66Z"/>
            <path class="cls-5" d="M393.72,135.75a44.92,44.92,0,0,1-89.83,0,44,44,0,0,1,1.68-11.49A44.69,44.69,0,0,0,393.45,133C393.51,134,393.72,134.82,393.72,135.75Z"/>
          </g>
          <g>
            <path d="M313.88,124.26a22.39,22.39,0,1,0,22.38-22.41A22.38,22.38,0,0,0,313.88,124.26Z"/>
            <path class="cls-4" d="M336.26,118.33a8.95,8.95,0,1,0,8.94-8.94A8.94,8.94,0,0,0,336.26,118.33Z"/>
          </g>
        </g>
      </g>
    </g>
  </g>
</svg>
