<svg id="Layer_1" data-name="Layer 1" xmlns="http://www.w3.org/2000/svg" viewBox="0 0 308 82">
  <defs>
    <style>
      .cls-1 {
        fill: #fff;
      }
    </style>
  </defs>
  <g id="feet1">
    <g>
      <path class="cls-1" d="M49.31,76.25a5.81,5.81,0,0,1-4.86-2.39C38.16,64,43.33,52.92,47,47.18l.52-.82-1,.06c-5.84.33-11.35,2.12-16.69,3.86C24,52.18,18,54.14,11.52,54.22h0a5.11,5.11,0,0,1-4.83-3.53C.57,35.25,22.72,19.84,34.4,14.8A68.2,68.2,0,0,1,61.2,9.16,60.8,60.8,0,0,1,70,9.79c1.55-.06,3-.1,4.42-.1,11.9,0,21.7,2.26,29.12,6.72,14.12,8.5,24.57,28,17,42.4a6.57,6.57,0,0,1-5.35,2.85h0a4.35,4.35,0,0,1-.74-.06c-3.62-.66-7.74-3-12.24-7l-.62-.55-.2.81a68.91,68.91,0,0,1-6.11,16.74A7.24,7.24,0,0,1,89,75.77a6.83,6.83,0,0,1-3.79-1.22c-5.22-3.45-9.31-10.17-12.17-20l-.24-.84-.6.64c-2.18,2.31-4.31,4.73-6.36,7.07A137.61,137.61,0,0,1,52.69,75.11,5.15,5.15,0,0,1,49.31,76.25Z"/>
      <path d="M61.2,9.66a61.13,61.13,0,0,1,8.7.62h.19c1.46-.06,2.91-.1,4.31-.1,11.81,0,21.52,2.24,28.86,6.65,13.93,8.38,24.25,27.58,16.79,41.73a6,6,0,0,1-4.91,2.59,3.36,3.36,0,0,1-.65,0c-3.53-.65-7.57-3-12-6.89l-1.25-1.1-.39,1.61a67.51,67.51,0,0,1-6.07,16.62A6.71,6.71,0,0,1,89,75.27a6.34,6.34,0,0,1-3.51-1.13c-5.12-3.39-9.15-10-12-19.69l-.48-1.68-1.2,1.28c-2.19,2.32-4.32,4.74-6.38,7.08a135.51,135.51,0,0,1-13.12,13.6,4.66,4.66,0,0,1-3,1,5.3,5.3,0,0,1-4.44-2.16c-6.14-9.61-1-20.5,2.52-26.14l1-1.65-1.95.12c-5.9.33-11.45,2.14-16.81,3.89-5.78,1.88-11.76,3.83-18.17,3.91h-.07A4.63,4.63,0,0,1,7.15,50.5c-6-15.09,15.91-30.26,27.45-35.24a67.58,67.58,0,0,1,26.6-5.6m0-1a68.37,68.37,0,0,0-27,5.68C22.22,19.52-.07,35,6.22,50.87a5.56,5.56,0,0,0,5.22,3.85h.08c12.54-.16,22.92-7.11,35-7.81-5.31,8.37-8,18.59-2.52,27.21a6.27,6.27,0,0,0,5.28,2.63A5.65,5.65,0,0,0,53,75.49c7.29-6.27,13-13.82,19.57-20.76C74.93,62.79,78.73,70.85,85,75A7.39,7.39,0,0,0,89,76.27a7.72,7.72,0,0,0,6.65-4.45A69.76,69.76,0,0,0,101.83,55c3.92,3.47,8.24,6.35,12.48,7.12a4.5,4.5,0,0,0,.83.07c2.16,0,4.83-1.3,5.79-3.12,8.08-15.32-3.75-35-17.15-43.06C95.57,11.05,85.19,9.19,74.4,9.19c-1.44,0-2.9,0-4.35.1a62.4,62.4,0,0,0-8.85-.63Z"/>
    </g>
    <g>
      <path class="cls-1" d="M259.3,76.25a5.1,5.1,0,0,1-3.36-1.14,135.2,135.2,0,0,1-13.15-13.65c-2.06-2.34-4.18-4.75-6.36-7.07l-.6-.64-.24.84c-2.85,9.79-6.94,16.51-12.15,20a6.83,6.83,0,0,1-3.78,1.22,7.22,7.22,0,0,1-6.2-4.18,68.39,68.39,0,0,1-6.11-16.74l-.19-.81-.62.55c-4.5,4-8.61,6.35-12.23,7a4.35,4.35,0,0,1-.74.06,6.57,6.57,0,0,1-5.34-2.85c-7.59-14.4,2.84-33.91,17-42.4,7.4-4.46,17.19-6.72,29.08-6.72,1.41,0,2.86,0,4.32.1a63,63,0,0,1,8.86-.63,68,68,0,0,1,26.75,5.64c11.67,5,33.79,20.45,27.68,35.89a5.07,5.07,0,0,1-4.75,3.53c-6.55-.08-12.56-2-18.36-3.94-5.33-1.74-10.84-3.53-16.67-3.86l-1-.06.52.82c3.64,5.74,8.8,16.84,2.52,26.68A5.8,5.8,0,0,1,259.3,76.25Z"/>
      <path d="M247.44,9.66A67.31,67.31,0,0,1,274,15.26c11.53,5,33.39,20.15,27.41,35.24a4.6,4.6,0,0,1-4.28,3.22h-.07c-6.4-.08-12.37-2-18.14-3.91-5.35-1.75-10.89-3.56-16.79-3.89l-1.95-.12,1.05,1.65c3.57,5.64,8.65,16.54,2.52,26.14a5.29,5.29,0,0,1-4.43,2.16,4.66,4.66,0,0,1-3.05-1,136.41,136.41,0,0,1-13.1-13.6c-2-2.34-4.18-4.76-6.36-7.08l-1.2-1.28-.49,1.68c-2.82,9.68-6.84,16.3-12,19.69a6.34,6.34,0,0,1-3.5,1.13,6.71,6.71,0,0,1-5.76-3.92,68.24,68.24,0,0,1-6.06-16.62l-.39-1.62-1.25,1.11c-4.42,3.92-8.45,6.24-12,6.89a3.36,3.36,0,0,1-.65,0,6,6,0,0,1-4.9-2.59c-7.45-14.15,2.85-33.35,16.77-41.73,7.32-4.41,17-6.65,28.82-6.65,1.4,0,2.85,0,4.3.1h.19a60.88,60.88,0,0,1,8.69-.62m0-1a62.26,62.26,0,0,0-8.84.63c-1.45-.06-2.9-.1-4.34-.1-10.78,0-21.15,1.86-29.34,6.79-13.39,8.07-25.2,27.74-17.13,43.06,1,1.82,3.63,3.12,5.78,3.12a4.43,4.43,0,0,0,.83-.07c4.23-.77,8.55-3.65,12.47-7.12A69.31,69.31,0,0,0,213,71.82a7.7,7.7,0,0,0,6.64,4.45,7.33,7.33,0,0,0,4.05-1.3c6.22-4.12,10-12.18,12.36-20.24,6.53,6.94,12.26,14.49,19.54,20.76a5.65,5.65,0,0,0,3.7,1.26,6.27,6.27,0,0,0,5.27-2.63c5.51-8.62,2.78-18.84-2.52-27.21,12.1.7,22.46,7.65,35,7.81h.08a5.54,5.54,0,0,0,5.21-3.85c6.29-15.88-16-31.35-27.94-36.53a68.22,68.22,0,0,0-26.95-5.68Z"/>
    </g>
  </g>
</svg>
