<svg id="Layer_1" data-name="Layer 1" xmlns="http://www.w3.org/2000/svg" viewBox="0 0 396 199">
  <defs>
    <style>
      .cls-1 {
        fill: #fff;
      }
    </style>
  </defs>
  <g id="feet2">
    <g>
      <path class="cls-1" d="M89.51,192.73a5.22,5.22,0,0,1-5-3.49A8,8,0,0,1,86,180.88c1.38-1.32,2.7-2.62,4-3.9l2-2-1.67.36c-3.62.77-6.9,1.52-10,2.29-1.09.27-2.25.57-3.46.89-6.41,1.66-14.38,3.74-21.54,3.74a23.77,23.77,0,0,1-10-1.91,8.08,8.08,0,0,1-4.35-5.2A5.53,5.53,0,0,1,42,170.33a35.42,35.42,0,0,1,4.09-4.28l1.56-1.42-2,.57c-3.74,1-6.62,1.94-9.32,2.93a37.44,37.44,0,0,1-12.88,2.55,24.48,24.48,0,0,1-9.94-2,6,6,0,0,1-3.58-4.72c-.29-6.51,3-10.68,11-13.94l5.68-2.34c10.91-4.51,22.19-9.17,33.79-11.78a104.81,104.81,0,0,1,23-2.63,102.59,102.59,0,0,1,32.68,5.44l1.5.5-.95-1.27C92.47,105.45,68.83,44.46,102.2,8.8c.67,5.53-1,11.43-2.65,17.15-1.28,4.49-2.61,9.14-2.82,13.62a134.68,134.68,0,0,0,.33,17.24l.14,1.69L98,57a3.93,3.93,0,0,1,3.4-2.17,3.05,3.05,0,0,1,.74.08l.37.08.18-.34a15.68,15.68,0,0,1,1.24-1.94l.06-.09,0-.1A72.71,72.71,0,0,1,116.3,24.85a4.87,4.87,0,0,1,4-1.93,5.48,5.48,0,0,1,5.33,3.56c1.49,4.94.81,8,0,11.56a38.5,38.5,0,0,0-1.15,9.26c0,.26,0,.52,0,.77s0,.51,0,.77V49l.11.14a21.1,21.1,0,0,1,2.07,2.94l.42.7.43-.68a46.13,46.13,0,0,1,6.23-7.74A4.85,4.85,0,0,1,137.34,43,5.07,5.07,0,0,1,141,44.47a4.09,4.09,0,0,1,1.15,3.07,17.69,17.69,0,0,1-1.41,6.16l-.12.29.21.24a5.32,5.32,0,0,1,1.1,1.82l.4,1.15.53-1.09A120.58,120.58,0,0,1,160.12,29.6a1.49,1.49,0,0,1,1.17-.57,2,2,0,0,1,1.64,1,1.66,1.66,0,0,1,0,1.67c-9.4,17.37-21.87,43.08-21.62,65.59.12,10.43,2.49,20.62,4.78,30.48a203.51,203.51,0,0,1,4,20v.08l0,.08A19.39,19.39,0,0,0,152,151c2,2.67,3.91,5.13,4.87,8.24,1.56,5.1-1.54,10.66-6.91,12.41a39.06,39.06,0,0,1-12.16,2.25h0a25,25,0,0,1-3-.18h-.13l-.12,0a128.42,128.42,0,0,0-15.12,7.8c-9.07,5.21-18.45,10.6-29.54,11.15Z"/>
      <path d="M101.81,10c.32,5.11-1.23,10.56-2.74,15.84-1.29,4.52-2.63,9.2-2.84,13.74a135.65,135.65,0,0,0,.33,17.3l.28,3.38,1.6-3a3.42,3.42,0,0,1,3-1.91,2.7,2.7,0,0,1,.63.07l.74.16.36-.67a15.16,15.16,0,0,1,1.2-1.89l.13-.17,0-.21a72,72,0,0,1,12.21-27.48,4.38,4.38,0,0,1,3.64-1.72,5,5,0,0,1,4.85,3.2c1.45,4.82.82,7.68,0,11.31a38.3,38.3,0,0,0-1.15,9.37c0,.27,0,.54,0,.8s0,.5,0,.74v.36l.23.28a20.25,20.25,0,0,1,2,2.88l.83,1.39.87-1.36a45.14,45.14,0,0,1,6.17-7.65,4.32,4.32,0,0,1,3.11-1.24,4.58,4.58,0,0,1,3.28,1.32,3.62,3.62,0,0,1,1,2.7,17.24,17.24,0,0,1-1.38,6l-.23.58.42.46a5,5,0,0,1,1,1.66l.79,2.28,1.05-2.17a120.86,120.86,0,0,1,17.21-26.41,1,1,0,0,1,.8-.39,1.5,1.5,0,0,1,1.21.74,1.15,1.15,0,0,1,0,1.18c-9.43,17.42-21.93,43.21-21.67,65.84.11,10.47,2.48,20.69,4.78,30.58,1.52,6.55,3.09,13.33,4,20l0,.17.08.15a18.86,18.86,0,0,0,1.87,3.13l.05.07c2,2.57,3.81,5,4.74,8,1.49,4.84-1.47,10.12-6.59,11.79a38.62,38.62,0,0,1-12,2.22,24,24,0,0,1-3-.18l-.26,0-.24.1a128.65,128.65,0,0,0-15.18,7.83c-9.43,5.42-18.35,10.53-29.31,11.08h-.3A4.72,4.72,0,0,1,85,189.05a7.47,7.47,0,0,1,1.39-7.81c1.4-1.33,2.74-2.66,4-3.94l.75-.74,2.42-2.4-3.33.71c-3.62.77-6.9,1.52-10,2.29l-3.47.89c-6.37,1.66-14.31,3.73-21.41,3.73a23.17,23.17,0,0,1-9.79-1.86,7.53,7.53,0,0,1-4.08-4.86,5,5,0,0,1,1-4.42,35.93,35.93,0,0,1,4-4.22l3.14-2.83-4.07,1.13c-3.77,1-6.65,1.95-9.36,2.94a37,37,0,0,1-12.71,2.52,24,24,0,0,1-9.74-2,5.47,5.47,0,0,1-3.28-4.28c-.28-6.27,2.91-10.29,10.66-13.46l5.7-2.34c10.88-4.5,22.14-9.15,33.7-11.75a104.35,104.35,0,0,1,22.92-2.62,101.88,101.88,0,0,1,32.52,5.42l3,1-1.9-2.55C102.35,117.86,91.7,94,87.83,72.08,82.22,40.22,92,20.86,101.81,10m.66-2.11a.13.13,0,0,0-.1,0c-32.83,34.2-13.19,94,13.88,130.3a103.28,103.28,0,0,0-32.83-5.47,104.55,104.55,0,0,0-23.14,2.64c-13.64,3.08-26.61,8.87-39.55,14.15-6.88,2.8-11.64,6.77-11.29,14.42a6.43,6.43,0,0,0,3.88,5.16,24.86,24.86,0,0,0,10.14,2.08,38.45,38.45,0,0,0,13.06-2.58c3.09-1.14,6.18-2.06,9.27-2.92A36.28,36.28,0,0,0,41.65,170c-3.08,3.9-.46,9,3.45,10.8a24.15,24.15,0,0,0,10.22,2c8.57,0,18.17-2.91,25.12-4.65,3.37-.83,6.69-1.58,10-2.28-1.54,1.52-3.1,3.08-4.77,4.67-4,3.78-2.63,12.71,3.84,12.71h.35c17.13-.86,29.74-12.84,44.82-19a26.64,26.64,0,0,0,3.08.18,39.76,39.76,0,0,0,12.31-2.27c5.45-1.77,8.93-7.53,7.24-13-1-3.23-2.93-5.75-5-8.41a18.77,18.77,0,0,1-1.77-3c-2.14-16.69-8.53-33.11-8.73-50.46-.24-21.83,11.4-46.58,21.56-65.35a2.37,2.37,0,0,0-2.12-3.4,2,2,0,0,0-1.55.74,122.2,122.2,0,0,0-17.35,26.62,6.06,6.06,0,0,0-1.21-2,18.2,18.2,0,0,0,1.45-6.34c.1-3.18-2.58-5-5.29-5A5.36,5.36,0,0,0,133.52,44a46.67,46.67,0,0,0-6.3,7.82,21.85,21.85,0,0,0-2.12-3c0-.51,0-1,0-1.54-.09-9.4,3.67-12.37,1.09-21a6,6,0,0,0-5.81-3.91,5.38,5.38,0,0,0-4.46,2.13,73.75,73.75,0,0,0-12.37,27.86,18.86,18.86,0,0,0-1.28,2,4,4,0,0,0-.84-.09,4.42,4.42,0,0,0-3.84,2.44,135,135,0,0,1-.33-17.18c.48-10.4,7-21.45,5.36-31.62a.12.12,0,0,0-.12-.11Z"/>
    </g>
    <g>
      <path class="cls-1" d="M310.62,192.72c-11.19-.55-20.67-5.94-29.84-11.15a130.34,130.34,0,0,0-15.26-7.8l-.12,0h-.13a25.5,25.5,0,0,1-3,.18,39.74,39.74,0,0,1-12.28-2.25c-5.43-1.75-8.56-7.31-7-12.41,1-3.12,2.87-5.58,4.89-8.19a19.45,19.45,0,0,0,1.88-3.1l0-.08v-.08a201.59,201.59,0,0,1,4-20.06c2.31-9.86,4.7-20,4.81-30.47.26-22.51-12.33-48.22-21.82-65.59a1.6,1.6,0,0,1,0-1.66,2,2,0,0,1,1.67-1,1.53,1.53,0,0,1,1.19.57A121.06,121.06,0,0,1,257.1,56.11l.53,1.07.39-1.12a5.3,5.3,0,0,1,1.11-1.83l.22-.23-.12-.3a17.62,17.62,0,0,1-1.43-6.16,4.13,4.13,0,0,1,1.14-3A5.24,5.24,0,0,1,262.65,43a4.92,4.92,0,0,1,3.5,1.38,45.8,45.8,0,0,1,6.29,7.74l.44.67.41-.68a21.5,21.5,0,0,1,2.09-3l.12-.14s0-.62,0-.84,0-.59,0-.88A38,38,0,0,0,274.39,38c-.79-3.55-1.48-6.62,0-11.56.74-2.44,3.31-3.56,5.39-3.56a4.93,4.93,0,0,1,4.09,1.93,72.25,72.25,0,0,1,12.41,27.67l0,.1.07.09a16.7,16.7,0,0,1,1.25,1.95l.18.33.37-.08a3.05,3.05,0,0,1,.74-.08A4,4,0,0,1,302.38,57l.8,1.48.14-1.67a132.93,132.93,0,0,0,.34-17.24c-.21-4.48-1.55-9.13-2.85-13.62-1.65-5.72-3.35-11.63-2.68-17.16,33.73,35.65,9.84,96.65-14.59,129.11l-1,1.27,1.51-.5a104.5,104.5,0,0,1,33-5.44,106.94,106.94,0,0,1,23.27,2.63c11.72,2.61,23.11,7.27,34.13,11.78l5.74,2.34c8.07,3.26,11.38,7.43,11.08,13.94a6,6,0,0,1-3.61,4.72,24.93,24.93,0,0,1-10,2,38.18,38.18,0,0,1-13-2.55c-2.73-1-5.63-1.9-9.41-2.93l-2.05-.56,1.59,1.41a36.92,36.92,0,0,1,4.13,4.29,5.45,5.45,0,0,1,1.09,4.81,8.11,8.11,0,0,1-4.4,5.22,24.24,24.24,0,0,1-10.12,1.91c-7.23,0-15.28-2.08-21.75-3.74-1.22-.32-2.39-.62-3.5-.89-3.14-.77-6.45-1.52-10.11-2.29l-1.68-.36,2,2c1.31,1.29,2.64,2.59,4,3.91A7.93,7.93,0,0,1,316,189.2a5.27,5.27,0,0,1-5.07,3.53Z"/>
      <path d="M298.52,10C315.9,29,315.85,54.16,312.66,72.07,308.75,94,298,117.86,283.14,137.6l-1.91,2.54,3-1a103.9,103.9,0,0,1,32.85-5.42,106.49,106.49,0,0,1,23.16,2.62c11.68,2.6,23.05,7.25,34,11.75l5.75,2.34c7.84,3.17,11.06,7.2,10.77,13.46a5.44,5.44,0,0,1-3.31,4.28,24.48,24.48,0,0,1-9.84,2,37.72,37.72,0,0,1-12.85-2.52c-2.74-1-5.65-1.9-9.45-2.94l-4.1-1.13,3.17,2.83a36,36,0,0,1,4.08,4.23,5,5,0,0,1,1,4.39,7.57,7.57,0,0,1-4.12,4.88,23.72,23.72,0,0,1-9.91,1.86c-7.17,0-15.18-2.07-21.63-3.73l-3.5-.89c-3.15-.77-6.46-1.52-10.13-2.29l-3.36-.71,2.45,2.4.77.75c1.3,1.28,2.65,2.6,4.07,3.93a7.41,7.41,0,0,1,1.42,7.77,4.79,4.79,0,0,1-4.61,3.22h-.31c-11.08-.55-20.5-5.9-29.62-11.08a128.3,128.3,0,0,0-15.32-7.83l-.24-.1-.25,0a24.79,24.79,0,0,1-3,.18,39.4,39.4,0,0,1-12.13-2.22c-5.17-1.67-8.15-6.95-6.66-11.79.94-3,2.82-5.46,4.8-8l0-.06a19.1,19.1,0,0,0,1.89-3.12l.08-.16,0-.17c.86-6.67,2.45-13.45,4-20,2.32-9.88,4.72-20.1,4.83-30.57.13-10.84-2-29.46-21.88-65.84a1.12,1.12,0,0,1,0-1.17,1.53,1.53,0,0,1,1.24-.75,1,1,0,0,1,.81.4,120.91,120.91,0,0,1,17.38,26.4l1.06,2.15.78-2.26a4.91,4.91,0,0,1,1-1.66l.43-.46-.24-.59a17,17,0,0,1-1.39-6,3.66,3.66,0,0,1,1-2.69,4.74,4.74,0,0,1,3.35-1.33,4.44,4.44,0,0,1,3.15,1.24A45.24,45.24,0,0,1,272,52.39l.87,1.35.83-1.38a21.09,21.09,0,0,1,2-2.88l.24-.27v-.36c0-.22,0-.43,0-.65s0-.6,0-.9a37.7,37.7,0,0,0-1.17-9.37c-.8-3.62-1.44-6.49,0-11.31.67-2.2,3-3.2,4.91-3.2a4.47,4.47,0,0,1,3.69,1.72,71.78,71.78,0,0,1,12.32,27.48l.05.21L296,53a16.21,16.21,0,0,1,1.22,1.89l.36.67.74-.16a2.7,2.7,0,0,1,.63-.07,3.46,3.46,0,0,1,3,1.91l1.6,3,.28-3.35a132.07,132.07,0,0,0,.33-17.3c-.21-4.55-1.56-9.22-2.86-13.74-1.52-5.29-3.09-10.74-2.77-15.85m-.66-2.1a.13.13,0,0,0-.12.11c-1.65,10.17,4.93,21.22,5.42,31.62a131.36,131.36,0,0,1-.34,17.18,4.45,4.45,0,0,0-3.88-2.44,4.17,4.17,0,0,0-.85.09,17.5,17.5,0,0,0-1.29-2,73.27,73.27,0,0,0-12.49-27.86,5.46,5.46,0,0,0-4.5-2.13,6,6,0,0,0-5.87,3.91c-2.61,8.59,1.19,11.56,1.1,21,0,.52,0,1,0,1.54a22.88,22.88,0,0,0-2.14,3A46.12,46.12,0,0,0,266.5,44a5.44,5.44,0,0,0-3.85-1.53c-2.75,0-5.45,1.87-5.35,5a18.21,18.21,0,0,0,1.46,6.34,5.9,5.9,0,0,0-1.21,2A122.48,122.48,0,0,0,240,29.27a2,2,0,0,0-1.56-.74,2.37,2.37,0,0,0-2.14,3.4c10.25,18.77,22,43.52,21.76,65.35-.19,17.35-6.65,33.77-8.81,50.46a18.16,18.16,0,0,1-1.79,3c-2,2.66-4,5.18-5,8.41-1.7,5.5,1.81,11.26,7.31,13a40.62,40.62,0,0,0,12.44,2.27,27.15,27.15,0,0,0,3.11-.18c15.23,6.14,28,18.12,45.27,19H311c6.53,0,7.86-8.93,3.88-12.71-1.69-1.59-3.27-3.15-4.83-4.67,3.35.7,6.7,1.45,10.1,2.28,7,1.74,16.72,4.65,25.37,4.65a24.6,24.6,0,0,0,10.33-2c3.94-1.83,6.59-6.9,3.49-10.8a36.85,36.85,0,0,0-4.19-4.34c3.12.86,6.24,1.78,9.37,2.92a39.13,39.13,0,0,0,13.19,2.58,25.36,25.36,0,0,0,10.24-2.08,6.44,6.44,0,0,0,3.91-5.16c.36-7.65-4.45-11.62-11.39-14.42-13.07-5.28-26.18-11.07-39.95-14.15a106.65,106.65,0,0,0-23.38-2.64,105.3,105.3,0,0,0-33.16,5.47c27.34-36.33,47.18-96.1,14-130.3a.15.15,0,0,0-.11,0Z"/>
    </g>
  </g>
</svg>
