<svg id="Layer_1" data-name="Layer 1" xmlns="http://www.w3.org/2000/svg" viewBox="0 0 324 149">
  <defs>
    <style>
      .cls-1 {
        fill: #fff;
      }
    </style>
  </defs>
  <g id="legs">
    <g>
      <path class="cls-1" d="M146.76,140c-10.49,0-18.2-1-20.63-2.65-4-3.72-2.93-11.45-2.27-14.67a6,6,0,0,1,2.13-2.36l.31-.2-.1-.35c-4.08-14.28-5.1-36.08,1.82-52.59,4.92-11.75,16-25.48,30.89-25.48A27.45,27.45,0,0,1,171.55,45C188,53.53,188.84,94.64,187,115.18l0,.34.3.15c1.64.84,2.77,2.79,3.17,5.49.61,4.07-.57,9.94-4,13.33C179.09,138.12,161,140,146.76,140Z"/>
      <path d="M158.91,42.22a27,27,0,0,1,12.41,3.23c16.19,8.4,17,49.26,15.18,69.69l-.06.67.6.31c1.5.76,2.53,2.58,2.91,5.11.59,3.92-.54,9.56-3.82,12.85-7.31,3.57-25.29,5.44-39.37,5.44-10.15,0-17.9-1-20.28-2.53-3.76-3.58-2.78-11-2.15-14.13a5.57,5.57,0,0,1,1.93-2.1l.62-.4-.2-.71c-4.05-14.19-5.07-35.85,1.8-52.25a49.6,49.6,0,0,1,12-17.32c5.66-5.14,12.05-7.86,18.47-7.86m0-1c-14.58,0-26,13.06-31.35,25.79-6.78,16.19-6.08,38.08-1.84,52.91a6.56,6.56,0,0,0-2.34,2.61c-.89,4.35-1.48,11.57,2.47,15.25,2.72,1.86,11.08,2.74,20.91,2.74,14.71,0,32.7-2,40-5.62,5.46-5.3,5.93-17,.78-19.67,1.76-19.62,1.4-61.79-15.72-70.66a27.75,27.75,0,0,0-12.87-3.35Z"/>
    </g>
    <g>
      <path class="cls-1" d="M50.83,109H48.62a53.08,53.08,0,0,1-16.09-2.43,67.48,67.48,0,0,1-10.54-4C14.42,99,11.75,93.72,13.57,86a19.82,19.82,0,0,1,.65-2.2l0-.15,0-.15c-1.68-6.1-5.65-22-6.14-38s2.58-26.36,9.1-31.27a27.89,27.89,0,0,1,17-6c13.56,0,25.4,10.19,32,19.72C76.5,43,79.23,71.74,75.87,90.77l-.05.28.21.18a9.56,9.56,0,0,1,3,4.14c1,2.93.84,5.39-.47,7.31-3.6,5.26-14.79,5.76-21.48,6.07-.67,0-1.3,0-1.86.09C53.76,108.91,52.29,109,50.83,109Z"/>
      <path d="M34.15,8.71c5.87,0,12.06,2.06,17.91,5.95A51.86,51.86,0,0,1,65.7,28.22c10.31,15,13,43.54,9.67,62.46l-.1.56.44.37a9.17,9.17,0,0,1,2.83,3.92c1,2.81.82,5.06-.41,6.86C74.67,107.45,63.2,108,57,108.25l-1.87.09c-1.43.07-2.89.11-4.35.11h-2.2a52.84,52.84,0,0,1-16-2.41,67.74,67.74,0,0,1-10.45-3.93c-7.41-3.49-9.93-8.44-8.14-16a18.73,18.73,0,0,1,.63-2.14l.1-.3-.08-.3C13,77.24,9.08,61.38,8.59,45.47,8.12,30,11.2,19.36,17.49,14.62A27.36,27.36,0,0,1,34.15,8.71m0-1a28.3,28.3,0,0,0-17.26,6.11C1.78,25.2,8.26,63.67,13.75,83.58a20,20,0,0,0-.67,2.25c-1.9,8.14,1,13.56,8.7,17.18a67.91,67.91,0,0,0,10.6,4,53.57,53.57,0,0,0,16.24,2.45h2.2c1.45,0,2.92,0,4.41-.12,8-.44,28.94-.32,24.26-14.12a10.08,10.08,0,0,0-3.13-4.35c3.18-18,1.15-47.24-9.84-63.21C59.44,17.36,47.31,7.71,34.15,7.71Z"/>
    </g>
    <g>
      <path class="cls-1" d="M274.91,116.32c-1.4,0-2.81,0-4.17-.11l-1.79-.09c-6.34-.3-17-.8-20.5-5.93-1.34-1.94-1.53-4.45-.55-7.46a9.63,9.63,0,0,1,2.86-4.13l.21-.18-.05-.28c-3.23-19-.61-47.74,9.37-62.84,6.29-9.53,17.65-19.72,30.64-19.72a26,26,0,0,1,16.26,6c6.26,4.91,9.2,15.43,8.73,31.26s-4.27,31.87-5.88,38l0,.15.05.14a21.77,21.77,0,0,1,.62,2.2c1.75,7.78-.82,13.06-8.08,16.62a63,63,0,0,1-10,3.93,49.21,49.21,0,0,1-15.54,2.46h-2.14Z"/>
      <path d="M290.93,16.08A25.53,25.53,0,0,1,306.88,22c6.05,4.74,9,15.41,8.54,30.86-.47,15.91-4.26,31.77-5.87,37.85l-.07.3.09.28a20.17,20.17,0,0,1,.61,2.15c1.71,7.62-.69,12.57-7.81,16.06a62.67,62.67,0,0,1-10,3.91,48.55,48.55,0,0,1-15.36,2.43h-2.14c-1.39,0-2.78,0-4.14-.11l-1.8-.09c-5.84-.28-16.71-.79-20.11-5.71-1.27-1.84-1.43-4.13-.48-7A9.11,9.11,0,0,1,251.09,99l.42-.37-.1-.54c-3.21-18.93-.61-47.48,9.3-62.49A50.94,50.94,0,0,1,273.79,22c5.6-3.88,11.53-5.94,17.14-5.94m0-1c-12.62,0-24.26,9.65-31.06,19.94-10.54,16-12.5,45.21-9.44,63.21a10.12,10.12,0,0,0-3,4.35c-4.49,13.8,15.61,13.69,23.29,14.13,1.42.08,2.82.11,4.2.11h2.14a49.52,49.52,0,0,0,15.68-2.48,64.72,64.72,0,0,0,10.08-4c7.39-3.62,10.18-9,8.35-17.18-.19-.82-.41-1.56-.64-2.25,5.27-19.92,11.48-58.38-3-69.76a26.47,26.47,0,0,0-16.57-6.11Z"/>
    </g>
  </g>
  <g id="nails">
    <g>
      <g>
        <path class="cls-1" d="M77.5,103.88A7.25,7.25,0,0,1,75,98.46a7.47,7.47,0,0,1,.19-1.76l.16-1a7.08,7.08,0,0,1,.49-1.52l0,0v0a4.94,4.94,0,0,1,.28-1,5.46,5.46,0,0,1,.56-1.17A8.87,8.87,0,0,1,79,95.37C80.24,99,79.74,101.77,77.5,103.88Z"/>
        <path d="M76.82,92.75a7.81,7.81,0,0,1,1.72,2.78c1.09,3.2.75,5.72-1.05,7.64a6.63,6.63,0,0,1-2-4.74,6.91,6.91,0,0,1,.08-1.11,6.38,6.38,0,0,0,.14-.71h0l.13-.85a6.39,6.39,0,0,1,.46-1.42l0-.1,0-.11a4.85,4.85,0,0,1,.25-.86l0,0v0a4.22,4.22,0,0,1,.18-.45m-.19-1.6a5.93,5.93,0,0,0-.94,1.73,5.51,5.51,0,0,0-.31,1.06,8.44,8.44,0,0,0-.53,1.64c-.06.43-.11.76-.15,1l0-.14c-.07.43-.1.65-.1.65a5,5,0,0,1,.07-.51,7.79,7.79,0,0,0-.2,1.86,7.88,7.88,0,0,0,3,6.1c2.4-2,3.47-5,2-9.34a9.92,9.92,0,0,0-2.86-4.06Z"/>
      </g>
      <g>
        <path class="cls-1" d="M33.33,106.72l-1-.28A68.2,68.2,0,0,1,22,102.56a21,21,0,0,1-4.53-2.81,10.73,10.73,0,0,1,2.9-7.84l.06-.07,0-.09a6.73,6.73,0,0,1,.75-1.43c1.44-2,4.34-3.18,7.75-3.18h.44c3,.11,6.68,1.78,8,4.79,1.08,2.51,1.12,5.09,1.16,7.82l0,1a4.94,4.94,0,0,1-2,3.88l-.07,0-.05.08a5.68,5.68,0,0,1-.68.88,4.74,4.74,0,0,1-1.94,1.18Z"/>
        <path d="M29,87.64h.42c2.83.1,6.32,1.67,7.54,4.49,1,2.42,1.08,5,1.12,7.63,0,.35,0,.69,0,1a4.46,4.46,0,0,1-1.81,3.47l-.14.11-.1.15a4.31,4.31,0,0,1-.61.8,4.14,4.14,0,0,1-1.6,1l-.35-.1c-.32-.08-.65-.17-1-.28a67,67,0,0,1-10.25-3.84A20.42,20.42,0,0,1,18,99.5a10.26,10.26,0,0,1,2.78-7.25l.12-.14.07-.17a6.37,6.37,0,0,1,.69-1.32c1.35-1.87,4.1-3,7.35-3m0-1c-2.95,0-6.36.91-8.16,3.39A7.73,7.73,0,0,0,20,91.57,11.23,11.23,0,0,0,17,100a21.32,21.32,0,0,0,4.8,3,67.28,67.28,0,0,0,10.4,3.9c.53.18,1.1.31,1.65.46A5.29,5.29,0,0,0,36.12,106a5.41,5.41,0,0,0,.74-1,5.42,5.42,0,0,0,2.2-4.28c-.07-3.12,0-6.11-1.22-9-1.37-3.16-5.18-5-8.42-5.09Z"/>
      </g>
      <g>
        <path class="cls-1" d="M51.18,108.94c-.73,0-1.45,0-2.18,0-.44,0-.87,0-1.3,0l-.67,0-.08-.08a.9.9,0,0,1-.19-.22,9.11,9.11,0,0,1,.47-9,9.21,9.21,0,0,1,7.82-4.75,8.16,8.16,0,0,1,1.39.12,13.22,13.22,0,0,1,8.07,4.42c2.5,2.59,3.23,5.81,2,8.68-3.45.5-7,.66-9.59.78l-1.71.09C53.9,108.9,52.59,108.94,51.18,108.94Z"/>
        <path d="M55.05,95.25a8.37,8.37,0,0,1,1.31.11,12.61,12.61,0,0,1,7.79,4.28c2.27,2.36,3,5.26,2,7.88-3.32.46-6.73.62-9.25.73l-1.72.09c-1.29.06-2.6.1-4,.1-.73,0-1.45,0-2.19,0-.43,0-.85,0-1.27,0l-.48,0a.08.08,0,0,1,0,0,9.24,9.24,0,0,1,7.85-13.06m0-1c-7,0-12.06,8.34-8.73,14.53.12.24.33.36.49.56.73,0,1.44.07,2.18.07s1.46,0,2.19,0c1.33,0,2.68,0,4-.11,2.82-.15,7.26-.25,11.61-.9,1.58-3.32.55-6.88-2-9.48a13.72,13.72,0,0,0-8.35-4.58,9.2,9.2,0,0,0-1.47-.12Z"/>
      </g>
    </g>
    <g>
      <g>
        <path class="cls-1" d="M146.14,140c-9.74,0-17-1-19.68-2.47l0-.07a.71.71,0,0,1-.07-.18,7.46,7.46,0,0,1,1.88-5.83,7.1,7.1,0,0,1,5.27-2.51,6.36,6.36,0,0,1,2.34.45c4.72,1.89,9.64,4.51,10.27,9.62A6.49,6.49,0,0,1,146.14,140Z"/>
        <path d="M133.5,129.45a5.77,5.77,0,0,1,2.16.42c4.59,1.83,9.36,4.36,10,9.21,0,.14,0,.28,0,.42-9.24-.06-16.17-.92-18.8-2.31a7,7,0,0,1,1.77-5.4,6.58,6.58,0,0,1,4.88-2.34m0-1a8.06,8.06,0,0,0-7.64,8.9,3.42,3.42,0,0,0,.19.53c2.85,1.77,11,2.62,20.57,2.63a11.45,11.45,0,0,0,0-1.55c-.68-5.47-6-8.21-10.59-10a6.69,6.69,0,0,0-2.53-.49Z"/>
      </g>
      <g>
        <path class="cls-1" d="M186.7,134.19a4.59,4.59,0,0,1-2.33-2.71c-.59-1.92-1.16-4.11-.31-5.89a10.77,10.77,0,0,1,6.12-5.44C191.19,124.32,190.18,130.47,186.7,134.19Z"/>
        <path d="M189.81,120.82c.72,3.85-.25,9.32-3.21,12.73a4,4,0,0,1-1.75-2.21c-.57-1.83-1.11-3.92-.34-5.53a10.31,10.31,0,0,1,5.3-5m.72-1.3a11.21,11.21,0,0,0-6.92,5.86c-.94,2-.32,4.32.29,6.25a5.2,5.2,0,0,0,2.91,3.17c3.79-3.79,5.07-10.63,3.72-15.28Z"/>
      </g>
      <g>
        <path class="cls-1" d="M156.13,139.76a9.51,9.51,0,0,1-.65-2.2c-.3-1.83.55-4.87,2-5.82a12,12,0,0,1,2.86-1.35l.1,0,.07-.06a6,6,0,0,1,4-1.39,8.32,8.32,0,0,1,3.56.8c3.77,1.8,5.92,4,7.19,7.48a2.42,2.42,0,0,1,.13.46A154.75,154.75,0,0,1,156.13,139.76Z"/>
        <path d="M164.52,129.4a8,8,0,0,1,3.35.75c3.6,1.72,5.66,3.85,6.89,7.1a159,159,0,0,1-18.3,2,8.91,8.91,0,0,1-.49-1.76c-.27-1.65.5-4.48,1.75-5.32a11.76,11.76,0,0,1,2.75-1.3l.19-.07.15-.13a5.55,5.55,0,0,1,3.71-1.26m0-1a6.49,6.49,0,0,0-4.37,1.51,12.8,12.8,0,0,0-3,1.42c-1.68,1.12-2.49,4.44-2.18,6.31a9.8,9.8,0,0,0,.82,2.63A154.22,154.22,0,0,0,176,138a7,7,0,0,0-.25-1c-1.41-3.82-3.84-6-7.44-7.77a9,9,0,0,0-3.78-.84Z"/>
      </g>
    </g>
    <g id="nails1">
      <g>
        <path class="cls-1" d="M278.13,116.23a7.53,7.53,0,0,1-2.67-3.75A8,8,0,0,1,276,106a11.19,11.19,0,0,1,8.88-5.12,6.51,6.51,0,0,1,2.1.33,9,9,0,0,1,5.4,4.36c.11.23.24.49.38.75.66,1.29,1.49,2.89,1.37,4.15l-.19,2-.07.34v.1c0,.14,0,.28,0,.41v.05l-.3.1q-.44.16-.87.3A48.63,48.63,0,0,1,278.13,116.23Z"/>
        <path d="M284.9,101.39a6.18,6.18,0,0,1,2,.3,8.57,8.57,0,0,1,5.1,4.11c.11.24.25.49.39.76.63,1.23,1.42,2.76,1.31,3.87-.06.66-.12,1.32-.19,2l0,.26v.07l0,.1v.2c-.27.1-.55.2-.87.29a48.21,48.21,0,0,1-14.21,2.4,7.09,7.09,0,0,1-2.37-3.42,7.47,7.47,0,0,1,.52-6,10.64,10.64,0,0,1,8.45-4.87m0-1a11.63,11.63,0,0,0-9.31,5.37,8.47,8.47,0,0,0-.6,6.89,8,8,0,0,0,3,4.09,49.18,49.18,0,0,0,14.85-2.46c.51-.15,1-.36,1.51-.52,0-.28.05-.55,0-.83,0-.08,0-.2.07-.38.07-.67.14-1.35.2-2,.16-1.69-1.12-3.76-1.81-5.17a9.63,9.63,0,0,0-5.68-4.62,7.12,7.12,0,0,0-2.26-.35Z"/>
      </g>
      <g>
        <path class="cls-1" d="M304.38,108.91a14.45,14.45,0,0,1-2.12-2.74A8.78,8.78,0,0,1,301,100a3.28,3.28,0,0,1,.55-1.5l.41-.9.2-.27a7.52,7.52,0,0,1,1.27-1.56,16.16,16.16,0,0,1,6.88-3.52,10.42,10.42,0,0,1,.32,1.11C312.26,100.4,310.26,105.37,304.38,108.91Z"/>
        <path d="M310,92.79a5.79,5.79,0,0,1,.17.63c1.51,6.71-.31,11.45-5.72,14.85a14,14,0,0,1-1.77-2.35,8.41,8.41,0,0,1-1.16-5.89v0a2.75,2.75,0,0,1,.12-.57,4,4,0,0,0,.44-.84h0l.32-.72.19-.28a7.09,7.09,0,0,1,1.18-1.46A16,16,0,0,1,310,92.79m.68-1.16a16.42,16.42,0,0,0-7.54,3.71,9.54,9.54,0,0,0-1.61,2c-.15.33-.26.6-.36.81h0c-.17.37-.25.56-.25.56l.24-.56a3.69,3.69,0,0,0-.64,1.7,9.33,9.33,0,0,0,1.29,6.55,15.11,15.11,0,0,0,2.47,3.12c6.23-3.61,8.55-8.79,6.86-16.34a14,14,0,0,0-.47-1.57Z"/>
      </g>
      <g>
        <path class="cls-1" d="M261.89,115.61c-9.17-1-13.93-3.75-14.55-8.29a7.88,7.88,0,0,1,5.13-2.24c.49,0,1-.06,1.46-.06,3.36,0,5.72,1.18,7.2,3.6A8.92,8.92,0,0,1,261.89,115.61Z"/>
        <path d="M253.93,105.52c3.17,0,5.39,1.1,6.78,3.36a8.34,8.34,0,0,1,.81,6.18c-8.46-1-12.93-3.49-13.64-7.57a7.49,7.49,0,0,1,4.64-1.91q.73-.06,1.41-.06m0-1c-.5,0-1,0-1.5.07a8.35,8.35,0,0,0-5.61,2.55c.65,6.3,8.42,8.27,15.42,9a9.43,9.43,0,0,0-.68-7.79c-1.78-2.9-4.56-3.84-7.63-3.84Z"/>
      </g>
    </g>
  </g>
</svg>
