<svg id="Layer_1" data-name="Layer 1" xmlns="http://www.w3.org/2000/svg" viewBox="0 0 236 107">
  <defs>
    <style>
      .cls-1 {
        fill: #fff;
      }
    </style>
  </defs>
  <g id="teeth1">
    <path class="cls-1" d="M44.55,65.34c.12-.83.24-2.3.41-4.34.78-9.34,2.61-31.22,8.49-41.33,2.21-3.79,3.5-6,4.23-7.29,2,2.23,10.15,12.5,13.22,36l3.46,26.53Z"/>
    <path d="M57.77,13.23c2.53,3,9.78,13.31,12.63,35.18l3.36,25.75L45.1,65c.1-.88.21-2.2.36-3.94.77-9.31,2.59-31.11,8.42-41.12l3.89-6.7m.32-2.6s-.55.88-.55.88l0,0a10.33,10.33,0,0,0,.51-.92Zm-.51.92C57,12.66,55.62,15,53,19.42c-7.39,12.7-8.37,43-9,46.27l31,9.9L71.39,48.28C68,22,58.27,12.22,57.58,11.55Z"/>
  </g>
  <g id="mouth1">
    <path class="cls-1" d="M123.44,97.5l-6.1-.21c-1.9,0-3.93-.21-6.38-.45l-2.2-.2c-1.44-.12-2.92-.25-4.31-.49L103.36,96c-3.78-.61-7.7-1.24-11.45-2.17a134.06,134.06,0,0,1-23.46-7.68L63,83.74,57.85,81c-2.28-1.13-4.45-2.44-6.54-3.72-1.06-.64-2.12-1.28-3.17-1.89A141.19,141.19,0,0,1,31.78,63.29,134.5,134.5,0,0,1,19.47,51.4l-.91-1c-1.36-1.51-2.63-2.93-3.77-4.31l-3.71-4.74a54.16,54.16,0,0,1-3.54-5c-.48-.73-.9-1.38-1.29-1.91l-.36-.55.53.44c.51.42,1.08.92,1.72,1.47,1.25,1.08,2.79,2.42,4.66,3.89l4.59,3.68,5.54,4.15C26.55,50.2,31,53.19,36.58,56.7c5,3.19,10.72,6.1,16.73,9.18l.13.06a170.36,170.36,0,0,0,19.7,8,150.48,150.48,0,0,0,21.77,5.66c3.26.7,6.66,1.14,9.94,1.55l1.45.19c1.18.15,2.35.24,3.47.33q1.08.07,2.16.18l.31,0c1.74.15,3.53.31,5.55.31l6.12.16,5.57-.28,5.76-.27,1.33,0a30.4,30.4,0,0,0,4.44-.4l11.19-1.56c2.33-.37,4.61-.94,6.82-1.49,1.34-.33,2.68-.66,4-.94.65-.16,1.28-.29,1.91-.43,1.13-.24,2.29-.49,3.41-.81l5.07-1.71c1.22-.42,2.45-.81,3.66-1.19A65.31,65.31,0,0,0,183.26,71l9.07-3.85a59.43,59.43,0,0,0,7.49-3.53l.91-.48,7.61-4c1.56-.85,3-1.75,4.38-2.62.76-.48,1.51-.94,2.25-1.39l2.81-1.73a82.74,82.74,0,0,0,8-5.27c3.44-2.48,6.07-4.29,7.64-5.35-1.16,1.49-3.15,4-5.86,7.28-.42.47-.83,1-1.26,1.52a28,28,0,0,1-2.62,3l-5.16,5c-.64.6-1.3,1.24-2,1.89-1.28,1.23-2.59,2.5-4,3.72l-7.21,5.43a91.81,91.81,0,0,1-13.06,8.54c-1.38.8-2.79,1.62-4.21,2.46-2.07,1.14-4.26,2.1-6.58,3.11-1.2.52-2.4,1-3.6,1.6l-5.36,2.31c-1.16.44-2.41.83-3.61,1.2l-2,.64c-1.25.36-2.53.76-3.81,1.16-2.57.8-5.22,1.63-7.92,2.23l-12.36,2.24a37.35,37.35,0,0,1-5.94.65l-13,.76Z"/>
    <path d="M8.3,36.63c1.16,1,2.55,2.19,4.18,3.47l1.71,1.38,2.91,2.33,2.45,1.83L22.64,48c3.62,2.66,8.1,5.66,13.68,9.17,5,3.2,10.73,6.11,16.75,9.19l.17.09a169.14,169.14,0,0,0,19.74,8A148.5,148.5,0,0,0,94.79,80c3.31.72,6.72,1.15,10,1.57l1.41.19c1.2.15,2.37.24,3.51.33l2.15.18.32,0c1.74.15,3.55.31,5.56.31l6.12.16H124l5.54-.28,5.76-.27,1.32,0a30,30,0,0,0,4.49-.41l4.77-.66,6.43-.9c2.35-.37,4.64-.94,6.86-1.49,1.31-.32,2.67-.66,4-.95q.94-.23,1.89-.42c1.13-.25,2.3-.5,3.43-.82h.05L173.08,75l.51-.17c1.21-.42,2.44-.8,3.64-1.18,2.07-.64,4.22-1.31,6.23-2.16l5.9-2.51,3.15-1.33a61.74,61.74,0,0,0,7.54-3.55l.91-.48,7.5-3.92.13-.07c1.57-.85,3-1.76,4.4-2.63l2.25-1.39,2.8-1.72a83.19,83.19,0,0,0,8-5.28c1.9-1.37,3.56-2.55,4.93-3.5-1,1.3-2.31,2.87-3.79,4.67-.44.49-.85,1-1.29,1.55a29.45,29.45,0,0,1-2.58,2.91l-5.14,4.95c-.65.61-1.31,1.24-2,1.9-1.26,1.21-2.56,2.47-4,3.68l-1.3,1L205,70.21h0l0,0a92.27,92.27,0,0,1-13,8.47c-1.39.8-2.79,1.62-4.18,2.44-2.07,1.14-4.26,2.1-6.57,3.1-1.18.52-2.39,1-3.57,1.6l-3.78,1.62-1.56.68c-1.17.44-2.35.81-3.61,1.19-.67.21-1.35.42-2,.64-1.28.37-2.58.77-3.84,1.16-2.55.8-5.2,1.63-7.84,2.21l-6,1.1-6.4,1.16a36.76,36.76,0,0,1-5.84.63l-.34,0-6.41.38-3.21.19-1.61.09-.81,0L124,97h-.56l-6.14-.21c-2,0-4.3-.25-6.32-.44-.72-.08-1.46-.14-2.2-.21-1.43-.12-2.91-.25-4.28-.48l-1.07-.18c-3.79-.6-7.7-1.23-11.45-2.16a134.85,134.85,0,0,1-23.36-7.64l-1.43-.63-4-1.76-5.16-2.7c-2.26-1.12-4.42-2.43-6.5-3.69-1-.64-2.12-1.29-3.15-1.89A139.43,139.43,0,0,1,32.09,62.9,134.25,134.25,0,0,1,19.85,51.08l-.93-1c-1.35-1.5-2.62-2.92-3.73-4.26l-1.94-2.48L11.46,41A49,49,0,0,1,8.3,36.63M4.46,32.08l-.24.2,1.63,2.48c1.13,1.56,2.54,4.09,4.84,6.89L14.4,46.4c1.4,1.7,3,3.45,4.7,5.35A138.68,138.68,0,0,0,31.45,63.67,142.09,142.09,0,0,0,47.89,75.86c3.15,1.82,6.28,3.92,9.73,5.62l5.18,2.71,5.45,2.4a134.63,134.63,0,0,0,23.54,7.7c4.12,1,8.34,1.67,12.58,2.35,2.11.37,4.36.47,6.54.7s4.43.43,6.41.45l6.12.21h.64l.4,0,.8,0,1.61-.09,3.22-.19,6.41-.38a39.53,39.53,0,0,0,6.34-.68l12.38-2.24c4-.9,7.92-2.29,11.78-3.4,1.91-.63,3.83-1.16,5.67-1.86l5.38-2.31c3.5-1.63,7-3,10.23-4.74,6.3-3.75,12.42-6.93,17.32-11l7.23-5.45c2.19-1.88,4.13-3.88,6-5.63L224,55c1.61-1.52,2.72-3.17,3.92-4.52,4.6-5.55,7.09-8.87,7.09-8.87l-.24-.25s-3.47,2.26-9.32,6.48c-2.85,2.25-6.63,4.4-10.75,7-2.09,1.25-4.21,2.68-6.6,4l-7.61,4a67.3,67.3,0,0,1-8.36,4l-9.07,3.85c-3.1,1.31-6.49,2.16-9.81,3.32l-5,1.7c-1.72.48-3.51.81-5.28,1.23-3.57.76-7.11,1.84-10.8,2.42l-11.21,1.57a41.73,41.73,0,0,1-5.71.44l-5.75.27-5.54.28-6.13-.16c-2.11,0-4-.17-5.81-.34s-3.71-.26-5.62-.51c-3.82-.49-7.63-.93-11.36-1.73a150.66,150.66,0,0,1-21.7-5.65A170.54,170.54,0,0,1,53.67,65.5c-6-3.08-11.77-6-16.82-9.22s-9.66-6.23-13.62-9.13L17.7,43c-1.67-1.34-3.21-2.57-4.59-3.69-2.82-2.2-4.88-4.11-6.37-5.34l-2.28-1.9Z"/>
  </g>
</svg>
