<svg id="Layer_1" data-name="Layer 1" xmlns="http://www.w3.org/2000/svg" viewBox="0 0 263 120">
  <defs>
    <style>
      .cls-1 {
        fill: #fff;
      }
    </style>
  </defs>
  <g id="mouth2">
    <path class="cls-1" d="M132.44,115.5c-33.49,0-65.17-11.75-89.2-33.08C19.49,61.34,5.73,33.14,4.44,3c37.25,15.13,81.49,23.13,128,23.13s90.76-8,128-23.13c-1.29,30.18-15,58.38-38.81,79.46C197.62,103.75,165.94,115.5,132.44,115.5Z"/>
    <path d="M5,3.71c37.16,15,81.2,22.88,127.47,22.88s90.32-7.91,127.48-22.88c-1.49,29.76-15.16,57.52-38.61,78.34-23.93,21.25-55.5,33-88.87,33S67.51,103.3,43.58,82.05C20.13,61.23,6.46,33.47,5,3.71M261,2.2c-35.84,14.69-80.33,23.39-128.54,23.39S39.76,16.89,3.91,2.2C6.16,65.4,62.82,116,132.44,116S258.73,65.4,261,2.2Z"/>
  </g>
  <g id="shadow">
    <path class="cls-1" d="M132.44,115.5c-33.46,0-65.12-11.73-89.14-33C21.12,62.8,7.63,36.92,4.87,9c6.29,25,21.29,47.6,42.77,64.35,23.62,18.41,53.73,28.55,84.8,28.55s61.19-10.14,84.81-28.55C238.73,56.62,253.73,34,260,9c-2.76,27.9-16.25,53.78-38.43,73.45C197.57,103.77,165.91,115.5,132.44,115.5Z"/>
    <path d="M258.65,15.66c-4.11,25.21-17.09,48.43-37.39,66.43C197.33,103.31,165.79,115,132.44,115S67.56,103.31,43.63,82.09c-20.3-18-33.28-41.21-37.38-66.42,7.14,22.47,21.41,42.75,41.08,58.09,23.71,18.48,53.93,28.66,85.11,28.66s61.41-10.18,85.12-28.66c19.68-15.34,33.94-35.62,41.09-58.1M261,2.34c-10.53,56.25-64,99.08-128.53,99.08S14.45,58.59,3.92,2.34C6.25,65.47,62.88,116,132.44,116S258.64,65.47,261,2.34Z"/>
  </g>
  <g id="teeth2">
    <g>
      <path class="cls-1" d="M39.15,48.6c-1.32-2-6.67-10.06-8.18-15-2.77-5.77-4.82-13.79-6-23.29a316.45,316.45,0,0,0,31.09,8.1,40,40,0,0,1-2,7.52C48.49,40.42,41,47.13,39.15,48.6Z"/>
      <path d="M25.58,11.05c9.54,3,19.6,5.6,29.92,7.77a38.56,38.56,0,0,1-1.86,6.94c-5.2,13.42-12.07,20.11-14.38,22.1-1.69-2.53-6.42-9.85-7.82-14.39l0-.07,0-.07c-2.64-5.5-4.64-13.18-5.81-22.28M24.4,9.62c1,8.45,2.83,17.36,6.09,24.14C32.26,39.51,39,49.32,39,49.32s9-6.38,15.54-23.19A40.79,40.79,0,0,0,56.65,18,316.84,316.84,0,0,1,24.4,9.62Z"/>
    </g>
    <g>
      <path class="cls-1" d="M129.92,59.34c-1.32-2-6.67-10.07-8.19-15a70.14,70.14,0,0,1-5.32-18.61c5.66.23,10.9.34,16,.34,4.75,0,9.61-.1,14.84-.3a41.29,41.29,0,0,1-2.4,10.89C139.26,51.16,131.73,57.88,129.92,59.34Z"/>
      <path d="M117,26.28c5.42.21,10.48.31,15.43.31,4.58,0,9.26-.09,14.28-.28a40.63,40.63,0,0,1-2.3,10.19C139.21,49.92,132.34,56.62,130,58.6c-1.69-2.53-6.42-9.85-7.82-14.39l0-.07,0-.07A67.69,67.69,0,0,1,117,26.28m-1.19-1.05c1.09,6.9,2.8,13.79,5.44,19.27,1.77,5.74,8.55,15.56,8.55,15.56s9-6.38,15.54-23.2a43.29,43.29,0,0,0,2.48-11.59c-5.08.2-10.21.32-15.39.32-5.59,0-11.13-.14-16.62-.36Z"/>
    </g>
    <g>
      <path class="cls-1" d="M84.54,54.76c-1.33-2-6.67-10.06-8.19-15A69.27,69.27,0,0,1,71,21.2c9.81,1.6,20,2.83,30.39,3.65a40.47,40.47,0,0,1-1.92,7.26C93.88,46.57,86.35,53.3,84.54,54.76Z"/>
      <path d="M71.64,21.8c9.43,1.52,19.24,2.7,29.19,3.5A39.17,39.17,0,0,1,99,31.93C93.82,45.34,87,52,84.64,54c-1.68-2.53-6.41-9.85-7.81-14.39l0-.07,0-.07A67.51,67.51,0,0,1,71.64,21.8m-1.21-1.21c1.08,6.93,2.8,13.83,5.44,19.34,1.77,5.74,8.55,15.56,8.55,15.56s9-6.38,15.54-23.2a39.26,39.26,0,0,0,2-7.9c-10.8-.84-21.35-2.11-31.57-3.8Z"/>
    </g>
    <g>
      <path class="cls-1" d="M225.14,49.41c-1.84-1.43-9.71-8.15-15.57-22.67a37.9,37.9,0,0,1-2.14-8A322.65,322.65,0,0,0,240,10.32c-1.18,9.85-3.35,18.14-6.27,24C232.08,39.33,226.49,47.49,225.14,49.41Z"/>
      <path d="M239.37,11c-1.2,9.46-3.31,17.41-6.13,23.08l0,.06,0,.08c-1.46,4.57-6.43,12-8.15,14.44-2.35-1.92-9.53-8.59-15-22.14a37.07,37.07,0,0,1-2-7.45A317.29,317.29,0,0,0,239.37,11m1.18-1.42a318.59,318.59,0,0,1-33.69,8.7,39.58,39.58,0,0,0,2.25,8.61c6.78,16.82,16.14,23.2,16.14,23.2s7-9.82,8.88-15.57c3.49-7,5.43-16.26,6.42-24.94Z"/>
    </g>
    <g>
      <path class="cls-1" d="M178.45,54c-1.84-1.42-9.71-8.15-15.57-22.67A38.42,38.42,0,0,1,161.09,25c10.6-.78,21.1-2,31.21-3.58A65.8,65.8,0,0,1,187,38.91C185.39,43.9,179.8,52.06,178.45,54Z"/>
      <path d="M191.68,22.06a64.12,64.12,0,0,1-5.13,16.62l0,.07,0,.08c-1.46,4.56-6.43,11.94-8.15,14.43a38.13,38.13,0,0,1-4.61-4.58,63.14,63.14,0,0,1-10.38-17.56,36.59,36.59,0,0,1-1.66-5.62c10.19-.76,20.26-1.92,30-3.44m1.23-1.2c-10.5,1.68-21.33,2.93-32.42,3.72a38.47,38.47,0,0,0,1.93,6.91c6.79,16.83,16.14,23.2,16.14,23.2s7-9.82,8.88-15.56c2.61-5.22,4.34-11.71,5.47-18.27Z"/>
    </g>
  </g>
</svg>
