<svg id="Layer_1" data-name="Layer 1" xmlns="http://www.w3.org/2000/svg" viewBox="0 0 293 134">
  <defs>
    <style>
      .cls-1 {
        fill: #fff;
      }
    </style>
  </defs>
  <g id="mouth3">
    <path class="cls-1" d="M150,128.5C74.29,128.5,12.68,94.63,12.68,53c0-8.14,3.47-11.62,11.61-11.62,6.85,0,16.6,2.54,27.9,5.47C69.6,51.38,91.27,57,114.85,57h0c29.53,0,55-8.79,77.84-26.88,20.14-15.95,39.22-24.37,55.18-24.37,23.6,0,39.45,19,39.45,47.23C287.33,94.63,225.73,128.5,150,128.5Z"/>
    <path d="M247.88,6.27c11.88,0,21.84,4.67,28.81,13.52,6.54,8.31,10.14,20.1,10.14,33.21,0,41.35-61.38,75-136.82,75S13.18,94.35,13.18,53c0-7.79,3.32-11.12,11.11-11.12,6.78,0,16.51,2.53,27.77,5.46C69.5,51.87,91.2,57.52,114.85,57.52c29.65,0,55.22-8.83,78.16-27,20.05-15.87,39-24.26,54.87-24.26h0m0-1c-14.88,0-33.57,7.13-55.49,24.48-25.9,20.5-52.73,26.77-77.54,26.77-39.16,0-73.25-15.64-90.56-15.64C16.57,40.88,12.18,44,12.18,53c0,42,61.71,76,137.83,76S287.83,95,287.83,53c0-26.56-14.31-47.74-39.95-47.73Z"/>
  </g>
  <g id="tongue">
    <path class="cls-1" d="M150,128.5c-26.35,0-52-4.14-74.13-12-.39-9.4,3.11-19.38,9.86-28.16,6.25-8.12,17.57-13.58,28.17-13.58a28.49,28.49,0,0,1,4.67.38c7.24,1.22,13.07,5.62,18.7,9.87a75.81,75.81,0,0,0,10.77,7.22,28.53,28.53,0,0,0,13.21,3.45c5.19,0,10.55-1.56,17.38-5,6.07-3.11,10.54-4.91,15.39-4.91a24.28,24.28,0,0,1,10.5,2.66c3.15,1.48,6.29,3,9.31,4.53,5.48,2.7,11.14,5.5,17,8a37.63,37.63,0,0,1,12,7.68C217.47,121.43,184.52,128.5,150,128.5Z"/>
    <path d="M113.91,75.29h0a27.51,27.51,0,0,1,4.59.38c7.12,1.19,12.64,5.36,18.48,9.77a76,76,0,0,0,10.85,7.26,28.89,28.89,0,0,0,13.43,3.51c5.27,0,10.71-1.58,17.61-5.11,6-3.07,10.41-4.84,15.16-4.84a23.76,23.76,0,0,1,10.29,2.6c3.14,1.48,6.27,3,9.3,4.52,5.48,2.71,11.15,5.51,17,8A38,38,0,0,1,242,108.44C216.78,121.06,184.16,128,150,128c-26.17,0-51.62-4.09-73.64-11.83-.27-9.06,3.27-19,9.77-27.49,6.16-8,17.32-13.39,27.77-13.39m0-1c-10.77,0-22.3,5.64-28.56,13.78-6.9,9-10.44,19.32-10,28.82C96.9,124.54,122.5,129,150,129c36.19,0,69.1-7.7,93.69-20.29-3.3-3.58-8.09-6.36-12.66-8.28-9.09-3.8-17.42-8.3-26.3-12.47A24.74,24.74,0,0,0,194,85.26c-5.08,0-9.78,2-15.62,4.95-6,3.08-11.5,5-17.15,5a27.87,27.87,0,0,1-13-3.4c-10.17-5.22-17.86-15.16-29.61-17.13a28.93,28.93,0,0,0-4.76-.39Z"/>
  </g>
  <g id="teeth3">
    <g>
      <path class="cls-1" d="M71.49,80.34C69.38,78.12,57,64.45,55.31,47.67c9.87,2.55,20.44,5.18,32,7C81.05,71.83,73.2,78.94,71.49,80.34Z"/>
      <path d="M55.89,48.33c9.5,2.46,19.67,5,30.73,6.75A73.42,73.42,0,0,1,76.3,74.46a35.51,35.51,0,0,1-4.76,5.19c-2.75-3-13.79-15.72-15.65-31.32M54.75,47c1.57,19,16.7,34,16.7,34S80.8,74.35,88,54.29c-12.1-1.9-23.32-4.71-33.22-7.28Z"/>
    </g>
    <g>
      <path class="cls-1" d="M133.65,128a237.78,237.78,0,0,1-25.74-3.09A64.82,64.82,0,0,1,112,102.71l6.75-16.85c.66.26,3.54,2.45,9.17,20.25A186.84,186.84,0,0,1,133.65,128Z"/>
      <path d="M119,86.63c1,.94,3.74,4.71,8.46,19.63A191,191,0,0,1,133,127.41a236.13,236.13,0,0,1-24.62-3,63.73,63.73,0,0,1,4-21.54L119,86.63m-.37-1.31a.33.33,0,0,0-.2.05l-6.87,17.16c-3,7.44-4,15.73-4.11,22.75a236.7,236.7,0,0,0,26.85,3.21A181.3,181.3,0,0,0,128.37,106c-6.07-19.18-9-20.64-9.79-20.64Z"/>
    </g>
    <g>
      <path class="cls-1" d="M170.54,83.35c-4.37,0-17.22-17.1-23.89-30.17a119,119,0,0,0,32.18-13.43,142.27,142.27,0,0,1-7.16,42.6c-.3.89-.76,1-1.13,1Z"/>
      <path d="M178.32,40.63a142.16,142.16,0,0,1-7.13,41.57c-.21.65-.48.65-.65.65-3.77,0-16.06-15.64-23.16-29.34a119.35,119.35,0,0,0,30.94-12.88m1-1.77a117.78,117.78,0,0,1-33.41,14c6.47,12.91,19.71,31,24.62,31a1.65,1.65,0,0,0,1.6-1.34,142.47,142.47,0,0,0,7.19-43.65Z"/>
    </g>
    <g>
      <path class="cls-1" d="M226.88,90.91c-.48,0-.86,0-1.1,0L214.93,64.34c-6.58-16.06-6.82-17.54-7.13-19.42-.22-1.34-.47-2.86-2.63-9A55.12,55.12,0,0,1,202.47,23c16.66-11.38,31.94-17.16,45.41-17.16,1.09,0,2.17,0,3.23.12-.6,3.5-1.24,7.13-1.9,10.83-2.84,16-6.07,34.08-6.23,47.79-.28,23.81-11.35,26.38-16.1,26.38Z"/>
      <path d="M247.88,6.29c.89,0,1.77,0,2.64.08-.56,3.32-1.17,6.71-1.81,10.29-2.84,16-6.06,34.11-6.23,47.86-.27,23.37-11,25.89-15.6,25.89l-.75,0L215.39,64.15c-6.55-16-6.79-17.46-7.1-19.32-.22-1.35-.47-2.89-2.65-9.09A54.56,54.56,0,0,1,203,23.2C219.48,12,234.58,6.29,247.88,6.29m0-1c-12.67,0-28.1,5.18-45.94,17.42a56,56,0,0,0,2.75,13.36c5.4,15.36-1.18,1.7,9.78,28.46l11,26.78a9,9,0,0,0,1.45.1c4.24,0,16.31-2.17,16.6-26.88.2-16.94,5-40.09,8.21-59.07-1.24-.11-2.51-.17-3.81-.17Z"/>
    </g>
  </g>
  <g id="shadow">
    <path class="cls-1" d="M150,128.5c-74.65,0-135.57-32.91-137.29-73.73,8.36,38,67,67.15,137.29,67.15,70.67,0,129-29,137.29-67.17C285.59,95.58,224.66,128.5,150,128.5Z"/>
    <path d="M286.15,60.55C279.21,98.37,220.8,128,150,128S20.8,98.38,13.87,60.56C26.58,96,83,122.42,150,122.42c36,0,70.06-7.58,96-21.34,20.79-11,34.65-25.12,40.15-40.53m1.54-11.95c-3,40.5-63.49,72.82-137.68,72.82-73.49,0-133.52-31.71-137.59-71.67A21.53,21.53,0,0,0,12.18,53c0,42,61.71,76,137.83,76S287.83,95,287.83,53c0-1.49-.05-3-.14-4.4Z"/>
  </g>
</svg>
